<?xml version="1.0" encoding="utf-8"?>
<!-- Generator: Adobe Illustrator 16.0.0, SVG Export Plug-In . SVG Version: 6.00 Build 0)  -->
<!DOCTYPE svg PUBLIC "-//W3C//DTD SVG 1.1//EN" "http://www.w3.org/Graphics/SVG/1.1/DTD/svg11.dtd">
<svg version="1.1" id="layer1" xmlns="http://www.w3.org/2000/svg" xmlns:xlink="http://www.w3.org/1999/xlink" x="0px" y="0px"
	 width="2000px" height="2000px" viewBox="0 0 2000 2000" enable-background="new 0 0 2000 2000" xml:space="preserve">
<path fill="#A27143" d="M369.881,909.664c0,0-117.215,368.381,280.478,971.2c0,0,586.072,171.635,824.688-16.747
	c0,0,376.761-736.777,238.614-979.571C1575.517,641.745,411.742,650.117,369.881,909.664z"/>
<path opacity="0.6" fill="#70533A" d="M1445.742,884.546c0,0,129.774,640.487-175.822,891.661c0,0-309.78,200.939-619.562,104.657
	c0,0,552.583,159.076,824.688-16.747c0,0,389.319-757.708,238.614-979.571C1562.958,662.676,1445.742,884.546,1445.742,884.546z"/>
<path fill="#DBC5B2" d="M1604.82,691.979l16.744-138.146l-20.864,1.71l8.306-51.943l-146.518-121.402l-368.39-37.677l-322.34,4.188
	l-171.635,20.931l-150.704,87.912l-50.236,150.704l68.01,71.108c-31.674,36.917-80.772,92.261-97.312,100.528
	c0,0-121.402,108.843,16.744,150.704c138.146,41.862,267.919-58.607,355.831-50.235c0,0,180.007,41.863,213.497,58.607
	c33.49,16.746,150.705,37.677,196.753-33.49c0,0,71.166,25.118,113.029,46.049c41.862,20.931,150.704-25.118,159.076-58.608
	c0,0,33.49-16.744,108.844,16.746c75.351,33.49,209.312,0,200.938-58.607C1726.221,792.449,1604.82,691.979,1604.82,691.979z"/>
<g>
	<path fill="#7F6147" d="M828.273,809.193c-364.056,0-428.484-64.012-435.37-102.562c-4.062-22.763-2.909-39.239,19.852-43.301
		c19.836-3.591,38.961,7.538,46.196,25.566c8.823,8.96,97.976,82.383,606.973,45.06c336.388-24.669,398.854-77.733,430.055-90.12
		c-0.522-9.836,49.4-9.418,58.606-20.93c14.438-18.061,33.213-3.189,51.267,11.266c11.904,9.524,17.234,24.218,15.338,38.297
		c2.518,11.08,4.479,11.904-7.997,29.975c-23.123,33.531-26.704,56.203-487.697,90.004
		C1023.719,799.914,902.538,809.193,828.273,809.193z"/>
</g>
<g>
	<path fill="none" d="M902.93,745.925c-22.076-2.313-83.25-0.015-118.858,1.727c-0.736,17.448-3.368,43.988-11.708,66.423
		l22.42,1.398l113.869-8.078c-2.934-14.896-3.572-28.984-4.013-40.676C904.37,759.646,904.017,750.35,902.93,745.925z"/>
	<path fill="none" d="M1152.656,725.068c-1.798-0.302-3.793-0.768-6.344-1.364c-12.674-2.96-42.369-9.902-56.711,5.167
		c-6.77,7.105-15.075,24.529-9.125,66.342l9.437-0.67l127.059-10.85c-2.698-2.568-5.315-5.045-8.29-7.881
		C1189.695,757.749,1161.487,730.898,1152.656,725.068z"/>
	<path fill="none" d="M624.832,736.614c-22.224-9.24-79.35-11.006-89.448-4.489c-1.587,1.381-4.236,3.442-7.391,5.863
		c-8.609,6.631-23.531,18.25-32.165,30.318l131.505,36.703l28.177,1.757c-8.045-14.267-13.516-29.295-18.087-42.287
		C633.866,754.373,628.486,739.091,624.832,736.614z"/>
	<path fill="#4F4137" d="M1572.752,733.302c2.846-11.374,1.734-21.144-0.638-28.544c-14.603-45.639-90.871-64.73-99.537-66.758
		l-7.621,32.606c21.521,5.045,68.272,22.535,75.256,44.366c0.964,2.983,3.875,12.093-10.761,28.746l12.674,11.146l1.994-0.09
		L1572.752,733.302z"/>
	<path fill="#4F4137" d="M784.072,747.652c35.608-1.742,96.782-4.04,118.858-1.727c1.087,4.425,1.439,13.721,1.709,20.793
		c0.441,11.692,1.08,25.78,4.013,40.676l33.777-2.396c-3.206-13.653-3.858-27.292-4.317-39.548
		c-0.834-21.674-1.864-48.649-27.929-52.368c-30.097-4.317-132.04,1.291-143.559,1.945l-16.059,0.908l0.262,16.091
		c0.4,24.421-3.998,61.583-14.129,79.816l35.665,2.232C780.704,791.64,783.336,765.1,784.072,747.652z"/>
	<path fill="#4F4137" d="M1089.602,728.87c14.342-15.068,44.037-8.127,56.711-5.167c2.551,0.596,4.546,1.063,6.344,1.364
		c8.831,5.831,37.039,32.681,56.025,50.743c2.975,2.836,5.592,5.313,8.29,7.881l44.577-3.802l0.262-0.032
		c-9.601-8.848-20.67-19.378-30.056-28.307c-54.667-52.034-63.988-59.49-73.275-59.49c-0.066,0-0.114,0-0.164,0
		c-0.998-0.147-2.485-0.524-4.384-0.966c-16.678-3.925-61.026-14.284-88.597,14.677c-17.987,18.895-24.104,49.164-18.364,91.81
		l33.506-2.371C1074.526,753.399,1082.832,735.976,1089.602,728.87z"/>
	<path fill="#4F4137" d="M527.993,737.987c3.155-2.421,5.804-4.481,7.391-5.863c10.099-6.517,67.225-4.75,89.448,4.489
		c3.654,2.477,9.034,17.759,12.591,27.865c4.572,12.991,10.042,28.02,18.087,42.287l43.758,2.74
		c-15.518-14.35-23.253-36.237-30.251-56.138c-7.653-21.757-14.267-40.547-31.054-47.537c-24.046-10.04-100.756-19.322-124.09,0.645
		c-1.538,1.317-3.721,2.985-6.304,4.979c-13.065,10.067-34.39,26.558-45.19,47.521l33.45,9.331
		C504.462,756.237,519.383,744.618,527.993,737.987z"/>
	<path fill="#4F4137" d="M1374.429,657.704l-24.821,22.493c13.703,15.151,42.762,54.781,44.053,84.846l33.326-3.738
		C1424.125,723.646,1396.981,682.568,1374.429,657.704z"/>
</g>
<path fill="#F4E5D9" d="M470.349,428.246c0,0-146.517,138.146,83.726,154.892c230.243,16.744,556.769-25.118,623.749-29.305
	c66.981-4.185,489.79-66.979,368.391-129.774C1424.812,361.267,788.504,285.914,470.349,428.246z"/>
<path d="M1742.655,890.122c14.194-21.871,32.722-59.785,14.259-87.91c-45.492-69.334-89.414-86.882-114.418-97.675
	c1.832-3.613,9.927-10.506,12.559-13.939c36.285-47.44-5.575-82.327-5.575-82.327s35.223-39.409,23.711-89.309l0,0
	c-6.867-48.592-92.835-186.475-521.874-216.303c0,0-722.829-19.525-764.692,186.991c0,0-42.811,87.608,15.927,165.52
	c-56.39,56.007-5.812,87.755-5.812,87.755l2.354-0.589c0,0-135.278,54.307-82.246,151.988c12.076,22.257-0.164,33.909,25.118,41.863
	c-95.359,481.016,294.435,951.673,294.435,951.673c456.308,200.941,841.442,8.374,841.442,8.374S1852.283,1201.857,1742.655,890.122
	z M545.703,453.364c0,0,323.73-106.054,588.869-83.725c0,0,409.204-21.152,454.796,159.454
	c-0.458,21.267-11.317,54.771-67.962,76.047c-70.772,17.791-262.474,64.87-291.956,60.332
	c-36.271-5.585-320.943,8.372-396.295,27.905c-75.353,19.535-306.994,2.789-343.272-25.116
	C489.882,668.261,319.645,545.461,545.703,453.364z M431.422,685.365c10.319,8.61,22.282,16.916,36.131,24.757
	c0,0,44.658,69.776,407.463,47.447c339.126-20.874,463.7-17.392,647.173-108.009c16.616-2.934,91.739-21.961,96.579,10.344
	c8.372,55.811-132.57,94.869-154.892,94.869c-22.319,0-616.766,66.979-792.587,41.861c-137.444-19.63-216.68-54.536-250.153-72.874
	C383.887,696.369,412.772,687.882,431.422,685.365z M347.551,824.558c32.214-51.381,62.579-63.881,83.389-66.032
	c83.397,33.596,322.75,98.001,650.601,46.483c0,0,387.914-44.66,432.571-41.864c30.057,1.881,58.706-5.771,81.125-27.554
	c38.544,24.448,140.55,94.371,108.662,130.829c0,0-48.141,77.446-165.356,23.025c-117.214-54.422-123.493-14.653-154.892,20.93
	c0,0-50.233,66.98-123.493,25.118c-73.259-41.864-83.723-73.261-159.076-14.653c-75.352,58.607-152.797,4.188-188.389-12.559
	c-35.582-16.744-140.238-73.258-290.945-14.651C471.044,952.237,296.006,906.777,347.551,824.558z M1448.966,1854.765
	c-86.276,58.737-276.719,62.401-276.719,62.401c-263.741,20.93-520.49-54.438-520.49-54.438
	c-315.759-489.971-288.009-832.212-273.504-915.38c87.387,12.338,240.66-26.999,343.271-50.229c0,0,64.192-16.744,159.079,27.907
	c94.894,44.65,147.907,69.775,281.867-2.789c0,0,30.695-11.161,83.725,33.49c53.031,44.65,161.875,0,189.787-47.447
	c0,0,16.745-30.701,117.215,19.535c50.301,25.15,111.786,18.814,153.305-4.988
	C1720.155,983.209,1771.288,1309.835,1448.966,1854.765z"/>
<path d="M930.82,157.621c0,0,49.711,78.336,68.909,39.499c19.232-38.829,46.785-175.618-46.801-177.392
	C859.334,17.955,916.07,146.1,930.82,157.621z"/>
<path d="M693.807,249.711c0,0,40.333-29.428-4.621-124.878c-44.945-95.448-75.744-29.688-62.809,30.384
	C639.328,215.304,672.205,279.398,693.807,249.711z"/>
<path d="M451.356,327.368c0,0,32.835,6.582,30.652-25.167c-2.183-31.748-103.952-177.351-138.995-144.516
	C307.977,190.522,312.343,239.776,451.356,327.368z"/>
<path d="M341.974,400.349c0,0-150.704-120.003-150.704-50.235c0,0-1.398,29.304,50.235,50.235
	C299.629,423.912,400.582,447.796,341.974,400.349z"/>
<path d="M1243.414,62.661c0,0-100.47,167.451-54.421,175.823c46.049,8.372,129.772-129.774,121.4-154.892
	S1251.785,29.172,1243.414,62.661z"/>
<path d="M1479.936,240.576c0,0,64.888-144.425,110.936-117.215c46.049,27.212,77.445,48.143,2.093,113.03
	C1517.613,301.278,1463.19,309.65,1479.936,240.576z"/>
<path d="M1710.179,399.654c0,0,106.75-29.304,110.936-50.235c4.187-20.931,6.28-43.956-29.303-33.489
	c-35.584,10.464-115.122,56.513-108.843,75.351S1703.899,401.747,1710.179,399.654z"/>
<path opacity="0.5" fill="#DBC5B2" d="M428.488,1010.133c0,0-58.607,393.499,293.035,799.563c0,0-284.663-565.141-200.938-799.563
	H428.488z"/>
</svg>
