<?xml version="1.0" encoding="utf-8"?>
<!-- Generator: Adobe Illustrator 16.0.0, SVG Export Plug-In . SVG Version: 6.00 Build 0)  -->
<!DOCTYPE svg PUBLIC "-//W3C//DTD SVG 1.1//EN" "http://www.w3.org/Graphics/SVG/1.1/DTD/svg11.dtd">
<svg version="1.1" xmlns="http://www.w3.org/2000/svg" xmlns:xlink="http://www.w3.org/1999/xlink" x="0px" y="0px" width="431px"
	 height="396px" viewBox="0 0 431 396" enable-background="new 0 0 431 396" xml:space="preserve">
<g id="Layer_2">
</g>
<g id="Layer_1">
	<g>
		<g>
			<defs>
				<path id="XMLID_6_" d="M204.742,43.11l0.775-6.462c0,0,46.208-34.042,63.062-21.534l0.194,2.266l35.432,83.069l20.724,54.746
					l3.23,28.344l-4.043,19.251l-19.044,23.797c0,0,11.546,83.442,37.824,109.871c0,0,49.363,2.018,41.966,18.207
					c0,0-19.386,16.315-44.474,20.467c0,0-60.052,17.112-62.938-3.748c0,0,5.492-15.677,31.403-25.222c0,0,5.368-9.03-1.35-38.71
					l-16.669-73.648c0,0-20.701-3.041-35.247-21.226c0,0-30.566-31.156-34.533-75.531l-7.319-47.435L204.742,43.11z"/>
			</defs>
			<clipPath id="XMLID_8_">
				<use xlink:href="#XMLID_6_"  overflow="visible" opacity="0.2"/>
			</clipPath>
		</g>
		<g>
			<defs>
				<path id="XMLID_5_" d="M204.742,43.11l0.775-6.462c0,0,46.208-34.042,63.062-21.534l0.194,2.266l35.432,83.069l20.724,54.746
					l3.23,28.344l-4.043,19.251l-19.044,23.797c0,0,11.546,83.442,37.824,109.871c0,0,49.363,2.018,41.966,18.207
					c0,0-19.386,16.315-44.474,20.467c0,0-60.052,17.112-62.938-3.748c0,0,5.492-15.677,31.403-25.222c0,0,5.368-9.03-1.35-38.71
					l-16.669-73.648c0,0-20.701-3.041-35.247-21.226c0,0-30.566-31.156-34.533-75.531l-7.319-47.435L204.742,43.11z"/>
			</defs>
			<use xlink:href="#XMLID_5_"  overflow="visible" fill="#FFFFFF"/>
			<clipPath id="XMLID_9_">
				<use xlink:href="#XMLID_5_"  overflow="visible"/>
			</clipPath>
		</g>
		<g>
			<defs>
				<path id="XMLID_4_" d="M286.427,74.446c0,0-54.374-0.26-67.74,10.233c0,0-4.898,3.863-3.94,8.575
					c0,0,14.537,81.732,22.456,93.434c0,0,26.979,57.386,69.082,31.476c0,0,27.978-13.416,16.517-74.3L293.14,74.247L286.427,74.446
					z"/>
			</defs>
			<use xlink:href="#XMLID_4_"  overflow="visible" fill="#FCE7B5"/>
			<clipPath id="XMLID_10_">
				<use xlink:href="#XMLID_4_"  overflow="visible"/>
			</clipPath>
		</g>
		<radialGradient id="SVGID_1_" cx="231.543" cy="165.9004" r="84.8209" gradientUnits="userSpaceOnUse">
			<stop  offset="0.6889" style="stop-color:#ECC693"/>
			<stop  offset="0.9355" style="stop-color:#ECC693"/>
		</radialGradient>
		<path fill="url(#SVGID_1_)" d="M322.801,143.864l-29.309-68.789c-12.23,6.687-40.797,19.396-78.805,17.727
			c0.019,0.151,0.027,0.3,0.059,0.453c0,0,14.537,81.732,22.456,93.434c0,0,26.979,57.386,69.082,31.476
			C306.284,218.165,334.262,204.749,322.801,143.864z"/>
		<path fill="#FFFFFF" d="M308.189,359.688c0,0,19.35,6.181,43.674-5.222C351.863,354.467,326.716,371.262,308.189,359.688z"/>
		<path fill-rule="evenodd" clip-rule="evenodd" fill="#EEC997" d="M217.336,109.292c0,0,9.345-5.986,24.109-6.98
			c14.762-0.994,9.526-7.232,26.777-8.472c17.252-1.24,21.254-3.476,25.765,8.514c4.513,11.989,3.961,32.152,16.865,49.762
			c12.903,17.61,17.936,57.946-3.043,66.613c-20.978,8.668-33.561,7.298-53.751-10.821
			C233.867,189.788,215.531,138.175,217.336,109.292z"/>
		<g>
			<path fill-rule="evenodd" clip-rule="evenodd" fill="#F0CE9C" d="M217.533,110.326c0,0,15.927-6.435,23.407-6.3
				c7.479,0.133,9.281-0.256,21.127-1.946c11.848-1.689,21.343-6.379,26.055,0.848c4.711,7.227-0.203,5.66,5.116,22.408
				c5.32,16.749,11.986,39.522,17.247,50.14c5.26,10.619,15.913,18.84,6.5,32.112c-9.414,13.271-53.663,24.438-68.083-0.166
				C234.48,182.819,222.78,146.218,217.533,110.326z"/>
			<path fill-rule="evenodd" clip-rule="evenodd" fill="#F2D3A1" d="M216.63,112.263c0,0,18.387-4.167,31.021-4.447
				c12.633-0.28,11.063-1.313,15.167-3.606c4.104-2.293,15.499-3.499,20.45,1.747c4.95,5.245-0.303,9.503,5.256,24.269
				c10.02,26.616,15.491,17.559,12.942,45.978c-1.397,15.571,7.216,26.165-9.249,30.435c-16.463,4.268-28.499,12.844-30.587,10.313
				C259.542,214.418,228.737,137.543,216.63,112.263z"/>
			<path fill-rule="evenodd" clip-rule="evenodd" fill="#F7DEAC" d="M218.959,121.557c0,0,30.819-14.134,37.023-12.669
				s20.968-3.197,24.725,11.959c3.757,15.156,2.205,24.807,13.728,43.019c11.524,18.212,2.793,40.07-16.497,45.303
				s-26.436,0.499-31.17-9.18C242.032,190.309,217.884,143.727,218.959,121.557z"/>
			<path fill-rule="evenodd" clip-rule="evenodd" fill="#FCE7B5" d="M221.351,131.611c0,0,0.83-8.461,6.736-11.145
				c5.905-2.685,20.997-12.056,29.288-8.061c8.292,3.995,18.195,0.705,18.826,12.678c0.631,11.973,12.117,24.527,16.661,41.093
				c4.544,16.565,6.446,38.508-19.835,40.868c0,0-10.477-1.701-17.444-2.122C248.616,204.501,231.451,189.442,221.351,131.611z"/>
		</g>
		<g>
			<path opacity="0.2" fill="#020202" d="M202.71,40.713l16.322-2.116c0,0,16.146,140.072,45.27,164.725
				c29.124,24.654,51.386,5.637,59.103-6.713c0,0-4.669,16.494-11.599,21.097c0,0-29.6,8.502-25.193,11.153
				c4.405,2.656,10.729,3.508,9.435,6.424c-1.295,2.916,22.701,92.416,16.737,103.2c-2.474,4.472-4.437-55.334-23.197-102.318
				c-2.093-5.239-18.927-6.208-21.104-11.117c-3.571-8.052-11.9-14.607-19.628-22.826c-8.473-9.012-16.88-27.977-16.879-27.977
				l-9.589-31.693L202.71,40.713z"/>
			<path opacity="0.2" fill="#020202" d="M311.913,342.807c0,0-4.104,13.257-6.611,14.656c-2.506,1.402-16.722,4.409-1.375,7.349
				c15.344,2.937,40.861,3.477,61.98-7.775c0,0-21.193,18.968-56.848,16.962c-35.651-2.001-19.271-8.903-24.004-9.605
				c-6.035-0.897-6.693,7.488-6.146,6.42l3.672-7.78l13.248-10.456L311.913,342.807z"/>
			<path opacity="0.2" fill="#020202" d="M339.924,337.022c0,0,9.729,6.619,0.578,7.898c-9.153,1.277-22.029,0.797-21.415,4.841
				c0.614,4.041,1.413,7.432,15.074,6.375c13.661-1.056,15.738-7.147,19.363-7.528c3.622-0.382,6.829-0.529,6.129-1.784
				c-0.699-1.25-5.28-10.096-8.271-9.635C349.887,337.419,339.924,337.022,339.924,337.022z"/>
			<path fill="#FFFFFF" d="M268.579,15.114c0,0-10.43,10.761-17.027,11.707c0,0,42.098,99.49,46.755,113.103
				c3.464,10.123,7.542,24.288,10.454,36.365c5.565,23.09,18.816,6.196,16.548,19.805l3.292-21.575l-5.648-29.731L268.579,15.114z"
				/>
			<path fill="#FFFFFF" d="M306.104,230.395c0,0-5.958-3.797-4.729,4.287c1.229,8.084,18.069,90.213,34.544,99.094l6.978,2.682
				C342.896,336.457,313.832,291.308,306.104,230.395z"/>
			<path fill="#FFFFFF" d="M279.438,368.076c0,0,3.233-8.93,5.617-3.684c2.383,5.245,13.131,10.748,33.857,9.583
				c20.727-1.167,60.385-14.556,64.781-21.398c4.399-6.844,1.168,2.087,1.168,2.087s-16.225,12.061-34.719,18.304
				C322.71,382.231,264.258,389.69,279.438,368.076z"/>
			<path fill-rule="evenodd" clip-rule="evenodd" d="M201.106,38.564c0,0,12.812,59.713,13.874,75.838
				c1.063,16.125,14.966,105.916,73.347,120.799c3.932,10.961,11.046,44.622,18.688,77.261c3.559,15.207,2.68,25.589,0.728,32.348
				c-29.802,13.553-31.501,28.333-31.501,28.333c4.921,23.194,76.251-0.218,76.251-0.218c42.689-15.815,36.261-22.088,30.233-28.953
				c-5.097-5.802-30.412-7.613-38.126-8.035c-5.395-7.269-12.724-19.367-18.203-36.854c0,0-23.671-62.964-19.188-72.595
				c0,0,27.841-18.846,23.148-55.691c0,0,2.037-11.103-33.599-92.498c-25.633-58.548-27.808-65.555-27.786-66.213
				C266.717,11.978,220.695,10.154,201.106,38.564z M308.072,111.623c0,0,42.701,77.727-2.821,112.666c0,0-4.34-1.231-0.591,12.021
				c0,0,19.212,101.088,47.238,108.083c0,0-2.151-1.931-5.354-5.932c7.547,0.822,22.925-0.688,34.887,8.426
				c12.727,9.697-28.79,23.032-28.79,23.032c-54.025,17.761-70.347,7.514-70.347,7.514c-11.455-10.103,15.322-24.954,24.396-29.548
				c-2.172,5.471-4.839,7.657-4.839,7.657c15.645-4.632,10.551-33.946,4.122-62.6c-6.714-29.927-15.14-59.141-15.14-59.141
				s-17.14-3.207-38.58-28.5c0,0-22.714-24.952-27.136-59.024c0,0-10.716-74.764-13.278-83.929
				c-1.905-6.815-4.399-16.123-5.554-20.452c2.8-0.111,6.191-0.928,6.191-0.928c41.008-12.781,53.12-19.932,56.295-23.59
				C275.44,33.563,302.774,99.849,308.072,111.623z M211.397,39.868c-3.768,0.576-5.288,0.247-5.598-0.48
				c2.514-1.727,38.08-25.877,61.505-25.576C268.99,21.768,223.435,38.027,211.397,39.868z"/>
		</g>
	</g>
	<g>
		<defs>
			<path id="XMLID_2_" d="M145.106,24.084l3.828-5.263c0,0,56.942-7.178,65.554,11.962l-0.936,2.074l-9.59,89.799l-8.613,57.899
				l-11.006,26.319l-12.92,14.833l-28.232,11.484c0,0-30.624,78.475-20.576,114.363c0,0,42.108,25.84,27.753,36.365
				c0,0-24.882,4.785-48.808-3.828c0,0-60.77-14.354-53.114-33.973c0,0,12.441-11.006,39.715-6.699c0,0,9.092-5.264,17.705-34.451
				l21.373-72.422c0,0-16.588-12.753-20.416-35.723c0,0-11.484-42.107,6.699-82.78l16.748-44.98L145.106,24.084z"/>
		</defs>
		<clipPath id="XMLID_11_">
			<use xlink:href="#XMLID_2_"  overflow="visible" opacity="0.2"/>
		</clipPath>
	</g>
	<g>
		<defs>
			<path id="XMLID_3_" d="M145.106,24.084l3.828-5.263c0,0,56.942-7.178,65.554,11.962l-0.936,2.074l-9.59,89.799l-8.613,57.899
				l-11.006,26.319l-12.92,14.833l-28.232,11.484c0,0-30.624,78.475-20.576,114.363c0,0,42.108,25.84,27.753,36.365
				c0,0-24.882,4.785-48.808-3.828c0,0-60.77-14.354-53.114-33.973c0,0,12.441-11.006,39.715-6.699c0,0,9.092-5.264,17.705-34.451
				l21.373-72.422c0,0-16.588-12.753-20.416-35.723c0,0-11.484-42.107,6.699-82.78l16.748-44.98L145.106,24.084z"/>
		</defs>
		<use xlink:href="#XMLID_3_"  overflow="visible" fill="#FFFFFF"/>
		<clipPath id="XMLID_12_">
			<use xlink:href="#XMLID_3_"  overflow="visible"/>
		</clipPath>
	</g>
	<g>
		<defs>
			<path id="XMLID_1_" d="M134.101,79.112c0,0,54.071-5.742,68.427,3.35c0,0,5.264,3.349,4.785,8.134c0,0-6.221,82.781-12.92,95.223
				c0,0-21.054,59.814-65.555,38.281c0,0-29.189-10.526-23.925-72.256l22.49-72.254L134.101,79.112z"/>
		</defs>
		<use xlink:href="#XMLID_1_"  overflow="visible" fill="#FCE7B5"/>
		<clipPath id="XMLID_13_">
			<use xlink:href="#XMLID_1_"  overflow="visible"/>
		</clipPath>
	</g>
	<radialGradient id="SVGID_2_" cx="119.9463" cy="170.3765" r="80.3224" gradientUnits="userSpaceOnUse">
		<stop  offset="0.6889" style="stop-color:#ECC693"/>
		<stop  offset="0.9355" style="stop-color:#ECC693"/>
	</radialGradient>
	<path fill="url(#SVGID_2_)" d="M207.326,90.132c-37.655,5.493-67.354-4.266-80.191-9.684l-21.801,70.04l-1.03,13.013
		c-0.893,51.421,24.533,60.599,24.533,60.599c44.501,21.533,65.555-38.281,65.555-38.281c6.699-12.441,12.92-95.223,12.92-95.223
		C207.328,90.438,207.322,90.287,207.326,90.132z"/>
	<path fill="#FFFFFF" d="M80.986,350.904c0,0,13.877,14.834,40.673,16.746C121.659,367.65,91.514,370.045,80.986,350.904z"/>
	<path fill-rule="evenodd" clip-rule="evenodd" fill="#EEC997" d="M123.816,88.001c0,0,11.079-0.667,24.451,5.667
		s11.844-1.666,27.508,5.667c15.665,7.333,20.249,7.333,18.339,20c-1.91,12.667-12.225,30-9.551,51.667
		c2.674,21.667-12.609,59.334-35.15,56.667c-22.542-2.667-32.856-10-41.645-35.667C98.981,166.334,108.151,112.334,123.816,88.001z"
		/>
	<g>
		<path fill-rule="evenodd" clip-rule="evenodd" fill="#F0CE9C" d="M123.485,89c0,0,17.042,2.152,23.506,5.918
			c6.464,3.766,8.227,4.304,19.392,8.607c11.166,4.304,21.743,4.842,22.331,13.449c0.588,8.607-2.938,4.842-6.464,22.057
			s-8.815,40.348-9.402,52.183c-0.588,11.835,4.701,24.209-9.99,31.203c-14.691,6.994-58.765-4.842-59.352-33.354
			C102.917,160.551,110.557,122.893,123.485,89z"/>
		<path fill-rule="evenodd" clip-rule="evenodd" fill="#F2D3A1" d="M121.75,90.25c0,0,18.084,5.332,29.25,11.25
			c11.165,5.917,10.299,4.25,15,4.25s15.237,4.506,17,11.5c1.763,6.994-4.899,8.148-7.25,23.75
			c-4.237,28.122,4.958,22.884-11.13,46.449c-8.815,12.912-6.464,26.361-22.918,22.057c-16.454-4.304-31.145-2.69-31.733-5.917
			C109.381,200.361,119.987,118.225,121.75,90.25z"/>
		<path fill-rule="evenodd" clip-rule="evenodd" fill="#F7DEAC" d="M119.25,99.5c0,0,33.799,2.696,38.5,7
			c4.701,4.304,19.864,7.437,15.75,22.5c-4.113,15.063-10.175,22.731-9,44.25s-17.108,36.342-36.5,31.5
			c-19.393-4.842-23.32-12.459-22.732-23.218C105.855,170.772,107.497,118.329,119.25,99.5z"/>
		<path fill-rule="evenodd" clip-rule="evenodd" fill="#FCE7B5" d="M116.433,109.443c0,0,4.853-6.981,11.317-6.443
			c6.464,0.538,24.211-0.282,29.5,7.25c5.289,7.532,15.539,9.491,10.25,20.25c-5.289,10.76-1.387,27.322-5.5,44
			c-4.114,16.677-13.157,36.76-37.25,26c0,0-8.317-6.595-14.193-10.361C104.68,186.374,97.041,164.854,116.433,109.443z"/>
	</g>
	<g>
		<path opacity="0.2" fill="#020202" d="M144.5,21l15.281,6.115c0,0-54.231,130.153-40.833,165.881
			c13.398,35.729,42.108,29.986,54.868,22.97c0,0-12.121,12.121-20.415,12.759c0,0-29.987-7.017-27.435-2.553
			c2.552,4.467,7.657,8.295,5.104,10.209c-2.552,1.914-25.263,91.749-35.729,98.254C91,337.333,118.458,284.167,125,234
			c0.729-5.594-13.494-14.652-13-20c0.811-8.771-3.264-18.556-6-29.5c-3-12-1.088-32.656-1.088-32.656L112,119.5L144.5,21z"/>
		<path opacity="0.2" fill="#020202" d="M92.471,337.984c0,0-10.049,9.57-12.919,9.57c-2.871,0-16.748-4.309-4.785,5.742
			c11.962,10.049,33.974,22.967,57.899,23.447c0,0-27.753,6.219-57.899-12.922c-30.146-19.139-12.48-17.173-16.27-20.096
			C53.667,340,49,347,50,346.333l7-5l16.667-2.666L92.471,337.984z"/>
		<path opacity="0.2" fill="#020202" d="M119.745,346.598c0,0,5.264,10.525-3.349,7.178c-8.613-3.35-19.619-10.049-21.055-6.221
			c-1.435,3.828-2.392,7.178,10.049,12.918c12.441,5.742,17.226,1.438,20.576,2.873c3.349,1.434,6.22,2.869,6.22,1.434
			c0-1.434,0.316-11.39-2.52-12.446C128.249,351.805,119.745,346.598,119.745,346.598z"/>
		<path fill="#FFFFFF" d="M214.488,30.783c0,0-14.354,4.307-20.575,1.914c0,0-11.781,107.385-14.355,121.541
			c-1.914,10.526-5.263,24.882-8.612,36.845c-6.404,22.872,13.404,14.588,4.784,25.361l13.398-17.228l9.571-28.71L214.488,30.783z"
			/>
		<path fill="#FFFFFF" d="M142.235,237.02c0,0-3.35-6.221-6.22,1.436c-2.871,7.656-28.232,87.566-18.183,103.355l4.785,5.744
			C122.616,347.555,119.267,293.963,142.235,237.02z"/>
		<path fill="#FFFFFF" d="M51.797,344.203c0,0,7.178-6.219,6.699-0.477s6.221,15.789,24.882,24.881
			c18.662,9.092,59.813,16.75,66.991,12.92c7.177-3.828,0,2.393,0,2.393s-20.047,2.613-39.237-0.957
			C82.667,377.667,28,355.667,51.797,344.203z"/>
		<path fill-rule="evenodd" clip-rule="evenodd" d="M144.149,18.342c0,0-17.944,58.377-24.882,72.972
			c-6.938,14.595-38.6,99.76,5.104,141.231c-1.914,11.484-12.123,44.34-21.373,76.561c-4.311,15.01-10.142,23.645-15.144,28.592
			c-32.627-2.705-41.32,9.369-41.32,9.369c-7.018,22.648,66.671,37.004,66.671,37.004c44.98,7.018,42.429-1.594,40.515-10.527
			c-1.618-7.551-22.834-21.48-29.362-25.611c-1.165-8.977-1.661-23.113,2.087-41.051c0,0,10.049-66.512,18.662-72.732
			c0,0,33.495-2.871,47.373-37.325c0,0,7.194-8.698,15.79-97.136c6.183-63.614,7.701-70.792,8.042-71.355
			C214.393,27.138,175.107,3.096,144.149,18.342z M201.888,134.296c0,0-0.638,88.682-57.42,96.977c0,0-3.189-3.191-6.379,10.207
			c0,0-32.539,97.615-11.484,117.393c0,0-0.937-2.734-1.781-7.789c6.186,4.4,20.349,10.582,26.344,24.373
			c6.379,14.674-36.367,6.063-36.367,6.063c-55.826-10.848-65.077-27.754-65.077-27.754c-5.069-14.408,25.549-14.311,35.711-13.895
			c-4.564,3.715-7.958,4.324-7.958,4.324c15.915,3.588,25.769-24.488,34.133-52.637c8.737-29.398,15.631-59.012,15.631-59.012
			s-13.397-11.161-19.777-43.699c0,0-7.656-32.861,5.104-64.762c0,0,27.116-70.493,29.349-79.744
			c1.66-6.879,4.023-16.22,5.128-20.563c2.498,1.269,5.857,2.21,5.857,2.21c42.033,8.845,56.095,8.512,60.651,6.867
			C211.479,50.236,203.007,121.434,201.888,134.296z M152.496,24.5c-3.57-1.335-4.736-2.364-4.652-3.149
			c3.036-0.281,45.865-4.015,66.167,7.674C211.602,36.792,163.903,28.764,152.496,24.5z"/>
	</g>
</g>
</svg>
