<?xml version="1.0" encoding="utf-8"?>
<!-- Generator: Adobe Illustrator 18.0.0, SVG Export Plug-In . SVG Version: 6.00 Build 0)  -->
<!DOCTYPE svg PUBLIC "-//W3C//DTD SVG 1.1//EN" "http://www.w3.org/Graphics/SVG/1.1/DTD/svg11.dtd">
<svg version="1.1" id="Ebene_1" xmlns="http://www.w3.org/2000/svg" xmlns:xlink="http://www.w3.org/1999/xlink" x="0px" y="0px"
	 viewBox="0 0 100 27.6" enable-background="new 0 0 100 27.6" xml:space="preserve">
<g>
	<path fill="#FF46AF" d="M33.7,9.7l-0.2-1.4c-0.1-0.6,0.1-1.1,0.4-1.5c0.3-0.4,0.7-0.6,1.1-0.6L35.6,7c1.3,0.9,4.2,2.8,8.7,5.7
		c4.6,2.9,6.9,4.4,7.2,4.4c1.6-0.2,3.7-1.5,6.3-3.9c1.1-1,2.2-2,3.2-3c2.6-2.4,4.7-3.7,6.4-3.9l1,1.6l0,0.4
		c-0.2,1.1-0.7,1.8-1.3,2.3c-0.6,0.4-1.2,0.8-1.7,1c-0.6,0.2-1.1,0.5-1.6,0.8c-0.5,0.3-2.4,1.8-5.7,4.6c-3.3,2.8-5.4,4.3-6.3,4.4
		l-18-11.6L33.7,9.7z"/>
</g>
</svg>
