<?xml version="1.0" encoding="utf-8"?>
<!-- Generator: Adobe Illustrator 16.0.0, SVG Export Plug-In . SVG Version: 6.00 Build 0)  -->
<!DOCTYPE svg PUBLIC "-//W3C//DTD SVG 1.1//EN" "http://www.w3.org/Graphics/SVG/1.1/DTD/svg11.dtd">
<svg version="1.1" id="Ebene_1" xmlns="http://www.w3.org/2000/svg" xmlns:xlink="http://www.w3.org/1999/xlink" x="0px" y="0px"
	 width="2000px" height="2000px" viewBox="0 0 2000 2000" enable-background="new 0 0 2000 2000" xml:space="preserve">
<g>
	<circle fill="#FF46AF" cx="1000" cy="1000" r="800"/>
</g>
<g enable-background="new    ">
	<path fill="#FFFFFF" d="M657.206,718.399l-3.589-213.322V502c0-18.801,2.904-30.768,8.717-35.896
		c2.904-2.563,6.578-3.846,11.025-3.846c24.955,0,44.44,8.036,58.459,24.103c14.014,16.067,21.023,36.753,21.023,62.048
		c0,15.896-4.189,32.395-12.563,49.483c-8.377,17.096-18.376,29.831-29.999,38.204c21.364,14.357,36.62,32.606,45.767,54.74
		c9.143,22.139,13.717,45.343,13.717,69.612c0,12.818-3.205,25.983-9.615,39.484c-6.409,13.505-12.819,24.273-19.229,32.307
		c-6.41,8.036-14.831,14.786-25.255,20.256c-10.428,5.468-21.882,8.204-34.357,8.204h-2.051c-16.41,0-24.614-4.358-24.614-13.076
		L657.206,718.399z M689.512,492.001c-4.96,0-7.436,6.281-7.436,18.845c0,12.564,0.34,32.308,1.025,59.229
		c0.681,26.922,1.025,46.452,1.025,58.587c9.059-2.052,16.834-9.571,23.332-22.563c5.296-10.937,9.655-21.492,13.076-31.665
		c3.417-10.168,5.641-16.448,6.667-18.845V536.87c0-10.256-3.806-20.295-11.41-30.126
		C708.186,496.916,699.423,492.001,689.512,492.001z M727.715,809.165c9.912-13.333,14.871-28.717,14.871-46.152
		c0-17.435-1.454-32.773-4.359-46.022c-2.907-13.244-6.112-23.243-9.614-29.998c-3.505-6.751-7.564-12.521-12.18-17.308
		c-5.641-5.81-10.256-9.313-13.846-10.513H683.87c1.707,48.375,2.563,106.405,2.563,174.094
		C704.038,830.534,717.799,822.497,727.715,809.165z"/>
	<path fill="#FFFFFF" d="M804.903,591.227l-2.82-44.355c0-24.782,7.347-37.178,22.05-37.178c9.399,0,22.219,2.18,38.46,6.537
		c16.237,4.358,24.358,9.959,24.358,16.795c0,7.179-5.128,12.65-15.384,16.408c-16.241-5.468-29.485-8.802-39.741-9.999
		c0.513,7.523,0.769,15.043,0.769,22.563l-2.308,75.381c0,0.345,0.513,3.077,1.539,8.205l18.717-0.771
		c16.922,0,25.383,4.788,25.383,14.358c0,3.762-1.538,7.051-4.615,9.871c-3.076,2.82-6.967,4.229-11.666,4.229
		c-4.703,0-9.787-0.34-15.255-1.024h-13.333c1.026,13.333,1.539,26.581,1.539,39.742l-2.308,95.123
		c0,19.657,0.34,29.485,1.024,29.485l38.717-1.282c13.333,0,19.999,4.274,19.999,12.819c0,5.301-2.309,9.144-6.923,11.538
		c-4.615,2.393-9.831,3.59-15.641,3.59h-44.356c-4.615,0-8.807-1.583-12.563-4.743c-3.762-3.16-5.729-6.963-5.896-11.409v-13.847
		l-3.333-88.713L804.903,591.227z"/>
	<path fill="#FFFFFF" d="M1032.854,749.681l5.641,32.307c0,4.273,1.667,14.703,5,31.28c3.333,16.582,4.999,27.435,4.999,32.563
		v0.514c0,7.691-2.908,12.647-8.717,14.87c-7.353,0-13.076-1.197-17.18-3.589c-4.103-2.392-6.152-7.007-6.152-13.846
		c0-14.871-2.564-36.492-7.692-64.868l-51.792-7.692c-3.249,11.626-5.729,24.357-7.437,38.203
		c-1.711,13.846-3.332,23.935-4.871,30.255c-3.077,12.992-8.807,19.486-17.18,19.486c-4.103,0-7.908-1.326-11.41-3.974
		c-3.505-2.648-5.256-6.025-5.256-10.128l1.282-4.615c23.588-91.105,41.107-179.819,52.563-266.142
		c0.34-2.392,0.853-9.397,1.538-21.023c1.707-25.641,4.955-41.962,9.742-48.973h17.691c4.784,0,8.974,1.113,12.564,3.332
		c3.59,2.225,5.385,5.558,5.385,10c0,26.665,3.545,66.238,10.64,118.713C1029.303,688.83,1032.854,726.604,1032.854,749.681z
		 M1005.418,760.192c-1.025-5.128-1.539-14.059-1.539-26.793c0-12.732-0.729-28.545-2.179-47.435
		c-1.454-18.886-3.549-40.852-6.282-65.895c-2.736-25.039-4.615-43.203-5.641-54.484c-15.897,88.032-26.153,150.081-30.769,186.146
		C964.991,755.666,980.459,758.486,1005.418,760.192z"/>
	<path fill="#FFFFFF" d="M1071.838,729.425l-0.257-30.768v-12.563c0-51.62,2.563-87.516,7.692-107.687
		c6.151-24.955,14.697-42.218,25.639-51.793c14.871-13.332,33.673-19.999,56.408-19.999c5.469,0,9.525,1.282,12.179,3.846
		c2.647,2.564,3.974,5.643,3.974,9.23c0,3.59-1.068,6.795-3.205,9.614c-2.139,2.82-4.83,4.318-8.075,4.487h-24.613
		c-7.181,0-13.422,4.615-18.718,13.845c-5.129,9.23-8.891,20.513-11.281,33.846c-4.447,25.3-6.583,46.239-6.41,62.816v2.564
		l-2.308,101.275c0,21.369,1.153,36.152,3.461,44.357c2.309,8.204,4.698,14.831,7.18,19.87c2.476,5.044,5.424,9.189,8.846,12.436
		c7.86,7.523,17.947,11.281,30.255,11.281c4.104,0,7.86-1.538,11.282-4.614c4.103,0,7.775,0.941,11.024,2.82
		c3.245,1.883,4.872,4.787,4.872,8.717c0,13.847-9.66,20.77-28.975,20.77c-7.863,0-16.111-1.153-24.741-3.461
		c-8.635-2.309-15.088-4.828-19.358-7.564C1083.459,837.713,1071.838,796.602,1071.838,729.425z"/>
	<path fill="#FFFFFF" d="M1238.765,540.203l-2.052,131.02c6.322,1.711,15.896,2.564,28.717,2.564h18.975
		c0.853-1.539,1.281-7.18,1.281-16.923s-1.153-31.152-3.462-64.229c-2.308-33.075-3.462-57.984-3.462-74.739
		c0-3.931,1.539-7.22,4.615-9.871c3.078-2.647,5.982-3.975,8.719-3.975c2.731,0,4.955,0.256,6.666,0.77
		c1.707,0.513,3.59,1.198,5.642,2.052c2.051,0.857,3.674,1.454,4.87,1.795c0,45.47,1.668,111.917,5,199.349
		c3.334,87.433,5,132.603,5,135.507c0,2.908-1.839,5.77-5.513,8.59c-3.678,2.819-7.78,4.229-12.308,4.229
		c-4.531,0-8.164-3.333-10.896-9.999c-2.735-6.667-4.574-16.538-5.512-29.613c-0.941-13.076-1.583-24.398-1.924-33.974
		c-0.172-4.103-0.172-8.802,0-14.102c0-7.181,0.084-15.385,0.256-24.614c0.342-16.237,0.514-25.641,0.514-28.204v-2.051
		l0.771-15.128l-3.077-4.871v-0.514c-2.909,0.686-6.068,1.025-9.487,1.025l-33.844-4.872v60.254l3.076,86.405
		c0,4.96-1.281,9.359-3.846,13.205c-2.565,3.846-6.242,5.769-11.025,5.769c-7.011,0-11.838-6.364-14.485-19.102
		c-2.652-12.73-3.976-30.127-3.976-52.177l1.539-79.996c0-16.578-0.256-25.724-0.771-27.436v-2.563
		c1.366-18.289,2.052-28.545,2.052-30.769l-3.589-118.455c0-4.104,1.449-7.732,4.357-10.897c2.904-3.16,6.41-4.743,10.514-4.743
		C1233.208,508.923,1238.765,519.352,1238.765,540.203z"/>
</g>
<g enable-background="new    ">
	<path fill="#FFFFFF" d="M580.316,1058.319c0-8.546,4.912-12.82,14.742-12.82c9.827,0,14.743,4.103,14.743,12.308
		c0,11.112-0.429,18.292-1.282,21.537v2.82c-4.787,14.53-7.179,30.6-7.179,48.203v38.459c0,21.882-2.692,54.829-8.076,98.842
		c-5.385,44.016-8.077,75.766-8.077,95.251c0,35.556-6.754,53.331-20.255,53.331c-10.088,0-15.127-7.479-15.127-22.436
		c0-14.955-0.513-30.038-1.539-45.254c-1.024-15.212-2.691-31.962-5-50.255c-2.308-18.288-4.318-33.371-6.024-45.254
		c-1.711-11.878-4.275-28.885-7.692-51.021c-3.421-22.136-5.729-37.135-6.923-44.998c-1.198,11.626-1.795,23.332-1.795,35.126
		c0,11.795-1.326,34.062-3.975,66.792c-2.651,32.733-7.267,66.021-13.845,99.866c-6.583,33.845-14.062,50.768-22.435,50.768
		c-13.505-0.173-23.678-36.833-30.512-109.995c-3.076-31.448-5.813-63.073-8.204-94.867
		c-6.154-81.362-11.538-127.257-16.153-137.686c2.905-6.153,7.948-9.229,15.127-9.229c11.282,0,16.922,12.691,16.922,38.074
		c0,25.384,3.674,64.1,11.025,116.147c7.348,52.05,11.449,90.04,12.307,113.97c14.871-101.361,22.307-178.537,22.307-231.527
		l14.103-6.153c4.271,0,7.948,1.114,11.024,3.333c3.078,2.225,4.615,5.386,4.615,9.487v4.358
		c9.912,33.676,17.775,82.476,23.588,146.402c2.732,29.229,5.297,51.881,7.692,67.945c6.494-48.544,9.743-106.405,9.743-173.581
		c0-8.886,1.322-22.051,3.975-39.485c2.648-17.436,3.975-30.596,3.975-39.484C580.913,1064.216,580.316,1061.229,580.316,1058.319z"
		/>
	<path fill="#FFFFFF" d="M645.966,1133.443l-2.819-44.356c0-24.782,7.347-37.178,22.05-37.178c9.398,0,22.219,2.18,38.46,6.538
		c16.236,4.357,24.357,9.959,24.357,16.794c0,7.179-5.128,12.65-15.384,16.409c-16.241-5.469-29.485-8.803-39.741-9.999
		c0.514,7.522,0.77,15.043,0.77,22.563l-2.309,75.381c0,0.345,0.514,3.077,1.539,8.205l18.717-0.77
		c16.923,0,25.384,4.788,25.384,14.357c0,3.763-1.538,7.052-4.615,9.871c-3.077,2.82-6.967,4.23-11.666,4.23
		c-4.703,0-9.787-0.341-15.255-1.025H672.12c1.026,13.333,1.539,26.581,1.539,39.742l-2.309,95.123
		c0,19.657,0.341,29.485,1.025,29.485l38.716-1.281c13.333,0,19.999,4.273,19.999,12.818c0,5.301-2.308,9.144-6.923,11.538
		c-4.615,2.392-9.831,3.59-15.64,3.59H664.17c-4.615,0-8.806-1.583-12.563-4.743c-3.763-3.16-5.729-6.963-5.897-11.41v-13.846
		l-3.333-88.713L645.966,1133.443z"/>
	<path fill="#FFFFFF" d="M759.818,1332.921l1.539-165.377c0-11.281-1.025-28.5-3.077-51.664
		c-2.052-23.159-3.077-37.901-3.077-44.229c0-6.321,1.963-11.237,5.896-14.742c3.931-3.502,8.117-5.257,12.563-5.257
		c36.063,0,65.381,21.113,87.944,63.33c12.987,24.102,19.485,49.572,19.485,76.406l-1.026,26.408v28.975
		c0,35.214-1.581,58.715-4.742,70.509c-3.165,11.795-6.454,21.626-9.871,29.485c-3.421,7.864-7.524,14.871-12.307,21.024
		c-11.113,14.019-25.127,25.299-42.05,33.845H773.15C764.262,1401.636,759.818,1378.73,759.818,1332.921z M796.482,1362.406v12.563
		c30.424,0,48.717-30.768,54.869-92.303c1.366-14.188,2.052-27.859,2.052-41.023c0-105.636-20.345-160.846-61.023-165.633
		c-2.563,13.846-3.846,32.862-3.846,57.048c0,24.189,1.321,62.01,3.974,113.456C795.157,1297.967,796.482,1336.599,796.482,1362.406
		z"/>
	<path fill="#FFFFFF" d="M916.746,1332.921l1.539-165.377c0-11.281-1.025-28.5-3.077-51.664
		c-2.051-23.159-3.077-37.901-3.077-44.229c0-6.321,1.963-11.237,5.896-14.742c3.931-3.502,8.117-5.257,12.563-5.257
		c36.064,0,65.381,21.113,87.944,63.33c12.988,24.102,19.485,49.572,19.485,76.406l-1.025,26.408v28.975
		c0,35.214-1.582,58.715-4.742,70.509c-3.166,11.795-6.455,21.626-9.871,29.485c-3.422,7.864-7.524,14.871-12.308,21.024
		c-11.113,14.019-25.127,25.299-42.049,33.845h-37.947C921.189,1401.636,916.746,1378.73,916.746,1332.921z M953.411,1362.406
		v12.563c30.423,0,48.716-30.768,54.869-92.303c1.366-14.188,2.052-27.859,2.052-41.023c0-105.636-20.344-160.846-61.023-165.633
		c-2.563,13.846-3.846,32.862-3.846,57.048c0,24.189,1.322,62.01,3.975,113.456C952.085,1297.967,953.411,1336.599,953.411,1362.406
		z"/>
	<path fill="#FFFFFF" d="M1128.287,1223.952l2.563,111.532v15.641l-0.257,14.614h6.924l15.127-0.513
		c14.358,0,21.537,4.358,21.537,13.075c0,4.447-1.754,8.249-5.256,11.41c-3.506,3.165-7.563,4.743-12.179,4.743h-23.076
		c-15.896,0-26.068-0.341-30.511-1.025c-2.736,0.346-4.872,0.514-6.41,0.514c-12.479,0-18.717-3.931-18.717-11.794
		c0-3.245,1.024-6.322,3.075-9.23c2.052-2.903,4.104-4.442,6.154-4.614h14.871l1.025-6.924l-3.59-111.532l2.819-116.917
		c0-19.999-0.856-38.801-2.563-56.407h-9.999l-12.052,0.513c-5.128,0-9.146-0.98-12.051-2.948
		c-2.908-1.964-4.357-5.682-4.357-11.152c0-8.033,8.629-12.052,25.896-12.052h62.562c14.186,0,21.28,3.679,21.28,11.024
		c0,3.249-1.538,6.242-4.614,8.976c-3.077,2.735-6.582,4.102-10.514,4.102h-26.921c1.365,14.358,2.052,30.6,2.052,48.716
		L1128.287,1223.952z"/>
	<path fill="#FFFFFF" d="M1199.834,1186.005l3.076-97.942c0-16.237,6.41-29.143,19.229-38.718v3.333
		c1.365-0.853,2.648-1.281,3.847-1.281c8.205,0,18.461,14.146,30.768,42.435c12.307,28.292,23.416,59.355,33.332,93.2
		c9.911,33.845,19.782,67.988,29.613,102.431c9.828,34.446,15.938,54.657,18.333,60.639c7.007-73.329,10.513-162.128,10.513-266.396
		l-0.77-14.103c0-10.424,4.357-15.641,13.076-15.641c4.954,0,8.674,2.052,11.152,6.153c2.477,4.103,3.718,8.891,3.718,14.357v39.742
		c-0.345,41.195-2.18,96.193-5.513,164.991c-3.333,68.803-7.82,107.646-13.461,116.533c-9.575,2.903-16.197,4.357-19.87,4.357
		c-3.678,0-6.498-1.241-8.462-3.718c-1.967-2.476-3.55-6.281-4.743-11.409c-1.197-5.128-2.224-8.546-3.076-10.256l0.256-2.309
		c0-12.987-12.563-54.269-37.689-123.84c-25.127-69.567-43.331-117.431-54.612-143.583v264.347c0.34,0.686,1.025,1.883,2.051,3.59
		c2.219,3.762,3.333,7.268,3.333,10.512c0,3.249-1.583,6.499-4.743,9.743c-3.165,3.249-6.883,4.872-11.152,4.872
		c-11.454,0-17.18-10.682-17.18-32.05L1199.834,1186.005z"/>
	<path fill="#FFFFFF" d="M1540.342,1293.179l2.564,55.64c0,17.267-6.025,30.556-18.076,39.869
		c-12.051,9.318-26.112,13.975-42.178,13.975c-24.273,0-41.881-9.059-52.817-27.179c-7.864-12.819-12.819-24.91-14.871-36.28
		c-2.052-11.365-3.506-20.127-4.358-26.28c-0.856-6.153-1.455-14.442-1.795-24.871c-0.686-14.525-1.024-26.235-1.024-35.126v-22.563
		c0-49.396,1.448-80.637,4.356-93.713c2.905-13.076,6.238-25.256,10-36.537c3.758-11.281,8.373-19.999,13.846-26.152
		c13.16-15.039,28.373-22.563,45.64-22.563c17.263,0,25.896,4.445,25.896,13.332c0,4.103-1.711,7.479-5.127,10.128
		c-3.423,2.651-7.269,3.975-11.539,3.975l-11.024-1.282c-12.14,0-21.281,11.968-27.435,35.896
		c-8.891,34.188-13.332,75.469-13.332,123.84c0,32.991,1.064,55.683,3.203,68.074c2.137,12.395,4.487,22.779,7.053,31.151
		c2.392,8.55,5.295,15.385,8.717,20.513c8.033,12.139,18.373,18.203,31.023,18.203c16.922,0,25.385-27.858,25.385-83.586v-24.102
		c-2.564-1.366-6.668-2.051-12.309-2.051l-10.256,0.256c-12.139,0-18.204-4.014-18.204-12.05c0-4.956,1.751-8.719,5.257-11.282
		c3.502-2.563,7.731-3.846,12.691-3.846v0.257h7.179c31.449,0,47.177,5.384,47.177,16.151L1540.342,1293.179z"/>
</g>
</svg>
