<?xml version="1.0" encoding="utf-8"?>
<!-- Generator: Adobe Illustrator 16.0.0, SVG Export Plug-In . SVG Version: 6.00 Build 0)  -->
<!DOCTYPE svg PUBLIC "-//W3C//DTD SVG 1.1//EN" "http://www.w3.org/Graphics/SVG/1.1/DTD/svg11.dtd">
<svg version="1.1" id="Ebene_1" xmlns="http://www.w3.org/2000/svg" xmlns:xlink="http://www.w3.org/1999/xlink" x="0px" y="0px"
	 width="2000px" height="2000px" viewBox="0 0 2000 2000" enable-background="new 0 0 2000 2000" xml:space="preserve">
<g>
	<circle fill="#7F1D78" cx="1000" cy="1000" r="800"/>
</g>
<g enable-background="new    ">
	<path fill="#FFFFFF" d="M657.206,718.399l-3.589-213.322V502c0-18.801,2.904-30.768,8.717-35.896
		c2.904-2.563,6.578-3.846,11.025-3.846c24.955,0,44.441,8.036,58.459,24.102c14.014,16.068,21.024,36.753,21.024,62.048
		c0,15.896-4.19,32.395-12.563,49.484c-8.377,17.095-18.376,29.831-29.999,38.204c21.365,14.357,36.621,32.606,45.767,54.74
		c9.142,22.139,13.717,45.343,13.717,69.612c0,12.819-3.205,25.984-9.615,39.485c-6.41,13.505-12.82,24.273-19.23,32.306
		c-6.41,8.037-14.831,14.787-25.255,20.256c-10.428,5.468-21.882,8.204-34.357,8.204h-2.051c-16.41,0-24.614-4.358-24.614-13.076
		L657.206,718.399z M689.512,492.001c-4.96,0-7.436,6.281-7.436,18.845s0.34,32.307,1.025,59.229
		c0.681,26.922,1.026,46.452,1.026,58.587c9.058-2.052,16.834-9.571,23.332-22.563c5.296-10.937,9.655-21.493,13.076-31.665
		c3.417-10.168,5.641-16.449,6.667-18.845V536.87c0-10.256-3.806-20.295-11.41-30.126
		C708.185,496.916,699.423,492.001,689.512,492.001z M727.715,809.165c9.912-13.333,14.871-28.717,14.871-46.152
		c0-17.435-1.454-32.774-4.359-46.023c-2.908-13.244-6.113-23.243-9.615-29.998c-3.505-6.751-7.564-12.52-12.179-17.307
		c-5.641-5.81-10.256-9.314-13.846-10.513h-18.717c1.707,48.375,2.564,106.405,2.564,174.094
		C704.038,830.534,717.799,822.497,727.715,809.165z"/>
	<path fill="#FFFFFF" d="M804.903,591.227l-2.82-44.356c0-24.782,7.347-37.178,22.05-37.178c9.399,0,22.219,2.18,38.46,6.538
		c16.237,4.358,24.358,9.959,24.358,16.794c0,7.179-5.128,12.651-15.384,16.409c-16.241-5.468-29.485-8.802-39.741-9.999
		c0.513,7.523,0.769,15.043,0.769,22.563l-2.308,75.381c0,0.345,0.513,3.077,1.539,8.205l18.717-0.77
		c16.922,0,25.383,4.788,25.383,14.358c0,3.762-1.538,7.051-4.615,9.871c-3.077,2.82-6.967,4.23-11.666,4.23
		c-4.703,0-9.787-0.34-15.255-1.025h-13.333c1.026,13.333,1.539,26.581,1.539,39.742l-2.308,95.123
		c0,19.658,0.34,29.486,1.025,29.486l38.716-1.282c13.333,0,19.999,4.274,19.999,12.819c0,5.301-2.308,9.143-6.923,11.538
		c-4.615,2.392-9.831,3.59-15.64,3.59h-44.357c-4.615,0-8.806-1.583-12.563-4.743c-3.762-3.161-5.729-6.963-5.897-11.41v-13.846
		l-3.333-88.713L804.903,591.227z"/>
	<path fill="#FFFFFF" d="M1032.853,749.681l5.641,32.306c0,4.274,1.667,14.703,5,31.28c3.333,16.582,4.999,27.435,4.999,32.563
		v0.514c0,7.691-2.908,12.647-8.717,14.87c-7.352,0-13.076-1.197-17.179-3.589s-6.153-7.007-6.153-13.846
		c0-14.871-2.564-36.492-7.692-64.868l-51.792-7.692c-3.249,11.626-5.729,24.357-7.436,38.203
		c-1.711,13.846-3.333,23.934-4.872,30.255c-3.077,12.992-8.806,19.486-17.179,19.486c-4.103,0-7.908-1.326-11.41-3.974
		c-3.505-2.648-5.256-6.025-5.256-10.128l1.282-4.615c23.588-91.105,41.107-179.819,52.562-266.141
		c0.34-2.392,0.853-9.398,1.538-21.024c1.707-25.641,4.956-41.962,9.743-48.973h17.691c4.784,0,8.974,1.114,12.564,3.333
		c3.59,2.224,5.385,5.557,5.385,10c0,26.665,3.545,66.238,10.64,118.712C1029.303,688.83,1032.853,726.604,1032.853,749.681z
		 M1005.418,760.192c-1.025-5.128-1.539-14.058-1.539-26.793c0-12.732-0.729-28.545-2.179-47.434
		c-1.454-18.886-3.549-40.852-6.282-65.895c-2.736-25.039-4.615-43.203-5.641-54.484c-15.897,88.032-26.153,150.081-30.768,186.145
		C964.991,755.666,980.459,758.486,1005.418,760.192z"/>
	<path fill="#FFFFFF" d="M1071.838,729.425l-0.257-30.768v-12.563c0-51.62,2.563-87.516,7.692-107.687
		c6.152-24.955,14.698-42.218,25.639-51.793c14.871-13.332,33.673-19.999,56.408-19.999c5.469,0,9.526,1.282,12.179,3.846
		c2.647,2.564,3.974,5.642,3.974,9.23c0,3.59-1.069,6.795-3.205,9.615c-2.139,2.82-4.831,4.318-8.076,4.487h-24.613
		c-7.18,0-13.422,4.615-18.718,13.845c-5.128,9.23-8.89,20.512-11.281,33.845c-4.447,25.3-6.583,46.24-6.41,62.817v2.564
		l-2.308,101.276c0,21.369,1.154,36.152,3.461,44.357c2.309,8.204,4.699,14.831,7.18,19.87c2.476,5.044,5.424,9.19,8.846,12.436
		c7.86,7.523,17.947,11.281,30.255,11.281c4.103,0,7.86-1.538,11.282-4.614c4.102,0,7.775,0.941,11.024,2.82
		c3.245,1.883,4.872,4.787,4.872,8.717c0,13.846-9.66,20.769-28.974,20.769c-7.864,0-16.112-1.153-24.742-3.461
		c-8.634-2.308-15.087-4.828-19.358-7.564C1083.459,837.713,1071.838,796.602,1071.838,729.425z"/>
	<path fill="#FFFFFF" d="M1238.765,540.203l-2.052,131.02c6.322,1.711,15.896,2.564,28.717,2.564h18.974
		c0.853-1.539,1.282-7.18,1.282-16.923s-1.154-31.152-3.462-64.228s-3.462-57.985-3.462-74.74c0-3.93,1.539-7.219,4.615-9.871
		c3.078-2.647,5.982-3.974,8.719-3.974c2.731,0,4.955,0.256,6.666,0.769c1.707,0.513,3.59,1.198,5.641,2.052
		c2.051,0.857,3.674,1.454,4.871,1.795c0,45.47,1.667,111.917,5,199.349c3.334,87.432,5,132.602,5,135.506
		c0,2.909-1.839,5.77-5.513,8.59c-3.678,2.82-7.78,4.23-12.308,4.23c-4.531,0-8.164-3.333-10.896-9.999
		c-2.736-6.667-4.575-16.538-5.512-29.614c-0.942-13.076-1.583-24.398-1.924-33.973c-0.172-4.103-0.172-8.802,0-14.102
		c0-7.18,0.084-15.385,0.256-24.614c0.342-16.237,0.514-25.641,0.514-28.204v-2.051l0.77-15.128l-3.077-4.871v-0.514
		c-2.909,0.686-6.069,1.026-9.487,1.026l-33.844-4.872v60.254l3.076,86.405c0,4.96-1.281,9.359-3.846,13.205
		s-6.242,5.769-11.025,5.769c-7.011,0-11.838-6.365-14.486-19.102c-2.652-12.731-3.975-30.127-3.975-52.177l1.539-79.996
		c0-16.578-0.256-25.724-0.77-27.435v-2.563c1.366-18.289,2.051-28.545,2.051-30.769l-3.589-118.455
		c0-4.103,1.45-7.732,4.358-10.897c2.904-3.16,6.41-4.743,10.513-4.743C1233.208,508.923,1238.765,519.352,1238.765,540.203z"/>
</g>
<g enable-background="new    ">
	<path fill="#FFFFFF" d="M580.316,1058.319c0-8.546,4.912-12.82,14.743-12.82c9.827,0,14.743,4.103,14.743,12.308
		c0,11.112-0.429,18.292-1.282,21.537v2.82c-4.788,14.53-7.179,30.6-7.179,48.203v38.459c0,21.882-2.692,54.829-8.076,98.842
		c-5.385,44.016-8.077,75.766-8.077,95.251c0,35.556-6.754,53.331-20.255,53.331c-10.088,0-15.127-7.479-15.127-22.435
		s-0.513-30.039-1.539-45.254c-1.025-15.212-2.692-31.962-5-50.255c-2.308-18.288-4.319-33.371-6.025-45.254
		c-1.711-11.878-4.275-28.885-7.692-51.022c-3.421-22.135-5.729-37.134-6.923-44.998c-1.198,11.626-1.795,23.332-1.795,35.126
		c0,11.795-1.326,34.062-3.974,66.792c-2.652,32.734-7.267,66.022-13.845,99.867c-6.583,33.844-14.062,50.767-22.435,50.767
		c-13.505-0.173-23.677-36.833-30.511-109.995c-3.077-31.448-5.813-63.073-8.205-94.867
		c-6.154-81.362-11.538-127.257-16.153-137.686c2.905-6.153,7.948-9.229,15.127-9.229c11.282,0,16.922,12.691,16.922,38.074
		c0,25.384,3.674,64.1,11.025,116.148c7.348,52.049,11.45,90.04,12.307,113.969c14.871-101.361,22.307-178.537,22.307-231.527
		l14.102-6.153c4.271,0,7.948,1.114,11.025,3.333c3.077,2.224,4.615,5.385,4.615,9.487v4.358
		c9.912,33.676,17.775,82.476,23.588,146.403c2.732,29.229,5.296,51.88,7.692,67.945c6.494-48.544,9.743-106.405,9.743-173.581
		c0-8.886,1.322-22.051,3.975-39.485c2.648-17.436,3.974-30.596,3.974-39.485C580.913,1064.216,580.316,1061.228,580.316,1058.319z"
		/>
	<path fill="#FFFFFF" d="M645.966,1133.443l-2.82-44.356c0-24.782,7.347-37.178,22.05-37.178c9.399,0,22.219,2.18,38.46,6.538
		c16.237,4.358,24.358,9.959,24.358,16.794c0,7.179-5.128,12.651-15.384,16.409c-16.241-5.468-29.485-8.802-39.741-9.999
		c0.513,7.523,0.769,15.043,0.769,22.563l-2.308,75.381c0,0.345,0.513,3.077,1.539,8.205l18.717-0.77
		c16.922,0,25.383,4.788,25.383,14.358c0,3.762-1.538,7.051-4.615,9.871c-3.077,2.82-6.967,4.23-11.666,4.23
		c-4.703,0-9.787-0.34-15.255-1.025h-13.333c1.026,13.333,1.539,26.581,1.539,39.742l-2.308,95.123
		c0,19.658,0.34,29.486,1.025,29.486l38.716-1.282c13.333,0,19.999,4.274,19.999,12.819c0,5.301-2.308,9.143-6.923,11.538
		c-4.615,2.392-9.831,3.59-15.64,3.59H664.17c-4.615,0-8.806-1.583-12.563-4.743c-3.762-3.161-5.729-6.963-5.897-11.41v-13.846
		l-3.333-88.713L645.966,1133.443z"/>
	<path fill="#FFFFFF" d="M759.818,1332.921l1.539-165.377c0-11.281-1.025-28.5-3.077-51.664
		c-2.051-23.159-3.077-37.902-3.077-44.229c0-6.321,1.963-11.237,5.897-14.742c3.93-3.502,8.117-5.257,12.563-5.257
		c36.064,0,65.381,21.113,87.944,63.33c12.988,24.102,19.486,49.573,19.486,76.407l-1.026,26.408v28.974
		c0,35.214-1.582,58.715-4.743,70.509c-3.165,11.795-6.454,21.626-9.871,29.486c-3.421,7.864-7.524,14.871-12.307,21.024
		c-11.113,14.018-25.127,25.299-42.049,33.845h-37.947C764.262,1401.636,759.818,1378.731,759.818,1332.921z M796.483,1362.406
		v12.563c30.423,0,48.716-30.768,54.869-92.303c1.366-14.187,2.051-27.859,2.051-41.023c0-105.636-20.344-160.846-61.023-165.633
		c-2.564,13.845-3.846,32.862-3.846,57.048c0,24.189,1.322,62.009,3.974,113.456
		C795.157,1297.967,796.483,1336.599,796.483,1362.406z"/>
	<path fill="#FFFFFF" d="M916.746,1332.921l1.539-165.377c0-11.281-1.025-28.5-3.077-51.664
		c-2.051-23.159-3.077-37.902-3.077-44.229c0-6.321,1.963-11.237,5.897-14.742c3.93-3.502,8.117-5.257,12.563-5.257
		c36.064,0,65.381,21.113,87.944,63.33c12.988,24.102,19.486,49.573,19.486,76.407l-1.026,26.408v28.974
		c0,35.214-1.582,58.715-4.742,70.509c-3.166,11.795-6.455,21.626-9.871,29.486c-3.422,7.864-7.524,14.871-12.308,21.024
		c-11.113,14.018-25.127,25.299-42.049,33.845h-37.947C921.189,1401.636,916.746,1378.731,916.746,1332.921z M953.411,1362.406
		v12.563c30.423,0,48.716-30.768,54.869-92.303c1.366-14.187,2.052-27.859,2.052-41.023c0-105.636-20.344-160.846-61.023-165.633
		c-2.564,13.845-3.846,32.862-3.846,57.048c0,24.189,1.322,62.009,3.974,113.456
		C952.085,1297.967,953.411,1336.599,953.411,1362.406z"/>
	<path fill="#FFFFFF" d="M1128.287,1223.952l2.563,111.532v15.641l-0.257,14.614h6.924l15.127-0.513
		c14.358,0,21.537,4.359,21.537,13.076c0,4.447-1.754,8.249-5.256,11.41c-3.506,3.165-7.564,4.743-12.179,4.743h-23.076
		c-15.896,0-26.068-0.341-30.511-1.025c-2.736,0.345-4.872,0.513-6.41,0.513c-12.479,0-18.717-3.93-18.717-11.794
		c0-3.245,1.025-6.322,3.076-9.23c2.051-2.904,4.103-4.443,6.154-4.615h14.871l1.025-6.923l-3.59-111.533l2.82-116.917
		c0-19.999-0.857-38.8-2.564-56.407h-9.999l-12.051,0.513c-5.128,0-9.146-0.981-12.051-2.948c-2.908-1.964-4.358-5.682-4.358-11.153
		c0-8.033,8.629-12.051,25.896-12.051h62.561c14.186,0,21.281,3.678,21.281,11.024c0,3.249-1.539,6.242-4.615,8.975
		c-3.077,2.736-6.582,4.102-10.513,4.102h-26.921c1.365,14.358,2.051,30.6,2.051,48.716L1128.287,1223.952z"/>
	<path fill="#FFFFFF" d="M1199.834,1186.005l3.076-97.943c0-16.237,6.41-29.142,19.23-38.717v3.333
		c1.365-0.853,2.648-1.281,3.846-1.281c8.205,0,18.461,14.146,30.768,42.434c12.307,28.292,23.416,59.356,33.332,93.2
		c9.911,33.845,19.782,67.989,29.613,102.431c9.828,34.446,15.938,54.657,18.333,60.639c7.007-73.33,10.513-162.128,10.513-266.397
		l-0.77-14.102c0-10.424,4.358-15.641,13.076-15.641c4.955,0,8.674,2.052,11.153,6.153c2.476,4.103,3.718,8.891,3.718,14.358v39.742
		c-0.345,41.195-2.18,96.193-5.513,164.991c-3.333,68.803-7.82,107.647-13.461,116.533c-9.575,2.904-16.197,4.358-19.87,4.358
		c-3.678,0-6.498-1.241-8.462-3.718c-1.967-2.476-3.55-6.281-4.743-11.409c-1.197-5.128-2.224-8.546-3.076-10.256l0.256-2.308
		c0-12.988-12.563-54.269-37.69-123.84c-25.127-69.568-43.331-117.431-54.612-143.583v264.346c0.34,0.686,1.025,1.883,2.051,3.59
		c2.219,3.762,3.333,7.268,3.333,10.512c0,3.249-1.583,6.499-4.743,9.743c-3.165,3.249-6.883,4.872-11.153,4.872
		c-11.454,0-17.179-10.681-17.179-32.05L1199.834,1186.005z"/>
	<path fill="#FFFFFF" d="M1540.342,1293.179l2.564,55.639c0,17.267-6.025,30.556-18.076,39.87
		c-12.051,9.318-26.112,13.974-42.178,13.974c-24.273,0-41.881-9.059-52.817-27.179c-7.864-12.819-12.82-24.91-14.871-36.28
		c-2.052-11.365-3.506-20.127-4.358-26.28c-0.857-6.153-1.455-14.442-1.795-24.871c-0.686-14.526-1.025-26.236-1.025-35.126v-22.563
		c0-49.396,1.449-80.637,4.357-93.713c2.905-13.076,6.238-25.255,10-36.537c3.758-11.281,8.373-19.999,13.846-26.152
		c13.16-15.039,28.372-22.563,45.639-22.563c17.263,0,25.896,4.446,25.896,13.332c0,4.103-1.711,7.48-5.128,10.128
		c-3.422,2.652-7.268,3.975-11.538,3.975l-11.025-1.282c-12.139,0-21.281,11.967-27.435,35.896
		c-8.89,34.189-13.332,75.469-13.332,123.84c0,32.991,1.065,55.683,3.204,68.074c2.136,12.395,4.487,22.779,7.052,31.152
		c2.392,8.549,5.296,15.384,8.717,20.512c8.033,12.139,18.373,18.204,31.024,18.204c16.922,0,25.384-27.859,25.384-83.586v-24.102
		c-2.564-1.366-6.667-2.051-12.308-2.051l-10.256,0.256c-12.139,0-18.204-4.014-18.204-12.05c0-4.956,1.751-8.718,5.256-11.282
		c3.502-2.563,7.732-3.846,12.692-3.846v0.257h7.179c31.449,0,47.177,5.384,47.177,16.152L1540.342,1293.179z"/>
</g>
</svg>
