<?xml version="1.0" encoding="utf-8"?>
<!-- Generator: Adobe Illustrator 16.0.0, SVG Export Plug-In . SVG Version: 6.00 Build 0)  -->
<!DOCTYPE svg PUBLIC "-//W3C//DTD SVG 1.1//EN" "http://www.w3.org/Graphics/SVG/1.1/DTD/svg11.dtd">
<svg version="1.1" id="layer1" xmlns="http://www.w3.org/2000/svg" xmlns:xlink="http://www.w3.org/1999/xlink" x="0px" y="0px"
	 width="2000px" height="2000px" viewBox="0 0 2000 2000" enable-background="new 0 0 2000 2000" xml:space="preserve">
<path fill="#FCFAF1" d="M1973.788,1000.685c0,527.021-422.586,953.623-945.928,953.623c-523.343,0-947.607-427.228-947.607-954.237
	c0-527.012,424.265-954.24,947.607-954.24C1551.202,45.83,1973.788,473.675,1973.788,1000.685z"/>
<path fill="#6192FF" d="M451.618,600.577c0,0-133.612-114.819-250.062-85.707c0,0-180.569,186.806-138.285,439.113
	c0,0,92.189-208.64,386.045-253.616l-8.796-38.722L451.618,600.577z"/>
<path fill="#FFEF6F" d="M688.384,113.768l-80.863,116.45l-51.763,171.445l-8.613,108.555l43.289-11.135
	c0,0,43.488,0.133,64.251,24.137l137.213-66.564c0,0,181.148-64.688,255.541-67.93c0,0,384.926,3.232,524.023,148.794
	c0,0,350.166,298.175,391.826,571.22c0,0,9.136-46.002,7.658-118.734c-3.526-176.475-56.938-512.236-363.907-743.611
	C1173.594-80.314,759.545,84.656,688.384,113.768z"/>
<path fill="#FF827C" d="M637.922,640.513c0,0,898.762,628.325,1114.263,950.041c0,0-211.444,302.307-400.676,302.307
	c0,0-1045.415-295.882-839.04-1174.069l60.319-21.256L637.922,640.513L637.922,640.513z"/>
<path d="M1972.499,937.353c-0.757-10.994-0.378-23.399-2.274-36.828c-1.932-13.417-4.093-28.069-6.406-43.905
	c-2.614-15.777-4.132-32.998-7.731-50.984c-4.265-17.873-8.796-36.854-13.609-56.918c-2.426-10.044-4.945-20.346-7.505-30.911
	c-3.564-10.274-7.241-20.803-10.957-31.577c-7.73-21.454-13.758-44.825-23.88-67.625c-10.197-22.821-20.849-46.568-31.88-71.208
	c-12.737-23.778-27.028-47.886-41.28-73.16c-61.03-98.132-147.307-201.001-265.634-284.387
	c-118.667-82.969-266.389-143.695-434.354-164.526c-20.925-3.335-40.618-2.9-61.183-4.559c-10.197-0.577-20.432-1.155-30.705-1.743
	l-15.389-0.88c0.758,0.019-3.186-0.162-3.526-0.097l-2.009,0.085l-3.98,0.172l-7.997,0.341
	c-42.59,2.531-85.973,2.426-129.008,10.907c-86.881,10.586-172.874,38.277-255.88,74.346c-20.357,9.997-40.797,20.042-61.315,30.125
	c-20.375,10.33-39.244,23.569-59.011,35.311l-29.396,18.196c-9.382,6.709-18.461,13.882-27.729,20.828
	c-18.235,14.254-37.405,27.483-54.965,42.75c-70.753,60.774-132.998,132.391-185.763,211.142
	c-51.279,79.945-90.058,167.899-118.005,259.255l-16.471,69.825l-4.047,17.455l-2.388,17.969l-4.729,35.897l-4.663,35.831
	c-1.913,12.008-1.127,23.521-1.819,35.301l-2.103,71.151c3.903,95.337,17.996,189.988,46.691,280.246
	c6.947,22.573,16.281,44.351,24.298,66.47c4.322,10.953,7.952,22.195,12.85,32.864l15.608,31.615l15.447,31.614l7.686,15.808
	c2.795,5.136,6.037,10.025,9.032,15.029c12.206,19.958,24.402,39.878,36.57,59.741c52.871,76.781,114.052,146.736,183.138,206.934
	c17.153,15.087,35.927,28.164,53.753,42.305l27.065,20.735l28.629,18.289c19.266,11.809,37.65,25.151,57.561,35.613
	c20.063,10.218,40.049,20.395,59.95,30.535c81.585,36.522,164.999,65.712,252.014,78.087c43.642,9.345,84.865,9.952,126.239,13.287
	l7.732,0.492l3.868,0.247l1.935,0.113c0.378,0.058,3.637,0.058,3.183,0.019l15.808-0.605c10.537-0.418,21.038-0.797,31.5-1.214
	c20.886-1.289,41.849-0.568,62.318-3.543c164.706-18.556,314.591-78.486,432.783-160.782
	c118.459-82.827,204.849-185.536,265.955-283.507c14.254-25.244,28.544-49.354,41.28-73.102
	c11.032-24.621,21.683-48.352,31.879-71.171c10.122-22.783,16.168-46.133,23.883-67.57c3.752-10.766,7.429-21.284,10.993-31.557
	c2.577-10.558,5.079-20.849,7.542-30.895c4.814-20.033,9.364-39.006,13.667-56.859c3.618-18.008,5.137-35.254,7.81-51.062
	c2.33-15.846,4.491-30.515,6.5-43.953c1.896-13.438,1.518-25.757,2.313-36.713c2.009-43.933,3.089-67.361,3.089-67.361v-0.15
	C1975.476,1004.931,1974.434,981.428,1972.499,937.353z M420.941,294.073c16.784-14.14,35.123-26.271,52.474-39.452
	c8.822-6.406,17.466-13.06,26.383-19.237l27.976-16.651c18.802-10.719,36.656-22.972,55.979-32.345
	c19.419-9.154,38.751-18.28,58.026-27.368c2.038-0.833,4.094-1.612,6.141-2.436c-39.233,51.128-114.431,174.2-100.774,353.633
	c-15.24,6.434-30.364,15.892-45.072,28.109c-14.281,11.721-28.166,26.58-39.603,43.667c-2.219,3.317-4.284,6.804-6.331,10.302
	c-31.16-22.527-136.75-94.796-215.207-100.207c0.313-0.475,0.579-0.976,0.899-1.441C293.851,417.383,353.155,350.24,420.941,294.073
	z M660.846,543.556c1.668,8.975,0.852,20.261-2.359,32.448c-3.195,12.236-9.279,25.256-17.344,38.419
	c-8.14,13.163-18.09,26.695-30.164,39.755c-3.052,3.155-6.189,6.653-9.269,9.676c-3.393,3.174-6.729,6.719-10.225,9.771
	c-6.907,6.103-14.377,12.243-22.517,17.654c-16.062,11.097-34.883,20.092-55.26,23.181c-10.149,1.346-20.583,1.449-30.523-0.797
	c-9.884-2.425-19-7.505-25.444-14.944c-13.106-15.248-13.334-37.017-8.843-55.942c4.625-19.322,13.969-37.224,25.17-52.784
	c11.201-15.713,23.91-29.17,37.434-41.082c13.125-11.419,27.189-20.906,40.635-28.374c13.514-7.438,26.83-12.831,39.207-15.371
	c12.319-2.549,23.616-2.749,32.476-0.615c9.042,1.697,15.219,5.762,19.228,8.491c3.706,3.211,5.668,4.908,5.668,4.908
	s1.609,2.065,4.672,5.98L660.846,543.556z M96.868,833.517l2.908-16.756l4.606-16.565l18.471-66.063
	c25.547-75.746,59.275-148.121,101.135-214.998c48.757,2.672,126.134,19.749,227.63,81.442
	c-6.417,12.292-11.665,25.484-14.441,39.718c-1.896,10.832-2.531,22.166-0.484,33.405c1.108,5.629,3.014,11.032,5.496,16.262
	l4.701,7.62l1.934,2.208C230.101,724.174,129.826,825.413,85.996,895.398l4.995-28.307L96.868,833.517z M1534.847,1780.43
	c-45.205,28.507-94.275,54.227-146.416,76.307c-912.903-260.269-921.622-845.882-891.296-1060.994
	c-120.866,730.066,609.799,1025.438,808.544,1091.698c-58.261,18.935-119.557,33.358-183.601,41.452
	c-19.351,3.316-39.253,3.013-59.04,4.719l-29.909,1.896l-15.048,0.967c-1.706-0.019,0.266,0.17-0.645,0.094l-1.934-0.075
	l-3.866-0.152l-7.771-0.304c-41.129-1.818-84.042-0.548-123.691-7.752c-81.376-7.864-164.232-32.617-244.271-64.214
	c-19.713-8.946-39.509-17.93-59.391-26.934c-19.788-9.248-38.134-21.416-57.44-32.068l-28.724-16.546
	c-9.201-6.122-18.023-12.852-27.056-19.313c-17.759-13.325-36.504-25.606-53.685-39.917c-16.775-14.841-33.596-29.72-50.465-44.654
	c-4.15-3.809-8.472-7.468-12.5-11.409l-11.448-12.472l-22.943-25.02l-23.019-25.074c-7.542-8.49-13.892-17.988-20.906-26.951
	c-13.532-18.29-27.947-36.106-40.466-55.212c-50.425-76.534-88.304-161.369-115.482-249.599
	c-24.934-89.175-35.083-181.726-35.596-273.972l2.379-32.998C121.1,776.808,397.763,710.971,449.316,700.367l3.023,3.469
	c8.187,8.121,18.972,12.946,29.766,14.783c10.159,2,20.431,1.603,30.364,0.172c-2.767,9.931-9.705,37.024-15.334,76.951
	c4.171-25.134,9.382-50.806,15.619-76.979c0.53-0.077,1.071-0.058,1.6-0.144c21.04-3.486,40.619-11.41,58.435-21.084
	c8.945-4.825,17.209-10.434,25.245-16.348c3.98-2.938,7.488-5.98,11.156-8.945c3.79-3.355,6.983-6.616,10.442-9.867
	c6.843-7.012,12.937-14.356,18.291-21.862c70.914,54.519,615.296,473.096,736.217,569.834
	c114.253,91.394,329.3,326.456,378.046,380.206C1694.149,1658.977,1621.672,1724.782,1534.847,1780.43z M1963.289,1108.739
	c-2.085,13.286-4.397,27.766-6.86,43.439c-2.654,15.639-4.626,32.583-8.834,50.246c-4.813,17.551-9.931,36.202-15.352,55.895
	c-22.934,78.011-61.259,170.941-126.799,263.168c-12.85,18.386-26.99,36.731-41.868,54.983
	c-68.782-72.478-425.106-445.537-544.703-521.389c-132.617-84.116-568.3-435.418-568.3-435.418
	c7.401-14.689,11.704-29.34,13.685-42.475c2.047-13.191,1.005-24.905-1.08-34.106c-0.105-0.484-0.313-0.788-0.428-1.26
	c25.076-22.508,326.673-278.359,834.322-43.12c0,0,427.059,284.785,459.356,653.476l12.091-76.097
	c0,0-379.371-1082.252-1313.834-552.863c-0.038-0.056-0.085-0.162-0.123-0.218c-3.126-3.866-4.832-5.95-4.832-5.95
	s-2-1.839-5.734-5.261c-4.065-2.929-10.339-7.183-19.522-9.732c-9.079-2.588-20.754-4.293-34.04-2.976
	c-10.265,0.938-21.503,3.26-33.074,7.241c-0.332-9.088-7.326-237.543,122.827-362.323c66.31-25.039,133.707-44.844,201.997-52.937
	c40.276-8.056,81.007-7.477,120.921-10.14l13.457-0.779l15.43,0.683c10.271,0.446,20.508,0.9,30.705,1.345
	c10.195,0.456,20.355,0.901,30.514,1.346c10.083,0.513,20.451,0.522,29.682,2.369c18.992,2.806,37.851,5.583,56.576,8.35
	c9.344,1.555,18.745,2.266,27.994,4.481c9.288,2.322,18.498,4.645,27.71,6.948c18.423,4.597,36.693,9.154,54.813,13.685
	c17.665,6.131,35.178,12.215,52.539,18.252c69.825,23.597,132.521,58.148,191.524,93.003
	c115.938,73.625,206.308,165.787,270.922,258.07c65.56,92.144,103.863,185.015,126.894,262.97
	c5.419,19.682,10.575,38.315,15.389,55.857c4.227,17.673,6.217,34.664,8.908,50.302c2.502,15.683,4.813,30.201,6.937,43.498
	c2.046,13.305,1.82,25.606,2.729,36.514c2.465,43.404,3.791,66.641,3.83,67.039c-0.039,0.416-1.309,23.738-3.716,67.246
	C1965.07,1083.057,1965.298,1095.452,1963.289,1108.739z"/>
<path opacity="0.2" d="M208.939,1479.979c164.26,283.601,469.392,474.328,818.921,474.328
	c523.342,0,945.928-426.603,945.928-953.623c0-266.267-107.977-507.108-282.217-680.354l-19.823-2.776
	C1671.748,317.555,1906.693,2152.107,208.939,1479.979z"/>
</svg>
