<?xml version="1.0" encoding="utf-8"?>
<!-- Generator: Adobe Illustrator 16.0.0, SVG Export Plug-In . SVG Version: 6.00 Build 0)  -->
<!DOCTYPE svg PUBLIC "-//W3C//DTD SVG 1.1//EN" "http://www.w3.org/Graphics/SVG/1.1/DTD/svg11.dtd">
<svg version="1.1" id="layer1" xmlns="http://www.w3.org/2000/svg" xmlns:xlink="http://www.w3.org/1999/xlink" x="0px" y="0px"
	 width="2000px" height="2000px" viewBox="0 0 2000 2000" enable-background="new 0 0 2000 2000" xml:space="preserve">
<path fill="#FCE5C1" d="M48.812,1087.449c0,0,35.162,153.835,43.952,215.368s0,193.391,0,193.391s-8.791,167.021,127.462,219.764
	c136.253,52.743,716.429,184.601,852.681,153.835c136.254-30.768,540.617-65.93,566.99-65.93
	c26.371,0,241.738-153.835,246.134-219.762c4.395-65.93,27.711-289.161,49.018-381.925
	c21.306-92.766-1398.363-132.322-1398.363-132.322L48.812,1087.449z"/>
<path opacity="0.4" fill="#E5B288" d="M1297.066,1333.584c0,0,61.533,408.759-74.72,457.106
	c-136.253,48.349-448.317,52.745-448.317,52.745s685.661,8.791,760.381-17.583c74.72-26.371,175.811-8.79,232.949-79.113
	c57.139-70.324,140.648-426.342,140.648-426.342l-435.131-114.274L1297.066,1333.584z"/>
<g>
	<path fill="#FFFFFF" d="M914.035,1597.574c-289.066,0-802.429-187.674-824.626-195.829l24.284-65.998
		c5.435,1.992,546.274,199.761,817.468,191.229c284.352-8.876,660.696-40.108,707.361-47.867
		c52.813-8.826,220.037-35.231,220.037-35.231l10.989,69.466c-0.034,0-166.813,26.337-219.487,35.128
		c-53.414,8.893-431.974,39.899-716.703,48.795C927.049,1597.472,920.585,1597.574,914.035,1597.574z"/>
</g>
<path fill="#EDA4BF" d="M1015.769,661.101c0,0-927.398,0-966.957,250.529c-39.558,250.538,17.581,254.934,17.581,254.934
	s290.087,188.995,588.965,48.348c0,0,65.93,0,96.697,17.582c30.766,17.58,373.596,285.691,580.174,70.323
	c0,0,87.904-79.114,193.392-13.187c105.485,65.929,294.482,127.464,386.782,48.349c0,0,30.768-118.672,48.349-140.649
	c17.581-21.975,114.275-364.815-527.432-470.3C791.61,621.543,1015.769,661.101,1015.769,661.101z"/>
<path fill="#F9BBD0" d="M1927.064,968.77c0,55.189-73.895,59.825-225.634,96.704c-159.672,38.801-491.343,5.854-739.881,5.854
	c-484.672,0-877.576-91.838-877.576-205.101c0-113.291,392.903-205.126,877.576-205.126
	C1446.247,661.101,1927.064,855.479,1927.064,968.77z"/>
<path fill="#FFFAFC" d="M40.022,1008.326c0,0,105.485,79.123,395.573,136.261c0,0,184.601-61.533,215.369-61.533
	c30.766,0,118.672,65.931,118.672,65.931s272.505,171.413,461.502,109.881c0,0,158.229-83.51,171.414-101.091
	c13.187-17.581,127.462,30.765,153.835,39.556c26.371,8.793,268.111,92.301,404.364-30.766l-48.349,171.415
	c0,0-136.252,79.115-259.32,26.371c-123.068-52.742-215.369-197.786-356.016-30.767c0,0-197.031,133.386-523.037-92.3
	c-28.569-19.779-21.975-8.79-21.975-8.79s-188.997-21.978-259.32,35.161c0,0-294.482,35.162-435.131-145.042L40.022,1008.326z"/>
<path d="M1877.24,889.654c-206.577-149.439-356.017-197.786-839.494-263.715c0,0-795.542,8.791-993.331,228.553
	c0,0-30.765,52.742-21.975,92.3c8.79,39.558-17.581,171.423,43.952,316.467c0,0,35.162,70.324,8.791,224.158
	c-26.372,153.834,109.881,228.554,140.649,254.925c30.765,26.372,290.086,96.696,457.106,118.673
	c167.02,21.976,228.553,57.137,457.108,43.953c0,0,430.735-61.533,518.641-74.72s237.344-109.882,259.32-268.111
	c21.976-158.23,17.582-294.482,43.953-329.644C1951.961,1232.494,2083.816,1039.102,1877.24,889.654z M1033.35,691.868
	c0,0,857.076,52.743,909.82,378c0,0,4.738,35.196,0.823,79.492c-58.236,94.156-349.079,75.509-440.351,21.599
	c-96.695-57.137-140.646-8.791-140.646-8.791c-184.602,180.207-514.247,48.349-610.942-35.161
	c-96.697-83.51-153.835-35.162-153.835-35.162C317.3,1192.163,98.783,1028.749,62.891,999.561
	c0.652-39.256,6.335-83.097,21.083-131.882C83.974,867.679,114.741,705.053,1033.35,691.868z M1864.054,1478.628
	c-8.789,87.905-52.742,312.063-276.9,303.272c-224.157-8.79-527.433,184.601-1406.483-127.462c0,0-96.697-65.93-70.325-246.134
	c0,0,0-153.836-4.395-193.393c-0.894-8.069-4.766-19.572-9.786-34.099c56.658,45.859,226.466,154.934,484.474,73.655
	c0,0,123.068-57.139,250.53,39.558c127.462,96.696,391.179,158.23,527.432,8.791c0,0,61.533-70.323,171.414,8.791
	c95.512,68.762,264.062,127.497,352.686,43.541C1873.944,1394.104,1868.45,1434.709,1864.054,1478.628z M1891.113,1322.288
	c-37.256,35.453-113.935,70.323-255.612-1.891c-224.158-114.274-228.554-83.51-356.015,4.396
	c-127.465,87.904-312.066,35.162-465.899-87.906c-153.833-123.065-188.997-21.976-298.878,4.396
	c-105.571,25.34-344.958-6.182-437.638-121.745c-5.819-22.646-10.858-48.709-13.168-78.068
	c147.929,97.622,378.799,152.015,485.969,94.326c114.276-61.533,136.253-30.768,136.253-30.768
	c312.063,241.74,571.384,197.788,659.288,105.487c87.906-92.301,188.997,0,188.997,0c206.818,71.319,352.892,15.35,400.639-8.326
	c-3.469,13.271-7.933,26.49-13.856,39.094C1908.592,1268.067,1898.891,1294.885,1891.113,1322.288z"/>
<path fill="#B16751" d="M467.83,394.448c0,0,70.323,17.574,87.904,108.414c17.581,90.842,49.816,310.604,49.816,310.604
	s-20.517,102.552-108.423,32.227L365.271,494.071l23.443-58.598l91.708-56.143"/>
<polygon fill="#B16751" points="983.543,341.706 939.591,362.215 927.865,458.909 977.688,822.257 1011.375,850.096 
	1072.907,843.503 1103.676,792.959 1114.662,410.57 1057.524,349.037 "/>
<polygon fill="#B16751" points="1551.991,421.559 1477.271,432.548 1444.308,518.253 1354.203,795.155 1365.191,861.084 
	1402.552,886.727 1464.086,854.492 1530.014,687.472 1620.118,520.452 1595.943,443.534 "/>
<path fill="#FFD961" d="M338.898,186.412c0,0,58.606,55.671,70.325,64.461c11.717,8.79,128.93,126.003,14.653,181.675
	C309.601,488.216,268.575,230.366,338.898,186.412z"/>
<path fill="#FF9750" d="M379.924,420.829c0,0-70.323-123.076-26.371-161.166c0,0,96.696,23.436,114.277,134.785
	c0,0,29.29-90.823-90.842-158.22l-38.09-49.816C338.898,186.412,233.42,306.553,379.924,420.829z"/>
<path fill="#FFD961" d="M1001.107,347.57c0,0,82.068,0.007,84.986-41.017c2.918-41.025-52.744-193.393-49.825-208.045
	c2.952-14.655-102.231,87.013-93.742,167.02c5.115,48.349,23.452,70.316,41.017,76.178"/>
<path fill="#FF9750" d="M960.828,302.887c0,0-8.79-105.487,48.349-142.847c0,0,72.521,103.289,72.521,136.253l8.791-72.522
	l-54.221-125.264C1036.269,98.507,897.097,179.819,960.828,302.887z"/>
<path fill="#FFD961" d="M1664.07,217.179c0,0-74.719,57.139-90.102,68.127c-15.386,10.986-117.438,86.358-5.977,134.382
	c111.461,48.021,113.659,6.265,113.659-33.292C1681.651,346.839,1664.07,217.179,1664.07,217.179z"/>
<path fill="#FF9750" d="M1514.631,349.037c0,0,68.127-41.756,96.697-43.954l26.371-17.581c0,0,43.952,92.301,10.988,140.649
	l26.371-28.569l-10.988-182.403c0,0-79.116,65.929-98.893,72.521C1545.399,296.293,1514.631,349.037,1514.631,349.037z"/>
<path d="M558.663,480.894c-5.786-26.053-26.853-92.137-78.241-101.563c4.525-31.804-0.6-79.38-52.149-124.055l-43.953-41.023
	c0,0-24.903-23.438-33.693-38.09c-8.792-14.654-38.1-8.79-51.284,57.139c-11.29,56.434-13.702,166.297,67.559,199.588
	c-10,14.809-24.92,46.624-6.026,87.562c26.372,57.139,109.882,303.273,127.462,338.436c17.581,35.162,123.068,57.138,131.858-61.534
	C620.196,797.354,567.453,520.452,558.663,480.894z M334.504,356.368C334.504,356.368,333.8,358.333,334.504,356.368
	c-26.234-55.026-14.491-130.792,1.468-147.979c0,0,23.436,27.839,46.88,41.026c12.412,6.979,39.909,34.106,56.776,66.539
	c43.181,71.139-8.43,100.481-8.43,100.481C365.271,435.483,334.504,356.368,334.504,356.368z M585.034,806.144
	c-4.396,74.72-70.325,52.744-74.719,30.768c-4.396-21.977-79.116-215.368-87.906-232.949s-43.952-118.671-43.952-118.671
	c4.036-20.192,12.122-34.149,22.02-43.988c4.781,0.593,9.417,1.33,14.61,1.503c0,0,28.201,1.828,41.421-22.688
	c17.958-0.258,31.831,3.64,31.831,3.64C532.29,410.57,589.428,731.424,585.034,806.144z"/>
<path d="M1069.302,345.552c41.018-22.354,29.309-106.448,21.188-121.781c-9.89-18.678-54.94-146.141-54.94-146.141
	s-39.559,39.556-57.14,62.631c-17.581,23.075-53.842,84.61-45.05,128.562c5.219,26.071,11.33,45.138,32.294,59.122
	c-25.221,4.558-47.816,23.436-48.777,76.034c-2.199,120.869,46.15,340.632,43.952,399.967
	c-2.198,59.337,70.323,70.325,101.092,61.535c30.767-8.791,57.139-52.742,57.139-94.499c0-41.754,2.197-265.913,8.789-303.272
	C1133.736,434.341,1151.592,366.06,1069.302,345.552z M1027.856,114.99c0,0,38.459,105.485,48.348,143.943
	c9.89,38.459-1.098,65.929-58.237,65.929c-57.139,0-59.336-31.865-59.336-31.865C931.161,183.116,1027.856,114.99,1027.856,114.99z
	 M1077.303,808.342c-30.766,76.917-85.707,13.186-85.707,0c0-13.187-35.162-215.369-41.756-272.508
	c-6.592-57.137-19.778-142.845,15.385-169.216c35.162-26.371,103.287,17.581,103.287,17.581
	c26.373,4.394,32.965,46.15,32.965,65.929s-8.79,237.344-8.79,250.53C1092.687,713.844,1108.069,731.424,1077.303,808.342z"/>
<path d="M1686.785,369.544c-14.646-49.816-8.79-181.665-8.79-181.665s-45.413,58.599-67.388,67.39
	c-21.394,8.558-166.23,62.932-83.442,153.636c-25.341-2.139-68.471,2.163-80.661,52.949
	c-17.581,73.251-96.694,304.733-102.566,328.175c-5.838,23.445-5.838,99.624,58.614,96.697
	c64.452-2.928,82.035-20.516,131.858-172.883c0,0,53.087-108.919,76.197-143.576c20.654-30.99,49.961-75.089,16.189-113.822
	C1663.848,459.623,1699.268,412.013,1686.785,369.544z M1569.571,567.34c-8.789,14.654-82.032,190.456-93.777,222.69
	c-11.708,32.235-29.29,90.833-73.242,82.043c-43.952-8.791-46.871-67.388-38.081-82.043c8.791-14.652,61.535-111.349,79.116-222.69
	c17.581-111.34,32.207-108.421,32.207-108.421c73.262-70.326,120.149,29.307,120.149,29.307
	C1616.442,523.387,1578.362,552.687,1569.571,567.34z M1553.468,406.176l18.715,15.167c-1.375-0.547-2.782-1.107-4.19-1.655
	c-10.678-7.778-75.456-58.488-17.46-104.345c62.821-49.679,105.21-67.295,108.353-76.102c-0.24,13.219,3.676,37.461,5.924,64.374
	c2.936,35.164,7.331,98.165-16.121,124.536C1625.233,454.522,1553.468,406.176,1553.468,406.176z"/>
</svg>
