<?xml version="1.0" encoding="utf-8"?>
<!-- Generator: Adobe Illustrator 16.0.0, SVG Export Plug-In . SVG Version: 6.00 Build 0)  -->
<!DOCTYPE svg PUBLIC "-//W3C//DTD SVG 1.1//EN" "http://www.w3.org/Graphics/SVG/1.1/DTD/svg11.dtd">
<svg version="1.1" id="layer1" xmlns="http://www.w3.org/2000/svg" xmlns:xlink="http://www.w3.org/1999/xlink" x="0px" y="0px"
	 width="2000px" height="2000px" viewBox="0 0 2000 2000" enable-background="new 0 0 2000 2000" xml:space="preserve">
<g>
	<g>
		<path fill="#F9E5B5" d="M926.424,359.04c-3.334-0.11-6.426-0.209-9.302-0.314C919.888,358.831,922.968,358.93,926.424,359.04z"/>
		<path fill="#F9E5B5" d="M951.245,359.877c-9.842-0.326-17.959-0.599-24.821-0.837C933.896,359.29,942.332,359.575,951.245,359.877
			z"/>
		<path fill="#F9E5B5" d="M958.658,360.12c-2.51-0.087-4.973-0.156-7.413-0.243C953.534,359.946,956.184,360.033,958.658,360.12z"/>
		<path fill="#F9E5B5" d="M908.088,358.436c-3.504-0.116-6.136-0.215-7.827-0.262C901.818,358.22,904.439,358.308,908.088,358.436z"
			/>
		<path fill="#F9E5B5" d="M900.261,358.174C897.536,358.069,897.706,358.087,900.261,358.174L900.261,358.174z"/>
		<path fill="#F9E5B5" d="M917.122,358.726c-3.532-0.104-6.559-0.204-9.034-0.291C910.673,358.522,913.764,358.622,917.122,358.726z
			"/>
		<path fill="#F9E5B5" d="M1565.439,981.566l21.184-288.261h-148.344c0,0-70.976-319.513-395.793-330.378
			c-1.568-0.046-2.871-0.099-4.404-0.145c2.742,0.082,4.404,0.145,4.404,0.145s-29.853-5.026-74.741-2.498
			c-3.288-0.11-6.054-0.209-9.087-0.309c3.01,0.1,6.031,0.215,9.076,0.309c-108.719,6.129-306.232,56.881-385.72,332.876H433.66
			v275.514l-161.079,12.718l-21.212,983.332h1517.552l4.229-987.563L1565.439,981.566z M1026.997,362.403
			c-4.382-0.133-9.087-0.29-13.2-0.435C1018.712,362.13,1023.115,362.281,1026.997,362.403z M534.448,858.445
			C531.113,870.019,531.642,868.182,534.448,858.445L534.448,858.445z M580.945,697.012c-5.996,20.806-11.312,39.271-16.042,55.73
			C572.242,727.242,578.552,705.343,580.945,697.012z M557.985,776.731c-1.703,5.909-3.278,11.388-4.788,16.634
			C554.783,787.858,556.386,782.287,557.985,776.731z M550.1,804.126c-4.956,17.169-8.645,30.004-11.44,39.672
			C541.803,832.927,545.777,819.104,550.1,804.126z M537.265,848.62c-0.929,3.265-1.719,6.025-2.387,8.343
			C535.569,854.535,536.348,851.815,537.265,848.62z"/>
	</g>
	<rect x="861.933" y="409.53" fill="#D6B987" width="69.407" height="406.547"/>
	<rect x="1105.863" y="409.53" fill="#D6B987" width="63.457" height="406.547"/>
	<rect x="761.779" y="1331.71" fill="#D6B987" width="490.834" height="645.521"/>
	<rect x="832.185" y="887.478" fill="#D6B987" width="33.71" height="380.763"/>
	<rect x="1165.357" y="887.478" fill="#D6B987" width="33.71" height="380.763"/>
	<rect x="830.198" y="869.629" fill="#D6B987" width="376.806" height="51.559"/>
	<path fill="#D6B987" d="M1536.214,1034.258l-3.974-293.514l-148.737-7.937c-71.79-387.288-348.732-333.655-374.82-327.7
		c-26.087-5.955-303.029-59.587-374.818,327.7l-148.738,7.937l-3.968,293.514l-226.082,7.925l7.936,65.444l273.678-23.798
		l3.963-283.596h128.908c0,0,35.232-375.778,335.171-363.112l-0.023,0.197c1.371-0.087,2.626-0.029,3.974-0.099
		c1.349,0.07,2.604,0.012,3.975,0.099l-0.023-0.197c299.939-12.666,335.172,363.112,335.172,363.112h128.914l3.95,283.596
		l273.678,23.798l7.947-65.444L1536.214,1034.258z"/>
	<path fill="#FFFCF5" d="M1572.865,971.997l3.16-265.991l-150.458-2.109c0,0-58.158-337.617-383.628-348.11V183.569h73.114v-58.814
		h-73.114V34.146h-63.585v90.608h-77.89v58.814h77.89v174.105c-36.638,3.329-76.007,10.255-118.688,21.944
		c0,0-201.342,42.396-267.042,317.916l-152.607,4.236l8.471,273.41l-190.745,12.712l8.483,95.379l244.79-15.896V768.534h136.705
		c0,0,38.149-314.738,270.227-343.352c0,0,406.943-69.942,441.908,336.989l139.884,3.185v302.019l257.502,3.172v-82.654
		L1572.865,971.997z"/>
	<path fill="#868E8C" d="M1016.503,482.411c-28.085,0-50.86,27.755-50.86,61.993v185.98h101.723v-185.98
		C1067.365,510.166,1044.59,482.411,1016.503,482.411z"/>
	<path fill="#868E8C" d="M1207.249,1552.248c0-97.48-84.688-176.498-189.153-176.498c-104.471,0-189.164,79.018-189.164,176.498
		v418.014h377.271v-399.479C1206.877,1564.671,1207.249,1558.512,1207.249,1552.248z"/>
	<path fill="#868E8C" d="M1644.979,1621.54c0-81.317-68.815-147.228-153.688-147.228s-153.688,65.91-153.688,147.228v348.722
		h306.527v-333.268C1644.676,1631.905,1644.979,1626.77,1644.979,1621.54z"/>
	<path fill="#868E8C" d="M703.951,1621.54c0-81.317-68.809-147.228-153.688-147.228c-84.886,0-153.694,65.91-153.694,147.228
		v348.722h306.528v-333.268C703.654,1631.905,703.951,1626.77,703.951,1621.54z"/>
	<path fill="#868E8C" d="M1124.605,1057.835c0,59.692-48.409,108.091-108.103,108.091c-59.692,0-108.096-48.398-108.096-108.091
		s48.403-108.091,108.096-108.091C1076.196,949.744,1124.605,998.143,1124.605,1057.835z"/>
	<polygon fill="#FFFCF5" points="1283.546,1242.234 1232.685,1242.234 793.966,1242.234 724.019,1242.234 724.019,1363.038 
		724.019,1979.79 793.966,1979.79 793.966,1363.038 1232.685,1363.038 1232.685,1979.79 1302.627,1979.79 1302.627,1242.234 	"/>
	<polygon fill="#FFFCF5" points="1229.513,793.965 1178.639,793.965 1178.454,793.965 1178.454,409.291 1124.792,409.291 
		1124.792,793.965 911.591,793.965 911.591,422.004 851.19,422.004 851.19,793.965 797.138,793.965 797.138,905.233 
		797.138,1270.844 851.19,1270.844 851.19,905.233 1178.639,905.233 1178.639,1270.844 1232.685,1270.844 1232.685,793.965 	"/>
	<rect x="441.074" y="1188.178" fill="#979F9D" width="38.155" height="136.711"/>
	<rect x="542.814" y="1188.178" fill="#979F9D" width="38.149" height="136.711"/>
	<rect x="1432.98" y="1188.178" fill="#979F9D" width="38.139" height="136.711"/>
	<rect x="1534.704" y="1188.178" fill="#979F9D" width="38.161" height="136.711"/>
	<path d="M1773.149,977.307l-186.526-8.488V693.305h-148.344c0,0-48.106-325.224-387.856-343.067v-159.26h74.183v-69.942h-78.436
		l0.534-94.837l-36.557-1.592H973.59l0.523,96.43h-78.424v69.942h74.183v159.26c-339.744,17.843-387.857,343.067-387.857,343.067
		H433.66v275.514l-186.515,8.488v987.563v21.286h1523.868v-9.074c0.694,3.382,1.394,6.646,2.137,9.074V977.307z M251.369,1964.869
		c24.577-164.624,16.978-962.102,16.978-962.102l186.503-21.201l-4.242-267.061h152.607
		c67.81-360.294,374.349-345.751,374.349-345.751l0.244-5.828l0.546-0.273V176.15h-69.947v-42.396h78.43V42.542l23.311-1.022
		l23.31,1.022v91.213h78.425v42.396h-69.942v186.503l0.547,0.273l0.244,5.828c0,0,306.539-14.543,374.343,345.751h152.606
		l-4.24,267.061l186.502,21.201c0,0-7.587,797.478,16.979,962.102H251.369z"/>
</g>
<rect x="417.7" y="1317.824" fill="#FFFCF5" width="188.397" height="23.798"/>
<rect x="1405.325" y="1317.824" fill="#FFFCF5" width="188.386" height="23.798"/>
</svg>
