<?xml version="1.0" encoding="utf-8"?>
<!-- Generator: Adobe Illustrator 16.0.0, SVG Export Plug-In . SVG Version: 6.00 Build 0)  -->
<!DOCTYPE svg PUBLIC "-//W3C//DTD SVG 1.1//EN" "http://www.w3.org/Graphics/SVG/1.1/DTD/svg11.dtd">
<svg version="1.1" id="Ebene_1" xmlns="http://www.w3.org/2000/svg" xmlns:xlink="http://www.w3.org/1999/xlink" x="0px" y="0px"
	 width="2000px" height="2000px" viewBox="0 0 2000 2000" enable-background="new 0 0 2000 2000" xml:space="preserve">
<g>
	<circle fill="#7F1D78" cx="1000" cy="1000" r="800"/>
</g>
<g enable-background="new    ">
	<path fill="#FFFFFF" d="M589.769,630.2l-4.615,36.665v12.563c0,40.684,0.897,67.605,2.692,80.766
		c1.794,13.164,3.629,24.959,5.512,35.383c1.879,10.428,4.315,19.317,7.308,26.665c2.989,7.352,6.538,14.274,10.641,20.769
		c8.205,12.992,19.57,19.486,34.101,19.486c5.981,0,13.417-3.117,22.307-9.358c8.886-6.238,15.64-9.358,20.255-9.358
		s9.571,2.651,14.871,7.948c0,17.606-10,30.17-29.999,37.69c-9.916,3.589-20.684,5.384-32.306,5.384
		c-11.626,0-21.537-2.352-29.742-7.051c-8.205-4.699-15.043-10.769-20.512-18.204c-5.472-7.436-10.256-16.962-14.358-28.589
		c-4.102-11.622-7.351-23.159-9.743-34.613c-2.051-11.622-3.762-24.955-5.128-39.998c-2.051-25.295-3.165-52.986-3.333-83.073
		l0.513-62.817c0-19.999,1.194-36.151,3.59-48.459c-1.026-5.641-1.539-11.109-1.539-16.409c0-21.537,8.033-38.672,24.102-51.407
		c16.065-12.732,35.896-19.103,59.484-19.103c8.373,0,16.578,2.353,24.614,7.052c8.033,4.703,12.051,10.896,12.051,18.589
		c0,3.762-1.454,6.666-4.359,8.717c-2.908,2.052-7.82,3.077-14.743,3.077s-11.666-2.136-14.23-6.41v0.257h-7.179v-1.282
		c-20.344,0-34.189,6.326-41.537,18.974c-6.838,11.626-10.256,31.625-10.256,59.997L589.769,630.2z"/>
	<path fill="#FFFFFF" d="M760.017,570.203l-2.051,131.02c6.322,1.711,15.896,2.564,28.716,2.564h18.974
		c0.853-1.539,1.282-7.18,1.282-16.923s-1.154-31.152-3.461-64.228s-3.461-57.985-3.461-74.74c0-3.93,1.539-7.219,4.615-9.871
		c3.077-2.647,5.981-3.974,8.718-3.974c2.732,0,4.956,0.256,6.666,0.769c1.707,0.513,3.59,1.198,5.641,2.052
		c2.051,0.857,3.673,1.454,4.872,1.795c0,45.47,1.667,111.917,5,199.349c3.333,87.432,5,132.602,5,135.506
		c0,2.909-1.839,5.77-5.513,8.59c-3.678,2.82-7.78,4.23-12.307,4.23c-4.531,0-8.165-3.333-10.897-9.999
		c-2.736-6.667-4.575-16.538-5.512-29.614c-0.942-13.076-1.583-24.398-1.923-33.973c-0.172-4.103-0.172-8.802,0-14.102
		c0-7.18,0.084-15.385,0.256-24.614c0.341-16.237,0.513-25.641,0.513-28.204v-2.051l0.769-15.128l-3.077-4.871v-0.514
		c-2.909,0.686-6.07,1.026-9.487,1.026l-33.845-4.872v60.254l3.077,86.405c0,4.96-1.282,9.359-3.846,13.205
		s-6.242,5.769-11.025,5.769c-7.011,0-11.838-6.365-14.487-19.102c-2.652-12.731-3.974-30.127-3.974-52.177l1.539-79.996
		c0-16.578-0.256-25.724-0.769-27.435v-2.563c1.366-18.289,2.051-28.545,2.051-30.769l-3.589-118.455
		c0-4.103,1.45-7.732,4.359-10.897c2.904-3.16,6.41-4.743,10.512-4.743C754.46,538.923,760.017,549.352,760.017,570.203z"/>
	<path fill="#FFFFFF" d="M1001.03,652.251l0.513,8.974c0,155.377-22.563,233.065-67.689,233.065
		c-17.435,0.168-30.343-6.923-38.716-21.281c-8.717-14.698-14.018-29.313-15.896-43.844c-2.909-22.391-4.575-48.074-5-77.048
		c-0.429-28.973-0.641-70.806-0.641-125.506l-2.307-75.125c3.245-7.348,6.962-11.025,11.153-11.025
		c4.187,0,7.904,3.205,11.153,9.615c3.245,6.41,4.872,13.205,4.872,20.384v142.813c0,12.479,1.238,31.024,3.718,55.639
		c2.476,24.613,3.718,43.162,3.718,55.638c0,25.64,11.109,38.46,33.332,38.46c24.955,0,37.434-94.098,37.434-282.294V551.23
		l-0.257-8.718c0-4.103,0.938-7.18,2.821-9.23c1.879-2.051,5.168-3.077,9.871-3.077c4.699,0,8.245,0.77,10.641,2.308
		c2.219,1.37,3.845,3.422,4.872,6.154c1.366,4.274,2.136,9.915,2.308,16.922l-3.59,52.818L1001.03,652.251z"/>
	<path fill="#FFFFFF" d="M1064.36,710.453l-0.513,56.92c0,46.324,3.333,82.816,10,109.482l-5.898,14.102h-14.613l-6.924-7.692
		c0.341-15.724,0.514-33.371,0.514-52.945c0-19.57-1.499-61.407-4.487-125.507c-2.993-64.1-4.487-111.958-4.487-143.583
		c0-16.577,5.809-24.87,17.436-24.87c18.288,0,33.672,4.787,46.151,14.358c12.476,9.574,18.717,23.248,18.717,41.023v36.921
		c0,10.088-1.883,19.274-5.641,27.563c-3.762,8.293-8.12,17.011-13.076,26.153c-4.96,9.146-7.692,14.229-8.204,15.255
		c1.879,8.55,5.211,25.3,9.999,50.254c10.256,54.529,21.621,93.758,34.101,117.687c3.59,6.839,5.385,12.18,5.385,16.025
		s-1.07,7.091-3.205,9.743c-2.14,2.647-5,3.974-8.59,3.974c-7.352,0-14.402-8.421-21.152-25.255
		c-6.755-16.834-12.18-35.511-16.281-56.022c-12.479-62.729-20.088-97.259-22.819-103.585H1064.36z M1066.412,555.846l-1.795,7.436
		c0,14.357,0.34,35.086,1.025,62.176c0.681,27.094,1.025,46.793,1.025,59.1c8.205-4.271,14.827-15.424,19.871-33.46
		c5.039-18.031,7.563-31.833,7.563-41.408c0-9.57-0.257-16.621-0.769-21.152c-0.514-4.527-1.627-9.527-3.334-14.999
		C1086.578,562.255,1078.719,556.358,1066.412,555.846z"/>
	<path fill="#FFFFFF" d="M1163.074,759.425l-0.257-30.768v-12.563c0-51.62,2.563-87.516,7.692-107.687
		c6.152-24.955,14.698-42.218,25.639-51.793c14.871-13.332,33.673-19.999,56.408-19.999c5.469,0,9.526,1.282,12.179,3.846
		c2.647,2.564,3.974,5.642,3.974,9.23c0,3.59-1.069,6.795-3.205,9.615c-2.139,2.82-4.831,4.318-8.076,4.487h-24.613
		c-7.18,0-13.422,4.615-18.718,13.845c-5.128,9.23-8.89,20.512-11.281,33.845c-4.447,25.3-6.583,46.24-6.41,62.817v2.564
		l-2.308,101.276c0,21.369,1.154,36.152,3.461,44.357c2.309,8.204,4.699,14.831,7.18,19.87c2.476,5.044,5.424,9.19,8.846,12.436
		c7.86,7.523,17.947,11.281,30.255,11.281c4.103,0,7.86-1.538,11.282-4.614c4.102,0,7.775,0.941,11.024,2.82
		c3.245,1.883,4.872,4.787,4.872,8.717c0,13.846-9.66,20.769-28.974,20.769c-7.864,0-16.112-1.153-24.742-3.461
		c-8.634-2.308-15.087-4.828-19.358-7.564C1174.695,867.713,1163.074,826.602,1163.074,759.425z"/>
	<path fill="#FFFFFF" d="M1329.477,570.203l-2.052,131.02c6.321,1.711,15.896,2.564,28.716,2.564h18.975
		c0.853-1.539,1.281-7.18,1.281-16.923s-1.154-31.152-3.461-64.228c-2.309-33.075-3.462-57.985-3.462-74.74
		c0-3.93,1.538-7.219,4.615-9.871c3.077-2.647,5.981-3.974,8.718-3.974c2.732,0,4.955,0.256,6.666,0.769
		c1.707,0.513,3.59,1.198,5.641,2.052c2.052,0.857,3.674,1.454,4.872,1.795c0,45.47,1.667,111.917,4.999,199.349
		c3.334,87.432,5,132.602,5,135.506c0,2.909-1.838,5.77-5.512,8.59c-3.678,2.82-7.781,4.23-12.308,4.23
		c-4.531,0-8.165-3.333-10.897-9.999c-2.736-6.667-4.574-16.538-5.512-29.614c-0.941-13.076-1.582-24.398-1.924-33.973
		c-0.172-4.103-0.172-8.802,0-14.102c0-7.18,0.085-15.385,0.257-24.614c0.341-16.237,0.513-25.641,0.513-28.204v-2.051l0.77-15.128
		l-3.076-4.871v-0.514c-2.909,0.686-6.07,1.026-9.487,1.026l-33.845-4.872v60.254l3.077,86.405c0,4.96-1.282,9.359-3.847,13.205
		c-2.563,3.846-6.241,5.769-11.024,5.769c-7.011,0-11.839-6.365-14.487-19.102c-2.651-12.731-3.974-30.127-3.974-52.177
		l1.538-79.996c0-16.578-0.256-25.724-0.769-27.435v-2.563c1.366-18.289,2.051-28.545,2.051-30.769l-3.589-118.455
		c0-4.103,1.449-7.732,4.358-10.897c2.904-3.16,6.409-4.743,10.513-4.743C1323.92,538.923,1329.477,549.352,1329.477,570.203z"/>
</g>
<g enable-background="new    ">
	<path fill="#FFFFFF" d="M590.316,1058.319c0-8.546,4.912-12.82,14.743-12.82c9.827,0,14.743,4.103,14.743,12.308
		c0,11.112-0.429,18.292-1.282,21.537v2.82c-4.788,14.53-7.179,30.6-7.179,48.203v38.459c0,21.882-2.692,54.829-8.076,98.842
		c-5.385,44.016-8.077,75.766-8.077,95.251c0,35.556-6.754,53.331-20.255,53.331c-10.088,0-15.127-7.479-15.127-22.435
		s-0.513-30.039-1.539-45.254c-1.025-15.212-2.692-31.962-5-50.255c-2.308-18.288-4.319-33.371-6.025-45.254
		c-1.711-11.878-4.275-28.885-7.692-51.022c-3.421-22.135-5.729-37.134-6.923-44.998c-1.198,11.626-1.795,23.332-1.795,35.126
		c0,11.795-1.326,34.062-3.974,66.792c-2.652,32.734-7.267,66.022-13.845,99.867c-6.583,33.844-14.062,50.767-22.435,50.767
		c-13.505-0.173-23.677-36.833-30.511-109.995c-3.077-31.448-5.813-63.073-8.205-94.867
		c-6.154-81.362-11.538-127.257-16.153-137.686c2.905-6.153,7.948-9.229,15.127-9.229c11.282,0,16.922,12.691,16.922,38.074
		c0,25.384,3.674,64.1,11.025,116.148c7.348,52.049,11.45,90.04,12.307,113.969c14.871-101.361,22.307-178.537,22.307-231.527
		l14.102-6.153c4.271,0,7.948,1.114,11.025,3.333c3.077,2.224,4.615,5.385,4.615,9.487v4.358
		c9.912,33.676,17.775,82.476,23.588,146.403c2.732,29.229,5.296,51.88,7.692,67.945c6.494-48.544,9.743-106.405,9.743-173.581
		c0-8.886,1.322-22.051,3.975-39.485c2.648-17.436,3.974-30.596,3.974-39.485C590.913,1064.216,590.316,1061.228,590.316,1058.319z"
		/>
	<path fill="#FFFFFF" d="M655.441,1133.443l-2.82-44.356c0-24.782,7.347-37.178,22.05-37.178c9.399,0,22.219,2.18,38.46,6.538
		c16.237,4.358,24.358,9.959,24.358,16.794c0,7.179-5.128,12.651-15.384,16.409c-16.241-5.468-29.485-8.802-39.741-9.999
		c0.513,7.523,0.769,15.043,0.769,22.563l-2.308,75.381c0,0.345,0.513,3.077,1.539,8.205l18.717-0.77
		c16.922,0,25.383,4.788,25.383,14.358c0,3.762-1.538,7.051-4.615,9.871c-3.077,2.82-6.967,4.23-11.666,4.23
		c-4.703,0-9.787-0.34-15.255-1.025h-13.333c1.026,13.333,1.539,26.581,1.539,39.742l-2.308,95.123
		c0,19.658,0.34,29.486,1.025,29.486l38.716-1.282c13.333,0,19.999,4.274,19.999,12.819c0,5.301-2.308,9.143-6.923,11.538
		c-4.615,2.392-9.831,3.59-15.64,3.59h-44.357c-4.615,0-8.806-1.583-12.563-4.743c-3.762-3.161-5.729-6.963-5.897-11.41v-13.846
		l-3.333-88.713L655.441,1133.443z"/>
	<path fill="#FFFFFF" d="M768.769,1332.921l1.539-165.377c0-11.281-1.025-28.5-3.077-51.664
		c-2.051-23.159-3.077-37.902-3.077-44.229c0-6.321,1.963-11.237,5.897-14.742c3.93-3.502,8.117-5.257,12.563-5.257
		c36.064,0,65.381,21.113,87.944,63.33c12.988,24.102,19.486,49.573,19.486,76.407l-1.026,26.408v28.974
		c0,35.214-1.582,58.715-4.743,70.509c-3.165,11.795-6.454,21.626-9.871,29.486c-3.421,7.864-7.524,14.871-12.307,21.024
		c-11.113,14.018-25.127,25.299-42.049,33.845h-37.947C773.212,1401.636,768.769,1378.731,768.769,1332.921z M805.434,1362.406
		v12.563c30.423,0,48.716-30.768,54.869-92.303c1.366-14.187,2.051-27.859,2.051-41.023c0-105.636-20.344-160.846-61.023-165.633
		c-2.564,13.845-3.846,32.862-3.846,57.048c0,24.189,1.322,62.009,3.974,113.456
		C804.107,1297.967,805.434,1336.599,805.434,1362.406z"/>
	<path fill="#FFFFFF" d="M925.171,1332.921l1.539-165.377c0-11.281-1.025-28.5-3.077-51.664
		c-2.051-23.159-3.077-37.902-3.077-44.229c0-6.321,1.963-11.237,5.897-14.742c3.93-3.502,8.117-5.257,12.563-5.257
		c36.064,0,65.382,21.113,87.944,63.33c12.988,24.102,19.486,49.573,19.486,76.407l-1.025,26.408v28.974
		c0,35.214-1.582,58.715-4.744,70.509c-3.164,11.795-6.453,21.626-9.871,29.486c-3.421,7.864-7.523,14.871-12.307,21.024
		c-11.113,14.018-25.127,25.299-42.049,33.845h-37.947C929.614,1401.636,925.171,1378.731,925.171,1332.921z M961.836,1362.406
		v12.563c30.423,0,48.716-30.768,54.869-92.303c1.366-14.187,2.051-27.859,2.051-41.023c0-105.636-20.343-160.846-61.022-165.633
		c-2.564,13.845-3.846,32.862-3.846,57.048c0,24.189,1.322,62.009,3.974,113.456C960.51,1297.967,961.836,1336.599,961.836,1362.406
		z"/>
	<path fill="#FFFFFF" d="M1136.186,1223.952l2.564,111.532v15.641l-0.256,14.614h6.922l15.128-0.513
		c14.358,0,21.538,4.359,21.538,13.076c0,4.447-1.756,8.249-5.257,11.41c-3.505,3.165-7.563,4.743-12.179,4.743h-23.076
		c-15.896,0-26.068-0.341-30.512-1.025c-2.736,0.345-4.871,0.513-6.409,0.513c-12.479,0-18.718-3.93-18.718-11.794
		c0-3.245,1.026-6.322,3.077-9.23c2.052-2.904,4.103-4.443,6.153-4.615h14.871l1.025-6.923l-3.589-111.533l2.82-116.917
		c0-19.999-0.857-38.8-2.563-56.407h-10l-12.051,0.513c-5.128,0-9.146-0.981-12.051-2.948c-2.908-1.964-4.358-5.682-4.358-11.153
		c0-8.033,8.63-12.051,25.896-12.051h62.562c14.187,0,21.28,3.678,21.28,11.024c0,3.249-1.537,6.242-4.614,8.975
		c-3.077,2.736-6.583,4.102-10.513,4.102h-26.922c1.366,14.358,2.051,30.6,2.051,48.716L1136.186,1223.952z"/>
	<path fill="#FFFFFF" d="M1207.209,1186.005l3.076-97.943c0-16.237,6.41-29.142,19.229-38.717v3.333
		c1.366-0.853,2.648-1.281,3.847-1.281c8.204,0,18.46,14.146,30.768,42.434c12.307,28.292,23.416,59.356,33.332,93.2
		c9.91,33.845,19.781,67.989,29.613,102.431c9.827,34.446,15.937,54.657,18.332,60.639c7.008-73.33,10.513-162.128,10.513-266.397
		l-0.769-14.102c0-10.424,4.357-15.641,13.076-15.641c4.955,0,8.673,2.052,11.152,6.153c2.477,4.103,3.719,8.891,3.719,14.358
		v39.742c-0.346,41.195-2.18,96.193-5.514,164.991c-3.332,68.803-7.82,107.647-13.461,116.533
		c-9.574,2.904-16.197,4.358-19.87,4.358c-3.678,0-6.498-1.241-8.462-3.718c-1.967-2.476-3.549-6.281-4.742-11.409
		c-1.198-5.128-2.225-8.546-3.077-10.256l0.257-2.308c0-12.988-12.564-54.269-37.691-123.84
		c-25.127-69.568-43.33-117.431-54.612-143.583v264.346c0.341,0.686,1.025,1.883,2.052,3.59c2.219,3.762,3.332,7.268,3.332,10.512
		c0,3.249-1.582,6.499-4.742,9.743c-3.166,3.249-6.883,4.872-11.154,4.872c-11.453,0-17.178-10.681-17.178-32.05L1207.209,1186.005z
		"/>
	<path fill="#FFFFFF" d="M1547.191,1293.179l2.564,55.639c0,17.267-6.025,30.556-18.076,39.87
		c-12.051,9.318-26.112,13.974-42.178,13.974c-24.273,0-41.881-9.059-52.817-27.179c-7.864-12.819-12.82-24.91-14.871-36.28
		c-2.052-11.365-3.506-20.127-4.358-26.28c-0.857-6.153-1.455-14.442-1.795-24.871c-0.686-14.526-1.025-26.236-1.025-35.126v-22.563
		c0-49.396,1.449-80.637,4.357-93.713c2.905-13.076,6.238-25.255,10-36.537c3.758-11.281,8.373-19.999,13.846-26.152
		c13.16-15.039,28.372-22.563,45.639-22.563c17.263,0,25.896,4.446,25.896,13.332c0,4.103-1.711,7.48-5.128,10.128
		c-3.422,2.652-7.268,3.975-11.538,3.975l-11.025-1.282c-12.139,0-21.281,11.967-27.435,35.896
		c-8.89,34.189-13.332,75.469-13.332,123.84c0,32.991,1.065,55.683,3.204,68.074c2.136,12.395,4.487,22.779,7.052,31.152
		c2.392,8.549,5.296,15.384,8.717,20.512c8.033,12.139,18.373,18.204,31.024,18.204c16.922,0,25.384-27.859,25.384-83.586v-24.102
		c-2.564-1.366-6.667-2.051-12.308-2.051l-10.256,0.256c-12.139,0-18.204-4.014-18.204-12.05c0-4.956,1.751-8.718,5.256-11.282
		c3.502-2.563,7.732-3.846,12.692-3.846v0.257h7.179c31.449,0,47.177,5.384,47.177,16.152L1547.191,1293.179z"/>
</g>
</svg>
