<?xml version="1.0" encoding="utf-8"?>
<!-- Generator: Adobe Illustrator 16.0.0, SVG Export Plug-In . SVG Version: 6.00 Build 0)  -->
<!DOCTYPE svg PUBLIC "-//W3C//DTD SVG 1.1//EN" "http://www.w3.org/Graphics/SVG/1.1/DTD/svg11.dtd">
<svg version="1.1" id="Ebene_1" xmlns="http://www.w3.org/2000/svg" xmlns:xlink="http://www.w3.org/1999/xlink" x="0px" y="0px"
	 width="2000px" height="2000px" viewBox="0 0 2000 2000" enable-background="new 0 0 2000 2000" xml:space="preserve">
<g>
	<circle fill="#FF46AF" cx="1000" cy="1000" r="800"/>
</g>
<g enable-background="new    ">
	<path fill="#FFFFFF" d="M589.77,630.2l-4.615,36.665v12.563c0,40.685,0.896,67.605,2.691,80.767
		c1.794,13.164,3.629,24.959,5.513,35.383c1.879,10.428,4.314,19.316,7.308,26.665c2.989,7.352,6.538,14.273,10.641,20.769
		c8.205,12.992,19.57,19.486,34.102,19.486c5.98,0,13.417-3.117,22.307-9.358c8.887-6.237,15.641-9.357,20.255-9.357
		c4.615,0,9.571,2.65,14.871,7.947c0,17.606-10,30.171-29.999,37.69c-9.916,3.589-20.684,5.384-32.306,5.384
		c-11.626,0-21.537-2.352-29.742-7.051s-15.043-10.769-20.512-18.204c-5.472-7.436-10.256-16.962-14.358-28.589
		c-4.102-11.622-7.351-23.159-9.743-34.613c-2.051-11.622-3.762-24.955-5.128-39.998c-2.051-25.295-3.165-52.985-3.333-83.072
		l0.514-62.817c0-19.999,1.193-36.151,3.59-48.459c-1.026-5.641-1.539-11.109-1.539-16.409c0-21.537,8.033-38.672,24.102-51.407
		c16.065-12.731,35.896-19.103,59.484-19.103c8.373,0,16.578,2.353,24.614,7.052c8.033,4.703,12.051,10.896,12.051,18.589
		c0,3.763-1.454,6.666-4.359,8.717c-2.908,2.053-7.819,3.077-14.742,3.077c-6.924,0-11.666-2.136-14.23-6.409v0.257h-7.179v-1.282
		c-20.345,0-34.189,6.326-41.537,18.974c-6.838,11.626-10.256,31.625-10.256,59.997L589.77,630.2z"/>
	<path fill="#FFFFFF" d="M760.018,570.203l-2.052,131.02c6.322,1.711,15.896,2.564,28.716,2.564h18.975
		c0.853-1.539,1.281-7.18,1.281-16.923s-1.153-31.152-3.461-64.229c-2.307-33.075-3.461-57.984-3.461-74.739
		c0-3.931,1.539-7.22,4.615-9.871c3.077-2.647,5.981-3.975,8.718-3.975c2.732,0,4.956,0.256,6.666,0.77
		c1.707,0.513,3.591,1.198,5.642,2.052c2.051,0.857,3.673,1.454,4.872,1.795c0,45.47,1.667,111.917,5,199.349
		c3.333,87.433,5,132.603,5,135.507c0,2.908-1.839,5.77-5.514,8.59c-3.678,2.819-7.779,4.229-12.307,4.229
		c-4.531,0-8.165-3.333-10.897-9.999c-2.735-6.667-4.574-16.538-5.512-29.613c-0.941-13.076-1.583-24.398-1.923-33.974
		c-0.172-4.103-0.172-8.802,0-14.102c0-7.181,0.084-15.385,0.256-24.614c0.341-16.237,0.513-25.641,0.513-28.204v-2.051l0.77-15.128
		l-3.077-4.871v-0.514c-2.909,0.686-6.07,1.025-9.487,1.025l-33.845-4.872v60.254l3.077,86.405c0,4.96-1.282,9.359-3.846,13.205
		c-2.564,3.846-6.242,5.769-11.025,5.769c-7.011,0-11.838-6.364-14.487-19.102c-2.651-12.73-3.974-30.127-3.974-52.177l1.539-79.996
		c0-16.578-0.256-25.724-0.77-27.436v-2.563c1.366-18.289,2.052-28.545,2.052-30.769l-3.589-118.455
		c0-4.104,1.449-7.732,4.358-10.897c2.904-3.16,6.41-4.743,10.513-4.743C754.46,538.923,760.018,549.352,760.018,570.203z"/>
	<path fill="#FFFFFF" d="M1001.03,652.251l0.513,8.974c0,155.377-22.563,233.065-67.689,233.065
		c-17.435,0.168-30.343-6.923-38.716-21.281c-8.717-14.698-14.018-29.313-15.896-43.844c-2.909-22.391-4.575-48.074-5-77.048
		c-0.43-28.974-0.641-70.807-0.641-125.506l-2.308-75.125c3.245-7.349,6.962-11.025,11.153-11.025c4.187,0,7.904,3.205,11.152,9.615
		c3.245,6.41,4.872,13.205,4.872,20.384v142.813c0,12.479,1.238,31.023,3.719,55.639c2.476,24.613,3.718,43.162,3.718,55.638
		c0,25.64,11.109,38.46,33.332,38.46c24.955,0,37.434-94.098,37.434-282.294V551.23l-0.257-8.719c0-4.103,0.938-7.18,2.821-9.229
		c1.879-2.052,5.168-3.077,9.871-3.077c4.699,0,8.244,0.77,10.641,2.308c2.219,1.37,3.845,3.422,4.872,6.154
		c1.366,4.274,2.136,9.915,2.308,16.922l-3.59,52.818L1001.03,652.251z"/>
	<path fill="#FFFFFF" d="M1064.36,710.453l-0.514,56.92c0,46.324,3.333,82.816,10,109.482l-5.897,14.102h-14.613l-6.924-7.692
		c0.341-15.724,0.514-33.371,0.514-52.944c0-19.57-1.499-61.407-4.486-125.508c-2.993-64.1-4.487-111.958-4.487-143.583
		c0-16.576,5.809-24.869,17.436-24.869c18.288,0,33.673,4.786,46.151,14.357c12.476,9.574,18.717,23.248,18.717,41.023v36.921
		c0,10.088-1.883,19.273-5.641,27.563c-3.762,8.293-8.12,17.012-13.076,26.153c-4.96,9.146-7.692,14.229-8.204,15.255
		c1.879,8.55,5.211,25.3,9.999,50.254c10.256,54.529,21.621,93.758,34.102,117.688c3.59,6.839,5.385,12.18,5.385,16.024
		c0,3.846-1.07,7.092-3.205,9.743c-2.141,2.647-5,3.975-8.59,3.975c-7.353,0-14.402-8.422-21.152-25.256
		c-6.755-16.834-12.18-35.511-16.281-56.021c-12.479-62.729-20.088-97.259-22.818-103.585L1064.36,710.453L1064.36,710.453z
		 M1066.412,555.846l-1.795,7.437c0,14.356,0.34,35.086,1.024,62.176c0.682,27.094,1.025,46.793,1.025,59.1
		c8.205-4.271,14.827-15.424,19.871-33.46c5.039-18.03,7.563-31.833,7.563-41.408c0-9.569-0.257-16.62-0.769-21.151
		c-0.514-4.527-1.627-9.527-3.334-14.999C1086.578,562.255,1078.719,556.358,1066.412,555.846z"/>
	<path fill="#FFFFFF" d="M1163.074,759.425l-0.257-30.768v-12.563c0-51.62,2.563-87.516,7.691-107.687
		c6.152-24.955,14.698-42.218,25.64-51.793c14.871-13.332,33.673-19.999,56.407-19.999c5.47,0,9.526,1.281,12.18,3.846
		c2.646,2.564,3.974,5.643,3.974,9.23c0,3.59-1.069,6.795-3.205,9.614c-2.139,2.82-4.831,4.318-8.076,4.487h-24.613
		c-7.18,0-13.422,4.615-18.718,13.845c-5.128,9.23-8.89,20.513-11.28,33.845c-4.447,25.301-6.584,46.24-6.41,62.817v2.564
		l-2.309,101.275c0,21.369,1.154,36.152,3.461,44.357c2.31,8.204,4.699,14.831,7.181,19.87c2.476,5.044,5.424,9.189,8.846,12.436
		c7.86,7.523,17.947,11.281,30.255,11.281c4.104,0,7.86-1.538,11.282-4.614c4.102,0,7.774,0.941,11.024,2.82
		c3.244,1.883,4.871,4.787,4.871,8.717c0,13.846-9.66,20.769-28.974,20.769c-7.864,0-16.112-1.152-24.742-3.461
		c-8.634-2.308-15.087-4.827-19.357-7.563C1174.695,867.713,1163.074,826.602,1163.074,759.425z"/>
	<path fill="#FFFFFF" d="M1329.477,570.203l-2.052,131.02c6.321,1.711,15.896,2.564,28.716,2.564h18.976
		c0.853-1.539,1.28-7.18,1.28-16.923s-1.153-31.152-3.461-64.229c-2.309-33.074-3.462-57.984-3.462-74.739
		c0-3.931,1.538-7.22,4.615-9.871c3.077-2.647,5.981-3.975,8.718-3.975c2.732,0,4.955,0.256,6.666,0.77
		c1.707,0.513,3.59,1.198,5.641,2.052c2.053,0.857,3.675,1.454,4.873,1.795c0,45.47,1.666,111.917,4.998,199.349
		c3.334,87.433,5,132.603,5,135.507c0,2.908-1.838,5.77-5.512,8.59c-3.678,2.819-7.781,4.229-12.308,4.229
		c-4.531,0-8.165-3.333-10.897-9.999c-2.735-6.667-4.574-16.538-5.512-29.613c-0.941-13.076-1.582-24.398-1.924-33.974
		c-0.172-4.103-0.172-8.802,0-14.102c0-7.181,0.085-15.385,0.257-24.614c0.341-16.237,0.513-25.641,0.513-28.204v-2.051
		l0.771-15.128l-3.076-4.871v-0.514c-2.909,0.686-6.069,1.025-9.487,1.025l-33.845-4.872v60.254l3.077,86.405
		c0,4.96-1.282,9.359-3.848,13.205c-2.563,3.846-6.24,5.769-11.023,5.769c-7.011,0-11.839-6.364-14.487-19.102
		c-2.651-12.73-3.974-30.127-3.974-52.177l1.538-79.996c0-16.578-0.257-25.724-0.77-27.436v-2.563
		c1.366-18.289,2.051-28.545,2.051-30.769l-3.589-118.455c0-4.104,1.449-7.732,4.358-10.897c2.904-3.16,6.409-4.743,10.513-4.743
		C1323.92,538.923,1329.477,549.352,1329.477,570.203z"/>
</g>
<g enable-background="new    ">
	<path fill="#FFFFFF" d="M590.316,1058.319c0-8.546,4.912-12.82,14.742-12.82c9.827,0,14.743,4.103,14.743,12.308
		c0,11.112-0.429,18.292-1.282,21.537v2.82c-4.787,14.53-7.179,30.6-7.179,48.203v38.459c0,21.882-2.692,54.829-8.076,98.842
		c-5.385,44.016-8.077,75.766-8.077,95.251c0,35.556-6.754,53.331-20.255,53.331c-10.088,0-15.127-7.479-15.127-22.436
		c0-14.955-0.513-30.038-1.539-45.254c-1.024-15.212-2.691-31.962-5-50.255c-2.308-18.288-4.318-33.371-6.024-45.254
		c-1.711-11.878-4.275-28.885-7.692-51.021c-3.421-22.136-5.729-37.135-6.923-44.998c-1.198,11.626-1.795,23.332-1.795,35.126
		c0,11.795-1.326,34.062-3.975,66.792c-2.651,32.733-7.267,66.021-13.845,99.866c-6.583,33.845-14.062,50.768-22.435,50.768
		c-13.505-0.173-23.678-36.833-30.512-109.995c-3.076-31.448-5.813-63.073-8.204-94.867
		c-6.154-81.362-11.538-127.257-16.153-137.686c2.905-6.153,7.948-9.229,15.127-9.229c11.282,0,16.922,12.691,16.922,38.074
		c0,25.384,3.674,64.1,11.025,116.147c7.348,52.05,11.45,90.04,12.307,113.97c14.871-101.361,22.307-178.537,22.307-231.527
		l14.103-6.153c4.271,0,7.948,1.114,11.024,3.333c3.078,2.225,4.615,5.386,4.615,9.487v4.358
		c9.912,33.676,17.775,82.476,23.588,146.402c2.732,29.229,5.297,51.881,7.692,67.945c6.494-48.544,9.743-106.405,9.743-173.581
		c0-8.886,1.322-22.051,3.975-39.485c2.648-17.436,3.975-30.596,3.975-39.484C590.913,1064.216,590.316,1061.229,590.316,1058.319z"
		/>
	<path fill="#FFFFFF" d="M655.441,1133.443l-2.82-44.356c0-24.782,7.347-37.178,22.05-37.178c9.399,0,22.219,2.18,38.46,6.538
		c16.237,4.357,24.358,9.959,24.358,16.794c0,7.179-5.128,12.65-15.384,16.409c-16.241-5.469-29.485-8.803-39.741-9.999
		c0.513,7.522,0.769,15.043,0.769,22.563l-2.308,75.381c0,0.345,0.513,3.077,1.539,8.205l18.717-0.77
		c16.922,0,25.383,4.788,25.383,14.357c0,3.763-1.538,7.052-4.615,9.871c-3.077,2.82-6.967,4.23-11.666,4.23
		c-4.702,0-9.786-0.341-15.255-1.025h-13.333c1.026,13.333,1.539,26.581,1.539,39.742l-2.308,95.123
		c0,19.657,0.34,29.485,1.024,29.485l38.716-1.281c13.334,0,20,4.273,20,12.818c0,5.301-2.309,9.144-6.924,11.538
		c-4.614,2.392-9.83,3.59-15.64,3.59h-44.356c-4.615,0-8.807-1.583-12.563-4.743c-3.762-3.16-5.729-6.963-5.897-11.41v-13.846
		l-3.332-88.713L655.441,1133.443z"/>
	<path fill="#FFFFFF" d="M768.77,1332.921l1.538-165.377c0-11.281-1.024-28.5-3.077-51.664c-2.051-23.159-3.076-37.901-3.076-44.229
		c0-6.321,1.963-11.237,5.896-14.742c3.93-3.502,8.117-5.257,12.563-5.257c36.063,0,65.381,21.113,87.943,63.33
		c12.988,24.102,19.486,49.572,19.486,76.406l-1.026,26.408v28.975c0,35.214-1.582,58.715-4.742,70.509
		c-3.166,11.795-6.454,21.626-9.871,29.485c-3.422,7.864-7.524,14.871-12.308,21.024c-11.112,14.019-25.127,25.299-42.049,33.845
		h-37.947C773.212,1401.636,768.77,1378.73,768.77,1332.921z M805.434,1362.406v12.563c30.424,0,48.717-30.768,54.869-92.303
		c1.366-14.188,2.051-27.859,2.051-41.023c0-105.636-20.344-160.846-61.022-165.633c-2.563,13.846-3.846,32.862-3.846,57.048
		c0,24.189,1.321,62.01,3.974,113.456C804.107,1297.967,805.434,1336.599,805.434,1362.406z"/>
	<path fill="#FFFFFF" d="M925.171,1332.921l1.539-165.377c0-11.281-1.024-28.5-3.077-51.664
		c-2.051-23.159-3.077-37.901-3.077-44.229c0-6.321,1.964-11.237,5.897-14.742c3.93-3.502,8.117-5.257,12.563-5.257
		c36.064,0,65.383,21.113,87.944,63.33c12.988,24.102,19.486,49.572,19.486,76.406l-1.025,26.408v28.975
		c0,35.214-1.582,58.715-4.744,70.509c-3.164,11.795-6.453,21.626-9.871,29.485c-3.421,7.864-7.522,14.871-12.307,21.024
		c-11.113,14.019-25.127,25.299-42.049,33.845h-37.947C929.614,1401.636,925.171,1378.73,925.171,1332.921z M961.836,1362.406
		v12.563c30.423,0,48.716-30.768,54.869-92.303c1.366-14.188,2.051-27.859,2.051-41.023c0-105.636-20.343-160.846-61.021-165.633
		c-2.564,13.846-3.847,32.862-3.847,57.048c0,24.189,1.322,62.01,3.975,113.456C960.51,1297.967,961.836,1336.599,961.836,1362.406z
		"/>
	<path fill="#FFFFFF" d="M1136.186,1223.952l2.564,111.532v15.641l-0.256,14.614h6.922l15.128-0.513
		c14.358,0,21.538,4.358,21.538,13.075c0,4.447-1.756,8.249-5.257,11.41c-3.505,3.165-7.563,4.743-12.179,4.743h-23.076
		c-15.896,0-26.068-0.341-30.512-1.025c-2.736,0.346-4.871,0.514-6.409,0.514c-12.479,0-18.719-3.931-18.719-11.794
		c0-3.245,1.026-6.322,3.077-9.23c2.053-2.903,4.104-4.442,6.153-4.614h14.871l1.024-6.924l-3.589-111.532l2.82-116.917
		c0-19.999-0.857-38.801-2.563-56.407h-10l-12.051,0.513c-5.128,0-9.146-0.98-12.051-2.948c-2.908-1.964-4.358-5.682-4.358-11.152
		c0-8.033,8.63-12.052,25.896-12.052h62.562c14.188,0,21.28,3.679,21.28,11.024c0,3.249-1.537,6.242-4.614,8.976
		c-3.077,2.735-6.583,4.102-10.513,4.102h-26.922c1.366,14.358,2.051,30.6,2.051,48.716L1136.186,1223.952z"/>
	<path fill="#FFFFFF" d="M1207.209,1186.005l3.076-97.942c0-16.237,6.41-29.143,19.229-38.718v3.333
		c1.366-0.853,2.648-1.281,3.848-1.281c8.204,0,18.46,14.146,30.768,42.435c12.307,28.292,23.416,59.355,33.332,93.2
		c9.91,33.845,19.781,67.988,29.613,102.431c9.827,34.446,15.937,54.657,18.332,60.639c7.008-73.329,10.513-162.128,10.513-266.396
		l-0.769-14.103c0-10.424,4.356-15.641,13.076-15.641c4.955,0,8.672,2.052,11.151,6.153c2.478,4.103,3.72,8.891,3.72,14.357v39.742
		c-0.347,41.195-2.181,96.193-5.515,164.991c-3.332,68.803-7.819,107.646-13.461,116.533c-9.574,2.903-16.197,4.357-19.87,4.357
		c-3.678,0-6.498-1.241-8.462-3.718c-1.967-2.476-3.549-6.281-4.742-11.409c-1.198-5.128-2.225-8.546-3.077-10.256l0.257-2.309
		c0-12.987-12.563-54.269-37.69-123.84c-25.127-69.567-43.33-117.431-54.612-143.583v264.347c0.341,0.686,1.025,1.883,2.052,3.59
		c2.219,3.762,3.332,7.268,3.332,10.512c0,3.249-1.582,6.499-4.742,9.743c-3.166,3.249-6.883,4.872-11.153,4.872
		c-11.453,0-17.179-10.682-17.179-32.05L1207.209,1186.005z"/>
	<path fill="#FFFFFF" d="M1547.191,1293.179l2.563,55.64c0,17.267-6.024,30.556-18.076,39.869
		c-12.051,9.318-26.112,13.975-42.178,13.975c-24.272,0-41.881-9.059-52.817-27.179c-7.863-12.819-12.819-24.91-14.871-36.28
		c-2.052-11.365-3.506-20.127-4.357-26.28c-0.857-6.153-1.455-14.442-1.795-24.871c-0.687-14.525-1.025-26.235-1.025-35.126v-22.563
		c0-49.396,1.449-80.637,4.357-93.713c2.904-13.076,6.238-25.256,10-36.537c3.758-11.281,8.373-19.999,13.846-26.152
		c13.16-15.039,28.372-22.563,45.639-22.563c17.264,0,25.896,4.445,25.896,13.332c0,4.103-1.711,7.479-5.128,10.128
		c-3.423,2.651-7.269,3.975-11.538,3.975l-11.025-1.282c-12.139,0-21.281,11.968-27.435,35.896
		c-8.89,34.188-13.332,75.469-13.332,123.84c0,32.991,1.064,55.683,3.204,68.074c2.136,12.395,4.486,22.779,7.052,31.151
		c2.392,8.55,5.296,15.385,8.717,20.513c8.033,12.139,18.373,18.203,31.024,18.203c16.922,0,25.384-27.858,25.384-83.586v-24.102
		c-2.563-1.366-6.667-2.051-12.308-2.051l-10.256,0.256c-12.14,0-18.205-4.014-18.205-12.05c0-4.956,1.752-8.719,5.257-11.282
		c3.502-2.563,7.731-3.846,12.692-3.846v0.257h7.178c31.449,0,47.178,5.384,47.178,16.151L1547.191,1293.179z"/>
</g>
</svg>
