<?xml version="1.0" encoding="utf-8"?>
<!-- Generator: Adobe Illustrator 16.0.0, SVG Export Plug-In . SVG Version: 6.00 Build 0)  -->
<!DOCTYPE svg PUBLIC "-//W3C//DTD SVG 1.1//EN" "http://www.w3.org/Graphics/SVG/1.1/DTD/svg11.dtd">
<svg version="1.1" id="layer1" xmlns="http://www.w3.org/2000/svg" xmlns:xlink="http://www.w3.org/1999/xlink" x="0px" y="0px"
	 width="2000px" height="2000px" viewBox="0 0 2000 2000" enable-background="new 0 0 2000 2000" xml:space="preserve">
<g>
	<path d="M1389.121,1185.197c27.467-76.615,15.506-207.911-45.717-374.634"/>
	<path fill="#FFFFFF" d="M703.782,511.161l540.619-11.716l74.167,292.736c0,0,105.385,234.183,58.547,386.405
		c0,0,42.927,132.715-281.026,316.155c0,0-46.837,210.771,50.737,320.065l58.547,54.636c0,0,140.514,62.459,128.804,81.966
		c-11.709,19.521-737.694,46.838-690.856-19.507c46.838-66.358,207.843-60.515,211.742-146.369h2.196l51.475-48.793l10.731-118.066
		l-18.536-127.831c0,0-374.702-105.374-331.769-429.35l66.351-300.54L703.782,511.161"/>
	<path fill="#FFDB70" d="M656.001,727.288l635.236-1.464c0,0,150.759,275.635,61.407,512.499c0,0-62.939,173.743-298.522,231.056
		c0,0-83.362,39.977-172.714-5.854c-89.365-45.854-339.013-115.048-297.413-410.813
		C625.596,756.956,656.001,727.288,656.001,727.288z"/>
	<path fill="#F97979" d="M789.579,733.131l2.206-367.983L489.141,137.425c0,0-8.93-90.108,64.403-36.592
		c54.156,39.52,291.34,229.649,291.34,229.649l-2.212,393.805"/>
	<path d="M844.884,330.482c0-15.483-190.255-157.071-212.382-172.559c-22.126-15.483-90.713-73.007-90.713-73.007
		c-80.057-20.965-59.959,66.215-52.864,59.69c18.062,12.802,292.582,207.888,294.017,226.436c1.475,19.176-5.9,361.357-5.9,361.357
		l12.539,0.731c0,0,14.007-345.863,2.206-367.983C781.1,345.096,536.54,167.517,490.857,134.452c0-0.349,0.057-0.503,0.057-0.869
		c0-48.667,44.242-37.61,44.242-37.61c0,11.063,296.452,205.75,294.246,236.728c-2.213,30.972,13.271,391.586,13.271,391.586
		l-53.093,8.844c0,0,66.368,0,64.156-8.844C851.528,715.436,844.884,345.971,844.884,330.482z"/>
	<path fill="#F4E3B8" d="M664.783,692.159l-21.955,92.213c0,0,117.094-26.347,152.222-26.347c35.128,0,73.184,1.464,106.849,4.392
		c33.665,2.927,26.346,7.317,100.994,7.317s128.805-1.463,165.396-5.854c36.593-4.391,128.805,2.928,133.195,5.854
		c4.392,2.928-4.391-61.475-4.391-61.475s-99.53,11.71-127.341,13.174c-27.81,1.464-162.469-8.782-180.032-8.782
		c-17.564,0-109.776-4.392-141.977-2.928S673.565,695.087,664.783,692.159z"/>
	<path fill="#80D54D" d="M1154.075,284.879c0,0,198.637,86.735,210.347,121.864l153.023-169.77l-117.895,8.765l70.256-181.496
		l-178.569,117.095L1244.4,20.331C1244.4,20.331,1207.19,204,1154.075,284.879z"/>
	<path opacity="0.4" fill="#5E9937" d="M1197.563,321.849c0,0,49.765-122.949,49.765-161.004c0,0-2.927,102.457-8.781,120.021
		l137.585-117.094l-58.547,155.15c0,0,108.313-35.127,117.094-38.056c8.783-2.927-105.385,79.039-111.239,111.24l-137.586-70.256"/>
	<path fill="#FFF6BE" d="M966.301,345.268c0,0,420.568,374.702,465.45,494.724c0,0,55.62-87.822,49.765-155.15
		C1475.661,617.513,1335.147,134.498,966.301,345.268z"/>
	<path fill="#DDB27F" d="M1359.551,489.686c0,0,95.242,114.723,78.135,340.266c14.134-24.819,48.495-91.411,43.83-145.109
		c-5.854-67.329-146.368-550.344-515.215-339.574C966.301,345.268,1181.953,253.548,1359.551,489.686z"/>
	<path opacity="0.3" d="M703.782,511.161c0,0-106.328,372.741-106.328,402.015c0,29.273-180.514,405.925,303.473,577.667
		l3.899,10.737c0,0,32.201,161.005,14.637,187.352c-17.564,26.346-86.837,143.44-276.144,242.971c0,0-37.083,29.274,97.575,35.128
		h439.104c0,0-386.412-14.638-377.629-40.984c8.781-26.345,140.513-117.093,158.078-166.858
		c17.563-49.765,22.434-260.535,22.434-260.535s87.822,17.564,214.682-87.82c0,0-322.01,46.838-427.395-172.714
		S822.86,497.49,822.86,497.49L703.782,511.161z"/>
	<path d="M1117.746,1494.925c18.456-26.678,69.547-43.407,88.496-56.054c53.092-35.403,156.327-58.936,191.729-232.977
		c16.227-79.748,6.655-228.608-54.567-395.331c-32.075-87.312-87.02-319.683-87.02-319.683l-283.966-4.139l0,0l-280.546,1.195
		c0,0-49.302,232.364-78.084,319.682c-54.944,166.722-71.336,301.478-56.505,380.585c28.758,153.435,117.54,194.681,165.189,230.083
		c16.999,12.636,145.676,73.619,162.228,100.297c13.792,22.195,14.758,85.545,14.758,85.545
		c46.031,146.002-150.439,253.676-227.442,294.703c-21.098,7.969-55.74,17.976-52.79,44.526
		c2.973,26.804,172.743,35.977,324.479,37.988v3.249c176.271-1.225,428.413-7.318,412.975-32.453
		c-15.928-25.936-54.646-42.391-78.181-50.361c-87.89-64.972-207.957-188.574-178.454-315.411
		C1100.045,1586.37,1102.389,1517.12,1117.746,1494.925z M1073.504,1686.621c23.042,72.43-1.543,127.295,225.35,238.408
		c2.858,7.102,7.227,27.547-36.568,29.994c-29.274,1.624-169.696,2.355-289.866,2.675v-2.868
		c-112.498-0.287-257.414-1.704-285.846-2.758c-76.197-2.812,24.476-34.076,27.049-41.165
		c174.029-91.457,188.758-128.151,209.432-200.593c18.525-64.928,2.95-233.09,2.95-233.09
		c-312.673-132.738-366.737-241.828-342.181-433.616c12.201-95.236,46.255-178.546,65.694-262.536
		c35.522-153.435,54.264-269.912,54.264-269.912l239.923,1.04l0,0l299.402,1.91c0,0,20.893,116.482,60.479,269.905
		c21.659,83.997,63.968,175.481,58.982,271.393c-11.79,227.191-41.28,286.127-294.978,430.665
		C1067.592,1486.074,1052.853,1621.693,1073.504,1686.621z"/>
	<path d="M1545.461,228.122c0,0-88.484-4.425-132.738,10.326c0,0,57.519-175.517,64.895-185.837
		c7.376-10.331-119.462,61.943-181.417,119.468c0,0-38.353-148.964-61.943-163.715c0,0,18.696,68.335-80.182,276.515
		c-31.538-3.184-62.722-0.766-91.881,7.233c-62.011,14.597-116.545,54.179-114.808,55.334c1.075,0.72,12.602,4.642,23.602,11.8
		c0.687,0.447,1.35,0.932,2.024,1.39c22.333,18.776,85.762,72.886,161.062,144.47l221.679,236.332
		c29.96,37.228,57.175,74.488,79.152,110.429l1.293-2.705l0.171,0.537c2.15-2.138,4.552-6.129,7.033-11.143
		c19.622-32.47,65.684-120.788,46.471-207.608c-19.679-88.987-43.897-153.463-110.415-223.428
		C1407.943,373.237,1521.013,238.413,1545.461,228.122z M1462.648,781.25c-8.531,14.334-24.037,33.025-30.967,41.137
		c-25.762-64.527-240.912-272.581-331.156-358.063c-44.174-45.826-82.631-84.242-107.467-106.1
		c-28.702-18.147-2.161-23.316,6.964-26.792c63.064-31.978,201.942-72.372,351.775,78.604
		C1490.516,549.828,1484.443,696.734,1462.648,781.25z M1363.873,391.769c-11.012-10.692-23.02-21.561-36.227-32.716
		c-43.556-36.809-97.312-61.44-151.616-71.097c18.238-39.171,67.89-154.173,71.503-251.576c0,0,35.402,131.262,35.402,160.77
		c0,0,135.688-110.622,172.555-123.893c0,0-60.457,160.776-67.832,184.366c0,0,110.61-20.651,129.787-20.651
		C1517.445,236.973,1394.965,351.465,1363.873,391.769z"/>
	<path fill="#FFFFFF" d="M1218.054,515.055c0,0,108.313,454.347,90.748,596.878c-17.564,142.526-79.039,204.881-143.44,228.643
		c0,0,117.095-142.526,79.039-290.997c-38.057-148.467-111.239-535.987-111.239-535.987L1218.054,515.055z"/>
</g>
</svg>
