<?xml version="1.0" encoding="utf-8"?>
<!-- Generator: Adobe Illustrator 16.0.0, SVG Export Plug-In . SVG Version: 6.00 Build 0)  -->
<!DOCTYPE svg PUBLIC "-//W3C//DTD SVG 1.1//EN" "http://www.w3.org/Graphics/SVG/1.1/DTD/svg11.dtd">
<svg version="1.1" id="layer1" xmlns="http://www.w3.org/2000/svg" xmlns:xlink="http://www.w3.org/1999/xlink" x="0px" y="0px"
	 width="2000px" height="2000px" viewBox="0 0 2000 2000" enable-background="new 0 0 2000 2000" xml:space="preserve">
<g>
	<path fill="#EFE4DF" d="M1938.2,1647.237c0,157.993-426.494,286.082-952.609,286.082c-526.108,0-952.61-128.089-952.61-286.082
		c0-157.979,426.502-286.067,952.61-286.067C1511.706,1361.17,1938.2,1489.259,1938.2,1647.237z"/>
	<path fill="#DBC5B2" d="M1613.157,1644.716c0,86.688-292.166,156.956-652.575,156.956c-360.408,0-652.575-70.269-652.575-156.956
		c0-86.687,292.167-156.97,652.575-156.97C1320.991,1487.746,1613.157,1558.029,1613.157,1644.716z"/>
	<path fill="#EFE4DF" d="M1963.192,1061.174c0,0-75.009-341.768-333.787-201.263c0,0,26.253-358.856-922.6-265.82
		c0,0-337.539,11.392-348.791,163.29c-11.251,151.896,18.752,618.979,150.018,812.648c0,0,105.013,117.72,438.801,117.72
		c333.781,0,448.814-72.863,488.808-150.354l32.493-50.909c0,0,258.781-53.163,390.046-178.479
		C1989.447,1182.69,1963.192,1061.174,1963.192,1061.174z M1771.921,1220.666c0,0-112.513,170.884-277.531,174.681
		c0,0,116.263-284.806,112.513-398.729c0,0,142.516-91.138,187.521-26.582C1839.428,1034.593,1861.933,1083.959,1771.921,1220.666z"
		/>
	<path fill="#DBC5B2" d="M1605.672,773.838l-22.503,32.909c0,0-20.013,156.962-485.066,194.929c0,0,212.515,10.146,187.522,154.447
		c-13.243,76.484-60.007,460.735-352.541,483.521c-292.534,22.783-82.51,27.857-82.51,27.857s517.56,50.642,590.079-111.401
		C1513.141,1394.086,1663.173,870.042,1605.672,773.838z"/>
	<path fill="#DBC5B2" d="M1563.156,1386.491c0,0,37.505,40.496,87.52,12.653c49.986-27.843,315.022-169.623,297.515-356.957
		c0,0,112.514,182.262-270.029,382.277l-210.026,62.021l35.015-92.399L1563.156,1386.491z"/>
	<path fill="#DBC5B2" d="M1438.132,1391.55l-90.01,136.706l-285.033,293.663c0,0-20.012,106.328-280.03,116.46
		c0,0,1040.109,10.131,1125.136-278.474C1908.195,1659.905,1928.209,1426.987,1438.132,1391.55z"/>
	<path fill="#DBC5B2" d="M388.02,745.989c0,0,26.252,91.138,82.508,121.517c0,0,502.55,273.415,1023.862,30.379
		c0,0,262.53-121.517-108.764-246.833C1014.333,525.737,451.776,620.673,388.02,745.989z"/>
	<path fill="#A17043" d="M1505.641,908.009c5.011,10.13-238.534,106.483-532.563,98.739
		c-294.02-7.741-495.225-94.845-502.55-124.053c-16.313-65.053,211.651-111.499,505.671-103.748
		C1270.228,786.691,1476.002,847.978,1505.641,908.009z"/>
	<path fill="#DDC076" d="M525.54,882.702c0,0,202.523-93.674,555.072-58.229C1433.151,859.918,620.553,695.359,525.54,882.702z"/>
	<path fill="#F4F2DF" d="M1241.235,237.133c0,0,0,117.72-142.517,132.911C956.209,385.233,564.29,328.271,618.67,613.079
		c0,0,56.256,180.376,271.906,233.542c0,0-142.517-172.783-18.751-227.846c162.022-72.084,213.767-53.164,255.022-45.57
		c41.255,7.596,271.906,47.468,301.909-102.529c30.004-149.999-43.13-265.819-285.032-444.298
		C1143.724,26.377,1250.61,151.69,1241.235,237.133z"/>
	<g>
		<path d="M890.576,847.139c0,0-165.019-199.987,60.008-248.093c225.018-48.106,375.051,40.504,460.065-65.825
			c84.999-106.326,32.493-308.859-267.541-508.853c0,0,355.03,240.505,262.53,460.757c0,0-24.994,118.98-235.018,78.476
			C960.59,523.097,668.049,616.758,890.576,847.139z"/>
		<path d="M1143.108,24.367c0,0,185.017,263.282,9.99,321.512c-175.01,58.229-617.561-50.627-542.552,293.67
			c0,0,52.499,144.295,280.029,207.589c0,0-310.025-103.798-252.523-334.173c0,0,23.125-127.844,243.148-127.844
			c0,0,125.632-5.695,206.267-9.493c107.53-5.065,162.206-66.454,158.456-129.112C1237.689,108.749,1143.108,24.367,1143.108,24.367
			z"/>
		<path d="M1615.661,776.256c-132.523-240.497-657.577-192.408-657.577-192.408l-47.51,17.726
			c57.495-2.528,480.062-15.188,645.082,121.52c115.693,95.854-0.908,474.209-80.956,691.79
			c-25.125,60.907-47.818,124.661-94.699,160.739c-57.252,32.811-188.254,100.705-384.418,81.614
			c-260.025-25.321-472.548-2.537-532.555-197.466c-60.006-194.944-136.891-658.832-65.009-744.273
			c0,0,30.633-81.014,213.151-91.137l1.875-30.379c0,0-275.035,27.833-275.035,187.326s-32.508,440.486,157.518,797.444
			c0,0,22.503,35.437,112.514,73.411c84.509,35.66,616.418,115.91,811.484-35.765c9.845-6.272,45.387-31.045,56.11-67.996
			c6.622-22.741,20.891-81.156,32.903-131.205c27.367-91.374,59.128-205.608,92.121-316.906
			C1668.169,872.452,1615.661,776.256,1615.661,776.256z"/>
		<path d="M1560.578,732.928c0,0-111.868-77.203-178.717-80.133c0,0,183.713,72.211,188.825,124.189
			c2.314,23.615-2.286,66.721-65.458,107.411c-56.607-90.292-391.771-111.416-663.524-109.68l7.618,14.833l0.168,0.171
			c435.988-7.936,592.626,77.105,634.203,107.189c-83.3,43.877-243.719,82.104-549.723,85.62c0,0-289.04-19.84-441.591-113.953
			c7.244-52.341,212.55-73.33,212.55-73.33c23.859-1.388,46.822-2.456,69.325-3.354l-28.07-15.634
			c-211.827,5.571-267.211,49.93-281.714,73.197c-32.531-25.403-55.268-55.448-61.97-90.953c0,0-12.417-24.023,96.903-92.503
			c0,0-157.576,34.859-115.692,138.086c41.885,103.235,159.563,183.767,594.628,215.63
			C978.339,1019.714,1768.669,981.398,1560.578,732.928z"/>
		<path d="M1618.154,854.104c0,0,172.518-127.214,311.285,62.656c138.767,189.88-7.501,487.977-446.302,577.216v-18.986
			c0,0,513.809-106.328,465.053-423.413c0,0-11.119-90.285-69.383-150.005c-59.978-61.508-168.388-91.375-258.779-9.493"/>
		<path d="M1621.903,971.823c0,0,219.401-125.314,226.901,98.74c0,0-48.756,294.3-348.789,336.071l11.25-24.683
			c0,0,258.78-30.379,309.41-303.794c0,0-3.749-212.662-208.148-66.454"/>
		<path d="M1673.604,1425.028l-61.34,20.398c162.793,50.121,263.425,119.144,263.425,195.373
			c0,153.084-405.794,277.212-906.36,277.212c-500.558,0-906.345-124.128-906.345-277.212c0-91.88,146.223-173.272,371.264-223.721
			l-6.358-27.235c-243.565,57.436-402.41,151.215-402.41,257.274c0,174.771,430.978,316.448,962.601,316.448
			c531.654,0,962.631-141.677,962.631-316.448C1950.711,1560.551,1844.894,1482.153,1673.604,1425.028z"/>
		<path d="M1435.642,1537.395l2.505,3.382l-3.911,4.258c95.841,27.738,153.93,63.829,153.93,103.331
			c0,87.385-283.568,158.23-633.37,158.23c-349.808,0-633.376-70.846-633.376-158.23c0-41.119,62.923-78.559,165.899-106.698
			l-2.117-4.821c-129.25,30.394-209.687,73.1-209.687,120.391c0,92.266,306.158,167.087,683.832,167.087
			c377.673,0,683.83-74.821,683.83-167.087C1643.175,1610.213,1563.567,1567.759,1435.642,1537.395z"/>
	</g>
	<path fill="#FFFFFF" d="M393.022,864.983c0,0,57.515,524.044,130.019,612.646c0,0-60.006-483.534-42.506-536.698
		C480.535,940.932,413.027,905.495,393.022,864.983z"/>
</g>
</svg>
