<?xml version="1.0" encoding="utf-8"?>
<!-- Generator: Adobe Illustrator 16.0.0, SVG Export Plug-In . SVG Version: 6.00 Build 0)  -->
<!DOCTYPE svg PUBLIC "-//W3C//DTD SVG 1.1//EN" "http://www.w3.org/Graphics/SVG/1.1/DTD/svg11.dtd">
<svg version="1.1" id="layer1" xmlns="http://www.w3.org/2000/svg" xmlns:xlink="http://www.w3.org/1999/xlink" x="0px" y="0px"
	 width="2000px" height="2000px" viewBox="0 0 2000 2000" enable-background="new 0 0 2000 2000" xml:space="preserve">
<polyline points="990.724,1813.132 1041.321,87.173 1066.618,1825.602 "/>
<path d="M41.244,1599.35c0,0,142.713,308.977,385.246,345.605c0,0,1186.207,80.574,1437.501-39c0,0,140.755-134.413,79.793-251.426
	C1943.784,1654.529,923.138,1754.023,41.244,1599.35z"/>
<path fill="#D39F88" d="M71.965,1621.889c0,0,117.606,204.946,282.472,290.474c81.071,42.073,693.456,65.625,1136.125,37.627
	c148.264-9.367,269.388-15.211,349.977-53.043c0,0,101.821-101.259,91.854-217.914c0,0-640.385,24.503-978.676,13.64
	C953.716,1692.672,345.209,1689.087,71.965,1621.889z"/>
<path d="M1024.456,1676.055c0,0,156.005-65.42,404.772-68.539c248.765-3.117,468.019,40.496,468.019,40.496L1041.321,127.677
	l-19.684,77.883L143.231,1601.282c0,0,240.119-45.36,413.206-31.146c227.683,18.689,518.615,62.305,518.615,62.305"/>
<path fill="#FFFFFF" d="M1041.321,143.25l809.544,1482.955c0,0-181.04-43.879-400.556-40.495
	c-219.516,3.383-425.854,65.423-425.854,65.423L1041.321,143.25z"/>
<g>
	<polygon fill="#BCAA9C" points="1003.373,1277.28 1020.238,1299.085 1028.433,1295.47 1028.762,1266.15 	"/>
	<polygon fill="#BCAA9C" points="1533.436,1044.727 1028.762,1266.15 1028.433,1295.47 1545.663,1067.129 	"/>
	<polygon fill="#BCAA9C" points="1332.812,677.217 1033.884,808.355 1033.555,837.33 1345.131,699.779 	"/>
</g>
<polygon points="1041.321,127.677 1062.403,1626.205 902.179,1604.398 1028.672,146.367 "/>
<path fill="#FFFFFF" d="M1010.405,247.102l-837.659,1335.49c0,0,164.438-43.614,400.557-24.925
	c184.816,14.638,198.169,24.925,468.019,49.849L1010.405,247.102z"/>
<path d="M1942.902,1631.739c0.51,6.875-6.606,12.751-15.904,13.142l-909.329,37.411c-9.305,0.373-17.261-4.881-17.779-11.756l0,0
	c-0.519-6.873,6.604-12.749,15.901-13.123l909.332-37.426C1934.419,1619.613,1942.383,1624.866,1942.902,1631.739L1942.902,1631.739
	z"/>
<path d="M1045.537,258.527c0,6.883-7.552,12.462-16.865,12.462l0,0c-9.314,0-16.866-5.579-16.866-12.462V31.097
	c0-6.881,7.552-12.462,16.866-12.462l0,0c9.313,0,16.865,5.581,16.865,12.462V258.527z"/>
<polyline points="1045.537,31.097 1382.846,74.711 1041.321,143.25 "/>
<polygon fill="#EFD3D3" points="1049.752,49.787 1053.97,121.442 1332.25,77.83 "/>
<g>
	<path d="M851.583,1866.831c-87.378-22.352-188.328-5.316-188.328-5.316c25.297-2.667,14.053-18.626,14.053-18.626
		c-8.741-57.456-143.356-39.903-143.356-39.903c19.677-5.315,19.677-26.593,19.677-26.593
		c-34.95-60.65-208.011,10.629-208.011,10.629c17.471-44.688-47.784-39.904-47.784-39.904
		c-70.072,16.696-103.735,71.127-102.948,128.241c-84.636,18.33-216.743,99.761-48.83,108.129
		c147.277,7.325,1144.063-12.702,1464.478-15.556c-160.224-15.961-705.542-45.234-705.542-45.234S938.958,1889.183,851.583,1866.831
		z"/>
</g>
<g>
	<path fill="#7FB2EF" d="M843.15,1874.813c-84.327-18.629-222.063-2.652-222.063-2.652c42.163-7.979,36.542-29.272,36.542-29.272
		c-8.432-47.886-157.41-29.257-157.41-29.257c36.543-7.981,28.107-37.239,28.107-37.239
		c-33.732-50.553-196.762,29.258-196.762,29.258c16.865-37.237-33.731-39.904-33.731-39.904
		c-48.18,9.914-69.805,39.764-77.982,73.322c-3.302,13.547-4.414,27.7-4.2,41.402c-81.68,15.276-209.176,83.145-47.121,90.11
		c142.133,6.11,973.935-3.382,1283.153-5.767c-210.785-5.394-569.183-31.473-569.183-31.473S927.478,1893.438,843.15,1874.813z"/>
</g>
<g>
	<path fill="#FFFFFF" d="M286.588,1818.945c23.511-14.823,37.396-22.197,47.526-20.762c7.222-30.099-36.281-32.438-36.281-32.438
		c-31.783,6.532-51.957,21.774-64.39,41.009C246.492,1821.142,265.066,1832.54,286.588,1818.945z"/>
	<path fill="#FFFFFF" d="M882.501,1933.342c0,0,44.977-39.903-39.351-58.528c-84.327-18.629-222.063-2.652-222.063-2.652
		c42.163-7.979,36.542-29.272,36.542-29.272c-8.432-47.886-157.41-29.257-157.41-29.257c36.543-7.981,28.107-37.239,28.107-37.239
		c-28.77-43.115-151.546,8.572-187.044,24.723c4.599,3.258,8.565,9.085,12.77,17.83c14.056,29.274,22.489,0,70.273-15.96
		c47.784-15.964,64.65,0,64.65,10.646c0,10.646,0,34.588,61.841,18.626c0,0,44.972-10.646,30.919,15.962
		c-14.053,26.594-39.356,45.219,8.433,45.219c47.788,0,137.732-23.942,151.79-10.646c14.057,13.313-22.49,21.277-8.433,34.589
		c14.057,13.297,59.03,2.667,92.761-2.664c33.731-5.315,56.221,5.316,44.975,26.608c-7.48,14.15,264.963,17.722,448.194,18.517
		C1117.979,1950.473,882.501,1933.342,882.501,1933.342z"/>
</g>
<path opacity="0.5" fill="#FFFFFF" d="M882.501,1933.342c0,0,44.977-39.903-39.351-58.528
	c-84.327-18.629-222.063-2.652-222.063-2.652c42.163-7.979,36.542-29.272,36.542-29.272c-8.432-47.886-157.41-29.257-157.41-29.257
	c36.543-7.981,28.107-37.239,28.107-37.239c-33.732-50.553-196.762,29.258-196.762,29.258
	c16.865-37.237-33.731-39.904-33.731-39.904c-48.18,9.914-69.805,39.764-77.982,73.322c-2.488,10.211-3.731,20.764-4.101,31.19
	c19.641,9.322,42.51,15.062,56.082,1.231c27.407-27.933,31.623-57.858,50.596-41.896c18.975,15.962,31.625,31.921,16.866,47.883
	c-14.757,15.962-6.324,47.885,16.866,35.915c23.189-11.971,40.056-69.834,80.111-59.856c40.056,9.977,23.19,27.934,27.407,43.895
	c4.218,15.962,40.056,15.962,56.921,13.966c16.866-1.994,52.705-17.957,59.029,1.996c6.325,19.95,61.138,23.943,99.085,11.97
	c37.947-11.97,54.813,5.987,73.787,17.959c18.973,11.971,73.083,0,99.084-1.995c26.004-1.997,31.624,19.95,37.949,21.945
	c1.535,0.483,18.043,2.854,42.064,6.158c204.691-1.731,401.09-3.693,520.088-4.614
	C1240.898,1959.421,882.501,1933.342,882.501,1933.342z"/>
</svg>
