<?xml version="1.0" encoding="utf-8"?>
<!-- Generator: Adobe Illustrator 16.0.0, SVG Export Plug-In . SVG Version: 6.00 Build 0)  -->
<!DOCTYPE svg PUBLIC "-//W3C//DTD SVG 1.1//EN" "http://www.w3.org/Graphics/SVG/1.1/DTD/svg11.dtd">
<svg version="1.1" id="Layer_2" xmlns="http://www.w3.org/2000/svg" xmlns:xlink="http://www.w3.org/1999/xlink" x="0px" y="0px"
	 width="2000px" height="2000px" viewBox="0 0 2000 2000" enable-background="new 0 0 2000 2000" xml:space="preserve">
<g>
	<defs>
		<path id="XMLID_1_" d="M107.843,660.598c0,0-34.593-426.643,761.036-524.654l0,0c0,0,360.337-17.296,593.838,66.303
			c233.5,83.6,429.523,268.093,415.113,458.353c-14.414,190.259-193.147,516.003-565.015,530.419
			c-371.869,14.414-867.697-112.426-867.697-112.426S93.43,902.745,107.843,660.598"/>
	</defs>
	<use xlink:href="#XMLID_1_"  overflow="visible" fill="#DAAE80"/>
	<clipPath id="XMLID_4_">
		<use xlink:href="#XMLID_1_"  overflow="visible"/>
	</clipPath>
	<path opacity="0.3" clip-path="url(#XMLID_4_)" fill="#6D5B47" d="M1834.59,872.959c0,286.574-372.159,505.428-853.764,505.428
		c-481.605,0-835.508-210.206-835.508-496.78c0-286.575,353.903-540.999,835.508-540.999
		C1462.431,340.608,1834.59,586.384,1834.59,872.959z"/>
</g>
<g>
	<defs>
		<path id="XMLID_2_" d="M923.471,1141.842c0,0,51.891-38.438,63.424-40.36c11.53-1.921,44.204-23.063,44.204-23.063
			s21.139-21.141,40.358-21.141c0,0,44.205-1.922,53.813-7.688c9.609-5.766,44.203-32.672,44.203-32.672
			s163.363-26.907,172.973-28.828c9.61-1.922,34.595-15.377,69.188-1.922c0,0,144.144,15.374,144.144-71.111
			c0,0-7.688-51.891-82.642-38.438c0,0-34.596-1.922-48.049-1.922s-30.75,0-30.75-9.61c0-9.609-26.907-142.221-44.204-159.518
			l-30.75-34.594c0,0-61.5-76.876-76.877-76.876c0,0-44.205-57.658-94.174-53.813c0,0-157.595-55.735-295.972,28.829
			c0,0-59.581,21.141-103.783,142.22c0,0-153.753,144.144,28.829,407.444l0,0L923.471,1141.842"/>
	</defs>
	<use xlink:href="#XMLID_2_"  overflow="visible" fill="#FFF4DB"/>
	<clipPath id="XMLID_5_">
		<use xlink:href="#XMLID_2_"  overflow="visible"/>
	</clipPath>
	<path opacity="0.5" clip-path="url(#XMLID_5_)" fill="#E7AA6C" d="M841.47,1147.606l85.845-76.876l56.376-29.467
		c0,0,71.752-65.348,78.158-70.472c6.404-5.124,130.692-74.313,228.066-55.094c0,0,107.627,30.75,149.909,1.28
		c0,0,71.747-24.343,78.156,1.282c0,0-3.846,42.279-38.439,71.75c-34.594,29.47-206.283,89.69-206.283,89.69
		S894.002,1169.388,841.47,1147.606z"/>
</g>
<path fill="#FFF4DB" d="M1120.788,530.035c0,0,83.281,17.938,117.875,58.938l24.345,17.938c0,0,67.908,67.908,78.158,88.407
	c0,0,29.468,12.813,44.844,12.813c15.377,0,103.784,10.251,107.627,11.532c3.844,1.281,33.313,7.687,33.313,7.687l21.14,6.085
	c0,0,29.791,12.493,37.478,15.376c7.688,2.882,40.36,12.492,56.696,12.492c0,0,43.243,26.908,49.971,37.477
	c6.727,10.571,15.374,17.298,24.984,16.336c9.609-0.961,48.048-8.648,51.892-24.023c3.843-15.375,9.609-43.244,5.767-52.853
	c-3.845-9.61,32.672-75.916,21.141-157.598c0,0,17.296-69.188-11.533-119.158c-28.827-49.969-8.647-23.063-8.647-23.063
	l-1.923-90.329c0,0-10.57-61.501-47.086-69.189s-59.579-46.126-65.345-56.696c-5.768-10.571-24.025-60.541-85.525-56.696
	c0,0-40.359-31.711-94.175-1.922c0,0-108.586-15.375-268.106,158.558c0,0-34.593,94.173-44.203,156.634L1120.788,530.035z"/>
<path fill="#FFF4DB" d="M1049.035,521.063c0,0-172.971-23.063-267.785,124.283c0,0-24.343,57.657-38.438,57.657
	c-14.094,0-43.563-6.406-47.407-7.688c-3.843-1.281-30.751,16.658-30.751,16.658s-187.065,73.031-222.94,111.47
	c0,0-33.314,23.062-48.688,10.25c-15.376-12.812-35.876-33.313-35.876-33.313v-42.282l-8.969-37.157c0,0,3.844-152.469,0-167.844
	c-3.843-15.375-10.25-88.409-5.125-106.345c5.125-17.938,6.406-90.966,89.688-157.594c0,0,29.47-71.753,98.659-90.97
	c0,0,106.346-66.626,238.315-15.376c0,0,80.722,33.314,140.94,107.627c0,0,55.095,69.19,85.845,164.003L1049.035,521.063z"/>
<path opacity="0.3" fill="#E7AA6C" d="M825.453,910.252c0,0,0,73.032,97.058,103.783c0,0-27.868,33.632-31.711,42.282
	c-3.844,8.648-23.063,44.203-23.063,44.203s23.063-40.36,74.955-59.579c0,0,70.15-57.657,77.837-73.992
	c0,0,31.71-24.026,38.438-24.026s69.189-39.398,71.111-44.203c1.923-4.805,24.023-21.141,46.125-21.141
	c22.101,0,74.955-0.961,99.94,7.687c0,0-78.8-35.555-130.69-24.023c0,0,12.491-134.534-70.149-203.723
	c0,0,51.89,73.033,30.75,172.011c0,0-56.695-114.354-192.19-158.557c0,0,154.713,53.814,158.556,206.605
	c0,0-15.374,75.915-112.431,78.798C862.93,959.26,855.243,950.611,825.453,910.252z"/>
<path opacity="0.3" fill="#E7AA6C" d="M1192.538,624.849c0,0,49.969,90.329,32.673,161.44
	C1225.211,786.289,1296.321,688.271,1192.538,624.849z"/>
<path opacity="0.5" fill="#E7AA6C" d="M1236.742,577.763c0,0,46.125-11.532,55.733-6.727c9.61,4.805,100.9,49.969,104.744,52.853
	c3.845,2.882,155.675,100.9,177.777,102.821c22.102,1.922,2.884,3.844,2.884,3.844l57.656,3.844c0,0,29.789,17.297,32.672,21.141
	c2.883,3.843,24.025,43.243,24.025,43.243s-32.674-31.711-49.971-37.477c0,0-19.22,2.882-72.071-19.219
	c0,0-60.54-27.867-144.144-26.907c0,0-61.501,10.57-92.25-27.868c-30.752-38.438-100.9-112.431-100.9-112.431"/>
<path opacity="0.3" fill="#E7AA6C" d="M1169.474,478.784c0,0,92.254,44.205,123.965,48.048c0,0-127.808,1.922-149.909,9.609
	l-18.259-8.648L1169.474,478.784z"/>
<path opacity="0.3" fill="#E7AA6C" d="M1382.808,557.583c0,0,161.44,46.125,175.853,52.852
	c14.414,6.727,116.276,26.907,169.128-21.142c0,0-31.712,55.735-65.344,71.111c0,0,86.484,45.164,82.642,79.758
	c0,0-40.36-43.243-80.72-33.634c0,0-33.634,14.416-59.579-16.335c-25.946-30.75-41.321-30.75-41.321-30.75L1382.808,557.583z"/>
<path opacity="0.3" fill="#E7AA6C" d="M1377.041,551.817c0,0,90.328-20.181,183.543-123.003c0,0-55.736,102.822-166.246,138.377"/>
<path opacity="0.3" fill="#E7AA6C" d="M1483.708,450.917c0,0,47.085-95.135,108.586-120.12
	C1592.294,330.797,1563.466,418.244,1483.708,450.917z"/>
<path opacity="0.3" fill="#E7AA6C" d="M1306.892,293.32c0,0-55.735,55.735-16.337,123.963
	C1290.555,417.284,1330.916,365.392,1306.892,293.32z"/>
<path opacity="0.3" fill="#E7AA6C" d="M1487.553,168.396c0,0-53.816,80.72-61.504,279.637c0,0-43.241-96.095-24.984-265.223
	C1401.064,182.811,1463.526,148.216,1487.553,168.396z"/>
<path opacity="0.3" fill="#E7AA6C" d="M961.909,372.118c0,0,18.258,103.783-79.759,180.66c0,0,102.18-36.521,166.885-31.714
	c0,0-36.195-45.163-43.884-51.889c-7.688-6.727-12.491-17.297-12.491-17.297S973.441,375.962,961.909,372.118z"/>
<path opacity="0.3" fill="#E7AA6C" d="M541.012,346.173c0,0,107.626,73.993,136.455,133.572c0,0,5.765-126.846-58.617-201.8
	c0,0-73.034-42.282-82.643,1.922C536.207,279.867,507.378,328.875,541.012,346.173z"/>
<path opacity="0.3" fill="#E7AA6C" d="M783.172,332.719c0,0,11.531,68.227-20.18,168.167c0,0,73.992-75.916,64.383-131.65
	C817.765,313.5,779.328,292.36,783.172,332.719z"/>
<path opacity="0.3" fill="#E7AA6C" d="M457.408,518.183c0,0,24.024,59.58,84.564,87.447c0,0-9.61-97.056-35.556-118.198
	C480.471,466.292,441.073,473.979,457.408,518.183z"/>
<path opacity="0.3" fill="#E7AA6C" d="M407.439,771.875c0,0,11.531-13.454,33.633-26.908c22.102-13.453,64.384-40.36,84.563-63.422
	c20.18-23.064,82.643-34.594,95.135-34.594c12.493,0,174.894-28.829,193.152-45.166s64.383-43.242,64.383-43.242l45.165-41.322
	c0,0-76.875,49.008-97.057,51.892c-20.18,2.883-73.993,9.609-94.173,17.297c-20.181,7.688-48.047,12.493-63.423,21.141
	c-15.375,8.649-61.501,16.337-89.369,26.907c-27.867,10.57-76.875,20.18-91.29,34.594
	C473.745,683.467,408.4,735.359,407.439,771.875z"/>
<path opacity="0.3" fill="#E7AA6C" d="M380.532,795.899c0,0,12.493,38.438,49.969,28.829c37.477-9.61,82.643-46.126,82.643-46.126
	s-43.243,8.647-51.892,13.454C452.604,796.86,418.971,814.156,380.532,795.899z"/>
<path fill="#FCEEC5" d="M154.709,482.627c0,0-134.534,111.471-115.315,326.725c19.219,215.254,15.375,541.978,15.375,541.978
	s37.475,540.378,1095.487,518.914l0,0c0,0,751.605-71.07,802.465-535.229c50.859-464.162,0,0,0,0l11.041-477.466
	c0,0,70.571-232.7-148.526-413.358c-13.962-11.514-7.808-16.326-7.808-16.326s265.344,354.581-261.259,600.585l0,0
	c0,0-372.851,169.128-745.7,96.095c-372.85-73.031,0,0,0,0S-41.326,1016.918,154.709,482.627"/>
<path opacity="0.2" fill="#B57530" d="M142.434,513.574c0,0-242.147,533.303,556.364,712.031c0,0,530.418,118.182,942.647-126.847
	c0,0,305.569-164.315,239.267-484.297c0,0-40.356-138.37-60.534-161.431c0,0,239.26,167.197,115.305,455.469
	c-123.956,288.271-691.85,461.23-1158.851,392.046c0,0-795.629-89.354-729.327-631.314
	C47.305,669.231,93.427,545.302,142.434,513.574z"/>
<path opacity="0.1" fill="#B57530" d="M1970.075,819.121c0,0-46.125,403.582-861.933,490.063c0,0,109.545,527.535,17.297,562.128
	c0,0,726.446-43.239,835.988-527.536L1970.075,819.121z"/>
<path opacity="0.4" fill="#FFFFFF" d="M300.983,1144.891l5.766,550.6c0,0,167.198,83.6,210.438,98.012l2.882-553.48
	C520.069,1240.021,318.28,1165.07,300.983,1144.891z"/>
<path opacity="0.4" fill="#FFFFFF" d="M404.761,1006.522v115.309c0,0,184.495,98.007,294.037,103.774l17.296-109.541
	C716.094,1116.064,462.416,1049.763,404.761,1006.522z"/>
<path fill="#FFFFFF" d="M1001.485,571.232c8.632,0.515-144.138,2.883-178.731,118.191c0,0-135.487,141.251-74.951,311.333
	c0,0-103.776-144.136,51.891-319.981C799.694,680.775,808.342,559.702,1001.485,571.232z"/>
<path fill="#FFFFFF" d="M448.001,326.202c0,0-121.074,37.475-77.833,204.672c0,0-14.412,141.255-2.882,161.432
	c0,0,17.296-196.025,51.889-198.907c0,0-31.709-92.247,17.296-106.661c49.006-14.413,23.063-155.667,92.247-149.9
	C597.902,242.604,448.001,182.066,448.001,326.202z"/>
<path fill="#FFFFFF" d="M1621.268,208.011c0,0,43.242,83.599,103.777,86.482c60.537,2.882,20.181,100.894,20.181,138.37
	c0,37.476-25.946-5.767-25.946-51.889s-28.828-72.066-63.42-83.598c-34.592-11.531-95.127-54.773-103.777-83.599
	C1543.435,184.949,1601.089,176.3,1621.268,208.011z"/>
<path d="M1056.082,517.222c0,0-196.035-21.141-280.597,126.846c0,0-21.143,42.282-30.751,48.046
	c-9.61,5.767-80.72,124.924-59.58,226.786c21.142,101.862,74.955,199.878,94.174,205.644c0,0,63.422,8.649,82.642,8.649
	c19.22,0,52.854-53.814,109.548-81.681c24.876-12.229,41.497-28.388,54.776-42.283c41.32-43.242,83.602-61.5,106.665-67.267
	c23.062-5.766,105.704-38.438,144.144-26.906c38.438,11.531,65.344,19.219,113.393,19.219c48.046,0,62.428-24.986,103.781-23.063
	c41.322,1.922,9.609,42.282,9.609,42.282s49.97-44.204-7.687-49.97c-57.658-5.765-44.203,11.532-82.642,21.141
	c-38.438,9.61-88.866-2.494-107.627-9.609c-27.868-10.571-97.058-10.571-125.886,2.883c-28.828,13.454-98.979,29.79-122.039,50.932
	c-23.064,21.14-67.268,65.344-78.8,71.109c-11.531,5.766-53.813,28.829-71.11,46.125c-17.296,17.298-42.281,36.517-59.579,34.596
	c0,0-63.423,0-71.11-9.609c-7.688-9.61-88.408-138.379-86.485-226.786c1.921-88.407,53.813-167.206,65.344-178.737
	c11.531-11.532,34.594-73.032,55.735-94.173c21.141-21.141,121.08-101.861,259.457-82.642
	c138.377,19.219,157.597,53.813,165.285,63.423c7.688,9.609,36.516,21.141,57.658,52.852c8.324,12.491,42.281,45.166,61.499,81.681
	c15.861,30.136,22.103,79.76,33.633,129.729c0,0,3.844,23.063,19.22,23.063c15.375,0,16.336-2.883,27.868-0.961
	c11.531,1.922,30.749,5.766,36.517,5.766c5.765,0,36.987-2.902,57.656,5.766c29.791,12.493,34.595,71.11-42.281,86.486
	c-76.877,15.376-96.096-7.687-124.925,0c-28.827,7.688-34.593,9.61-55.733,13.453c-21.143,3.846-33.57,10.57-62.465,10.57
	c-9.608,0-42.279,9.609-65.344,11.532c-23.063,1.922-37.477,30.75-70.149,35.554c-18.039,2.652-40.36,4.807-55.736,12.493
	c-15.374,7.688-44.202,31.713-61.499,33.635c-17.298,1.922-56.697,25.945-66.307,37.478c-9.609,11.53-4.804,8.647-4.804,8.647
	l15.375-1.921c0,0,23.063-24.985,49.97-34.596c26.905-9.608,55.733-30.75,63.422-36.516c7.689-5.766,51.891-9.609,69.188-13.452
	c17.298-3.846,40.358-28.829,53.813-32.673c11.316-3.233,45.742-9.186,65.548-12.14c3.742-0.558,6.963-1.01,9.406-1.314
	c15.376-1.922,107.627-17.298,123.002-23.063c15.375-5.767,109.55,26.905,165.284-21.143c55.735-48.047,3.843-86.485-15.375-88.407
	c-19.219-1.921-36.516-3.844-48.047-1.921c-11.532,1.921-30.751-3.845-40.361-3.845c-9.608,0-28.827,0-28.827,0
	s-8.65-9.608-15.376-55.735c-1.776-12.178-23.063-80.721-24.985-90.33c-1.922-9.61-36.516-44.204-36.516-44.204
	s-27.868-43.243-49.969-65.345c-15.496-15.496-38.439-34.594-38.439-34.594s-42.283-40.359-90.33-46.125
	C1100.286,526.832,1066.653,513.378,1056.082,517.222"/>
<path d="M913.22,670.975c0,0,96.095,52.531,119.159,92.251c23.063,39.72,34.596,69.189,34.596,69.189
	S1079.786,732.475,913.22,670.975z"/>
<path d="M1113.099,799.102c0,0-10.248-105.065-38.438-140.94C1074.661,658.162,1125.913,709.414,1113.099,799.102z"/>
<path d="M826.094,910.57c0,0,52.532,88.409,110.19,78.158C936.284,988.729,868.376,1025.885,826.094,910.57z"/>
<path d="M1278.384,887.507c0,0-96.096-28.188-143.504,11.532c-47.407,39.72-90.97,53.813-101.219,65.345
	c-10.251,11.531-60.22,56.377-79.439,71.752c-19.219,15.377-62.782,25.625-88.407,66.626c0,0,11.532-34.596,87.126-74.313
	c0,0,47.407-38.438,57.657-55.096c10.25-16.656,43.561-34.594,57.655-38.438c0,0,35.88-20.501,44.846-26.906
	c8.97-6.407,25.629-29.471,57.658-35.877C1170.757,872.132,1214.32,861.881,1278.384,887.507z"/>
<path d="M1054.159,1060.16c0,0,51.893-27.868,55.736-41.32c3.843-13.453-3.844,28.827-11.531,34.596"/>
<path d="M556.387,186.654c0,0-81.361,24.344-103.783,65.345c-19.12,34.961-42.922,49.97-54.453,61.501
	c-11.533,11.532-86.486,90.97-53.813,240.879c0,0-1.283,60.86-1.283,83.922c0,23.063-1.922,80.721,7.687,101.861
	c9.61,21.141-9.609,51.892,7.688,69.189c17.297,17.297,44.204,51.891,88.408,15.375c44.204-36.516,188.349-93.532,224.864-111.472
	c19.284-9.474,21.141-19.219,40.359-9.609c19.219,9.609,32.673-1.921,32.673-1.921v-9.611c0,0-28.829,5.767-40.36,0
	c-11.532-5.765-23.063,1.922-34.594,11.532c-11.533,9.609-142.221,55.735-228.708,113.392c0,0-41.641,44.205-80.079-26.906
	c0,0,1.281-32.032-2.563-55.095c-3.843-23.063-9.61-23.705-5.767-83.283c3.844-59.579,1.923-97.376,1.923-97.376
	s-37.157-107.626,35.875-211.409c0,0,38.438-39.72,46.125-51.252s25.625-70.47,77.517-78.158c0,0,53.173-19.219,72.393-26.906
	c19.219-7.688,92.251-38.439,180.659-2.563c0,0,97.376,43.563,135.814,106.345c0,0,40.999,29.47,89.689,164.003l49.968,69.188
	h14.096c0,0-47.406-49.97-58.939-76.876c-11.53-26.907-47.406-131.972-92.25-164.004
	C905.534,282.749,765.874,90.559,556.387,186.654z"/>
<path d="M541.653,346.815c0,0,120.44,82,138.377,155.033c0,0,3.844-138.376-38.438-197.315c-42.282-58.938-7.688,0-7.688,0
	s30.75,61.501,37.158,160.159C671.062,464.691,606.998,382.69,541.653,346.815z"/>
<path d="M763.313,503.128c0,0,25.624-108.908,23.063-153.752C786.376,349.376,791.501,432.659,763.313,503.128z"/>
<path d="M540.372,605.63c0,0-70.469-60.22-75.594-73.032C459.651,519.786,477.589,582.568,540.372,605.63z"/>
<path d="M414.807,763.227c0,0,57.657-28.187,83.283-53.813s111.47-61.501,146.064-61.501s155.035-28.188,162.722-41.001
	l15.375-17.937c0,0-49.969,20.501-65.345,26.908c-15.374,6.406-88.409,20.5-98.658,24.343
	c-10.251,3.844-85.846-6.405-152.472,56.376C439.151,759.384,430.183,742.728,414.807,763.227z"/>
<path d="M345.49,527.537c-52.412,39.393-95.089,83.13-127.251,130.554c-28.557,42.104-47.978,85.926-58.121,130.935l4.515,6.744
	c20.642-98.472,85.785-188.356,182.38-261.601C346.499,531.894,345.985,529.662,345.49,527.537z"/>
<path d="M850.438,568.153c0,0,113.393-76.876,115.314-128.768c0,0,4.804,57.657-58.618,100.9"/>
<path d="M380.212,795.259c0,0,56.376,8.969,84.564-3.844C464.777,791.415,405.838,823.448,380.212,795.259z"/>
<path d="M1346.291,703.006c0,0,21.781,14.094,47.406,14.094c25.626,0,80.719,2.562,108.906,8.969
	c28.189,6.406,38.438,5.126,58.939,14.094c20.502,8.969,55.096,21.781,65.346,20.5c0,0,47.408,11.531,65.346,46.767l10.248,5.765
	l-11.53-16.656c0,0-25.625-35.876-55.094-37.158c-29.471-1.281-47.407-12.813-57.658-17.938c-10.251-5.125-52.533-20.5-64.065-20.5
	c-11.531,0-60.22-11.533-73.031-11.533c-12.813,0-69.19-5.124-75.594-7.687c-6.406-2.563-53.813-39.719-53.813-39.719"/>
<path d="M1378.321,695.318c0,0-2.562-29.468-24.343-53.813C1353.979,641.505,1383.449,656.881,1378.321,695.318z"/>
<path d="M1448.792,266.098c0,0-34.596,143.501-25.625,179.377C1432.136,481.352,1448.792,284.036,1448.792,266.098z"/>
<path d="M1483.386,453.162c0,0,52.533-102.501,110.191-120.439C1593.577,332.723,1519.26,339.129,1483.386,453.162z"/>
<path d="M1289.915,314.785c0,0-16.657,61.502-1.281,101.221C1288.634,416.006,1255.319,377.567,1289.915,314.785z"/>
<path d="M1114.381,530.034c0,0,49.328-43.562,49.328-51.25c0-7.687,17.297-98.017,28.829-124.923
	c11.531-26.907,24.984-48.048,40.36-59.579c15.374-11.532,57.656-61.501,78.798-73.033c20.364-11.108,94.222-61.444,161.457-65.132
	c2.567-0.141,5.125-0.213,7.671-0.213c0,0,40.359-17.297,71.109-5.765c0,0,26.907,11.531,36.516,11.531
	c9.61,0,42.283,7.688,59.58,32.672c17.297,24.985,24.984,42.282,42.283,51.891c17.296,9.61,65.345,36.516,78.798,63.424
	c13.452,26.906,9.609,86.486,13.452,121.08c3.844,34.595,26.907,42.281,23.064,82.642c-3.846,40.36-5.767,63.423-5.767,63.423
	s17.296,44.204-21.141,155.674c0,0,17.298,57.658-19.22,74.956c-36.516,17.297-61.502,19.219-67.266,0
	c-5.768-19.219-24.985-55.736-44.205-61.502s-49.97-3.844-80.72-17.297c-30.751-13.454-74.954-42.282-111.471-65.345
	c-36.516-23.063-165.284-94.173-196.034-82.643c-30.751,11.532-21.142-1.921-21.142-1.921l-19.218-9.609
	c0,0,46.125-17.296,86.485,1.922c40.36,19.219,155.674,84.563,169.127,96.096c13.454,11.531,101.861,63.422,124.923,63.422
	c23.063,0,69.189,0,86.486,40.359c17.299,40.361,30.752,57.658,76.877,19.22c0,0,15.376-26.908,5.767-53.814
	c0,0,42.281-101.861,19.218-157.596c0,0,13.453-57.657,3.845-88.407c-9.61-30.751-23.063-40.36-23.063-48.048
	c0-7.688,15.374-132.611-30.751-151.831c-46.125-19.219-73.033-42.281-80.722-59.579c-7.686-17.298-11.53-67.267-82.641-59.58
	c0,0-46.126-34.594-86.485,0c0,0-63.424-26.906-188.347,76.877c0,0-74.954,67.266-82.643,76.876
	c-7.688,9.609-44.204,136.454-44.204,155.675l-40.359,53.813c13.453-9.613,48.047-4.481,122.36-12.169
	c74.315-7.688,130.69,34.594,130.69,34.594s69.189,41,80.721,44.845c11.532,3.843,76.876,48.688,92.252,52.532
	c15.375,3.844,47.405,34.594,55.094,39.72c7.688,5.124,11.531,20.5,35.876,11.53c24.345-8.968,48.688-2.563,79.438,12.813
	c30.751,15.375,11.531,48.688,11.531,48.688c6.406-7.688,1.282-17.938-5.123-30.75c-6.406-12.813-47.407-33.313-73.033-26.906
	c-25.625,6.406-41.001,0-83.283-33.313c-42.283-33.314-203.722-111.47-203.722-111.47c-34.596-26.908-67.906-30.751-110.189-34.595
	c-42.281-3.844-96.097,6.407-103.783,5.126"/>
<path d="M1523.104,601.786c0,0,53.067,15.669,67.268,19.219c30.75,7.688,103.782,13.454,134.534-26.906
	c0,0-66.308,30.75-112.432,23.063C1566.35,609.474,1538.48,596.021,1523.104,601.786z"/>
<path d="M1432.775,532.598c0,0,76.877-49.009,107.626-83.603C1540.401,448.995,1476.019,519.144,1432.775,532.598z"/>
<g>
	<path d="M1980.519,751.694c0-77.209-25.978-152.032-77.216-222.392c-26.105-35.85-58.164-69.745-95.875-101.438
		c-0.361-0.971-20.611-23.15-35.436-38.565v16.959c63.2,68.863,98.979,147.153,98.979,230.122
		c0,274.473-391.421,497.774-872.546,497.774c-481.123,0-872.545-223.301-872.545-497.774
		c0-159.979,132.988-302.568,339.195-393.695c6.406-7.921,11.233-13.75,11.233-13.75l-0.265-3.72
		c-35.663,15.088-69.617,31.803-101.545,50.107c-81.361,46.644-145.288,101.027-190.001,161.634
		c-7.89,10.696-15.105,21.509-21.673,32.424c-18.927,19.3-35.985,39.277-51.019,59.921c-47.693,65.493-73.488,134.854-76.83,206.408
		l-0.162,0.003l0.057,2.258c-0.183,4.566-0.281,9.14-0.281,13.723c0,10.243,0.471,20.441,1.384,30.595l12.502,502.604l-0.139-0.05
		c-0.194,4.856-0.293,9.72-0.293,14.593c0,78.986,25.614,155.543,76.131,227.545c48.554,69.199,117.973,131.295,206.326,184.556
		c181.081,109.159,421.7,169.277,677.534,169.277c255.832,0,496.449-60.118,677.531-169.277
		c88.355-53.261,157.774-115.356,206.328-184.556c46.972-66.947,72.4-137.838,75.741-210.956l-1.842,0.804l13.282-533.915
		C1980.025,772.554,1980.519,762.147,1980.519,751.694z M184.497,835.804c44.714,60.609,108.641,114.991,190.001,161.635
		c166.75,95.599,388.331,148.246,623.926,148.246c235.596,0,457.179-52.647,623.929-148.246
		c81.358-46.644,145.285-101.026,190-161.635c36.139-48.982,58.438-100.379,66.604-153.317c0.56,10.63,0.898,21.8,0.904,33.267
		c-0.006-0.057-0.012-0.116-0.02-0.173c-1.324,41.695-7.968,90.663-25.544,141.344c-0.837,1.712-1.693,3.41-2.581,5.079l0.66,0.352
		c-3.097,8.566-6.477,17.17-10.235,25.795c-7.73,17.729-15.511,29.618-23.224,36.812
		c-121.76,191.319-443.598,328.352-820.494,328.352c-408.836,0-752.89-161.244-847.05-378.111c-2.172-2.943-4.27-6.295-6.276-10.116
		c-2.265-4.31-4.357-8.712-6.328-13.172l1.875-0.938c-24.481-48.96-26.902-116.668-23.258-171.918
		C125.113,733.205,147.579,785.764,184.497,835.804z M1952.721,1335.015c-30.706,296.644-442.676,532.348-944.686,532.348
		c-513.348,0-932.551-246.467-946.189-552.536l0.832-0.021l-11.378-457.41c12.838,39.967,33.038,78.971,60.506,116.69
		c49.219,67.587,119.581,128.231,209.132,180.244c183.51,106.588,427.356,165.286,686.618,165.286s503.104-58.698,686.617-165.286
		c89.551-52.013,159.914-112.657,209.131-180.244c27.436-37.672,47.619-76.625,60.459-116.537l-11.878,477.445L1952.721,1335.015z
		 M1966.963,755.583l-0.664-0.017l-0.637,25.551c-26.557,292.112-446.143,525.046-958.107,525.046
		c-512.313,0-932.126-233.252-958.168-525.641l-1.023-41.124c3.014-79.571,35.169-155.061,90.544-223.045
		c-8.678,20.738-15.066,41.795-19.148,63.115l-0.463-0.105c-1.626,7.146-39.279,176.141,11.037,276.771l0.985-0.493
		c11.715,33.981,29.461,67.172,53.18,99.32c44.714,60.608,108.641,114.99,190.001,161.637
		c166.75,95.597,388.331,148.246,623.926,148.246c235.596,0,457.179-52.649,623.929-148.246
		c81.358-46.646,145.285-101.028,190-161.637c21.041-28.518,37.377-57.858,48.979-87.842l0.565,0.301
		c52.858-99.317,19.515-269.215,18.071-276.4l-0.859,0.173c-6.179-40.868-20.789-80.817-43.666-119.454
		c83.571,82.22,131.563,177.904,131.563,279.954C1967.007,752.993,1966.98,754.287,1966.963,755.583z"/>
	<path d="M998.425,138.606c137.591,0,267.839,18.269,383.699,50.769l16.445-7.5c-122.462-35.821-258.771-54.801-400.145-54.801
		c-111.485,0-219.819,11.807-320.704,34.357l18.712,7.917C790.579,149.474,892.319,138.606,998.425,138.606z"/>
</g>
<g>
	<path d="M1199.016,353.318c-66.564-10.423-135.644-15.794-206.042-15.794c-16.758,0-33.43,0.341-50.023,0.946
		c1.125,1.932,2.264,3.931,3.404,5.965c15.438-0.531,30.972-0.833,46.62-0.833c70.383,0,138.761,5.444,204.104,15.691
		L1199.016,353.318z"/>
	<path d="M1788.277,691.551c-0.772,2.703-1.586,5.406-2.41,8.053c17.988,33.636,30.598,68.783,37.181,105.054
		c1.46-2.75,2.915-5.529,4.349-8.289C1820.16,760.613,1807.098,725.587,1788.277,691.551z"/>
</g>
</svg>
