<?xml version="1.0" encoding="utf-8"?>
<!-- Generator: Adobe Illustrator 16.0.0, SVG Export Plug-In . SVG Version: 6.00 Build 0)  -->
<!DOCTYPE svg PUBLIC "-//W3C//DTD SVG 1.1//EN" "http://www.w3.org/Graphics/SVG/1.1/DTD/svg11.dtd">
<svg version="1.1" id="layer1" xmlns="http://www.w3.org/2000/svg" xmlns:xlink="http://www.w3.org/1999/xlink" x="0px" y="0px"
	 width="2000px" height="2000px" viewBox="0 0 2000 2000" enable-background="new 0 0 2000 2000" xml:space="preserve">
<path fill="#E8E7D4" d="M1698.044,1037.47c0,375.071-304.057,679.126-679.128,679.126c-375.07,0-679.127-304.055-679.127-679.126
	c0-375.078,304.057-679.134,679.127-679.134C1393.987,358.336,1698.044,662.392,1698.044,1037.47z"/>
<path fill="#A8A696" d="M180.837,205.975c0,0-54.81-26.342-118.395,138.096c-63.585,164.437-21.93,366.156,76.733,423.156
	c0,0,21.928,17.536,15.352,87.691c-6.578,70.156-59.198,909.878-59.198,909.878s-4.394,61.396,83.311,54.817
	c0,0,70.162-8.774,70.162-57.001l-59.199-898.926c0,0-22.937-124.972,43.852-124.953
	C310.19,738.752,380.354,339.715,180.837,205.975z"/>
<path fill="#A8A696" d="M1812.326,216.098c0,0-2.132,40.313-5.754,95.374c-2.109,31.898-6.578,69.308-6.578,105.241
	c0,91.262-4.112,123.328-33.711,97.018c-10.404-9.256-6.332-290.913-18.086-269.678c-9.803,17.716-4.587,72.899-15.07,100.019
	c-63.578,164.437-21.93,366.156,76.732,423.156c0,0,21.93,17.536,15.352,87.691c-6.577,70.156-59.196,909.878-59.196,909.878
	s-4.393,61.396,83.312,54.817c0,0,70.168-8.774,70.168-57.001l-59.197-898.926c0,0-22.944-124.972,43.845-124.953
	c60.47,0.013,92.355-205.271,28.224-496.326c-2.272-10.315-4.752,3.848-5.756,15.622c-7.887,92.708-3.338,175.242-9.865,221.168
	c-6.615,46.569-24.293,55.755-28.776,36.177c-9.839-42.843-14.104-245.275-18.088-253.234
	c-4.933-9.866-27.132,606.774-56.729-16.444C1812.893,240.237,1816.899,219.168,1812.326,216.098z"/>
<path opacity="0.5" fill="#CCCAAC" d="M1559.916,621.437l-138.129,249.944l-305.854,608.425l-391.36-108.528
	c0,0-266.388,115.106-365.05-151.283c0,0,180.881,634.73,868.229,470.291c0,0,145.167-64.335,161.148-69.063
	c15.98-4.74,330.724-259.528,313.355-581.967C1702.256,1039.255,1717.775,841.782,1559.916,621.437z"/>
<path fill="#CCCAAC" d="M1322.431,883.881c19.349,238.749-145.706,446.942-368.647,465.018
	c-145.026,11.742-278.765-59.892-359.899-177.079c55.753,197.017,245.256,333.744,458.034,316.491
	c241.827-19.578,422.054-230.572,402.551-471.242c-11.201-138.114-85.776-255.879-192.956-327.57
	C1294.939,746.524,1316.649,812.498,1322.431,883.881z"/>
<path d="M318.041,465.452c-6.098-47.771-18.275-94.532-36.082-138.365c-17.946-43.544-41.103-85.438-75.421-116.699
	c-4.367-3.931-9.065-7.496-13.909-10.856c-15.781-9.576-29.718-6.898-38.86-2.703c-6.289,4.046-12.274,8.575-17.812,13.56
	c-34.32,31.262-57.476,73.155-75.423,116.699c-17.805,43.833-29.984,90.595-36.08,138.365c-3.097,23.734-4.015,48.47-3.732,71.979
	c0.154,23.869,1.355,47.789,4.837,71.607c3.616,23.747,9.615,47.507,20.163,69.642c10.649,21.974,25.346,41.501,42.51,57.811
	c4.9,4.683,10.091,9.005,15.423,13.116c16.835,15.3,41.706,41.244,43.864,62.853c3.289,32.887-46.042,792.589-59.197,910.983
	c-7.156,64.426,9.095,92.688,29.599,105.188v0.051c0.083,0.04,0.167,0.065,0.251,0.116c6.288,3.778,12.924,6.116,19.456,7.517
	c36.472,10.727,66.417,1.374,76.702-2.673c0.917-0.346,1.829-0.758,2.749-1.142c0.673-0.31,1.149-0.527,1.149-0.527v-0.015
	c23.337-10.431,43.833-37.551,35.944-108.515c-13.154-118.395-62.484-878.096-59.197-910.983
	c2.16-21.608,27.03-47.552,43.867-62.853c5.33-4.111,10.519-8.434,15.421-13.116c17.163-16.31,31.86-35.836,42.51-57.811
	c10.547-22.134,16.544-45.895,20.163-69.642c3.479-23.818,4.684-47.738,4.836-71.607
	C322.055,513.922,321.135,489.186,318.041,465.452z M300.169,537.021c-0.802,23.15-2.65,46.101-6.53,68.209
	c-3.996,22.039-10.148,43.293-19.792,62.101c-9.897,18.717-22.726,35.617-37.961,49.505c0,0-25.508,17.246-39.267,39.715
	c-11.855,19.373-11.843,43.486-16.257,53.628c-1.212,3.418-1.829,5.57-1.829,5.57l62.485,927.427
	c3.583,20.324-3.738,33.633-14.466,42.419c-40.594,25.128-78.763,15.659-96.516,8.569c-17.24-7.694-33.588-22.482-28.559-50.988
	l62.487-927.427c0,0-0.616-2.152-1.831-5.57c-4.414-10.142-4.399-34.255-16.257-53.628c-13.759-22.469-39.266-39.715-39.266-39.715
	c-15.236-13.888-28.064-30.788-37.961-49.505c-9.642-18.808-15.795-40.063-19.791-62.101c-3.879-22.109-5.729-45.06-6.532-68.209
	c-1.035-23.516-0.417-46.087,2.042-69.276c4.946-46.01,15.866-91.661,32.232-134.293c16.406-42.361,38.219-83.021,69.147-112.229
	c1.998-1.901,4.214-3.52,6.333-5.273c10.086-4.31,26.98-7.74,44.67,5.273c30.928,29.208,52.741,69.867,69.146,112.229
	c16.366,42.632,27.286,88.283,32.233,134.293C300.587,490.934,301.206,513.505,300.169,537.021z"/>
<path d="M1989.843,541.774c-1.105-48.021-27.544-152.407-29.061-160.057c-1.644-8.222-35.983-221.991-35.983-221.991
	s-0.553,346.963-23.444,356.829c0,0-10.894,6.584-14.17-7.67c-3.276-14.253-15.045-352.987-15.045-352.987
	s-15.491,357.368-30.755,358.467c-17.021,0.276-29.198-358.467-29.198-358.467s-16.355,337.643-19.632,351.896
	c-3.275,14.254-14.17,7.67-14.17,7.67c-22.892-9.866-23.444-356.829-23.444-356.829s-34.338,213.769-35.983,221.99
	c-1.529,7.702-28.379,113.604-29.109,161.149h-0.271c0.014,0.404-0.012,0.821,0,1.226c0.155,23.87,1.35,47.791,4.844,71.607
	c3.609,23.748,9.609,47.508,20.157,69.643c10.65,21.975,25.346,41.501,42.509,57.81c4.907,4.683,10.098,9.006,15.416,13.117
	c16.842,15.3,41.714,41.244,43.871,62.852c3.289,32.888-46.043,792.583-59.198,910.978c-7.155,64.438,9.098,92.702,29.599,105.188
	v0.051c0.091,0.051,0.167,0.076,0.245,0.116c6.296,3.789,12.925,6.127,19.463,7.517c36.471,10.737,66.418,1.385,76.709-2.673
	c0.91-0.335,1.823-0.745,2.749-1.131c0.667-0.31,1.142-0.54,1.142-0.54l0,0c23.344-10.445,43.834-37.563,35.945-108.528
	c-13.154-118.395-62.486-878.09-59.197-910.978c2.158-21.607,27.029-47.552,43.872-62.852c5.318-4.111,10.509-8.435,15.414-13.117
	c17.164-16.309,31.86-35.835,42.511-57.81c10.548-22.135,16.548-45.895,20.157-69.643c3.494-23.816,4.688-47.737,4.843-71.607
	c0.013-0.405-0.013-0.822,0-1.226H1989.843z M1962.491,610.799c-3.996,22.039-10.148,43.293-19.795,62.101
	c-9.895,18.717-22.716,35.617-37.951,49.504c0,0-25.513,17.247-39.271,39.715c-11.857,19.373-11.847,43.486-16.252,53.629
	c-1.22,3.417-1.838,5.568-1.838,5.568l62.487,927.42c3.584,20.324-3.737,33.634-14.466,42.419
	c-40.607,25.13-78.762,15.676-96.518,8.57c-17.238-7.695-33.58-22.468-28.559-50.989l62.488-927.42c0,0-0.618-2.151-1.838-5.568
	c-4.405-10.144-4.395-34.257-16.252-53.629c-13.76-22.469-39.271-39.715-39.271-39.715c-15.237-13.887-28.058-30.787-37.951-49.504
	c-9.646-18.808-15.801-40.062-19.795-62.101c-3.456-19.675-5.243-40.03-6.18-60.585c2.671-22.373,12.165-100.422,20.517-146.567
	c5.28-29.182,11.498-97.802,16.121-155.034c3.162,63.579,10.587,214.751,10.587,232.872c0,23.021,5.458,44.944,21.813,44.944
	c4.688,0,10.547-2.537,13.373-6.031c4.048-4.998,4.059-11.512,4.059-11.512l14.185-238.979c0,0,11.985,210.479,15.261,235.691
	c3.276,25.212,12.847,23.021,12.847,23.021s8.724,3.283,11.999-21.929c3.277-25.211,17.665-236.783,17.665-236.783l11.767,240.072
	c0,0,0.18,5.781,3.481,10.419c2.917,4.098,8.62,7.123,13.965,7.123c16.353,0,21.813-21.923,21.813-44.944
	c0-18.121,7.425-169.293,10.585-232.872c4.625,57.232,10.843,125.853,16.123,155.034c8.672,47.97,18.613,130.516,20.799,149.047
	C1967.515,573.126,1965.742,592.262,1962.491,610.799z"/>
<g>
	<path d="M1702.513,991.009c-0.589-7.862-0.333-16.726-1.694-26.323c-1.426-9.59-2.982-20.06-4.664-31.371
		c-1.889-11.273-3.045-23.568-5.703-36.396c-3.148-12.75-6.488-26.291-10.009-40.602c-15.698-56.5-39.144-125.429-84.299-194.84
		c-44.245-69.372-106.5-141.621-190.993-199.727c-10.854-6.758-21.824-13.592-32.9-20.49c-11.112-6.841-22.069-14.267-34.249-19.708
		c-23.959-11.606-47.775-24.897-74.072-33.619c-12.963-4.772-25.9-10.079-39.209-14.537c-13.604-3.526-27.337-7.085-41.146-10.669
		c-6.913-1.786-13.851-3.577-20.825-5.383c-6.978-1.714-14.312-2.402-21.506-3.654c-14.451-2.216-29.008-4.445-43.68-6.699
		c-7.385-1.433-14.555-1.485-21.826-1.908c-7.244-0.379-14.527-0.758-21.826-1.144c-7.297-0.386-14.62-0.765-21.967-1.15
		l-11.036-0.584c-5.023-0.051-7.874,0.295-11.921,0.424c-30.101,1.818-60.765,1.567-91.174,7.508
		c-61.413,7.304-122.223,26.734-180.998,52.042c-14.414,7.027-28.891,14.087-43.419,21.172
		c-14.441,7.251-27.802,16.598-41.816,24.851l-20.839,12.802c-6.646,4.728-13.09,9.789-19.66,14.684
		c-12.931,10.059-26.537,19.373-38.998,30.132c-50.21,42.844-94.352,93.479-132.024,149.073
		c-36.62,56.435-64.433,118.633-84.616,183.335l-12.075,49.446l-2.975,12.372l-1.785,12.686l-3.553,25.366l-3.52,25.346
		c-1.433,8.459-0.943,16.791-1.509,25.199l-1.913,50.674c2.305,67.805,11.835,135.275,31.833,199.739
		c20.837,64.028,49.163,125.32,86.073,180.728c37.853,54.599,81.036,105.022,130.829,147.364
		c12.327,10.65,25.784,19.873,38.565,29.843l19.399,14.594l20.504,12.847c13.796,8.299,26.959,17.678,41.192,24.987
		c14.33,7.155,28.615,14.272,42.831,21.352c58.188,25.448,117.825,45.694,179.294,53.917c30.678,6.372,60.431,6.551,90.03,8.71
		c3.933,0.153,6.834,0.487,11.602,0.513l11.214-0.513c7.452-0.334,14.89-0.694,22.302-1.028c7.428-0.346,14.8-0.693,22.174-1.027
		c7.361-0.386,14.748-0.411,21.955-1.799c116.636-13.206,222.697-55.395,306.971-113.063
		c84.429-58.054,146.825-130.098,191.056-199.444c45.17-69.397,68.602-138.295,84.352-194.769
		c3.521-14.298,6.872-27.839,10.021-40.583c2.673-12.82,3.829-25.141,5.729-36.42c1.696-11.317,3.264-21.801,4.704-31.397
		c1.374-9.597,1.129-18.435,1.707-26.271c1.503-31.448,2.3-48.227,2.3-48.227v-0.051
		C1704.749,1039.319,1703.978,1022.516,1702.513,991.009z M1699.688,1087.456c-0.617,7.836-0.437,16.688-1.862,26.245
		c-1.478,9.52-3.098,19.925-4.843,31.166c-1.917,11.202-3.266,23.381-6.193,36.074c-3.366,12.615-6.95,26.001-10.74,40.158
		c-16.264,56.012-42.689,123.123-89.182,189.977c-45.695,66.982-109.761,134.544-193.033,188.898
		c-83.428,53.634-185.43,94.088-298.313,108.31c-6.989,1.426-14.145,1.477-21.273,1.914c-7.146,0.386-14.3,0.783-21.494,1.182
		c-7.193,0.386-14.413,0.771-21.646,1.182l-10.868,0.604c-2.607,0.064-7.08-0.269-10.534-0.397
		c-29.484-1.567-59.957-0.899-88.927-6.372c-59.055-6.27-118.444-24.614-175.967-47.943c-14.137-6.578-28.338-13.182-42.592-19.811
		c-14.183-6.783-27.319-15.673-41.144-23.444l-20.548-12.089c-6.578-4.471-12.883-9.379-19.341-14.08
		c-12.697-9.687-26.084-18.628-38.353-29.008c-11.967-10.766-23.972-21.557-36.009-32.374c-2.98-2.748-6.083-5.369-8.979-8.195
		l-8.236-8.968l-16.494-17.946l-16.548-18.011c-5.421-6.103-9.988-12.911-15.035-19.36c-9.745-13.129-20.086-25.925-29.067-39.67
		c-36.061-55.088-63.521-115.853-83.58-179.147c-18.397-63.989-26.22-130.548-27.075-197.029l3.167-49.916
		c0.771-8.312,0.515-16.907,2.125-24.98l4.08-24.409l4.04-24.369l2.011-12.172l3.211-11.979l12.937-47.835
		c20.708-62.615,48.688-122.494,85.032-176.553c37.346-53.236,80.229-101.938,129.168-142.803
		c12.126-10.291,25.378-19.129,37.929-28.719c6.378-4.657,12.621-9.494,19.079-13.997l20.226-12.14
		c13.597-7.818,26.528-16.733,40.505-23.581c14.061-6.686,28.063-13.348,42.016-19.983c56.924-23.464,115.143-42.645,174.253-49.839
		c29.238-5.883,58.786-5.659,87.768-7.56l10.237-0.495l11.036,0.539c7.349,0.36,14.672,0.712,21.98,1.066
		c7.31,0.36,14.581,0.712,21.839,1.066c7.232,0.398,14.581,0.431,21.392,1.806c111.367,13.553,214.667,52.819,297.708,106.614
		c83.208,54.296,147.416,121.658,193.111,188.602c46.505,66.822,72.918,133.92,89.233,189.9c3.776,14.137,7.374,27.53,10.753,40.133
		c2.941,12.699,4.29,24.897,6.205,36.112c1.771,11.247,3.404,21.659,4.894,31.191c1.438,9.545,1.26,18.371,1.89,26.182
		c1.694,31.391,2.619,48.117,2.619,48.117v-0.064C1702.256,1039.255,1701.356,1056.02,1699.688,1087.456z"/>
	<path d="M1305.887,713.811c-40.688-34.475-82.811-55.016-117.612-69.636c-8.853-3.411-17.228-6.642-25.115-9.673
		c-7.978-2.749-15.752-4.471-22.816-6.616c-7.091-1.998-13.669-3.841-19.681-5.537c-6.013-1.651-11.678-2.21-16.648-3.218
		c-19.965-3.494-30.615-5.363-30.615-5.363h-0.038c0,0-10.792-0.86-31.038-2.479c-5.074-0.263-10.714-1.143-16.957-1.047
		c-6.244,0.135-13.053,0.289-20.427,0.449c-7.349,0.289-15.286,0.032-23.702,0.688c-8.401,0.989-17.317,2.03-26.746,3.122
		c-37.372,5.459-83.297,14.864-131.294,38.11c-47.892,22.655-99.085,56.583-143.04,105.87c-5.19,6.392-10.439,12.84-15.745,19.366
		c-5.267,6.551-10.899,12.943-15.357,20.292c-9.354,14.362-19.764,28.513-27.473,44.609c-4.098,7.882-8.523,15.719-12.454,23.863
		c-3.347,8.408-6.727,16.893-10.143,25.43c-1.696,4.266-3.405,8.556-5.12,12.866c-1.656,4.316-2.69,8.955-4.072,13.438
		c-2.582,9.063-5.184,18.185-7.805,27.37c-1.516,4.599-2.131,9.179-2.993,13.791c-0.822,4.605-1.644,9.218-2.491,13.848
		c-0.836,4.631-1.672,9.282-2.512,13.946l-1.259,6.995c-0.443,3.218-0.443,5.062-0.701,7.655
		c-1.271,19.374-3.905,38.939-2.569,58.852c-0.296,39.824,7.202,80.254,18.615,119.847c3.327,9.776,6.667,19.591,10.021,29.458
		c3.467,9.814,8.349,19.09,12.492,28.725l6.5,14.336c2.487,4.625,5.196,9.148,7.792,13.747c5.376,9.069,10.225,18.524,16.097,27.363
		c23.31,35.534,52.092,67.831,84.57,96.388c33.086,27.955,70.578,50.758,110.289,68.871l30.613,11.717l7.658,2.903l7.963,2.158
		l15.918,4.316l15.904,4.304c5.292,1.605,10.648,1.966,15.981,2.993l32.22,5.318c43.512,4.009,87.37,3.379,130.175-4.188
		c42.587-8.133,84.043-21.274,122.428-40.364c37.937-19.783,73.638-43.293,104.715-71.685c7.811-7.015,14.773-14.876,22.186-22.226
		l10.895-11.227l9.866-12.051c6.411-8.145,13.463-15.801,19.283-24.306c5.741-8.569,11.421-17.112,17.097-25.616
		c20.967-35.123,38.734-71.582,48.946-110.199c6.553-19.09,9.071-38.077,12.848-56.809c0.41-2.504,0.861-4.342,1.26-7.373
		l0.578-7.208c0.397-4.791,0.758-9.57,1.144-14.323c0.385-4.779,0.771-9.52,1.131-14.26c0.359-4.728,0.923-9.443,0.629-14.183
		c1.001-75.57-17.381-146.729-47.418-205.239C1387.591,793.356,1346.607,747.668,1305.887,713.811z M1451.014,1070.793
		c-0.335,4.6-0.655,9.199-0.989,13.836c-0.335,4.625-0.667,9.264-1.002,13.914l-0.489,6.987c-0.165,1.671-0.743,4.51-1.104,6.706
		c-3.391,18.719-5.422,38.231-11.241,56.295c-8.8,37.229-25.32,73.688-44.874,108.554c-5.33,8.492-10.712,17.035-16.096,25.617
		c-5.474,8.504-12.217,16.173-18.306,24.383l-9.393,12.153c-3.378,3.828-7.015,7.45-10.547,11.202
		c-7.22,7.335-14.003,15.159-21.634,22.173c-7.85,6.77-15.699,13.566-23.587,20.375c-2.004,1.695-3.931,3.456-5.96,5.088
		l-6.398,4.534l-12.793,9.083l-12.847,9.12c-4.344,2.956-9.072,5.332-13.593,8.042c-9.174,5.165-18.179,10.74-27.673,15.365
		c-38.116,18.576-79.161,31.217-121.221,38.899c-42.368,6.591-85.521,6.192-128.055,1.375l-31.642-6.051
		c-5.254-1.156-10.767-1.696-15.789-3.379l-15.268-4.586l-15.243-4.548l-7.618-2.262l-7.394-3.031l-29.51-12.127
		c-38.327-18.294-74.323-41.008-105.92-68.602c-30.992-28.16-58.639-59.48-80.799-94.051c-5.589-8.595-10.161-17.767-15.274-26.554
		c-2.461-4.458-5.043-8.839-7.4-13.321l-6.123-13.913c-3.898-9.327-8.549-18.295-11.785-27.775
		c-3.136-9.52-6.271-19.013-9.374-28.468c-10.392-38.258-17.939-77.004-17.747-115.338c-1.401-19.154,1.129-38.026,2.255-56.692
		l0.507-6.57l1.247-7.015c0.814-4.676,1.644-9.32,2.447-13.958c0.829-4.632,1.637-9.25,2.447-13.861
		c0.847-4.587,1.464-9.289,2.884-13.521c17.671-70.054,51.097-132.88,92.18-181.583c41.405-48.771,89.639-84.351,136.098-108.137
		c46.448-24.292,91.457-35.752,128.531-41.648c9.34-1.272,18.177-2.485,26.515-3.623c8.35-0.848,16.251-0.732,23.574-1.053
		c7.322-0.212,14.105-0.423,20.312-0.597c6.23-0.148,11.845,0.675,16.894,0.905c20.155,1.452,30.907,2.223,30.935,2.223
		c0.18,0.033,10.777,1.953,30.562,5.524c4.947,1.041,10.623,1.632,16.612,3.308c5.96,1.722,12.472,3.591,19.512,5.621
		c7.003,2.126,14.685,3.97,22.548,6.872c7.796,3.174,16.057,6.54,24.793,10.11c34.467,14.909,75.216,37.217,114.156,72.327
		c39.104,34.603,77.079,80.998,105.072,138.596c27.531,57.63,45.13,126.072,45.092,199.33
		C1451.85,1061.621,1451.31,1066.194,1451.014,1070.793z"/>
</g>
<path fill="#FFFFFF" d="M379.961,1173.952c0,0-4.355-18.937-7.676-52.762c-1.395-16.905-3.283-37.551-3.23-61.266
	c-0.386-23.741,0.213-50.603,2.973-79.822c2.327-29.277,6.931-60.887,13.868-94.057c7.696-32.945,16.021-68.018,30.062-102.684
	c13.361-34.802,29.129-70.483,50.293-104.078c20.054-34.243,45.478-66.089,72.456-96.427c14.736-14.055,28.43-29.194,44.553-41.648
	l23.388-19.387c8.287-5.806,16.541-11.587,24.755-17.342c32.682-23.407,68.595-40.519,103.376-55.761
	c8.551-4.208,17.581-7.008,26.35-10.188c8.78-3.16,17.503-6.173,26.183-9.031c8.562-3.166,17.343-5.248,25.995-7.368
	c8.632-2.145,17.149-4.251,25.551-6.352c16.683-4.657,33.352-6.95,49.365-9.539c16.044-2.39,31.427-5.139,46.446-5.832
	c14.903-1.118,29.188-2.197,42.767-3.218c13.552-0.97,26.515-0.122,38.591-0.276c24.177-0.045,45.168,0.411,62.409,2.409
	c34.468,3.038,53.942,5.428,53.942,5.428s-19.706,2.435-53.775,5.55c-17.048,0.989-37.588,4.471-61.021,7.676
	c-23.535,2.606-49.601,8.253-77.929,13.732c-14.259,2.28-28.647,6.642-43.587,10.649c-14.904,4.15-30.584,7.271-45.889,13.104
	c-31.218,9.744-62.911,22.777-94.834,37.473c-31.617,15.378-62.848,33.679-92.432,54.952c-7.399,5.344-14.799,10.715-22.239,16.091
	l-20.875,17.96c-14.49,11.42-26.49,25.539-39.762,38.315c-24.852,27.145-48.572,55.625-67.477,86.785
	c-10.25,15.044-18.415,31.224-27.653,46.569c-7.836,16.077-16.578,31.563-23.079,47.783c-14.349,31.86-25.417,63.996-35.36,94.719
	c-8.863,31.025-16.957,60.662-22.617,88.5c-5.64,27.807-10.257,53.577-13.419,76.599c-3.243,23.021-5.394,43.216-7.02,59.942
	c-1.278,16.701-2.505,29.907-2.82,38.926C380.187,1169.121,379.961,1173.952,379.961,1173.952z"/>
<path fill="#FFFFFF" d="M912.031,1669.809c0,0,11.588,1.182,31.847,1.721c20.221,0.668,49.086,0.681,83.452-1.49
	c17.178-1.092,35.715-2.903,55.189-5.344c19.514-2.248,39.838-6.205,60.805-10.085c20.862-4.444,42.237-9.737,63.59-16.199
	c21.48-6.09,42.689-14.08,63.669-22.481c20.824-8.788,41.456-18.063,60.88-28.879c9.698-5.435,19.436-10.611,28.635-16.444
	c9.378-5.576,18.537-11.254,27.134-17.421c8.837-5.87,17.265-11.985,25.358-18.242c8.17-6.114,16.265-12.024,23.535-18.498
	c15.106-12.308,28.469-25.026,41.032-36.64c11.729-12.346,23.253-23.137,32.321-33.697c8.967-10.624,17.716-19.282,23.741-27.298
	c12.809-15.597,20.119-24.512,20.119-24.512s-5.665,10.059-15.57,27.671c-4.833,8.916-12.075,18.872-19.913,30.652
	c-7.785,11.845-18.012,24.19-28.906,37.886c-11.574,13.116-24.035,27.529-38.874,41.212c-7.078,7.207-14.978,13.913-23.021,20.85
	c-7.836,7.194-16.534,13.682-25.424,20.259c-8.709,6.822-17.998,13.156-27.53,19.387c-9.326,6.576-19.348,12.307-29.471,18.036
	c-20.195,11.587-41.634,21.685-63.333,31.114c-22.096,8.505-44.372,16.521-66.854,22.559c-22.339,6.629-44.938,10.611-66.7,14.491
	c-43.718,6.731-85.007,8.788-120.168,7.374c-35.173-1.053-64.233-5.1-84.299-8.838
	C923.183,1673.251,912.031,1669.809,912.031,1669.809z"/>
<path fill="#FFFFFF" d="M207.142,254.194c0,0-1.6-1.31-4.935-3.167c-3.294-1.856-8.323-4.38-14.946-6.006
	c-6.583-1.625-14.85-2.017-23.084,0.905c-8.332,2.75-16.059,9.61-22.688,18.583c-6.938,8.741-12.063,20.426-17.317,32.592
	c-4.753,12.642-8.743,26.001-13.104,40.903c-4.233,14.562-7.831,29.426-11.717,44.822c-3.783,15.333-7.226,30.999-10.046,46.756
	c-3.147,15.686-5.864,31.467-7.778,47.063c-1.882,15.589-3.97,30.941-4.67,45.85c-0.655,7.458-0.803,14.786-0.982,21.955
	c-0.289,7.182-0.527,14.221-0.212,21.036c0.128,13.688,1.156,26.554,2.242,38.47c1.554,11.832,3.076,22.72,5.332,32.213
	c1.657,9.693,4.811,17.6,6.493,24.544c4.753,13.264,7.792,21.018,7.792,21.018s-1.162-1.684-3.34-4.844
	c-2.062-3.23-5.684-7.721-9.237-14.042c-3.051-6.5-8.087-14.06-11.317-23.669c-1.78-4.747-3.925-9.77-5.73-15.198
	c-1.542-5.505-3.167-11.292-4.862-17.33c-2.826-12.192-5.665-25.578-6.97-39.876c-0.996-7.15-1.458-14.498-1.869-22.02
	c-0.656-7.54-0.637-15.229-0.495-23.041c-0.013-7.823,0.109-15.775,0.668-23.785c0.353-8.03,0.828-16.162,1.927-24.268
	c1.708-16.283,4.168-32.72,7.187-49.029c3.232-16.276,7.092-32.393,11.293-48.136c4.065-15.692,9.371-31.134,14.343-45.715
	c4.804-14.248,10.862-28.706,17.233-41.765c6.88-12.981,14.196-25.045,23.818-34.416c9.019-9.59,20.28-16.663,31.501-18.371
	c11.118-2.055,20.683,0.745,27.377,3.905c6.865,3.135,11.148,7.182,14.014,9.757C205.909,252.543,207.142,254.194,207.142,254.194z"
	/>
<path fill="#FFFFFF" d="M150.141,1376.75c2.955,31.127,3.796,62.139,4.278,93.139c-0.071,15.467,0.289,30.973-0.188,46.428
	c-0.371,15.467-0.424,30.934-1.232,46.376c-0.746,15.442-1.098,30.909-2.158,46.339c-1.042,15.428-1.876,30.87-3.089,46.286
	c-1.407,15.403-2.532,30.832-4.17,46.222c-1.722,15.391-3.205,30.795-5.363,46.173v-0.797c-0.071,1.926,0.192,4.905,0.706,7.347
	c0.438,2.584,1.291,4.998,2.126,7.453c0.944,2.389,2.152,4.598,3.584,6.73c1.542,1.978,3.262,3.867,5.345,5.421
	c0.943,0.924,2.209,1.362,3.313,2.105c1.098,0.786,2.353,1.287,3.649,1.749c1.304,0.411,2.543,1.168,3.951,1.36l4.207,0.849
	c2.853,0.489,5.82,0.437,8.825,0.746l9.104-0.5l-8.743,3.094c-3.044,0.578-6.127,1.517-9.327,1.684l-4.869,0.179
	c-1.644,0.142-3.276-0.32-4.953-0.447c-1.676-0.193-3.353-0.438-4.971-1.055c-1.6-0.616-3.359-0.951-4.856-1.862
	c-3.186-1.53-6.077-3.572-8.78-5.948c-2.551-2.468-4.843-5.216-6.764-8.196c-1.85-2.981-3.373-6.167-4.529-9.455
	c-1.22-3.381-2.075-6.398-2.64-10.509v-0.797c-0.514-15.506-0.353-30.986-0.43-46.466c0.006-15.48,0.526-30.936,0.765-46.402
	c0.43-15.455,1.24-30.896,1.843-46.352c0.584-15.453,1.875-30.87,2.774-46.299c0.835-15.441,2.428-30.845,3.7-46.261
	c1.169-15.416,3.173-30.781,4.747-46.184C139.767,1438.131,143.896,1407.389,150.141,1376.75z"/>
<path fill="#FFFFFF" d="M1735.323,451.519c-0.013,0,1.734,18.647,3.649,45.779c1.08,13.458,2.351,29.162,3.699,45.991
	c1.593,16.688,3.649,34.32,6.332,51.702c1.273,8.71,2.957,17.298,4.691,25.712c1.979,8.325,3.57,16.636,6.063,24.344
	c2.338,7.772,4.779,15.198,7.564,22.058c2.827,6.828,5.757,13.207,8.865,18.905c3.213,5.601,6.258,10.861,9.494,15.094
	c3.083,4.439,6.23,7.946,8.8,10.991c5.37,5.774,8.799,9.101,8.799,9.101s-1.078-0.411-3.119-1.182
	c-1.979-0.886-5.255-1.702-8.853-3.751c-3.599-2.023-8.234-4.336-12.758-8.055c-4.817-3.398-9.748-7.939-14.606-13.348
	c-4.932-5.356-9.813-11.633-14.079-18.775c-4.393-7.065-8.672-14.806-11.923-23.195c-7.04-16.618-12.087-35.161-14.927-53.833
	c-1.336-9.347-2.492-18.706-2.956-27.93c-0.705-9.217-0.487-18.3-0.473-27.042c0.32-17.497,2.042-33.722,4.353-47.481
	C1728.31,469.043,1735.323,451.519,1735.323,451.519z"/>
<path fill="#FFFFFF" d="M1820.832,1275.891c-0.014,0,1.643,35.265,1.387,87.987c-0.127,26.361-0.565,57.091-1.49,89.99
	c-0.31,16.456-1.195,33.44-1.773,50.706c-0.591,17.266-1.374,34.801-2.389,52.313c-1.696,35.058-3.893,70.091-6.271,102.901
	c-1.04,16.417-2.285,32.271-3.609,47.301c-1.296,14.774-2.338,29.78-3.623,41.805c-1.131,11.009,1.285,21.119,5.897,27.953
	c4.728,6.885,12.243,11.022,19.141,12.925c6.888,2.184,12.938,2.594,17.036,3.146c4.161,0.27,6.385,0.398,6.385,0.398
	s-2.12,0.745-6.116,2.105c-4.058,1.234-10.148,2.776-18.512,2.916c-8.068,0-19.681-1.836-29.471-11.008
	c-10.02-8.98-15.313-23.459-16.187-38.682c0.116-14.247,0.938-27.711,1.427-43.023c0.514-15.082,1.193-30.96,2.146-47.379
	c1.605-32.874,3.673-67.907,6.243-102.901c1.105-17.523,2.44-35.021,3.957-52.222c1.503-17.215,2.685-34.173,4.367-50.552
	c3.058-32.772,6.347-63.334,9.417-89.517C1814.921,1310.692,1820.832,1275.891,1820.832,1275.891z"/>
</svg>
