<?xml version="1.0" encoding="utf-8"?>
<!-- Generator: Adobe Illustrator 16.0.0, SVG Export Plug-In . SVG Version: 6.00 Build 0)  -->
<!DOCTYPE svg PUBLIC "-//W3C//DTD SVG 1.1//EN" "http://www.w3.org/Graphics/SVG/1.1/DTD/svg11.dtd">
<svg version="1.1" id="Ebene_1" xmlns="http://www.w3.org/2000/svg" xmlns:xlink="http://www.w3.org/1999/xlink" x="0px" y="0px"
	 width="2000px" height="2000px" viewBox="0 0 2000 2000" enable-background="new 0 0 2000 2000" xml:space="preserve">
<g>
	<circle fill="#FF46AF" cx="1000" cy="1000" r="800"/>
</g>
<g enable-background="new    ">
	<path fill="#FFFFFF" d="M815.404,733.018l1.281,11.025c0.168,24.786-6.409,54.016-19.742,87.688
		c-15.043,38.459-32.819,65.726-53.331,81.79c-11.626,9.229-23.589,13.93-35.896,14.103c-6.498,0-12.395-1.494-17.69-4.487
		c-5.301-2.987-7.948-7.476-7.948-13.461c7.692-8.031,11.538-28.628,11.538-61.792c0-19.485-1.627-48.459-4.872-86.918
		c-3.249-38.46-4.872-67.261-4.872-86.405l1.538-57.435c0-9.229-1.923-21.665-5.769-37.306c-3.847-15.642-5.77-26.705-5.77-33.203
		c0-12.135,13.417-18.204,40.254-18.204h7.948c35.723,0,61.62,19.999,77.688,59.997c11.281,27.863,16.923,66.322,16.923,115.379
		v24.357C815.829,729.685,815.404,731.313,815.404,733.018z M718.743,846.858v50.254c13.16-8.545,24.614-20.469,34.356-35.769
		c9.743-15.296,17.18-32.005,22.308-50.125c9.571-34.697,14.357-69.312,14.357-103.842c0-39.653-4.96-70.934-14.87-93.841
		c-10.089-23.589-22.563-39.142-37.435-46.665c-9.229-4.783-19.659-7.091-31.28-6.923v0.514c0,31.625,2.092,79.228,6.282,142.813
		C716.646,766.862,718.743,814.725,718.743,846.858z"/>
	<path fill="#FFFFFF" d="M874.632,750.453l-0.513,56.92c0,46.324,3.333,82.816,10,109.482l-5.897,14.102h-14.613l-6.923-7.692
		c0.34-15.724,0.513-33.371,0.513-52.944c0-19.57-1.499-61.407-4.487-125.508c-2.993-64.1-4.486-111.958-4.486-143.583
		c0-16.576,5.809-24.869,17.435-24.869c18.289,0,33.672,4.786,46.151,14.357c12.476,9.574,18.718,23.248,18.718,41.023v36.921
		c0,10.088-1.884,19.273-5.642,27.563c-3.762,8.293-8.121,17.012-13.076,26.153c-4.959,9.146-7.691,14.229-8.205,15.255
		c1.88,8.55,5.213,25.3,10,50.254c10.257,54.529,21.621,93.758,34.102,117.688c3.59,6.839,5.384,12.18,5.384,16.024
		c0,3.846-1.069,7.092-3.205,9.743c-2.139,2.647-5,3.975-8.589,3.975c-7.352,0-14.402-8.422-21.152-25.256
		c-6.756-16.834-12.18-35.511-16.281-56.021c-12.479-62.729-20.087-97.259-22.819-103.585L874.632,750.453L874.632,750.453z
		 M876.684,595.846l-1.795,7.437c0,14.356,0.34,35.086,1.025,62.176c0.681,27.094,1.026,46.793,1.026,59.1
		c8.204-4.271,14.827-15.424,19.87-33.46c5.041-18.03,7.564-31.833,7.564-41.408c0-9.569-0.256-16.62-0.769-21.151
		c-0.514-4.527-1.628-9.527-3.333-14.999C896.852,602.255,888.991,596.358,876.684,595.846z"/>
	<path fill="#FFFFFF" d="M983.345,661.227l-2.819-44.355c0-24.782,7.347-37.178,22.05-37.178c9.397,0,22.219,2.18,38.46,6.538
		c16.236,4.357,24.357,9.959,24.357,16.794c0,7.179-5.129,12.65-15.385,16.408c-16.241-5.468-29.484-8.802-39.741-9.999
		c0.514,7.523,0.77,15.044,0.77,22.563l-2.308,75.381c0,0.345,0.513,3.077,1.538,8.205l18.718-0.77
		c16.923,0,25.384,4.787,25.384,14.357c0,3.762-1.539,7.051-4.615,9.871c-3.077,2.82-6.967,4.229-11.666,4.229
		c-4.703,0-9.787-0.34-15.256-1.024h-13.333c1.025,13.333,1.538,26.581,1.538,39.742l-2.308,95.123
		c0,19.657,0.341,29.485,1.025,29.485l38.716-1.282c13.333,0,19.999,4.274,19.999,12.819c0,5.301-2.308,9.144-6.923,11.538
		c-4.615,2.393-9.831,3.59-15.64,3.59h-44.357c-4.615,0-8.806-1.583-12.563-4.743c-3.763-3.16-5.729-6.963-5.897-11.409v-13.847
		l-3.333-88.713L983.345,661.227z"/>
	<path fill="#FFFFFF" d="M1096.416,904.292l21.794,3.846c6.667,0,12.476-2.903,17.435-8.718c4.957-5.809,8.631-13.076,11.025-21.794
		c4.615-16.75,6.923-31.577,6.923-44.484c0-12.903-2.14-25.68-6.409-38.332c-4.274-12.646-9.53-24.396-15.77-35.255
		c-6.241-10.853-12.437-21.922-18.588-33.203c-14.703-26.665-22.051-52.816-22.051-78.458c0-15.724,2.647-29.652,7.947-41.792
		c9.911-22.563,23.075-33.845,39.485-33.845c6.154,0,12.007,1.967,17.563,5.897c5.553,3.934,8.333,8.203,8.333,12.818
		c0,8.036-4.274,12.051-12.819,12.051c-3.763,0-7.437-1.024-11.025-3.076c-11.113,0.514-18.633,12.907-22.563,37.178
		c-0.857,5.301-1.282,11.498-1.282,18.589c0,7.096,1.538,15.856,4.615,26.281c3.076,10.428,6.963,19.702,11.666,27.818
		c4.698,8.12,9.742,17.095,15.128,26.921c5.385,9.832,10.468,19.358,15.256,28.59c10.937,21.369,16.319,45.811,16.151,73.33
		c0.168,21.195-4.702,41.451-14.613,60.766c-4.788,9.575-11.582,17.396-20.385,23.461c-8.806,6.065-18.846,9.186-30.127,9.358v1.28
		c-14.356-2.051-22.223-8.801-23.588-20.255L1096.416,904.292z"/>
	<path fill="#FFFFFF" d="M1210.513,904.292l21.794,3.846c6.666,0,12.477-2.903,17.437-8.718c4.955-5.809,8.629-13.076,11.023-21.794
		c4.615-16.75,6.923-31.577,6.923-44.484c0-12.903-2.139-25.68-6.409-38.332c-4.274-12.646-9.53-24.396-15.769-35.255
		c-6.242-10.853-12.436-21.922-18.59-33.203c-14.702-26.665-22.05-52.816-22.05-78.458c0-15.724,2.646-29.652,7.948-41.792
		c9.912-22.563,23.076-33.845,39.484-33.845c6.153,0,12.007,1.967,17.563,5.897c5.553,3.934,8.332,8.203,8.332,12.818
		c0,8.036-4.273,12.051-12.819,12.051c-3.762,0-7.436-1.024-11.023-3.076c-11.113,0.514-18.634,12.907-22.563,37.178
		c-0.857,5.301-1.282,11.498-1.282,18.589c0,7.096,1.539,15.856,4.615,26.281c3.076,10.428,6.963,19.702,11.666,27.818
		c4.699,8.12,9.743,17.095,15.127,26.921c5.385,9.832,10.469,19.358,15.256,28.59c10.938,21.369,16.322,45.811,16.153,73.33
		c0.169,21.195-4.703,41.451-14.614,60.766c-4.787,9.575-11.582,17.396-20.384,23.461c-8.807,6.065-18.845,9.186-30.127,9.358v1.28
		c-14.358-2.051-22.223-8.801-23.589-20.255L1210.513,904.292z"/>
</g>
<g enable-background="new    ">
	<path fill="#FFFFFF" d="M732.886,1212.417l-4.614,36.665v12.563c0,40.685,0.896,67.605,2.691,80.767
		c1.794,13.164,3.629,24.959,5.512,35.383c1.879,10.428,4.315,19.317,7.309,26.665c2.988,7.353,6.538,14.274,10.641,20.77
		c8.205,12.991,19.57,19.485,34.102,19.485c5.98,0,13.417-3.116,22.307-9.357c8.886-6.238,15.64-9.358,20.255-9.358
		s9.571,2.651,14.871,7.948c0,17.605-10,30.17-29.999,37.689c-9.916,3.589-20.684,5.384-32.306,5.384
		c-11.626,0-21.537-2.352-29.742-7.051s-15.043-10.769-20.513-18.204c-5.472-7.436-10.256-16.962-14.357-28.589
		c-4.102-11.622-7.352-23.159-9.743-34.613c-2.051-11.621-3.762-24.954-5.128-39.998c-2.051-25.295-3.165-52.985-3.333-83.072
		l0.513-62.817c0-19.999,1.194-36.151,3.59-48.459c-1.025-5.641-1.538-11.108-1.538-16.409c0-21.537,8.032-38.672,24.102-51.406
		c16.065-12.732,35.896-19.104,59.484-19.104c8.373,0,16.577,2.354,24.614,7.052c8.032,4.703,12.051,10.896,12.051,18.589
		c0,3.763-1.454,6.666-4.359,8.718c-2.908,2.052-7.82,3.077-14.743,3.077s-11.666-2.137-14.229-6.41v0.257h-7.18v-1.282
		c-20.344,0-34.188,6.326-41.537,18.974c-6.838,11.626-10.256,31.625-10.256,59.997L732.886,1212.417z"/>
	<path fill="#FFFFFF" d="M867.238,1308.054l0.513-19.999c0-1.707-0.256-2.563-0.769-2.563v-9.486c0-55.037,3.16-94.182,9.486-117.43
		c5.296-19.655,10.424-31.794,15.385-36.409c4.955-4.615,9.826-6.922,14.614-6.922c40.679,0,68.714,20.512,84.099,61.535
		c8.886,23.589,13.332,52.648,13.332,87.175v3.846l1.025,59.484c0,100.681-23.333,151.019-69.997,151.019
		c-19.317,0-34.101-10.681-44.355-32.05c-9.743-20.512-15.729-40.679-17.948-60.51
		C869.033,1355.832,867.238,1329.936,867.238,1308.054z M898.262,1236.263l-2.563,48.459c0,50.768,4.102,95.039,12.307,132.813
		c8.718,22.051,17.007,35.043,24.871,38.973c6.322,0,12.051-2.563,17.179-7.691c5.128-5.128,9.188-12.007,12.18-20.641
		c2.987-8.629,5.512-17.73,7.563-27.307c1.879-9.398,3.333-19.485,4.359-30.255c1.707-18.63,2.563-34.525,2.563-47.689
		c0-13.16-1.153-33.332-3.461-60.51c-2.308-27.179-3.461-47.435-3.461-60.767v-9.23c-0.344-12.819-4.53-24.229-12.563-34.229
		c-8.037-10-18.292-15-30.769-15c-11.967,0-19.915,6.755-23.845,20.256c-3.249,11.28-4.872,25.215-4.872,41.793L898.262,1236.263z"
		/>
	<path fill="#FFFFFF" d="M1039.793,1402.921l1.539-165.377c0-11.281-1.025-28.5-3.076-51.664
		c-2.052-23.159-3.077-37.901-3.077-44.229c0-6.321,1.963-11.237,5.897-14.742c3.93-3.502,8.115-5.257,12.563-5.257
		c36.064,0,65.382,21.113,87.945,63.33c12.988,24.102,19.485,49.572,19.485,76.406l-1.025,26.408v28.975
		c0,35.214-1.582,58.715-4.743,70.509c-3.165,11.795-6.454,21.626-9.871,29.485c-3.422,7.864-7.523,14.871-12.307,21.024
		c-11.113,14.019-25.127,25.299-42.051,33.845h-37.945C1044.236,1471.636,1039.793,1448.73,1039.793,1402.921z M1076.459,1432.406
		v12.563c30.423,0,48.715-30.768,54.869-92.303c1.365-14.188,2.051-27.859,2.051-41.023c0-105.636-20.344-160.846-61.022-165.633
		c-2.563,13.846-3.847,32.862-3.847,57.048c0,24.189,1.322,62.01,3.976,113.456
		C1075.133,1367.967,1076.459,1406.599,1076.459,1432.406z"/>
	<path fill="#FFFFFF" d="M1199.529,1203.443l-2.82-44.356c0-24.782,7.348-37.178,22.05-37.178c9.399,0,22.22,2.18,38.46,6.538
		c16.237,4.357,24.357,9.959,24.357,16.794c0,7.179-5.128,12.65-15.384,16.409c-16.241-5.469-29.485-8.803-39.741-9.999
		c0.513,7.522,0.77,15.043,0.77,22.563l-2.309,75.381c0,0.345,0.514,3.077,1.539,8.205l18.717-0.77
		c16.922,0,25.383,4.788,25.383,14.357c0,3.763-1.536,7.052-4.614,9.871c-3.076,2.82-6.968,4.23-11.666,4.23
		c-4.703,0-9.787-0.341-15.255-1.025h-13.333c1.024,13.333,1.538,26.581,1.538,39.742l-2.309,95.123
		c0,19.657,0.341,29.485,1.025,29.485l38.717-1.281c13.332,0,19.999,4.273,19.999,12.818c0,5.301-2.308,9.144-6.923,11.538
		c-4.615,2.392-9.831,3.59-15.641,3.59h-44.356c-4.615,0-8.806-1.583-12.563-4.743c-3.762-3.16-5.729-6.963-5.896-11.41v-13.846
		l-3.334-88.713L1199.529,1203.443z"/>
</g>
</svg>
