<?xml version="1.0" encoding="utf-8"?>
<!-- Generator: Adobe Illustrator 16.0.0, SVG Export Plug-In . SVG Version: 6.00 Build 0)  -->
<!DOCTYPE svg PUBLIC "-//W3C//DTD SVG 1.1//EN" "http://www.w3.org/Graphics/SVG/1.1/DTD/svg11.dtd">
<svg version="1.1" id="Ebene_1" xmlns="http://www.w3.org/2000/svg" xmlns:xlink="http://www.w3.org/1999/xlink" x="0px" y="0px"
	 width="2000px" height="2000px" viewBox="0 0 2000 2000" enable-background="new 0 0 2000 2000" xml:space="preserve">
<g>
	<circle fill="#FF46AF" cx="1000" cy="1000" r="800"/>
</g>
<g enable-background="new    ">
	<path fill="#FFFFFF" d="M745.079,373.827l-4.445,96.161v12.868l8.892-0.234c15.441,0,23.162,4.212,23.162,12.635
		c0,4.211-1.718,7.604-5.146,10.179c-3.433,2.572-7.918,3.859-13.453,3.859c-5.539,0-11.271-0.936-17.197-2.808v135.702
		c0,14.037-4.135,21.058-12.399,21.058c-4.994,0-10.687-2.421-17.08-7.254c2.649-28.544,4.639-69.139,5.966-121.78
		c1.323-52.645,2.457-87.073,3.393-103.298v-11.698c1.247-23.24,1.872-44.922,1.872-65.044c0-4.521,1.908-8.031,5.732-10.528
		c3.82-2.493,8.108-3.743,12.868-3.743c4.756,0,9.863,0.157,15.324,0.468c5.615,0.313,12.4,1.093,20.355,2.34
		c18.093,2.654,27.141,8.188,27.141,16.611c0,9.049-8.111,13.57-24.332,13.57c-6.397-3.118-14.74-4.679-25.035-4.679h-5.615
		L745.079,373.827L745.079,373.827z"/>
	<path fill="#FFFFFF" d="M912.624,561.704l5.147,29.479c0,3.9,1.521,13.416,4.563,28.544c3.042,15.132,4.563,25.034,4.563,29.715
		v0.468c0,7.02-2.653,11.541-7.955,13.57c-6.707,0-11.933-1.094-15.676-3.275c-3.744-2.184-5.615-6.395-5.615-12.635
		c0-13.57-2.34-33.301-7.019-59.194l-47.262-7.019c-2.965,10.608-5.229,22.227-6.785,34.86c-1.562,12.636-3.042,21.84-4.446,27.608
		c-2.808,11.854-8.035,17.781-15.676,17.781c-3.744,0-7.216-1.211-10.412-3.626c-3.199-2.417-4.796-5.498-4.796-9.242l1.17-4.211
		c21.525-83.137,37.513-164.091,47.964-242.86c0.312-2.183,0.778-8.576,1.404-19.186c1.557-23.396,4.521-38.29,8.891-44.688h16.145
		c4.365,0,8.188,1.016,11.464,3.041c3.274,2.029,4.913,5.07,4.913,9.125c0,24.333,3.234,60.444,9.71,108.328
		C909.385,506.177,912.624,540.646,912.624,561.704z M887.589,571.297c-0.936-4.68-1.403-12.828-1.403-24.45
		c0-11.618-0.666-26.047-1.989-43.284c-1.327-17.232-3.239-37.276-5.732-60.13c-2.497-22.849-4.211-39.424-5.146-49.719
		c-14.507,80.332-23.865,136.952-28.076,169.862C850.699,567.166,864.813,569.739,887.589,571.297z"/>
	<path fill="#FFFFFF" d="M948.677,543.221l-0.233-28.076V503.68c0-47.104,2.339-79.859,7.019-98.268
		c5.615-22.771,13.413-38.524,23.397-47.262c13.569-12.166,30.727-18.249,51.473-18.249c4.99,0,8.693,1.17,11.113,3.51
		c2.417,2.339,3.627,5.146,3.627,8.423c0,3.275-0.977,6.2-2.924,8.773c-1.953,2.573-4.409,3.941-7.371,4.095h-22.461
		c-6.552,0-12.247,4.211-17.079,12.634c-4.681,8.423-8.112,18.718-10.295,30.884c-4.059,23.087-6.007,42.195-5.85,57.323v2.34
		l-2.105,92.417c0,19.5,1.053,32.99,3.159,40.478c2.105,7.486,4.287,13.533,6.551,18.133c2.259,4.603,4.949,8.387,8.072,11.348
		c7.172,6.865,16.377,10.295,27.607,10.295c3.744,0,7.174-1.403,10.295-4.212c3.744,0,7.096,0.859,10.062,2.574
		c2.961,1.718,4.444,4.368,4.444,7.955c0,12.634-8.813,18.951-26.438,18.951c-7.178,0-14.704-1.054-22.579-3.158
		c-7.878-2.106-13.769-4.405-17.665-6.902C959.283,642.036,948.677,604.521,948.677,543.221z"/>
	<path fill="#FFFFFF" d="M1116.924,651.314l-0.936-36.733c0-0.153,0.232-5.615,0.701-16.378c-1.25-4.055-3.783-40.086-7.604-108.094
		c-3.824-68.005-5.89-109.574-6.201-124.705c-0.625,0-1.25,0-1.871,0c-25.895-0.469-38.839-5.225-38.839-14.272
		c0-2.961,1.714-5.418,5.147-7.37c3.429-1.948,6.784-2.925,10.061-2.925l65.043,4.445l7.721-0.233
		c9.98,0,14.976,3.823,14.976,11.464c0,3.901-1.639,7.06-4.913,9.476c-3.276,2.421-6.942,3.627-10.997,3.627l-21.992-3.275
		l-0.937,4.913c0,30.264,2.649,75.572,7.955,135.938c5.301,60.362,7.954,105.754,7.954,136.17c0,3.743-1.718,7.06-5.146,9.942
		c-3.433,2.89-7.176,4.328-11.23,4.328L1116.924,651.314z"/>
	<path fill="#FFFFFF" d="M1189.944,638.914l19.888,3.51c6.083,0,11.384-2.65,15.91-7.955c4.521-5.301,7.874-11.933,10.061-19.888
		c4.211-15.285,6.316-28.814,6.316-40.594c0-11.775-1.951-23.435-5.849-34.979c-3.901-11.541-8.697-22.264-14.391-32.171
		c-5.694-9.903-11.348-20.004-16.963-30.299c-13.416-24.333-20.121-48.197-20.121-71.595c0-14.35,2.416-27.061,7.254-38.137
		c9.044-20.589,21.058-30.884,36.031-30.884c5.615,0,10.955,1.795,16.026,5.381c5.066,3.59,7.604,7.487,7.604,11.699
		c0,7.333-3.9,10.996-11.699,10.996c-3.433,0-6.784-0.936-10.061-2.808c-10.141,0.468-17.003,11.779-20.59,33.926
		c-0.781,4.836-1.17,10.492-1.17,16.963c0,6.474,1.404,14.469,4.212,23.98c2.808,9.517,6.354,17.979,10.646,25.387
		c4.289,7.409,8.892,15.599,13.806,24.565c4.913,8.973,9.553,17.665,13.921,26.088c9.979,19.5,14.894,41.805,14.74,66.915
		c0.152,19.344-4.292,37.826-13.338,55.451c-4.367,8.737-10.567,15.873-18.6,21.408c-8.035,5.534-17.197,8.382-27.492,8.539v1.17
		c-13.102-1.871-20.277-8.031-21.524-18.483L1189.944,638.914z"/>
	<path fill="#FFFFFF" d="M1351.521,667.224c-4.76,10.139-11.112,19.187-19.067,27.142s-15.015,11.933-21.175,11.933
		c-6.163,0-9.241-1.988-9.241-5.966c0-3.979,1.948-7.604,5.849-10.88c7.021-8.112,12.167-23.243,15.443-45.391
		c2.807-18.87,9.043-28.311,18.717-28.311c11.073,0,16.611,8.423,16.611,25.269C1358.658,648.354,1356.279,657.087,1351.521,667.224
		z"/>
</g>
<g enable-background="new    ">
	<path fill="#FFFFFF" d="M745.079,843.885l-4.445,96.161v12.868l8.892-0.234c15.441,0,23.162,4.212,23.162,12.636
		c0,4.211-1.718,7.604-5.146,10.178c-3.433,2.573-7.918,3.859-13.453,3.859c-5.539,0-11.271-0.936-17.197-2.808v135.702
		c0,14.038-4.135,21.058-12.399,21.058c-4.994,0-10.687-2.421-17.08-7.254c2.649-28.544,4.639-69.138,5.966-121.78
		c1.323-52.644,2.457-87.072,3.393-103.298v-11.697c1.247-23.24,1.872-44.923,1.872-65.045c0-4.521,1.908-8.03,5.732-10.527
		c3.82-2.493,8.108-3.743,12.868-3.743c4.756,0,9.863,0.157,15.324,0.468c5.615,0.314,12.4,1.093,20.355,2.34
		c18.093,2.654,27.141,8.188,27.141,16.611c0,9.049-8.111,13.57-24.332,13.57c-6.397-3.118-14.74-4.68-25.035-4.68h-5.615
		L745.079,843.885L745.079,843.885z"/>
	<path fill="#FFFFFF" d="M912.624,1031.762l5.147,29.48c0,3.899,1.521,13.416,4.563,28.544c3.042,15.131,4.563,25.034,4.563,29.714
		v0.468c0,7.021-2.653,11.541-7.955,13.57c-6.707,0-11.933-1.093-15.676-3.275c-3.744-2.183-5.615-6.394-5.615-12.635
		c0-13.57-2.34-33.3-7.019-59.194l-47.262-7.019c-2.965,10.608-5.229,22.227-6.785,34.86c-1.562,12.636-3.042,21.84-4.446,27.608
		c-2.808,11.854-8.035,17.781-15.676,17.781c-3.744,0-7.216-1.21-10.412-3.626c-3.199-2.417-4.796-5.498-4.796-9.242l1.17-4.211
		c21.525-83.136,37.513-164.09,47.964-242.86c0.312-2.183,0.778-8.576,1.404-19.186c1.557-23.396,4.521-38.29,8.891-44.688h16.145
		c4.365,0,8.188,1.017,11.464,3.041c3.274,2.029,4.913,5.07,4.913,9.125c0,24.333,3.234,60.444,9.71,108.328
		C909.385,976.234,912.624,1010.704,912.624,1031.762z M887.589,1041.354c-0.936-4.68-1.403-12.827-1.403-24.449
		c0-11.618-0.666-26.047-1.989-43.284c-1.327-17.233-3.239-37.277-5.732-60.13c-2.497-22.85-4.211-39.424-5.146-49.719
		c-14.507,80.332-23.865,136.951-28.076,169.861C850.699,1037.224,864.813,1039.797,887.589,1041.354z"/>
	<path fill="#FFFFFF" d="M948.677,1013.278l-0.233-28.076v-11.465c0-47.104,2.339-79.86,7.019-98.269
		c5.615-22.771,13.413-38.523,23.397-47.262c13.569-12.166,30.727-18.249,51.473-18.249c4.99,0,8.693,1.17,11.113,3.51
		c2.417,2.339,3.627,5.146,3.627,8.423c0,3.275-0.977,6.2-2.924,8.773c-1.953,2.573-4.409,3.94-7.371,4.095h-22.461
		c-6.552,0-12.247,4.211-17.079,12.634c-4.681,8.423-8.112,18.719-10.295,30.885c-4.059,23.087-6.007,42.194-5.85,57.322v2.34
		l-2.105,92.418c0,19.5,1.053,32.989,3.159,40.477c2.105,7.487,4.287,13.534,6.551,18.133c2.259,4.604,4.949,8.387,8.072,11.349
		c7.172,6.864,16.377,10.295,27.607,10.295c3.744,0,7.174-1.404,10.295-4.212c3.744,0,7.096,0.858,10.062,2.573
		c2.961,1.719,4.444,4.368,4.444,7.955c0,12.634-8.813,18.951-26.438,18.951c-7.178,0-14.704-1.053-22.579-3.158
		c-7.878-2.105-13.769-4.404-17.665-6.901C959.283,1112.094,948.677,1074.578,948.677,1013.278z"/>
	<path fill="#FFFFFF" d="M1116.924,1121.372l-0.936-36.733c0-0.152,0.232-5.615,0.701-16.378
		c-1.25-4.055-3.783-40.086-7.604-108.094c-3.824-68.005-5.89-109.574-6.201-124.705c-0.625,0-1.25,0-1.871,0
		c-25.895-0.469-38.839-5.225-38.839-14.272c0-2.961,1.714-5.418,5.147-7.369c3.429-1.948,6.784-2.926,10.061-2.926l65.043,4.445
		l7.721-0.232c9.98,0,14.976,3.822,14.976,11.464c0,3.9-1.639,7.06-4.913,9.476c-3.276,2.421-6.942,3.627-10.997,3.627
		l-21.992-3.275l-0.937,4.913c0,30.264,2.649,75.572,7.955,135.938c5.301,60.363,7.954,105.754,7.954,136.17
		c0,3.743-1.718,7.06-5.146,9.943c-3.433,2.889-7.176,4.327-11.23,4.327L1116.924,1121.372z"/>
	<path fill="#FFFFFF" d="M1189.944,1108.972l19.888,3.511c6.083,0,11.384-2.651,15.91-7.955c4.521-5.301,7.874-11.934,10.061-19.889
		c4.211-15.284,6.316-28.813,6.316-40.594c0-11.774-1.951-23.434-5.849-34.979c-3.901-11.541-8.697-22.265-14.391-32.171
		c-5.694-9.903-11.348-20.005-16.963-30.3c-13.416-24.333-20.121-48.196-20.121-71.595c0-14.349,2.416-27.06,7.254-38.137
		c9.044-20.589,21.058-30.884,36.031-30.884c5.615,0,10.955,1.795,16.026,5.381c5.066,3.59,7.604,7.486,7.604,11.699
		c0,7.332-3.9,10.995-11.699,10.995c-3.433,0-6.784-0.936-10.061-2.808c-10.141,0.468-17.003,11.779-20.59,33.926
		c-0.781,4.836-1.17,10.492-1.17,16.963c0,6.475,1.404,14.47,4.212,23.981c2.808,9.516,6.354,17.979,10.646,25.386
		c4.289,7.41,8.892,15.6,13.806,24.566c4.913,8.972,9.553,17.665,13.921,26.088c9.979,19.5,14.894,41.804,14.74,66.915
		c0.152,19.343-4.292,37.826-13.338,55.451c-4.367,8.737-10.567,15.873-18.6,21.407c-8.035,5.534-17.197,8.383-27.492,8.539v1.17
		c-13.102-1.87-20.277-8.03-21.524-18.482L1189.944,1108.972z"/>
	<path fill="#FFFFFF" d="M1351.521,1137.281c-4.76,10.138-11.112,19.186-19.067,27.141s-15.015,11.934-21.175,11.934
		c-6.163,0-9.241-1.988-9.241-5.967c0-3.978,1.948-7.604,5.849-10.88c7.021-8.112,12.167-23.243,15.443-45.39
		c2.807-18.871,9.043-28.312,18.717-28.312c11.073,0,16.611,8.423,16.611,25.27
		C1358.658,1118.41,1356.279,1127.145,1351.521,1137.281z"/>
</g>
<g enable-background="new    ">
	<path fill="#FFFFFF" d="M745.079,1338.669l-4.445,96.161v12.868l8.892-0.234c15.441,0,23.162,4.212,23.162,12.635
		c0,4.212-1.718,7.604-5.146,10.179c-3.433,2.572-7.918,3.859-13.453,3.859c-5.539,0-11.271-0.936-17.197-2.808v135.702
		c0,14.038-4.135,21.058-12.399,21.058c-4.994,0-10.687-2.421-17.08-7.254c2.649-28.544,4.639-69.138,5.966-121.78
		c1.323-52.644,2.457-87.072,3.393-103.298v-11.698c1.247-23.239,1.872-44.922,1.872-65.044c0-4.521,1.908-8.03,5.732-10.527
		c3.82-2.493,8.108-3.743,12.868-3.743c4.756,0,9.863,0.157,15.324,0.468c5.615,0.314,12.4,1.093,20.355,2.34
		c18.093,2.654,27.141,8.188,27.141,16.611c0,9.049-8.111,13.569-24.332,13.569c-6.397-3.117-14.74-4.679-25.035-4.679h-5.615
		L745.079,1338.669L745.079,1338.669z"/>
	<path fill="#FFFFFF" d="M912.624,1526.546l5.147,29.48c0,3.899,1.521,13.416,4.563,28.544c3.042,15.131,4.563,25.033,4.563,29.714
		v0.468c0,7.02-2.653,11.541-7.955,13.57c-6.707,0-11.933-1.094-15.676-3.275c-3.744-2.183-5.615-6.395-5.615-12.635
		c0-13.57-2.34-33.301-7.019-59.194l-47.262-7.019c-2.965,10.608-5.229,22.227-6.785,34.86c-1.562,12.636-3.042,21.84-4.446,27.608
		c-2.808,11.854-8.035,17.781-15.676,17.781c-3.744,0-7.216-1.21-10.412-3.626c-3.199-2.417-4.796-5.498-4.796-9.242l1.17-4.211
		c21.525-83.136,37.513-164.09,47.964-242.86c0.312-2.183,0.778-8.576,1.404-19.186c1.557-23.396,4.521-38.29,8.891-44.688h16.145
		c4.365,0,8.188,1.017,11.464,3.041c3.274,2.029,4.913,5.07,4.913,9.125c0,24.333,3.234,60.444,9.71,108.328
		C909.385,1471.02,912.624,1505.488,912.624,1526.546z M887.589,1536.139c-0.936-4.68-1.403-12.828-1.403-24.449
		c0-11.618-0.666-26.047-1.989-43.284c-1.327-17.233-3.239-37.277-5.732-60.13c-2.497-22.85-4.211-39.424-5.146-49.72
		c-14.507,80.332-23.865,136.952-28.076,169.862C850.699,1532.008,864.813,1534.581,887.589,1536.139z"/>
	<path fill="#FFFFFF" d="M948.677,1508.063l-0.233-28.075v-11.466c0-47.104,2.339-79.859,7.019-98.268
		c5.615-22.771,13.413-38.523,23.397-47.262c13.569-12.166,30.727-18.249,51.473-18.249c4.99,0,8.693,1.17,11.113,3.51
		c2.417,2.339,3.627,5.146,3.627,8.423c0,3.275-0.977,6.2-2.924,8.773c-1.953,2.572-4.409,3.94-7.371,4.095h-22.461
		c-6.552,0-12.247,4.211-17.079,12.634c-4.681,8.423-8.112,18.719-10.295,30.885c-4.059,23.087-6.007,42.194-5.85,57.322v2.34
		l-2.105,92.417c0,19.5,1.053,32.99,3.159,40.478c2.105,7.487,4.287,13.534,6.551,18.133c2.259,4.604,4.949,8.387,8.072,11.348
		c7.172,6.865,16.377,10.296,27.607,10.296c3.744,0,7.174-1.404,10.295-4.212c3.744,0,7.096,0.858,10.062,2.573
		c2.961,1.718,4.444,4.368,4.444,7.955c0,12.634-8.813,18.951-26.438,18.951c-7.178,0-14.704-1.053-22.579-3.158
		c-7.878-2.105-13.769-4.405-17.665-6.901C959.283,1606.878,948.677,1569.362,948.677,1508.063z"/>
	<path fill="#FFFFFF" d="M1116.924,1616.156l-0.936-36.733c0-0.153,0.232-5.615,0.701-16.378
		c-1.25-4.055-3.783-40.086-7.604-108.094c-3.824-68.005-5.89-109.574-6.201-124.705c-0.625,0-1.25,0-1.871,0
		c-25.895-0.469-38.839-5.225-38.839-14.272c0-2.961,1.714-5.418,5.147-7.37c3.429-1.947,6.784-2.925,10.061-2.925l65.043,4.445
		l7.721-0.233c9.98,0,14.976,3.823,14.976,11.464c0,3.901-1.639,7.061-4.913,9.477c-3.276,2.421-6.942,3.627-10.997,3.627
		l-21.992-3.275l-0.937,4.913c0,30.263,2.649,75.572,7.955,135.938c5.301,60.362,7.954,105.754,7.954,136.17
		c0,3.742-1.718,7.06-5.146,9.942c-3.433,2.89-7.176,4.328-11.23,4.328L1116.924,1616.156z"/>
	<path fill="#FFFFFF" d="M1189.944,1603.756l19.888,3.51c6.083,0,11.384-2.65,15.91-7.955c4.521-5.301,7.874-11.933,10.061-19.888
		c4.211-15.285,6.316-28.813,6.316-40.594c0-11.775-1.951-23.434-5.849-34.979c-3.901-11.541-8.697-22.264-14.391-32.171
		c-5.694-9.902-11.348-20.004-16.963-30.299c-13.416-24.333-20.121-48.196-20.121-71.595c0-14.349,2.416-27.061,7.254-38.137
		c9.044-20.589,21.058-30.885,36.031-30.885c5.615,0,10.955,1.796,16.026,5.382c5.066,3.59,7.604,7.486,7.604,11.698
		c0,7.333-3.9,10.996-11.699,10.996c-3.433,0-6.784-0.936-10.061-2.808c-10.141,0.468-17.003,11.779-20.59,33.926
		c-0.781,4.836-1.17,10.492-1.17,16.963c0,6.475,1.404,14.47,4.212,23.981c2.808,9.516,6.354,17.979,10.646,25.386
		c4.289,7.41,8.892,15.599,13.806,24.566c4.913,8.972,9.553,17.665,13.921,26.088c9.979,19.5,14.894,41.804,14.74,66.915
		c0.152,19.343-4.292,37.826-13.338,55.451c-4.367,8.736-10.567,15.873-18.6,21.407c-8.035,5.534-17.197,8.382-27.492,8.539v1.17
		c-13.102-1.87-20.277-8.03-21.524-18.482L1189.944,1603.756z"/>
	<path fill="#FFFFFF" d="M1329.764,1631.364c-4.914,0-8.971-1.755-12.166-5.266c-3.198-3.51-4.797-7.563-4.797-12.166
		c0-4.6,1.791-8.773,5.381-12.518c3.588-3.743,7.722-5.615,12.4-5.615s8.734,1.872,12.167,5.615
		c3.429,3.743,5.147,8.072,5.147,12.985c0,4.912-1.796,8.971-5.383,12.166C1338.925,1629.763,1334.677,1631.364,1329.764,1631.364z"
		/>
</g>
</svg>
