<?xml version="1.0" encoding="utf-8"?>
<!-- Generator: Adobe Illustrator 16.0.0, SVG Export Plug-In . SVG Version: 6.00 Build 0)  -->
<!DOCTYPE svg PUBLIC "-//W3C//DTD SVG 1.1//EN" "http://www.w3.org/Graphics/SVG/1.1/DTD/svg11.dtd">
<svg version="1.1" id="Ebene_1" xmlns="http://www.w3.org/2000/svg" xmlns:xlink="http://www.w3.org/1999/xlink" x="0px" y="0px"
	 width="2000px" height="2000px" viewBox="0 0 2000 2000" enable-background="new 0 0 2000 2000" xml:space="preserve">
<g>
	<circle fill="#7F1D78" cx="1000" cy="1000" r="800"/>
</g>
<g enable-background="new    ">
	<path fill="#FFFFFF" d="M745.079,373.827l-4.445,96.161v12.868l8.891-0.234c15.442,0,23.163,4.212,23.163,12.635
		c0,4.211-1.718,7.604-5.147,10.178c-3.433,2.573-7.918,3.86-13.453,3.86c-5.539,0-11.271-0.936-17.197-2.808v135.702
		c0,14.038-4.135,21.058-12.4,21.058c-4.994,0-10.686-2.421-17.08-7.254c2.65-28.544,4.639-69.138,5.966-121.78
		c1.323-52.644,2.457-87.073,3.393-103.298v-11.698c1.247-23.24,1.872-44.922,1.872-65.044c0-4.521,1.908-8.031,5.732-10.528
		c3.82-2.493,8.108-3.743,12.868-3.743c4.756,0,9.863,0.157,15.325,0.468c5.615,0.314,12.4,1.093,20.355,2.34
		c18.093,2.654,27.141,8.188,27.141,16.611c0,9.049-8.112,13.57-24.333,13.57c-6.397-3.118-14.74-4.679-25.035-4.679h-5.615V373.827
		z"/>
	<path fill="#FFFFFF" d="M912.624,561.704l5.147,29.48c0,3.9,1.521,13.416,4.563,28.544c3.042,15.131,4.563,25.034,4.563,29.714
		v0.468c0,7.02-2.654,11.541-7.955,13.57c-6.708,0-11.933-1.093-15.676-3.275c-3.744-2.183-5.615-6.394-5.615-12.635
		c0-13.57-2.34-33.3-7.019-59.194l-47.262-7.019c-2.965,10.609-5.228,22.227-6.785,34.861c-1.561,12.635-3.042,21.84-4.446,27.608
		c-2.808,11.855-8.035,17.781-15.676,17.781c-3.744,0-7.216-1.21-10.412-3.626c-3.199-2.417-4.796-5.498-4.796-9.242l1.17-4.211
		c21.525-83.136,37.512-164.09,47.964-242.86c0.311-2.183,0.778-8.576,1.404-19.186c1.557-23.396,4.522-38.29,8.891-44.688h16.144
		c4.365,0,8.189,1.016,11.464,3.041c3.275,2.029,4.913,5.07,4.913,9.125c0,24.333,3.235,60.444,9.71,108.328
		C909.385,506.177,912.624,540.646,912.624,561.704z M887.589,571.297c-0.936-4.68-1.404-12.828-1.404-24.45
		c0-11.618-0.665-26.047-1.989-43.284c-1.327-17.233-3.239-37.277-5.732-60.13c-2.497-22.849-4.211-39.424-5.147-49.719
		c-14.506,80.332-23.865,136.952-28.076,169.862C850.699,567.166,864.813,569.739,887.589,571.297z"/>
	<path fill="#FFFFFF" d="M948.677,543.221l-0.234-28.076V503.68c0-47.104,2.339-79.86,7.019-98.268
		c5.615-22.771,13.413-38.524,23.397-47.262c13.57-12.166,30.727-18.249,51.473-18.249c4.99,0,8.693,1.17,11.113,3.51
		c2.417,2.339,3.627,5.146,3.627,8.423c0,3.275-0.976,6.2-2.924,8.773c-1.953,2.573-4.409,3.941-7.371,4.095h-22.461
		c-6.551,0-12.247,4.211-17.079,12.634c-4.68,8.423-8.112,18.718-10.295,30.884c-4.058,23.087-6.006,42.195-5.849,57.323v2.34
		l-2.106,92.417c0,19.5,1.053,32.99,3.159,40.477c2.106,7.487,4.288,13.534,6.551,18.133c2.259,4.603,4.95,8.387,8.072,11.348
		c7.172,6.865,16.377,10.295,27.608,10.295c3.744,0,7.174-1.404,10.295-4.212c3.744,0,7.096,0.859,10.061,2.574
		c2.961,1.718,4.445,4.368,4.445,7.955c0,12.634-8.813,18.951-26.438,18.951c-7.177,0-14.704-1.053-22.579-3.158
		c-7.878-2.106-13.768-4.405-17.665-6.902C959.283,642.036,948.677,604.521,948.677,543.221z"/>
	<path fill="#FFFFFF" d="M1116.924,651.314l-0.936-36.733c0-0.153,0.233-5.615,0.701-16.378c-1.25-4.055-3.783-40.086-7.604-108.094
		c-3.824-68.005-5.89-109.574-6.201-124.705c-0.625,0-1.25,0-1.871,0c-25.895-0.469-38.839-5.225-38.839-14.272
		c0-2.961,1.714-5.418,5.147-7.37c3.429-1.948,6.785-2.925,10.061-2.925l65.043,4.445l7.721-0.233
		c9.98,0,14.975,3.823,14.975,11.464c0,3.901-1.638,7.06-4.913,9.476c-3.276,2.421-6.942,3.627-10.997,3.627l-21.992-3.275
		l-0.937,4.913c0,30.263,2.65,75.572,7.955,135.937c5.301,60.363,7.955,105.754,7.955,136.17c0,3.743-1.718,7.06-5.147,9.943
		c-3.433,2.889-7.176,4.328-11.23,4.328L1116.924,651.314z"/>
	<path fill="#FFFFFF" d="M1189.944,638.914l19.888,3.51c6.083,0,11.384-2.651,15.91-7.955c4.521-5.301,7.874-11.933,10.061-19.888
		c4.211-15.285,6.316-28.814,6.316-40.594c0-11.775-1.951-23.434-5.849-34.979c-3.901-11.541-8.697-22.264-14.39-32.171
		c-5.695-9.903-11.348-20.004-16.963-30.299c-13.416-24.333-20.121-48.197-20.121-71.595c0-14.349,2.416-27.06,7.254-38.137
		c9.044-20.589,21.057-30.884,36.031-30.884c5.615,0,10.955,1.795,16.026,5.381c5.067,3.59,7.604,7.487,7.604,11.699
		c0,7.333-3.901,10.996-11.699,10.996c-3.433,0-6.785-0.936-10.061-2.808c-10.141,0.468-17.003,11.779-20.59,33.926
		c-0.781,4.836-1.17,10.492-1.17,16.963c0,6.474,1.404,14.469,4.212,23.981c2.808,9.516,6.354,17.979,10.646,25.386
		c4.289,7.41,8.891,15.599,13.805,24.566c4.913,8.972,9.553,17.665,13.921,26.088c9.98,19.5,14.894,41.804,14.74,66.915
		c0.153,19.343-4.292,37.826-13.337,55.451c-4.368,8.737-10.568,15.873-18.6,21.408c-8.035,5.534-17.197,8.382-27.492,8.539v1.17
		c-13.102-1.871-20.278-8.031-21.525-18.483L1189.944,638.914z"/>
	<path fill="#FFFFFF" d="M1351.522,667.224c-4.76,10.138-11.113,19.186-19.068,27.141s-15.015,11.933-21.175,11.933
		c-6.163,0-9.241-1.988-9.241-5.966s1.948-7.604,5.849-10.88c7.02-8.112,12.167-23.243,15.443-45.39
		c2.807-18.871,9.043-28.311,18.717-28.311c11.073,0,16.611,8.423,16.611,25.269
		C1358.658,648.353,1356.279,657.087,1351.522,667.224z"/>
</g>
<g enable-background="new    ">
	<path fill="#FFFFFF" d="M745.079,843.885l-4.445,96.161v12.868l8.891-0.234c15.442,0,23.163,4.212,23.163,12.635
		c0,4.211-1.718,7.604-5.147,10.178c-3.433,2.573-7.918,3.86-13.453,3.86c-5.539,0-11.271-0.936-17.197-2.808v135.702
		c0,14.038-4.135,21.058-12.4,21.058c-4.994,0-10.686-2.421-17.08-7.254c2.65-28.544,4.639-69.138,5.966-121.78
		c1.323-52.644,2.457-87.073,3.393-103.298v-11.698c1.247-23.24,1.872-44.922,1.872-65.044c0-4.521,1.908-8.031,5.732-10.528
		c3.82-2.493,8.108-3.743,12.868-3.743c4.756,0,9.863,0.157,15.325,0.468c5.615,0.314,12.4,1.093,20.355,2.34
		c18.093,2.654,27.141,8.188,27.141,16.611c0,9.049-8.112,13.57-24.333,13.57c-6.397-3.118-14.74-4.679-25.035-4.679h-5.615V843.885
		z"/>
	<path fill="#FFFFFF" d="M912.624,1031.762l5.147,29.48c0,3.9,1.521,13.416,4.563,28.544c3.042,15.131,4.563,25.034,4.563,29.714
		v0.468c0,7.02-2.654,11.541-7.955,13.57c-6.708,0-11.933-1.093-15.676-3.275c-3.744-2.183-5.615-6.394-5.615-12.635
		c0-13.57-2.34-33.3-7.019-59.194l-47.262-7.019c-2.965,10.609-5.228,22.227-6.785,34.861c-1.561,12.635-3.042,21.84-4.446,27.608
		c-2.808,11.855-8.035,17.781-15.676,17.781c-3.744,0-7.216-1.21-10.412-3.626c-3.199-2.417-4.796-5.498-4.796-9.242l1.17-4.211
		c21.525-83.136,37.512-164.09,47.964-242.86c0.311-2.183,0.778-8.576,1.404-19.186c1.557-23.396,4.522-38.29,8.891-44.688h16.144
		c4.365,0,8.189,1.016,11.464,3.041c3.275,2.029,4.913,5.07,4.913,9.125c0,24.333,3.235,60.444,9.71,108.328
		C909.385,976.234,912.624,1010.704,912.624,1031.762z M887.589,1041.354c-0.936-4.68-1.404-12.828-1.404-24.45
		c0-11.618-0.665-26.047-1.989-43.284c-1.327-17.233-3.239-37.277-5.732-60.13c-2.497-22.849-4.211-39.424-5.147-49.719
		c-14.506,80.332-23.865,136.952-28.076,169.862C850.699,1037.224,864.813,1039.797,887.589,1041.354z"/>
	<path fill="#FFFFFF" d="M948.677,1013.278l-0.234-28.076v-11.465c0-47.104,2.339-79.86,7.019-98.268
		c5.615-22.771,13.413-38.524,23.397-47.262c13.57-12.166,30.727-18.249,51.473-18.249c4.99,0,8.693,1.17,11.113,3.51
		c2.417,2.339,3.627,5.146,3.627,8.423c0,3.275-0.976,6.2-2.924,8.773c-1.953,2.573-4.409,3.941-7.371,4.095h-22.461
		c-6.551,0-12.247,4.211-17.079,12.634c-4.68,8.423-8.112,18.718-10.295,30.884c-4.058,23.087-6.006,42.195-5.849,57.323v2.34
		l-2.106,92.417c0,19.5,1.053,32.99,3.159,40.477c2.106,7.487,4.288,13.534,6.551,18.133c2.259,4.603,4.95,8.387,8.072,11.348
		c7.172,6.865,16.377,10.295,27.608,10.295c3.744,0,7.174-1.404,10.295-4.212c3.744,0,7.096,0.859,10.061,2.574
		c2.961,1.718,4.445,4.368,4.445,7.955c0,12.634-8.813,18.951-26.438,18.951c-7.177,0-14.704-1.053-22.579-3.158
		c-7.878-2.106-13.768-4.405-17.665-6.902C959.283,1112.094,948.677,1074.578,948.677,1013.278z"/>
	<path fill="#FFFFFF" d="M1116.924,1121.372l-0.936-36.733c0-0.153,0.233-5.615,0.701-16.378
		c-1.25-4.055-3.783-40.086-7.604-108.094c-3.824-68.005-5.89-109.574-6.201-124.705c-0.625,0-1.25,0-1.871,0
		c-25.895-0.469-38.839-5.225-38.839-14.272c0-2.961,1.714-5.418,5.147-7.37c3.429-1.948,6.785-2.925,10.061-2.925l65.043,4.445
		l7.721-0.233c9.98,0,14.975,3.823,14.975,11.464c0,3.901-1.638,7.06-4.913,9.476c-3.276,2.421-6.942,3.627-10.997,3.627
		l-21.992-3.275l-0.937,4.913c0,30.263,2.65,75.572,7.955,135.937c5.301,60.363,7.955,105.754,7.955,136.17
		c0,3.743-1.718,7.06-5.147,9.943c-3.433,2.889-7.176,4.328-11.23,4.328L1116.924,1121.372z"/>
	<path fill="#FFFFFF" d="M1189.944,1108.972l19.888,3.51c6.083,0,11.384-2.651,15.91-7.955c4.521-5.301,7.874-11.933,10.061-19.888
		c4.211-15.285,6.316-28.814,6.316-40.594c0-11.775-1.951-23.434-5.849-34.979c-3.901-11.541-8.697-22.264-14.39-32.171
		c-5.695-9.903-11.348-20.004-16.963-30.299c-13.416-24.333-20.121-48.197-20.121-71.595c0-14.349,2.416-27.06,7.254-38.137
		c9.044-20.589,21.057-30.884,36.031-30.884c5.615,0,10.955,1.795,16.026,5.381c5.067,3.59,7.604,7.487,7.604,11.699
		c0,7.333-3.901,10.996-11.699,10.996c-3.433,0-6.785-0.936-10.061-2.808c-10.141,0.468-17.003,11.779-20.59,33.926
		c-0.781,4.836-1.17,10.492-1.17,16.963c0,6.474,1.404,14.469,4.212,23.981c2.808,9.516,6.354,17.979,10.646,25.386
		c4.289,7.41,8.891,15.599,13.805,24.566c4.913,8.972,9.553,17.665,13.921,26.088c9.98,19.5,14.894,41.804,14.74,66.915
		c0.153,19.343-4.292,37.826-13.337,55.451c-4.368,8.737-10.568,15.873-18.6,21.408c-8.035,5.534-17.197,8.382-27.492,8.539v1.17
		c-13.102-1.871-20.278-8.031-21.525-18.483L1189.944,1108.972z"/>
	<path fill="#FFFFFF" d="M1351.522,1137.281c-4.76,10.138-11.113,19.186-19.068,27.141s-15.015,11.933-21.175,11.933
		c-6.163,0-9.241-1.988-9.241-5.966s1.948-7.604,5.849-10.88c7.02-8.112,12.167-23.243,15.443-45.39
		c2.807-18.871,9.043-28.311,18.717-28.311c11.073,0,16.611,8.423,16.611,25.269
		C1358.658,1118.41,1356.279,1127.145,1351.522,1137.281z"/>
</g>
<g enable-background="new    ">
	<path fill="#FFFFFF" d="M745.079,1338.669l-4.445,96.161v12.868l8.891-0.234c15.442,0,23.163,4.212,23.163,12.635
		c0,4.211-1.718,7.604-5.147,10.178c-3.433,2.573-7.918,3.86-13.453,3.86c-5.539,0-11.271-0.936-17.197-2.808v135.702
		c0,14.038-4.135,21.058-12.4,21.058c-4.994,0-10.686-2.421-17.08-7.254c2.65-28.544,4.639-69.138,5.966-121.78
		c1.323-52.644,2.457-87.073,3.393-103.298v-11.698c1.247-23.24,1.872-44.922,1.872-65.044c0-4.521,1.908-8.031,5.732-10.528
		c3.82-2.493,8.108-3.743,12.868-3.743c4.756,0,9.863,0.157,15.325,0.468c5.615,0.314,12.4,1.093,20.355,2.34
		c18.093,2.654,27.141,8.188,27.141,16.611c0,9.049-8.112,13.57-24.333,13.57c-6.397-3.118-14.74-4.679-25.035-4.679h-5.615
		V1338.669z"/>
	<path fill="#FFFFFF" d="M912.624,1526.546l5.147,29.48c0,3.9,1.521,13.416,4.563,28.544c3.042,15.131,4.563,25.034,4.563,29.714
		v0.468c0,7.02-2.654,11.541-7.955,13.57c-6.708,0-11.933-1.093-15.676-3.275c-3.744-2.183-5.615-6.394-5.615-12.635
		c0-13.57-2.34-33.3-7.019-59.194l-47.262-7.019c-2.965,10.609-5.228,22.227-6.785,34.861c-1.561,12.635-3.042,21.84-4.446,27.608
		c-2.808,11.855-8.035,17.781-15.676,17.781c-3.744,0-7.216-1.21-10.412-3.626c-3.199-2.417-4.796-5.498-4.796-9.242l1.17-4.211
		c21.525-83.136,37.512-164.09,47.964-242.86c0.311-2.183,0.778-8.576,1.404-19.186c1.557-23.396,4.522-38.29,8.891-44.688h16.144
		c4.365,0,8.189,1.016,11.464,3.041c3.275,2.029,4.913,5.07,4.913,9.125c0,24.333,3.235,60.444,9.71,108.328
		C909.385,1471.019,912.624,1505.488,912.624,1526.546z M887.589,1536.139c-0.936-4.68-1.404-12.828-1.404-24.45
		c0-11.618-0.665-26.047-1.989-43.284c-1.327-17.233-3.239-37.277-5.732-60.13c-2.497-22.849-4.211-39.424-5.147-49.719
		c-14.506,80.332-23.865,136.952-28.076,169.862C850.699,1532.008,864.813,1534.581,887.589,1536.139z"/>
	<path fill="#FFFFFF" d="M948.677,1508.063l-0.234-28.076v-11.465c0-47.104,2.339-79.86,7.019-98.268
		c5.615-22.771,13.413-38.524,23.397-47.262c13.57-12.166,30.727-18.249,51.473-18.249c4.99,0,8.693,1.17,11.113,3.51
		c2.417,2.339,3.627,5.146,3.627,8.423c0,3.275-0.976,6.2-2.924,8.773c-1.953,2.573-4.409,3.941-7.371,4.095h-22.461
		c-6.551,0-12.247,4.211-17.079,12.634c-4.68,8.423-8.112,18.718-10.295,30.884c-4.058,23.087-6.006,42.195-5.849,57.323v2.34
		l-2.106,92.417c0,19.5,1.053,32.99,3.159,40.477c2.106,7.487,4.288,13.534,6.551,18.133c2.259,4.603,4.95,8.387,8.072,11.348
		c7.172,6.865,16.377,10.295,27.608,10.295c3.744,0,7.174-1.404,10.295-4.212c3.744,0,7.096,0.859,10.061,2.574
		c2.961,1.718,4.445,4.368,4.445,7.955c0,12.634-8.813,18.951-26.438,18.951c-7.177,0-14.704-1.053-22.579-3.158
		c-7.878-2.106-13.768-4.405-17.665-6.902C959.283,1606.878,948.677,1569.362,948.677,1508.063z"/>
	<path fill="#FFFFFF" d="M1116.924,1616.156l-0.936-36.733c0-0.153,0.233-5.615,0.701-16.378
		c-1.25-4.055-3.783-40.086-7.604-108.094c-3.824-68.005-5.89-109.574-6.201-124.705c-0.625,0-1.25,0-1.871,0
		c-25.895-0.469-38.839-5.225-38.839-14.272c0-2.961,1.714-5.418,5.147-7.37c3.429-1.948,6.785-2.925,10.061-2.925l65.043,4.445
		l7.721-0.233c9.98,0,14.975,3.823,14.975,11.464c0,3.901-1.638,7.06-4.913,9.476c-3.276,2.421-6.942,3.627-10.997,3.627
		l-21.992-3.275l-0.937,4.913c0,30.263,2.65,75.572,7.955,135.937c5.301,60.363,7.955,105.754,7.955,136.17
		c0,3.743-1.718,7.06-5.147,9.943c-3.433,2.889-7.176,4.328-11.23,4.328L1116.924,1616.156z"/>
	<path fill="#FFFFFF" d="M1189.944,1603.756l19.888,3.51c6.083,0,11.384-2.651,15.91-7.955c4.521-5.301,7.874-11.933,10.061-19.888
		c4.211-15.285,6.316-28.814,6.316-40.594c0-11.775-1.951-23.434-5.849-34.979c-3.901-11.541-8.697-22.264-14.39-32.171
		c-5.695-9.903-11.348-20.004-16.963-30.299c-13.416-24.333-20.121-48.197-20.121-71.595c0-14.349,2.416-27.06,7.254-38.137
		c9.044-20.589,21.057-30.884,36.031-30.884c5.615,0,10.955,1.795,16.026,5.381c5.067,3.59,7.604,7.487,7.604,11.699
		c0,7.333-3.901,10.996-11.699,10.996c-3.433,0-6.785-0.936-10.061-2.808c-10.141,0.468-17.003,11.779-20.59,33.926
		c-0.781,4.836-1.17,10.492-1.17,16.963c0,6.474,1.404,14.469,4.212,23.981c2.808,9.516,6.354,17.979,10.646,25.386
		c4.289,7.41,8.891,15.599,13.805,24.566c4.913,8.972,9.553,17.665,13.921,26.088c9.98,19.5,14.894,41.804,14.74,66.915
		c0.153,19.343-4.292,37.826-13.337,55.451c-4.368,8.737-10.568,15.873-18.6,21.408c-8.035,5.534-17.197,8.382-27.492,8.539v1.17
		c-13.102-1.871-20.278-8.031-21.525-18.483L1189.944,1603.756z"/>
	<path fill="#FFFFFF" d="M1329.764,1631.364c-4.914,0-8.971-1.755-12.166-5.265c-3.199-3.51-4.797-7.563-4.797-12.166
		c0-4.6,1.791-8.774,5.381-12.518c3.587-3.743,7.721-5.615,12.4-5.615s8.734,1.872,12.167,5.615
		c3.429,3.743,5.147,8.072,5.147,12.985s-1.795,8.971-5.382,12.166C1338.925,1629.763,1334.677,1631.364,1329.764,1631.364z"/>
</g>
</svg>
