<?xml version="1.0" encoding="utf-8"?>
<!-- Generator: Adobe Illustrator 16.0.0, SVG Export Plug-In . SVG Version: 6.00 Build 0)  -->
<!DOCTYPE svg PUBLIC "-//W3C//DTD SVG 1.1//EN" "http://www.w3.org/Graphics/SVG/1.1/DTD/svg11.dtd">
<svg version="1.1" id="Layer_1" xmlns="http://www.w3.org/2000/svg" xmlns:xlink="http://www.w3.org/1999/xlink" x="0px" y="0px"
	 width="2000px" height="2000px" viewBox="0 0 2000 2000" enable-background="new 0 0 2000 2000" xml:space="preserve">
<g id="Ebene_1">
	<path fill="#FF46AF" d="M1994,896C1936,346,1444-52,896,6C346,64-52,556,6,1104c58,550,550,948,1098,890
		C1654,1936,2052,1444,1994,896z"/>
	<g>
		<path fill="#FFFFFF" d="M261.188,683.693l-25.213,172.766l-2.324,23.242l16.082,1.149c27.845,2.778,41.069,11.744,39.506,26.942
			c-0.761,7.629-4.463,13.448-11.105,17.481c-6.664,4.051-14.972,5.526-24.987,4.563c-10.016-0.986-20.174-3.66-30.54-8.143
			l-24.329,244.932c-2.529,25.337-11.249,37.22-26.159,35.778c-9.028-0.863-18.878-6.292-29.531-16.161
			c9.892-51.042,20.729-123.966,32.554-218.713c11.846-94.766,20.051-156.729,24.637-185.829l2.118-21.101
			c6.354-41.702,11.414-80.738,15.034-117.031c0.802-8.189,4.874-14.171,12.256-17.995c7.322-3.846,15.28-5.313,23.877-4.465
			c8.596,0.84,17.768,2.055,27.577,3.578c10.118,1.563,22.169,4.214,36.319,7.872c32.164,8.044,47.505,19.623,45.983,34.822
			c-1.646,16.35-17.05,23.049-46.375,20.154c-10.982-6.788-25.77-11.083-44.338-12.94l-10.077-1.004L261.188,683.693z"/>
		<path fill="#FFFFFF" d="M472.208,934.076l-14.026,184.136l-2.569,25.752l-2.817,24.019l11.414,1.108l25.007,1.646
			c23.671,2.347,34.755,10.651,33.316,25.052c-0.763,7.318-4.256,13.284-10.529,17.93c-6.313,4.611-13.224,6.584-20.853,5.844
			l-37.985-3.782c-26.159-2.632-42.878-4.815-50.035-6.665c-4.544,0.122-8.082,0.081-10.651-0.205
			c-20.566-2.014-30.149-9.584-28.896-22.5c0.556-5.348,2.653-10.197,6.521-14.728c3.887-4.399,7.465-6.577,10.92-6.536
			l24.473,2.429l2.857-11.229l12.299-184.306l23.794-192.104c3.291-32.941,4.936-64.017,4.977-93.341l-16.473-1.628l-19.929-1.15
			c-8.41-0.846-14.909-3.104-19.371-6.806c-4.422-3.724-6.231-10.08-5.307-19.086c1.316-13.226,16.186-18.45,44.647-15.631
			l102.97,10.244c23.424,2.3,34.467,9.502,33.275,21.59c-0.535,5.347-3.537,10.08-9.051,14.025
			c-5.511,4.01-11.494,5.696-17.994,5.061l-44.297-4.377c-0.123,23.832-1.686,50.709-4.627,80.57L472.208,934.076z"/>
		<path fill="#FFFFFF" d="M597.081,883.378l21.059-160.795c2.653-26.755,15.32-46.974,37.984-60.631l-0.534,5.533
			c2.384-1.173,4.585-1.729,6.56-1.519c13.531,1.336,28.093,26.324,43.723,74.914c15.67,48.62,28.894,101.593,39.67,158.975
			c10.796,57.352,21.491,115.182,32.062,173.524c10.528,58.366,17.293,92.628,20.216,102.871
			c23.547-119.611,43.845-265.295,60.852-437.011l1.009-23.364c1.729-17.154,9.788-25.028,24.104-23.627
			c8.164,0.8,13.941,4.786,17.396,11.947c3.415,7.174,4.668,15.258,3.784,24.264l-6.478,65.458
			c-7.302,67.764-19.354,158.069-36.053,270.829c-16.698,112.776-30.455,175.994-41.254,189.733
			c-16.206,3.162-27.371,4.481-33.396,3.904c-6.088-0.613-10.53-3.041-13.349-7.482c-2.775-4.4-4.792-10.943-5.942-19.582
			c-1.131-8.633-2.221-14.476-3.353-17.395l0.802-3.828c2.099-21.386-11.887-91.392-41.869-210.051
			c-29.984-118.701-52.113-200.491-66.426-245.427l-43.209,435.323c0.452,1.196,1.377,3.293,2.734,6.252
			c3.084,6.584,4.339,12.508,3.785,17.896c-0.536,5.306-3.661,10.447-9.378,15.257c-5.78,4.774-12.133,6.911-19.166,6.169
			c-18.88-1.891-26.531-20.397-23.035-55.604L597.081,883.378z"/>
		<path fill="#FFFFFF" d="M1122.439,1111.634l3.948,54.089c-0.657,7.033,0.369,24.516,3.126,52.355
			c2.798,27.847,3.784,45.986,2.962,54.456l-0.083,0.823c-1.232,12.712-6.908,20.363-16.862,23.119
			c-12.094-1.196-21.307-4.115-27.641-8.721c-6.375-4.61-8.967-12.59-7.896-23.813c2.469-24.475,1.728-60.504-2.098-108.057
			l-84.028-21.14c-7.24,18.596-13.391,39.199-18.489,61.699c-5.101,22.535-9.378,38.907-12.956,49.027
			c-7.219,20.891-17.665,30.679-31.465,29.282c-6.745-0.7-12.813-3.455-18.118-8.393c-5.347-4.933-7.712-10.774-7.033-17.604
			l2.858-7.318c53.758-146.222,97.13-289.454,130.115-429.75c0.905-3.87,2.882-15.321,5.967-34.367
			c6.948-41.955,15.012-68.319,24.06-79.052l29.121,2.859c7.856,0.799,14.643,3.327,20.154,7.587
			c5.552,4.238,7.979,10.017,7.237,17.358c-4.358,43.927-4.937,109.654-1.893,197.217
			C1126.471,1010.822,1126.225,1073.632,1122.439,1111.634z M1075.47,1124.51c-0.864-8.639-0.248-23.485,1.811-44.382
			c2.139-20.978,3.537-47.138,4.276-78.475c0.657-31.384,0.822-67.91,0.411-109.597c-0.369-41.661-0.534-71.896-0.369-90.649
			c-40.598,142.416-67.577,242.894-81.109,301.506C1009.661,1110.402,1034.668,1117.6,1075.47,1124.51z"/>
		<path fill="#FFFFFF" d="M1278.572,815.019l-18.181,207.979c-4.112,7.529-6.786,17.236-7.979,28.997l-1.729,17.358l-16.985,137.289
			c-3.989,39.696,3.784,60.545,23.239,62.437l36.028,2.306c30.891,3.047,45.573,13.08,43.929,29.942
			c-0.658,6.169-3.865,11.066-9.623,14.644c-5.719,3.537-12.012,5.43-18.84,5.552c-20.482-8.843-45.818-14.768-76.297-17.768
			c-9.749,4.401-19.044,6.21-27.599,5.348c-8.556-0.864-14.972-4.482-19.168-10.856c-4.193-6.38-5.964-13.162-5.265-20.194
			c4.277-42.776,12.505-106.939,24.679-192.657c12.176-85.59,20.399-149.84,24.68-192.611l0.574-6.339
			c0.247-36.38,1.233-63.544,3.044-81.579c5.43-54.62,18.099-80.942,38.087-78.971c5.924,0.596,10.858,3.21,14.807,7.874
			c3.908,4.692,5.637,9.957,5.02,15.835L1278.572,815.019z"/>
		<path fill="#FFFFFF" d="M1477.479,834.724l-18.097,207.975c-4.153,7.569-6.829,17.275-7.979,29.084l-1.727,17.312l-16.988,137.338
			c-3.947,39.689,3.742,60.504,23.238,62.395l35.99,2.347c30.889,3,45.613,13.033,43.926,29.942
			c-0.615,6.129-3.783,11.02-9.583,14.598c-5.758,3.537-12.009,5.435-18.92,5.599c-20.358-8.844-45.817-14.769-76.173-17.814
			c-9.872,4.448-19.085,6.217-27.641,5.354c-8.637-0.823-14.971-4.4-19.166-10.862c-4.196-6.373-6.006-13.12-5.266-20.113
			c4.236-42.857,12.422-107.021,24.596-192.65c12.258-85.637,20.483-149.863,24.679-192.658l0.657-6.315
			c0.248-36.397,1.234-63.567,3.004-81.58c5.43-54.62,18.139-80.942,38.129-78.971c5.922,0.578,10.857,3.21,14.806,7.874
			c3.867,4.669,5.595,9.934,5.019,15.835L1477.479,834.724z"/>
		<path fill="#FFFFFF" d="M1665.773,1296.518c-3.824,38.58-15.219,56.926-34.056,55.028c-10.446-1.027-17.77-8.183-22.211-21.386
			c7.813-12.053,15.875-60.585,24.308-145.563c1.522-15.461,2.182-37.594,1.894-66.34c-0.37-28.711-0.124-49.15,0.575-61.367
			l2.262-22.419c-0.904-2.591-7.689-26.3-20.236-71.072c-28.791-100.315-42.117-159.832-40.266-178.404l0.453-4.646l20.729-12.42
			c17.729,2.078,34.387,48.777,50.098,140.175c6.828,39.917,10.199,60.007,10.199,60.315c2.879-6.251,9.543-27.351,19.949-63.258
			c26.406-91.782,49.109-136.719,67.906-134.869c5.347,0.537,10.118,2.697,14.066,6.521c4.07,3.805,5.799,8.387,5.266,13.779
			c-2.838,28.729-15.219,69.609-37.1,122.729c-21.965,53.126-34.634,94.006-38.006,122.717L1665.773,1296.518z"/>
		<path fill="#FFFFFF" d="M1819.438,1347.145c-2.057,20.236-17.274,28.957-45.653,26.16c-6.498-0.658-12.587-4.317-18.345-11.02
			c-5.76-6.665-8.063-14.93-7.115-25.01c0.945-9.952,5.43-18.59,13.201-25.95c7.897-7.325,16.945-10.488,27.395-9.461
			c10.364,1.025,18.346,5.965,23.896,14.726C1818.408,1325.392,1820.589,1335.588,1819.438,1347.145z M1829.268,1127.674
			l-3.248,41.049c-3.908,39.404-11.188,58.571-21.882,57.544c-5.924-0.618-10.653-8.188-14.149-22.745
			c-3.536-14.563-4.276-32.533-2.139-53.967l17.604-142.823l23.937-284.188c0.822-8.988,5.43-16.478,13.656-22.296
			c8.227-5.843,16.205-8.429,23.855-7.669c7.566,0.759,13.162,3.415,16.862,7.874c3.619,4.482,5.183,9.688,4.607,15.59
			c-4.525,46.168-14.478,114.86-29.574,206.042C1843.705,1013.229,1833.875,1081.773,1829.268,1127.674z"/>
	</g>
</g>
<g id="Layer_2">
</g>
</svg>
