<?xml version="1.0" encoding="utf-8"?>
<!-- Generator: Adobe Illustrator 16.0.0, SVG Export Plug-In . SVG Version: 6.00 Build 0)  -->
<!DOCTYPE svg PUBLIC "-//W3C//DTD SVG 1.1//EN" "http://www.w3.org/Graphics/SVG/1.1/DTD/svg11.dtd">
<svg version="1.1" id="Ebene_1" xmlns="http://www.w3.org/2000/svg" xmlns:xlink="http://www.w3.org/1999/xlink" x="0px" y="0px"
	 width="3312.399px" height="3312.399px" viewBox="0 0 3312.399 3312.399" enable-background="new 0 0 3312.399 3312.399"
	 xml:space="preserve">
<g>
	<g>
		<path fill="#7F1D78" d="M88.47,2292.262c-6.92,10.071-20.882,12.577-31.049,5.354c-10.116-7.323-12.408-21.195-5.072-31.064
			c7.281-9.791,21.114-12.088,30.836-5.045C92.98,2268.469,95.43,2282.148,88.47,2292.262z"/>
	</g>
	<g>
		<path fill="#7F1D78" d="M162.768,2340.665c-6.423,10.485-20.208,13.711-30.654,6.972c-10.49-6.664-13.552-20.386-6.845-30.634
			c6.707-10.249,20.394-13.312,30.575-6.838C165.976,2316.706,169.144,2330.259,162.768,2340.665z"/>
	</g>
	<g>
		<path fill="#7F1D78" d="M239.379,2385.317c-5.9,10.738-19.559,14.714-30.277,8.444c-10.769-6.179-14.478-19.758-8.286-30.326
			c6.194-10.568,19.703-14.264,30.174-8.251C241.415,2361.28,245.275,2374.583,239.379,2385.317z"/>
	</g>
	<g>
		<path fill="#7F1D78" d="M317.953,2426.425c-5.401,10.994-18.744,15.354-29.803,9.728c-11.065-5.629-15.414-18.98-9.723-29.829
			c5.696-10.845,19.04-15.198,29.807-9.719C319,2402.076,323.352,2415.431,317.953,2426.425z"/>
	</g>
	<g>
		<path fill="#7F1D78" d="M398.421,2463.68c-4.89,11.231-18.063,16.293-29.424,11.295c-11.423-4.864-16.164-18.476-11.012-29.474
			c5.233-11.188,18.146-15.677,29.266-10.951C398.309,2439.405,403.311,2452.449,398.421,2463.68z"/>
	</g>
	<g>
		<path fill="#7F1D78" d="M480.384,2497.523c-4.406,11.552-17.258,17.015-28.775,12.389c-11.514-4.64-17.052-17.583-12.376-28.905
			c4.676-11.323,17.545-16.837,28.746-12.325C479.186,2473.19,484.707,2486.178,480.384,2497.523z"/>
	</g>
	<g>
		<path fill="#7F1D78" d="M563.977,2527.096c-3.812,11.642-16.472,17.942-28.274,14.074c-11.797-3.881-17.794-16.964-13.68-28.4
			c4.172-11.621,16.622-17.314,28.092-13.557C561.591,2502.976,567.794,2515.454,563.977,2527.096z"/>
	</g>
	<g>
		<path fill="#7F1D78" d="M648.803,2552.926c-3.247,11.812-15.553,18.602-27.489,15.16c-11.936-3.446-18.702-15.729-15.118-27.441
			c3.588-11.713,15.894-18.499,27.49-15.155C645.282,2528.829,652.05,2541.114,648.803,2552.926z"/>
	</g>
	<g>
		<path fill="#7F1D78" d="M734.781,2574.623c-2.681,12.071-14.643,19.478-26.689,16.426c-12.062-2.988-19.401-15.037-16.393-26.911
			c3.004-11.875,14.935-19.146,26.644-16.245C730.04,2550.857,737.408,2562.771,734.781,2574.623z"/>
	</g>
	<g>
		<path fill="#7F1D78" d="M821.812,2591.59c-2.041,12.072-13.642,20.252-25.909,18.25c-12.174-2.502-20.098-14.271-17.693-26.279
			c2.408-12.013,13.927-19.774,25.743-17.343C815.854,2568.152,823.845,2579.51,821.812,2591.59z"/>
	</g>
	<g>
		<path fill="#7F1D78" d="M909.574,2604.18c-1.397,12.166-12.549,20.852-24.9,19.391c-6.161-0.727-11.409-3.85-14.87-8.294
			c-3.438-4.627-5.103-10.513-4.228-16.572c0.877-6.063,4.114-11.156,8.594-14.493c4.507-3.501,10.272-5.332,16.269-4.622
			C902.41,2580.998,910.979,2592.009,909.574,2604.18z"/>
	</g>
	<g>
		<path fill="#7F1D78" d="M997.868,2612.213c-0.748,12.23-11.413,21.42-23.818,20.528c-12.406-0.892-21.545-11.504-20.404-23.702
			c1.133-12.195,11.8-21.385,23.821-20.521C989.485,2589.379,998.619,2599.991,997.868,2612.213z"/>
	</g>
	<g>
		<path fill="#7F1D78" d="M1086.476,2615.557c-0.087,12.25-10.237,21.938-22.676,21.638c-12.441-0.301-22.134-10.47-21.654-22.707
			c0.475-12.246,10.624-21.931,22.67-21.642C1076.863,2593.138,1086.558,2603.311,1086.476,2615.557z"/>
	</g>
	<g>
		<path fill="#7F1D78" d="M1175.131,2614.092c0.585,12.238-9.02,22.408-21.461,22.723c-12.439,0.309-22.681-9.363-22.865-21.617
			c-0.194-12.246,9.41-22.419,21.455-22.72C1164.303,2592.182,1174.543,2601.854,1175.131,2614.092z"/>
	</g>
	<g>
		<path fill="#7F1D78" d="M1263.578,2607.748c1.259,12.187-7.773,22.826-20.186,23.769c-12.407,0.948-23.165-8.195-24.029-20.413
			c-0.862-12.218,8.172-22.861,20.182-23.773C1251.561,2586.418,1262.314,2595.562,1263.578,2607.748z"/>
	</g>
	<g>
		<path fill="#7F1D78" d="M1351.525,2596.383c1.958,12.27-6.494,23.308-18.835,24.905c-12.341,1.592-23.588-6.975-25.123-19.126
			c-1.538-12.155,6.904-23.253,18.853-24.784C1338.363,2575.835,1349.626,2584.465,1351.525,2596.383z"/>
	</g>
	<g>
		<path fill="#7F1D78" d="M1438.718,2580.213c2.62,12.139-5.187,23.741-17.437,25.94c-12.235,2.246-23.941-5.705-26.138-17.761
			c-2.201-12.049,5.625-23.576,17.477-25.747C1424.48,2560.529,1436.168,2568.405,1438.718,2580.213z"/>
	</g>
	<g>
		<path fill="#7F1D78" d="M1524.925,2559.424c3.272,11.994-3.938,23.863-16.032,26.781c-12.092,2.897-24.206-4.409-27.053-16.324
			c-2.847-11.914,4.346-23.848,16.066-26.658C1509.621,2540.412,1521.754,2547.786,1524.925,2559.424z"/>
	</g>
	<g>
		<path fill="#7F1D78" d="M1609.913,2534.072c3.836,11.638-2.714,23.954-14.628,27.507c-11.914,3.558-24.394-3.086-27.865-14.827
			c-3.472-11.749,3.077-24.065,14.628-27.508C1593.604,2515.802,1606.078,2522.441,1609.913,2534.072z"/>
	</g>
	<g>
		<path fill="#7F1D78" d="M1693.407,2504.195c4.421,11.425-1.477,24.097-13.169,28.298c-11.701,4.199-24.488-1.757-28.566-13.313
			c-4.074-11.551,1.823-24.22,13.178-28.293C1676.203,2486.81,1688.986,2492.774,1693.407,2504.195z"/>
	</g>
	<g>
		<path fill="#7F1D78" d="M1775.283,2470.158c4.998,11.188-0.236,24.176-11.686,29.016c-11.448,4.832-24.504-0.435-29.158-11.765
			c-4.658-11.329,0.577-24.321,11.686-29.012C1757.242,2453.704,1770.297,2458.975,1775.283,2470.158z"/>
	</g>
	<g>
		<path fill="#7F1D78" d="M1854.554,2430.535c5.984,10.679,2.024,24.25-8.927,30.208c-11.041,5.854-24.531,1.752-30.124-9.203
			c-5.544-10.863-1.477-24.246,9.118-29.868C1835.178,2415.933,1848.564,2419.836,1854.554,2430.535z"/>
	</g>
	<g>
		<path fill="#7F1D78" d="M1930.918,2385.451c6.435,10.352,3.284,24.279-7.406,30.575c-10.643,6.38-24.302,2.985-30.508-7.57
			c-6.206-10.565-2.831-24.161,7.533-30.374C1910.95,2371.951,1924.413,2374.999,1930.918,2385.451z"/>
	</g>
	<g>
		<path fill="#7F1D78" d="M2005.356,2337.262c6.829,10.11,4.212,24.137-6.21,30.824c-10.362,6.767-24.148,3.908-30.788-6.383
			c-6.641-10.292-3.799-24.007,6.34-30.623C1984.891,2324.534,1998.471,2327.072,2005.356,2337.262z"/>
	</g>
	<g>
		<path fill="#7F1D78" d="M2078.049,2286.467c7.193,9.913,4.872,23.762-5.194,30.938c-10.066,7.182-23.907,4.848-30.919-5.195
			c-7.003-10.051-4.682-23.904,5.195-30.942C2057.001,2274.233,2070.842,2276.559,2078.049,2286.467z"/>
	</g>
	<g>
		<path fill="#7F1D78" d="M2148.963,2233.225c7.495,9.66,5.736,23.722-4.063,31.254c-9.909,7.39-23.884,5.424-31.21-4.391
			c-7.335-9.813-5.393-23.643,4.334-30.898C2127.641,2221.795,2141.442,2223.528,2148.963,2233.225z"/>
	</g>
	<g>
		<path fill="#7F1D78" d="M2218.233,2177.861c7.801,9.442,6.372,23.441-3.19,31.266c-9.562,7.816-23.48,6.415-31.131-3.193
			c-7.611-9.559-6.206-23.572,3.196-31.254C2196.497,2166.989,2210.432,2168.411,2218.233,2177.861z"/>
	</g>
	<g>
		<path fill="#7F1D78" d="M2285.905,2120.545c8.068,9.217,7.019,23.208-2.354,31.254c-9.37,8.045-23.377,6.987-31.288-2.361
			c-7.915-9.352-6.861-23.347,2.344-31.254C2263.821,2110.276,2277.828,2111.334,2285.905,2120.545z"/>
	</g>
	<g>
		<path fill="#7F1D78" d="M2351.91,2061.32c8.361,9.021,7.659,22.976-1.508,31.255c-9.166,8.274-23.232,7.583-31.404-1.541
			c-8.18-9.11-7.5-23.097,1.517-31.233C2329.527,2051.66,2343.612,2052.379,2351.91,2061.32z"/>
	</g>
	<g>
		<path fill="#7F1D78" d="M2416.101,2000.135c8.583,8.764,8.495,22.96-0.537,31.384c-8.957,8.492-23.054,8.173-31.479-0.71
			c-8.432-8.887-8.123-22.865,0.688-31.218C2393.658,1991.304,2407.533,1991.398,2416.101,2000.135z"/>
	</g>
	<g>
		<path fill="#7F1D78" d="M2478.625,1937.248c8.756,8.456,9.198,22.794,0.37,31.432c-8.731,8.725-22.841,8.779-31.511,0.126
			c-8.676-8.649-8.736-22.62-0.143-31.202C2456.028,1929.111,2469.758,1928.682,2478.625,1937.248z"/>
	</g>
	<g>
		<path fill="#7F1D78" d="M2539.451,1872.719c8.969,8.211,9.817,22.549,1.22,31.408c-8.5,8.953-22.604,9.383-31.507,0.971
			c-8.905-8.413-9.34-22.372-0.971-31.179C2516.656,1865.202,2530.355,1864.389,2539.451,1872.719z"/>
	</g>
	<g>
		<path fill="#7F1D78" d="M2598.572,1806.618c9.25,8.029,10.334,22.217,1.997,31.32c-8.25,9.175-22.336,9.988-31.463,1.809
			c-9.118-8.172-9.933-22.119-1.804-31.147C2575.51,1799.639,2589.322,1798.584,2598.572,1806.618z"/>
	</g>
	<g>
		<path fill="#7F1D78" d="M2655.977,1739.021c9.532,7.849,10.686,21.748,2.696,31.16c-7.991,9.399-22.045,10.587-31.377,2.656
			c-9.337-7.931-10.517-21.862-2.645-31.12C2632.515,1732.455,2646.6,1731.296,2655.977,1739.021z"/>
	</g>
	<g>
		<path fill="#7F1D78" d="M2711.485,1669.857c9.655,7.535,11.218,21.455,3.497,31.076s-21.712,11.191-31.251,3.501
			c-9.536-7.686-11.101-21.594-3.497-31.076C2687.838,1663.884,2701.836,1662.313,2711.485,1669.857z"/>
	</g>
	<g>
		<path fill="#7F1D78" d="M2765.15,1599.252c9.837,7.296,11.787,21.184,4.35,31.028c-7.438,9.843-21.357,11.789-31.084,4.348
			c-9.735-7.442-11.681-21.33-4.358-31.026C2741.389,1593.907,2755.313,1591.956,2765.15,1599.252z"/>
	</g>
	<g>
		<path fill="#7F1D78" d="M2817.03,1527.34c10.023,7.043,12.357,20.907,5.219,30.967c-7.148,10.055-20.97,12.379-30.895,5.187
			c-9.917-7.192-12.245-21.053-5.211-30.966C2793.178,1522.618,2807.011,1520.293,2817.03,1527.34z"/>
	</g>
	<g>
		<path fill="#7F1D78" d="M2867.158,1454.193c10.193,6.789,12.918,20.623,6.084,30.891c-6.836,10.264-20.555,12.965-30.646,6.023
			c-10.098-6.939-12.822-20.768-6.088-30.895C2843.244,1450.1,2856.966,1447.399,2867.158,1454.193z"/>
	</g>
	<g>
		<path fill="#7F1D78" d="M2915.574,1379.901c10.354,6.536,13.469,20.331,6.955,30.8c-6.537,10.461-20.607,13.225-30.809,6.576
			c-10.326-6.734-12.972-20.22-6.529-30.527C2891.619,1376.427,2905.215,1373.359,2915.574,1379.901z"/>
	</g>
	<g>
		<path fill="#7F1D78" d="M2962.314,1304.539c10.604,6.336,13.864,19.928,7.335,30.396c-6.514,10.47-20.239,13.747-30.665,7.308
			c-10.418-6.438-13.668-20.019-7.24-30.346C2938.178,1301.586,2951.893,1298.302,2962.314,1304.539z"/>
	</g>
	<g>
		<path fill="#7F1D78" d="M3006.767,1227.795c10.666,6.04,14.294,19.577,8.116,30.248c-6.182,10.67-19.763,14.307-30.343,8.124
			c-10.571-6.183-14.204-19.723-8.108-30.239C2982.522,1225.402,2996.107,1221.764,3006.767,1227.795z"/>
	</g>
	<g>
		<path fill="#7F1D78" d="M3049.456,1150.072c10.802,5.779,14.819,19.266,8.986,30.129c-5.843,10.856-19.266,14.855-29.987,8.931
			c-10.718-5.934-14.74-19.423-8.978-30.134C3025.234,1148.292,3038.656,1144.293,3049.456,1150.072z"/>
	</g>
	<g>
		<path fill="#7F1D78" d="M3090.537,1071.489c10.935,5.527,15.349,18.957,9.853,29.995c-5.345,11.109-19.162,15.167-29.936,9.537
			c-10.938-5.721-14.784-18.854-9.509-29.813C3066.354,1070.313,3079.602,1065.962,3090.537,1071.489z"/>
	</g>
	<g>
		<path fill="#7F1D78" d="M3129.998,992.069c11.059,5.273,15.574,18.499,10.086,29.536c-5.483,11.038-18.834,15.594-29.816,10.174
			c-10.986-5.42-15.499-18.646-10.091-29.537C3105.594,991.351,3118.94,986.795,3129.998,992.069z"/>
	</g>
	<g>
		<path fill="#7F1D78" d="M3166.965,911.457c11.172,5.021,16.082,18.183,10.959,29.391c-5.128,11.215-18.286,16.11-29.391,10.943
			c-11.106-5.176-16.009-18.329-10.956-29.395C3142.639,911.338,3155.792,906.436,3166.965,911.457z"/>
	</g>
	<g>
		<path fill="#7F1D78" d="M3202.455,830.197c11.282,4.769,16.572,17.852,11.818,29.229c-4.752,11.369-17.701,16.596-28.92,11.685
			c-11.228-4.918-16.518-18.005-11.823-29.229C3178.224,830.659,3191.173,825.428,3202.455,830.197z"/>
	</g>
	<g>
		<path fill="#7F1D78" d="M3236.578,748.345c11.48,4.556,16.85,17.438,12.092,28.811c-4.757,11.37-17.784,16.802-29.109,12.135
			c-11.326-4.674-16.703-17.556-12.005-28.779C3212.253,749.292,3225.288,743.86,3236.578,748.345z"/>
	</g>
	<g>
		<path fill="#7F1D78" d="M3268.073,665.442c11.48,4.275,17.235,17.074,12.862,28.598c-4.383,11.52-17.18,17.275-28.605,12.85
			c-11.433-4.417-17.189-17.224-12.861-28.593C3243.787,666.919,3256.598,661.167,3268.073,665.442z"/>
	</g>
</g>
</svg>
