<?xml version="1.0" encoding="utf-8"?>
<!-- Generator: Adobe Illustrator 16.0.0, SVG Export Plug-In . SVG Version: 6.00 Build 0)  -->
<!DOCTYPE svg PUBLIC "-//W3C//DTD SVG 1.1//EN" "http://www.w3.org/Graphics/SVG/1.1/DTD/svg11.dtd">
<svg version="1.1" id="Ebene_1" xmlns="http://www.w3.org/2000/svg" xmlns:xlink="http://www.w3.org/1999/xlink" x="0px" y="0px"
	 width="2000px" height="2000px" viewBox="0 0 2000 2000" enable-background="new 0 0 2000 2000" xml:space="preserve">
<path fill="#F0EFED" d="M439.199,765.329l19.828,72.697l-66.1,254.464l-75.992,386.657c0,0-62.792,330.481,19.822,353.617
	l56.169-33.066l380.054-717.125l608.075,399.876l23.123,406.48l36.355-36.343l115.667-241.251l52.875-16.521l161.939,109.053
	l59.477,9.916l13.845-43.964l-159.25-180.754l23.136-33.054l261.061-194.979l-16.507-16.521l-181.761,16.521l-221.418,23.135
	l-469.271-555.2l446.137-313.865l261.073-194.966l-13.22-39.663l-102.448-13.225l-482.49,132.193L789.502,434.932l-92.531-33.041
	L330.147,177.166L92.204,91.27l-39.656,52.881l3.416,37.055l56.068,181.054l194.986,267.683L439.199,765.329z"/>
<path fill="#9E9B8B" d="M409.459,857.969l-46.271,16.521l-19.829,59.484l49.567,109.058L574.7,1162l135.49,36.355l42.964-66.094
	l-66.1-92.532C687.053,1039.729,521.818,857.969,409.459,857.969z"/>
<path fill="#9E9B8B" d="M822.3,373.19l12.288-47.566l57.464-25.104l113.079,39.547L1139.983,510.4l48.388,131.665l-61.951,48.738
	l-98.102-57.496C1028.318,633.308,832.421,485.098,822.3,373.19z"/>
<polygon fill="#9E9B8B" points="353.277,1328.771 325.188,1330.402 290.484,1373.372 307.687,1444.297 369.803,1489.026 
	463.985,1528.695 531.729,1527.039 544.961,1495.643 508.6,1437.821 414.418,1360.153 "/>
<polygon fill="#9E9B8B" points="1289.978,275.988 1289.646,247.849 1330.043,210.2 1402.013,222.335 1451.024,281.131 
	1497.246,372.286 1500.395,439.991 1470.005,455.391 1409.75,423.21 1325.619,334.752 "/>
<path fill="#9E9B8B" d="M98.806,332.362c0,0,39.669-175.146,171.851-181.754L154.99,110.951l-105.75,9.917l-16.521,62.786
	L98.806,332.362z"/>
<polyline fill="#C9C7BE" points="333.448,639.675 882.033,1125.479 792.803,1085.811 753.153,1132.262 630.87,993.273 
	564.77,937.104 495.375,887.529 429.275,861.086 465.63,818.128 406.145,732.207 333.448,639.675 "/>
<polyline fill="#C9C7BE" points="709.622,434.854 1073.698,768.561 1119.97,702.46 991.084,619.847 825.844,421.566 
	766.359,444.695 709.622,434.854 "/>
<polyline fill="#C9C7BE" points="1278.596,1396.432 1645.418,1601.329 1569.407,1604.643 1404.179,1905.348 1371.14,1581.393 
	1381.056,1482.449 "/>
<polygon fill="#C9C7BE" points="1539.668,1274.137 1678.472,1475.731 1969.283,1261.033 1952.776,1244.512 "/>
<polygon fill="#9E9B8B" points="1794.139,1598.091 1714.826,1674.102 1830.492,1713.783 1830.492,1713.783 "/>
<path d="M1968.597,1233.371c-9.627-2.345-168.492-4.895-316.601,24.41c-44.514,8.809-76.572,2.766-94.456-3.06
	c-37.986-29.255-409.857-459.36-409.857-459.36c-30.555-32.982-35.412-45.711-35.412-45.711
	c-3.9-32.805,657.444-487.685,657.444-487.685c56.878-53.372,20.523-78.98,20.523-78.98
	c-27.585-55.005-214.98-17.731-400.184,35.042c-20.841-14.392-42.116-21.492-61.759-16.629
	c-47.127,11.677-61.148,33.219-61.912,53.997c-115.057,36.559-213.54,72.309-249.959,85.762
	c-34.404-29.962-95.985-63.417-167.408-35.213c-65.94,26.004-51.6,81.983-38.897,110.613c-20.963,6.17-54.915,8.554-92.532-19.267
	C655.542,351.438,351.9,121.378,120.936,82.327c0,0-27.693-1.721-53.258,9.306c-8.241,2.518-43.729,16.616-45.309,70.771
	c-2.665,20.466,0.439,37.745,0.439,37.745c66.094,224.725,330.469,499.01,383.35,555.193c32.064,34.073,33.716,68.057,30.07,89.599
	c-29.931-9.216-87.228-16.826-105.26,51.721c-19.541,74.252,20.969,131.442,54.788,162.073
	c-9.056,37.757-32.907,139.761-55.584,258.346c-20.555,3.225-40.274,19.682-46.297,67.854c-2.511,20.063,7.056,40.369,23.812,59.362
	c-30.492,190.149-45.323,380.628,12.542,401.533c0,0,29.74,33.054,76.011-29.738c0,0,373.439-710.523,406.486-710.523
	c0,0,13.218,3.314,49.567,29.752c0,0,471.068,318.372,504.633,352.636c7.89,17.081,17.68,48.184,14.213,93.437
	c-11.576,150.543,9.764,307.971,13.205,317.261c9.918,26.604,26.464,19.824,42.982-3.313
	c16.508-23.122,135.49-287.511,168.542-287.511c31.154,0,130.621,94.863,207.689,115.921c30.58,9.714,44.282,4.463,44.282,4.463
	c21.377-12.634,4.705-44.972-3.504-58.395c-30.313-73.921-135.808-161.137-139.504-192.035
	c-3.901-32.786,244.541-182.207,265.546-201.366C1991.4,1257.311,1996.168,1240.075,1968.597,1233.371z M1643.926,183.775
	c68.911-8.209,124.285-18.139,117.81,39.204c-2.651,23.626-99.491,84.481-213.667,161.926c-13.129,8.898-26.527,17.98-40.001,27.063
	c-2.702-44.329-42.116-121.844-89.776-169.894C1524.46,211.525,1617.209,186.943,1643.926,183.775z M1340.571,216.516
	c73.653-18.865,177.503,182.265,140.154,209.824c-22.612,16.66-83.327,5.583-172.379-116.535
	C1308.347,309.805,1251.266,239.397,1340.571,216.516z M1272.973,285.108c6.375,14.161,14.953,24.283,14.953,24.283
	c72.161,93.493,129.192,129.918,167.51,138.146c-115.896,78.242-227.739,153.149-259.136,174.157
	c-7.1-95.578-138.052-232.953-158.23-258.416c-0.063-0.076-0.141-0.166-0.191-0.236
	C1077.726,346.505,1170.959,316.172,1272.973,285.108z M834.498,372.565c52.251-106.082,158.383-11.389,158.383-11.389
	c102.717,103.615,147.432,172.156,165.917,215.917c31.014,71.172,0.434,90.828,0.434,90.828
	c-29.268,26.763-78.369-4.799-78.369-4.799l-0.013-0.261c-4.194-2.429-8.515-5.156-13.104-8.585
	C793.765,449.794,834.498,372.565,834.498,372.565z M492.086,1581.457c-63.392,122.537-112.366,225.892-135.502,231.319
	c-56.182,13.233-52.868-42.956-52.868-112.352c0-26.897,13.429-121.888,31.186-230.939c53.366,41.632,134.979,71.639,179.338,69.051
	C506.796,1552.991,499.372,1567.37,492.086,1581.457z M525.254,1509.702c-22.932,40.345-234.929-39.005-224.909-114.366
	c12.147-91.397,88.809-43.034,88.809-43.034C520.958,1426.298,539.149,1485.253,525.254,1509.702z M543.33,1482.067
	c-12.703-37.082-55.623-89.408-157.005-150.008c0,0-11.052-7.316-25.871-11.943c18.789-104.999,37.873-201.149,49.574-242.692
	c0.083,0.05,0.178,0.126,0.249,0.178c27.674,17.03,179.587,130.811,275.336,126.554
	C668.455,1237.807,607.294,1357.731,543.33,1482.067z M727.118,1161.859c0,0-15.896,32.684-90.257,10.325
	c-45.615-13.168-118.968-49.459-234.017-139.197c0,0-106.579-94.189-7.431-158.638c0,0,71.88-49.567,307.339,198.28
	c3.951,4.169,7.164,8.133,10.069,12.008l0.261-0.013C713.082,1084.625,750.246,1129.635,727.118,1161.859z M1717.095,1413.118
	c-28.758,10.057-72.326,53.64-32.492,90.389c108.249,99.887,130.517,153.883,134.788,175.465c0.65,11.535-3.302,16.864-8.4,18.955
	c-20.586-0.97-76.865-14.864-191.996-113.221c-41.213-35.208-79.326,13.207-85.929,42.958
	c-6.603,29.738-122.271,270.979-122.271,237.938c0-33.042-23.137-300.731-16.532-340.387c6.615-39.656,13.23-56.074-16.521-69.345
	c0,0-535.352-389.972-598.144-413.095c0,0-16.316-7.955-34.13,39.822c-30.574-49.127-106.362-120.651-275.484-221.519
	C500.824,801.575,442.5,742.99,442.5,742.99C237.603,561.236,82.292,289.372,59.157,200.149c-1.816-7.05-2.703-13.194-3.193-18.943
	c3.946-21.759,19.561-69.994,80.44-60.332l-0.108-0.561c101.659,19.707,376.199,139.345,573.326,314.541
	c0,0,65.068,50.981,120.505,13.315c120.179,156.004,200.155,222.8,252.545,247.35c-45.329,23.321-35.5,38.592-35.5,38.592
	c30.427,59.619,480.973,545.1,480.973,545.1c16.712,27.94,32.213,19.45,70.811,8.183c38.599-11.256,307.13-19.937,339.94-23.863
	C1971.706,1259.63,1745.854,1403.022,1717.095,1413.118z"/>
</svg>
