<?xml version="1.0" encoding="utf-8"?>
<!-- Generator: Adobe Illustrator 16.0.0, SVG Export Plug-In . SVG Version: 6.00 Build 0)  -->
<!DOCTYPE svg PUBLIC "-//W3C//DTD SVG 1.1//EN" "http://www.w3.org/Graphics/SVG/1.1/DTD/svg11.dtd">
<svg version="1.1" id="Ebene_1" xmlns="http://www.w3.org/2000/svg" xmlns:xlink="http://www.w3.org/1999/xlink" x="0px" y="0px"
	 width="2000px" height="2000px" viewBox="0 0 2000 2000" enable-background="new 0 0 2000 2000" xml:space="preserve">
<g>
	<circle fill="#FF46AF" cx="1000" cy="1000" r="800"/>
</g>
<g enable-background="new    ">
	<path fill="#FFFFFF" d="M562.811,910.721l-23.087,2.31c-13.468,0-20.2-5.578-20.2-16.738c0-9.617,12.697-15.871,38.093-18.757
		c5-0.577,10.482-0.866,16.448-0.866c5.961,0,11.062,3.08,15.295,9.234c4.229,6.159,6.349,14.384,6.349,24.674
		c0,10.294,1.971,27.081,5.916,50.356c3.94,23.279,5.916,38.958,5.916,47.038c0,14.43-4.861,21.645-14.573,21.645
		c-9.717,0-16.21-4.14-19.479-12.409v-0.577c-2.31,0.965-6.639,3.175-12.986,6.638c-11.931,6.538-23.763,9.813-35.495,9.813
		c-8.468,0-16.932-1.73-25.395-5.194c-18.086-7.12-31.938-19.142-41.556-36.071c-10.389-17.894-17.22-35.015-20.488-51.367
		c-3.273-16.352-5.483-29.241-6.638-38.67c-1.348-9.618-2.407-20.584-3.174-32.898c-0.965-15.583-1.442-34.341-1.442-56.271
		l-0.289-43.575c0-38.093,1.248-65.408,3.751-81.957c2.497-16.544,5.05-30.106,7.646-40.689c2.599-10.578,5.627-19.957,9.09-28.137
		c3.463-8.175,7.692-16.11,12.698-23.808c5-7.888,10.771-14.33,17.314-19.335c14.041-11.155,30.106-16.688,48.192-16.594
		c18.081,0.1,27.126,5.728,27.126,16.882c0,4.233-1.542,7.604-4.617,10.101c-3.08,2.503-6.736,3.752-10.966,3.752l-17.026-2.886
		c-14.816,0.192-26.454,9.14-34.918,26.838c-9.045,19.434-14.816,37.902-17.314,55.407c-2.502,17.509-4.329,31.648-5.483,42.421
		c-1.542,10.583-2.502,22.607-2.886,36.071c-0.771,18.663-1.06,37.326-0.866,55.984l-0.289,36.649
		c0,37.71,1.683,64.548,5.051,80.514c3.363,15.972,6.876,28.669,10.532,38.093c3.463,9.622,7.692,17.509,12.698,23.663
		c16.351,12.509,30.685,19.529,42.998,21.066c17.504,0,32.032-8.271,43.576-24.817C571.756,943.235,568.581,920.726,562.811,910.721
		z"/>
	<path fill="#FFFFFF" d="M646.512,719.393l-3.174-49.925c0-27.893,8.271-41.844,24.818-41.844c10.578,0,25.007,2.453,43.287,7.359
		c18.274,4.904,27.414,11.209,27.414,18.9c0,8.08-5.771,14.239-17.314,18.47c-18.279-6.154-33.188-9.906-44.729-11.255
		c0.576,8.469,0.865,16.933,0.865,25.396l-2.597,84.843c0,0.388,0.577,3.463,1.731,9.234l21.065-0.866
		c19.046,0,28.569,5.389,28.569,16.161c0,4.232-1.731,7.936-5.195,11.109c-3.463,3.175-7.841,4.762-13.13,4.762
		c-5.294,0-11.017-0.384-17.171-1.154h-15.006c1.153,15.007,1.73,29.918,1.73,44.729l-2.597,107.063
		c0,22.126,0.383,33.187,1.154,33.187l43.575-1.441c15.006,0,22.509,4.811,22.509,14.429c0,5.965-2.598,10.289-7.792,12.986
		c-5.194,2.69-11.065,4.04-17.604,4.04h-49.924c-5.195,0-9.911-1.781-14.142-5.339c-4.233-3.559-6.447-7.837-6.637-12.842v-15.583
		l-3.751-99.85L646.512,719.393z"/>
	<path fill="#FFFFFF" d="M827.753,1008.26l-1.154-45.307c0-0.189,0.289-6.926,0.866-20.2c-1.542-5.001-4.667-49.442-9.379-133.324
		c-4.717-83.877-7.264-135.148-7.646-153.813c-0.771,0-1.543,0-2.31,0c-31.938-0.577-47.903-6.443-47.903-17.604
		c0-3.651,2.114-6.682,6.349-9.09c4.229-2.403,8.369-3.607,12.409-3.607l80.225,5.483l9.523-0.289
		c12.31,0,18.469,4.717,18.469,14.142c0,4.812-2.021,8.706-6.062,11.688c-4.04,2.985-8.563,4.473-13.563,4.473l-27.126-4.04
		l-1.154,6.062c0,37.326,3.27,93.211,9.813,167.664c6.538,74.454,9.812,130.438,9.812,167.953c0,4.617-2.12,8.707-6.349,12.265
		c-4.234,3.563-8.852,5.339-13.853,5.339L827.753,1008.26z"/>
	<path fill="#FFFFFF" d="M970.614,1008.26l-1.154-45.307c0-0.189,0.289-6.926,0.866-20.2c-1.542-5.001-4.667-49.442-9.379-133.324
		c-4.717-83.877-7.264-135.148-7.647-153.813c-0.771,0-1.542,0-2.309,0c-31.938-0.577-47.904-6.443-47.904-17.604
		c0-3.651,2.115-6.682,6.349-9.09c4.229-2.403,8.369-3.607,12.409-3.607l80.226,5.483l9.522-0.289
		c12.311,0,18.47,4.717,18.47,14.142c0,4.812-2.021,8.706-6.062,11.688c-4.039,2.985-8.563,4.473-13.563,4.473l-27.125-4.04
		l-1.154,6.062c0,37.326,3.269,93.211,9.812,167.664c6.538,74.454,9.813,130.438,9.813,167.953c0,4.617-2.12,8.707-6.349,12.265
		c-4.234,3.563-8.852,5.339-13.853,5.339L970.614,1008.26z"/>
	<path fill="#FFFFFF" d="M1121.843,821.261l2.886,125.532v17.604l-0.288,16.448h7.792l17.025-0.577
		c16.16,0,24.24,4.906,24.24,14.719c0,5.005-1.975,9.283-5.916,12.842c-3.945,3.563-8.513,5.339-13.707,5.339h-25.973
		c-17.893,0-29.34-0.384-34.34-1.154c-3.08,0.389-5.483,0.577-7.216,0.577c-14.046,0-21.065-4.424-21.065-13.273
		c0-3.652,1.154-7.115,3.463-10.391c2.309-3.269,4.617-5,6.926-5.193h16.738l1.154-7.791l-4.041-125.532l3.175-131.592
		c0-22.511-0.965-43.67-2.886-63.487h-11.256l-13.563,0.577c-5.771,0-10.294-1.105-13.563-3.319
		c-3.273-2.209-4.906-6.394-4.906-12.553c0-9.041,9.713-13.563,29.146-13.563h70.414c15.966,0,23.951,4.141,23.951,12.409
		c0,3.656-1.729,7.025-5.194,10.102c-3.463,3.079-7.407,4.617-11.83,4.617h-30.302c1.537,16.159,2.31,34.438,2.31,54.829
		L1121.843,821.261z"/>
	<path fill="#FFFFFF" d="M1202.371,778.551l3.463-110.236c0-18.274,7.214-32.8,21.643-43.575v3.752
		c1.538-0.961,2.98-1.443,4.329-1.443c9.234,0,20.777,15.922,34.63,47.76c13.853,31.844,26.355,66.808,37.516,104.898
		c11.154,38.093,22.266,76.523,33.331,115.288c11.061,38.769,17.938,61.517,20.633,68.249
		c7.887-82.534,11.832-182.478,11.832-299.834l-0.865-15.872c0-11.732,4.906-17.604,14.718-17.604c5.578,0,9.763,2.31,12.554,6.927
		c2.786,4.617,4.185,10.006,4.185,16.161v44.729c-0.389,46.366-2.453,108.267-6.205,185.7
		c-3.75,77.438-8.801,121.158-15.149,131.159c-10.776,3.27-18.229,4.905-22.364,4.905c-4.14,0-7.313-1.396-9.523-4.185
		c-2.214-2.786-3.994-7.07-5.339-12.842c-1.348-5.771-2.502-9.617-3.463-11.543l0.289-2.599c0-14.617-14.141-61.078-42.422-139.383
		c-28.28-78.3-48.771-132.17-61.467-161.604v297.523c0.383,0.771,1.153,2.12,2.309,4.04c2.498,4.234,3.752,8.181,3.752,11.832
		c0,3.657-1.781,7.313-5.34,10.966c-3.562,3.657-7.746,5.483-12.553,5.483c-12.892,0-19.334-12.021-19.334-36.072L1202.371,778.551z
		"/>
	<path fill="#FFFFFF" d="M1585.617,899.177l2.886,62.622c0,19.435-6.781,34.392-20.345,44.874
		c-13.563,10.488-29.391,15.729-47.471,15.729c-27.32,0-47.139-10.195-59.447-30.589c-8.853-14.431-14.43-28.038-16.738-40.834
		c-2.309-12.793-3.945-22.654-4.905-29.58c-0.965-6.927-1.637-16.256-2.021-27.992c-0.771-16.351-1.154-29.529-1.154-39.535v-25.395
		c0-55.598,1.633-90.76,4.906-105.477c3.269-14.718,7.021-28.426,11.255-41.123c4.229-12.697,9.424-22.509,15.583-29.435
		c14.813-16.929,31.933-25.396,51.367-25.396c19.429,0,29.146,5.005,29.146,15.006c0,4.618-1.926,8.419-5.771,11.399
		c-3.853,2.984-8.181,4.473-12.986,4.473l-12.409-1.441c-13.662,0-23.952,13.468-30.878,40.399
		c-10.006,38.48-15.006,84.941-15.006,139.384c0,37.134,1.199,62.673,3.607,76.618c2.402,13.951,5.05,25.64,7.936,35.063
		c2.691,9.622,5.961,17.313,9.813,23.086c9.041,13.662,20.679,20.489,34.918,20.489c19.047,0,28.568-31.355,28.568-94.077v-27.126
		c-2.886-1.538-7.503-2.31-13.852-2.31l-11.543,0.288c-13.662,0-20.489-4.518-20.489-13.563c0-5.578,1.971-9.813,5.916-12.698
		c3.94-2.886,8.702-4.328,14.284-4.328v0.288h8.081c35.396,0,53.098,6.062,53.098,18.181L1585.617,899.177z"/>
</g>
<g enable-background="new    ">
	<path fill="#FFFFFF" d="M713.217,1500.925l-1.177-46.187c0-0.193,0.294-7.062,0.883-20.594c-1.572-5.098-4.758-50.4-9.561-135.91
		c-4.809-85.506-7.405-137.773-7.796-156.799c-0.786,0-1.572,0-2.354,0c-32.558-0.59-48.834-6.568-48.834-17.945
		c0-3.725,2.156-6.813,6.472-9.268c4.313-2.449,8.531-3.678,12.65-3.678l81.782,5.59l9.708-0.294
		c12.548,0,18.828,4.809,18.828,14.415c0,4.904-2.061,8.876-6.179,11.914c-4.118,3.043-8.729,4.561-13.827,4.561l-27.652-4.118
		l-1.176,6.178c0,38.05,3.332,95.021,10.002,170.919c6.664,75.899,10.002,132.971,10.002,171.214c0,4.707-2.16,8.876-6.473,12.503
		c-4.315,3.632-9.022,5.442-14.121,5.442L713.217,1500.925z"/>
	<path fill="#FFFFFF" d="M839.436,1147.907l-2.354,150.327c7.253,1.962,18.239,2.94,32.949,2.94h21.769
		c0.979-1.766,1.471-8.237,1.471-19.416s-1.323-35.743-3.972-73.691c-2.646-37.949-3.971-66.531-3.971-85.755
		c0-4.509,1.765-8.282,5.295-11.325c3.53-3.038,6.862-4.561,10.002-4.561c3.135,0,5.686,0.294,7.647,0.883
		c1.959,0.589,4.119,1.374,6.473,2.354c2.354,0.982,4.215,1.668,5.589,2.059c0,52.172,1.912,128.41,5.737,228.728
		c3.823,100.314,5.735,152.142,5.735,155.475c0,3.337-2.109,6.619-6.325,9.855c-4.22,3.234-8.927,4.854-14.12,4.854
		c-5.199,0-9.368-3.824-12.503-11.473c-3.14-7.649-5.25-18.977-6.324-33.979c-1.081-15.003-1.816-27.993-2.207-38.979
		c-0.198-4.707-0.198-10.1,0-16.182c0-8.235,0.097-17.649,0.294-28.24c0.391-18.631,0.588-29.418,0.588-32.359v-2.354l0.883-17.357
		l-3.53-5.589v-0.589c-3.337,0.785-6.964,1.177-10.885,1.177l-38.832-5.589v69.132l3.53,99.14c0,5.69-1.471,10.737-4.413,15.15
		c-2.941,4.412-7.162,6.619-12.65,6.619c-8.044,0-13.582-7.305-16.621-21.917c-3.043-14.607-4.56-34.566-4.56-59.865l1.765-91.785
		c0-19.021-0.293-29.515-0.882-31.478v-2.941c1.567-20.983,2.354-32.751,2.354-35.302l-4.119-135.912
		c0-4.707,1.664-8.871,5.001-12.502c3.333-3.627,7.354-5.442,12.062-5.442C833.059,1112.018,839.436,1123.982,839.436,1147.907z"/>
	<path fill="#FFFFFF" d="M977.126,1206.449l-3.236-50.895c0-28.435,8.431-42.656,25.3-42.656c10.783,0,25.492,2.502,44.127,7.502
		c18.631,5.002,27.947,11.428,27.947,19.27c0,8.237-5.883,14.517-17.649,18.828c-18.636-6.274-33.831-10.1-45.6-11.475
		c0.589,8.634,0.884,17.262,0.884,25.89l-2.647,86.489c0,0.395,0.588,3.529,1.765,9.412l21.477-0.882
		c19.416,0,29.123,5.492,29.123,16.475c0,4.315-1.765,8.09-5.295,11.326c-3.529,3.235-7.993,4.854-13.386,4.854
		c-5.396,0-11.229-0.391-17.504-1.177h-15.297c1.176,15.298,1.765,30.499,1.765,45.599l-2.646,109.143
		c0,22.555,0.391,33.829,1.176,33.829l44.422-1.471c15.297,0,22.946,4.904,22.946,14.709c0,6.081-2.646,10.489-7.942,13.238
		c-5.296,2.744-11.279,4.119-17.944,4.119h-50.894c-5.296,0-10.104-1.816-14.416-5.442c-4.315-3.627-6.572-7.989-6.766-13.092
		v-15.886l-3.824-101.786L977.126,1206.449z"/>
	<path fill="#FFFFFF" d="M1135.115,1308.824l-0.588,65.309c0,53.15,3.823,95.021,11.473,125.615l-6.766,16.18h-16.771l-7.942-8.824
		c0.393-18.041,0.59-38.289,0.59-60.748c0-22.455-1.72-70.457-5.148-144.002c-3.434-73.547-5.147-128.457-5.147-164.741
		c0-19.021,6.665-28.536,20.004-28.536c20.983,0,38.635,5.493,52.953,16.475c14.313,10.985,21.476,26.674,21.476,47.068v42.361
		c0,11.574-2.161,22.114-6.472,31.625c-4.316,9.516-9.318,19.518-15.005,30.007c-5.689,10.493-8.824,16.327-9.413,17.504
		c2.155,9.81,5.979,29.026,11.474,57.66c11.767,62.563,24.808,107.572,39.126,135.027c4.119,7.848,6.178,13.975,6.178,18.388
		c0,4.412-1.227,8.136-3.678,11.179c-2.454,3.038-5.736,4.56-9.854,4.56c-8.435,0-16.523-9.661-24.271-28.977
		c-7.75-19.314-13.973-40.744-18.68-64.278c-14.318-71.974-23.048-111.592-26.184-118.85L1135.115,1308.824L1135.115,1308.824z
		 M1137.469,1131.434l-2.059,8.531c0,16.475,0.391,40.257,1.176,71.339c0.781,31.086,1.178,53.688,1.178,67.81
		c9.413-4.9,17.013-17.697,22.799-38.392c5.782-20.688,8.679-36.523,8.679-47.511c0-10.98-0.294-19.071-0.884-24.27
		c-0.588-5.194-1.864-10.932-3.823-17.211C1160.607,1138.788,1151.59,1132.021,1137.469,1131.434z"/>
	<path fill="#FFFFFF" d="M1260.451,1206.449l-3.236-50.895c0-28.435,8.431-42.656,25.299-42.656c10.784,0,25.493,2.502,44.127,7.502
		c18.631,5.002,27.947,11.428,27.947,19.27c0,8.237-5.883,14.517-17.65,18.828c-18.635-6.274-33.829-10.1-45.598-11.475
		c0.588,8.634,0.883,17.262,0.883,25.89l-2.647,86.489c0,0.395,0.588,3.529,1.766,9.412l21.476-0.882
		c19.416,0,29.124,5.492,29.124,16.475c0,4.315-1.766,8.09-5.296,11.326c-3.529,3.235-7.992,4.854-13.386,4.854
		c-5.396,0-11.229-0.391-17.504-1.177h-15.297c1.177,15.298,1.766,30.499,1.766,45.599l-2.647,109.143
		c0,22.555,0.391,33.829,1.177,33.829l44.421-1.471c15.298,0,22.947,4.904,22.947,14.709c0,6.081-2.648,10.489-7.943,13.238
		c-5.295,2.744-11.278,4.119-17.944,4.119h-50.894c-5.296,0-10.104-1.816-14.416-5.442c-4.314-3.627-6.571-7.989-6.766-13.092
		v-15.886l-3.824-101.786L1260.451,1206.449z"/>
</g>
</svg>
