<?xml version="1.0" encoding="utf-8"?>
<!-- Generator: Adobe Illustrator 16.0.0, SVG Export Plug-In . SVG Version: 6.00 Build 0)  -->
<!DOCTYPE svg PUBLIC "-//W3C//DTD SVG 1.1//EN" "http://www.w3.org/Graphics/SVG/1.1/DTD/svg11.dtd">
<svg version="1.1" id="Ebene_1" xmlns="http://www.w3.org/2000/svg" xmlns:xlink="http://www.w3.org/1999/xlink" x="0px" y="0px"
	 width="2000px" height="2000px" viewBox="0 0 2000 2000" enable-background="new 0 0 2000 2000" xml:space="preserve">
<circle fill="#FFFFFF" cx="1000" cy="1000" r="852"/>
<g>
	<path fill="#FF46AF" d="M663.23,1125.012l-25.681,2.567c-14.98,0-22.47-6.204-22.47-18.617c0-10.699,14.124-17.655,42.372-20.866
		c5.563-0.643,11.661-0.963,18.297-0.963c6.631,0,12.303,3.426,17.013,10.272c4.705,6.852,7.063,15.999,7.063,27.444
		c0,11.45,2.191,30.124,6.58,56.015c4.384,25.895,6.581,43.334,6.581,52.321c0,16.05-5.407,24.075-16.21,24.075
		c-10.81,0-18.032-4.604-21.667-13.803v-0.642c-2.569,1.072-7.384,3.529-14.445,7.381c-13.271,7.272-26.433,10.915-39.483,10.915
		c-9.419,0-18.833-1.927-28.248-5.777c-20.116-7.92-35.524-21.291-46.223-40.125c-11.556-19.901-19.154-38.944-22.791-57.137
		c-3.642-18.188-6.099-32.526-7.383-43.015c-1.5-10.698-2.678-22.896-3.532-36.595c-1.073-17.333-1.604-38.196-1.604-62.594
		l-0.321-48.47c0-42.372,1.389-72.756,4.172-91.163c2.779-18.402,5.617-33.489,8.507-45.261c2.89-11.768,6.259-22.199,10.111-31.297
		c3.852-9.094,8.557-17.921,14.124-26.482c5.563-8.772,11.982-15.939,19.26-21.507c15.618-12.408,33.489-18.563,53.606-18.457
		c20.112,0.109,30.174,6.369,30.174,18.777c0,4.709-1.715,8.456-5.137,11.235c-3.425,2.783-7.493,4.172-12.197,4.172l-18.938-3.209
		c-16.48,0.215-29.427,10.166-38.84,29.853c-10.062,21.616-16.481,42.161-19.26,61.632c-2.784,19.474-4.815,35.203-6.1,47.185
		c-1.716,11.771-2.783,25.149-3.209,40.125c-0.857,20.759-1.179,41.52-0.964,62.273l-0.32,40.768c0,41.944,1.87,71.797,5.618,89.557
		c3.741,17.767,7.647,31.891,11.716,42.373c3.852,10.702,8.557,19.476,14.124,26.321c18.187,13.913,34.13,21.723,47.828,23.433
		c19.471,0,35.63-9.199,48.471-27.605C673.181,1161.178,669.65,1136.141,663.23,1125.012z"/>
	<path fill="#FF46AF" d="M821.848,1025.502l3.211,139.633v19.581l-0.321,18.298h8.667l18.938-0.644
		c17.977,0,26.964,5.458,26.964,16.371c0,5.566-2.196,10.328-6.581,14.284c-4.389,3.963-9.469,5.939-15.248,5.939h-28.89
		c-19.901,0-32.636-0.427-38.198-1.285c-3.426,0.432-6.099,0.645-8.024,0.645c-15.623,0-23.434-4.922-23.434-14.769
		c0-4.063,1.284-7.915,3.853-11.557c2.568-3.636,5.136-5.562,7.705-5.776h18.617l1.283-8.668l-4.494-139.633l3.53-146.374
		c0-25.038-1.073-48.575-3.209-70.62h-12.519l-15.087,0.643c-6.419,0-11.45-1.229-15.086-3.691
		c-3.643-2.457-5.457-7.111-5.457-13.963c0-10.057,10.803-15.087,32.42-15.087h78.323c17.76,0,26.644,4.604,26.644,13.803
		c0,4.067-1.927,7.814-5.779,11.235c-3.852,3.426-8.239,5.136-13.161,5.136h-33.705c1.711,17.977,2.568,38.31,2.568,60.989
		L821.848,1025.502z"/>
	<path fill="#FF46AF" d="M962.813,852.806l-6.1,131.931v17.654l12.198-0.321c21.186,0,31.778,5.778,31.778,17.334
		c0,5.777-2.356,10.434-7.063,13.964c-4.71,3.531-10.864,5.298-18.457,5.298c-7.599,0-15.463-1.285-23.593-3.854v186.179
		c0,19.261-5.673,28.891-17.013,28.891c-6.852,0-14.66-3.319-23.434-9.95c3.637-39.162,6.365-94.854,8.187-167.078
		c1.815-72.226,3.37-119.462,4.653-141.721v-16.05c1.711-31.884,2.568-61.631,2.568-89.237c0-6.204,2.618-11.019,7.865-14.444
		c5.24-3.42,11.124-5.137,17.654-5.137c6.524,0,13.532,0.217,21.025,0.643c7.704,0.432,17.013,1.5,27.927,3.21
		c24.821,3.641,37.235,11.234,37.235,22.791c0,12.413-11.129,18.618-33.385,18.618c-8.776-4.279-20.223-6.42-34.346-6.42h-7.705
		v7.701H962.813z"/>
	<path fill="#FF46AF" d="M1131.702,1233.508l-1.284-50.396c0-0.21,0.321-7.703,0.964-22.47
		c-1.716-5.563-5.189-54.996-10.434-148.301c-5.246-93.3-8.079-150.331-8.505-171.091c-0.857,0-1.718,0-2.568,0
		c-35.525-0.642-53.286-7.167-53.286-19.581c0-4.063,2.354-7.434,7.063-10.111c4.705-2.674,9.309-4.013,13.802-4.013l89.238,6.1
		l10.593-0.32c13.691,0,20.543,5.246,20.543,15.729c0,5.353-2.246,9.686-6.74,13c-4.494,3.32-9.523,4.976-15.087,4.976
		l-30.174-4.494l-1.284,6.741c0,41.519,3.636,103.682,10.913,186.498c7.274,82.816,10.914,145.091,10.914,186.819
		c0,5.137-2.356,9.687-7.063,13.644c-4.709,3.962-9.846,5.938-15.407,5.938L1131.702,1233.508z"/>
	<path fill="#FF46AF" d="M1232.54,1216.494l27.286,4.816c8.345,0,15.618-3.638,21.826-10.916
		c6.205-7.271,10.805-16.369,13.804-27.283c5.778-20.972,8.667-39.533,8.667-55.692c0-16.155-2.679-32.15-8.026-47.989
		c-5.351-15.834-11.93-30.545-19.738-44.138c-7.814-13.586-15.568-27.444-23.272-41.568c-18.407-33.384-27.605-66.125-27.605-98.225
		c0-19.687,3.314-37.125,9.951-52.323c12.408-28.247,28.89-42.371,49.435-42.371c7.702,0,15.03,2.462,21.987,7.383
		c6.951,4.926,10.433,10.271,10.433,16.05c0,10.062-5.352,15.087-16.05,15.087c-4.711,0-9.311-1.284-13.803-3.854
		c-13.913,0.644-23.327,16.16-28.248,46.544c-1.073,6.637-1.604,14.396-1.604,23.273c0,8.882,1.926,19.851,5.777,32.901
		c3.853,13.056,8.717,24.667,14.604,34.828c5.883,10.166,12.197,21.4,18.939,33.705c6.74,12.31,13.104,24.234,19.099,35.791
		c13.692,26.754,20.433,57.353,20.224,91.805c0.209,26.537-5.89,51.896-18.297,76.076c-5.994,11.987-14.501,21.777-25.52,29.37
		c-11.024,7.595-23.593,11.502-37.717,11.718v1.604c-17.977-2.567-27.823-11.019-29.532-25.358L1232.54,1216.494z"/>
	<path fill="#FF46AF" d="M1393.086,857.942c-12.414-0.21-18.619-14.445-18.619-42.692c0-15.408,1.176-27.335,3.531-35.792
		c2.354-8.451,7.063-15.888,14.125-22.309s15.834-9.631,26.321-9.631c10.481,0,19.311,1.981,26.481,5.938
		c7.168,3.962,12.681,8.722,16.532,14.284c3.851,5.567,6.845,12.84,8.987,21.828c3.421,13.055,5.135,30.229,5.135,51.52
		c0,21.296-2.141,43.174-6.419,65.645c-3.853,22.47-8.347,42.159-13.481,59.063c-13.271,44.939-20.013,98.546-20.224,160.819
		c0,21.185,0.104,35.846,0.321,43.978c-7.705,0-12.148,0.32-13.321,0.963c-1.18,0.643-2.196,0.964-3.05,0.964
		c-8.137,0-13.48-4.923-16.051-14.769c0-48.358,6.149-103.465,18.459-165.313c12.303-61.843,18.457-112.774,18.457-152.793
		c0-40.015-6.532-60.027-19.582-60.027c-8.346,0-12.519,9.741-12.519,29.211c0,3.426,1.494,15.302,4.494,35.63
		c0,1.926-2.681,4.654-8.024,8.187C1399.291,856.177,1395.438,857.942,1393.086,857.942z M1446.051,1221.631
		c0,16.693-8.884,25.037-26.644,25.037c-6.209,0-11.61-2.518-16.21-7.543c-4.605-5.025-6.9-10.645-6.9-16.854
		c0-6.203,2.672-12.035,8.024-17.492c5.346-5.458,11.073-8.187,17.173-8.187c6.098,0,11.716,2.838,16.852,8.506
		C1443.48,1210.771,1446.051,1216.285,1446.051,1221.631z"/>
</g>
</svg>
