<?xml version="1.0" encoding="utf-8"?>
<!-- Generator: Adobe Illustrator 16.0.0, SVG Export Plug-In . SVG Version: 6.00 Build 0)  -->
<!DOCTYPE svg PUBLIC "-//W3C//DTD SVG 1.1//EN" "http://www.w3.org/Graphics/SVG/1.1/DTD/svg11.dtd">
<svg version="1.1" id="Ebene_1" xmlns="http://www.w3.org/2000/svg" xmlns:xlink="http://www.w3.org/1999/xlink" x="0px" y="0px"
	 width="2000px" height="2000px" viewBox="0 0 2000 2000" enable-background="new 0 0 2000 2000" xml:space="preserve">
<circle fill="#7F1D78" cx="1000" cy="1000" r="852"/>
<g>
	<path fill="#FFFFFF" d="M663.23,1125.012l-25.68,2.567c-14.981,0-22.47-6.204-22.47-18.617c0-10.699,14.124-17.655,42.372-20.866
		c5.563-0.643,11.661-0.963,18.297-0.963c6.631,0,12.303,3.426,17.013,10.272c4.705,6.852,7.062,15.999,7.062,27.445
		c0,11.45,2.192,30.124,6.58,56.014c4.384,25.895,6.581,43.334,6.581,52.322c0,16.049-5.407,24.075-16.21,24.075
		c-10.809,0-18.032-4.605-21.667-13.803v-0.642c-2.569,1.073-7.384,3.53-14.445,7.381c-13.271,7.273-26.433,10.915-39.483,10.915
		c-9.419,0-18.833-1.926-28.248-5.777c-20.117-7.92-35.525-21.291-46.223-40.125c-11.556-19.901-19.154-38.945-22.791-57.137
		c-3.642-18.187-6.099-32.526-7.383-43.014c-1.5-10.699-2.678-22.897-3.532-36.595c-1.073-17.333-1.604-38.197-1.604-62.594
		l-0.321-48.47c0-42.372,1.389-72.756,4.172-91.163c2.779-18.402,5.617-33.489,8.507-45.261
		c2.889-11.767,6.259-22.199,10.111-31.296c3.852-9.094,8.557-17.921,14.124-26.483c5.563-8.772,11.982-15.939,19.26-21.507
		c15.618-12.408,33.489-18.563,53.606-18.457c20.112,0.11,30.174,6.369,30.174,18.778c0,4.709-1.715,8.456-5.137,11.235
		c-3.425,2.783-7.493,4.172-12.197,4.172l-18.938-3.209c-16.481,0.215-29.427,10.166-38.84,29.852
		c-10.062,21.617-16.482,42.161-19.26,61.632c-2.784,19.474-4.815,35.203-6.099,47.185c-1.716,11.771-2.784,25.149-3.21,40.125
		c-0.857,20.759-1.178,41.519-0.963,62.273l-0.321,40.768c0,41.944,1.871,71.797,5.618,89.556
		c3.742,17.767,7.648,31.891,11.716,42.373c3.852,10.703,8.557,19.476,14.124,26.322c18.187,13.913,34.13,21.722,47.828,23.432
		c19.471,0,35.63-9.199,48.471-27.605C673.181,1161.178,669.65,1136.141,663.23,1125.012z"/>
	<path fill="#FFFFFF" d="M821.848,1025.502l3.21,139.633v19.581l-0.321,18.298h8.667l18.938-0.644
		c17.976,0,26.964,5.458,26.964,16.371c0,5.567-2.197,10.328-6.581,14.284c-4.389,3.963-9.469,5.94-15.248,5.94h-28.89
		c-19.901,0-32.636-0.427-38.198-1.285c-3.426,0.431-6.099,0.644-8.025,0.644c-15.623,0-23.433-4.922-23.433-14.768
		c0-4.063,1.284-7.915,3.852-11.557c2.568-3.636,5.136-5.562,7.705-5.776h18.617l1.284-8.668l-4.494-139.633l3.53-146.374
		c0-25.038-1.073-48.575-3.209-70.62h-12.519l-15.087,0.642c-6.419,0-11.45-1.229-15.086-3.691
		c-3.642-2.457-5.457-7.112-5.457-13.963c0-10.057,10.803-15.087,32.42-15.087h78.323c17.76,0,26.644,4.604,26.644,13.803
		c0,4.067-1.927,7.814-5.779,11.235c-3.852,3.426-8.24,5.136-13.162,5.136h-33.704c1.71,17.976,2.568,38.309,2.568,60.989
		L821.848,1025.502z"/>
	<path fill="#FFFFFF" d="M962.812,852.806l-6.099,131.93v17.655l12.198-0.322c21.186,0,31.779,5.779,31.779,17.334
		c0,5.778-2.357,10.434-7.063,13.964c-4.71,3.531-10.864,5.298-18.457,5.298c-7.599,0-15.463-1.285-23.593-3.854v186.178
		c0,19.261-5.673,28.891-17.013,28.891c-6.851,0-14.66-3.32-23.433-9.95c3.636-39.163,6.365-94.855,8.186-167.078
		c1.816-72.226,3.371-119.462,4.654-141.721v-16.05c1.711-31.884,2.568-61.631,2.568-89.237c0-6.204,2.618-11.019,7.865-14.445
		c5.241-3.42,11.124-5.136,17.655-5.136c6.524,0,13.532,0.216,21.025,0.642c7.704,0.432,17.013,1.5,27.927,3.21
		c24.821,3.641,37.235,11.235,37.235,22.791c0,12.413-11.129,18.618-33.385,18.618c-8.776-4.279-20.222-6.42-34.346-6.42h-7.704
		V852.806z"/>
	<path fill="#FFFFFF" d="M1131.702,1233.508l-1.284-50.396c0-0.21,0.321-7.703,0.964-22.47c-1.716-5.563-5.19-54.996-10.434-148.3
		c-5.246-93.3-8.079-150.331-8.505-171.091c-0.857,0-1.717,0-2.568,0c-35.525-0.642-53.286-7.167-53.286-19.581
		c0-4.063,2.353-7.434,7.063-10.112c4.705-2.673,9.309-4.012,13.802-4.012l89.238,6.099l10.593-0.32
		c13.691,0,20.543,5.246,20.543,15.729c0,5.352-2.246,9.685-6.74,13c-4.494,3.32-9.524,4.975-15.087,4.975l-30.174-4.494
		l-1.284,6.741c0,41.519,3.636,103.682,10.913,186.498c7.274,82.817,10.914,145.091,10.914,186.82c0,5.136-2.356,9.686-7.062,13.643
		c-4.709,3.962-9.846,5.938-15.407,5.938L1131.702,1233.508z"/>
	<path fill="#FFFFFF" d="M1232.54,1216.494l27.286,4.816c8.345,0,15.618-3.637,21.826-10.915
		c6.205-7.272,10.805-16.37,13.804-27.284c5.778-20.971,8.667-39.533,8.667-55.692c0-16.155-2.679-32.15-8.026-47.989
		c-5.351-15.834-11.93-30.545-19.739-44.138c-7.814-13.586-15.568-27.444-23.272-41.568c-18.407-33.384-27.606-66.125-27.606-98.225
		c0-19.687,3.315-37.125,9.951-52.323c12.409-28.247,28.89-42.371,49.435-42.371c7.702,0,15.03,2.462,21.987,7.382
		c6.951,4.926,10.433,10.272,10.433,16.05c0,10.062-5.352,15.087-16.05,15.087c-4.711,0-9.31-1.284-13.803-3.853
		c-13.913,0.643-23.327,16.16-28.248,46.544c-1.073,6.636-1.604,14.396-1.604,23.273c0,8.882,1.926,19.851,5.777,32.901
		c3.853,13.056,8.717,24.667,14.605,34.829c5.883,10.166,12.197,21.4,18.939,33.705c6.74,12.309,13.104,24.234,19.099,35.791
		c13.692,26.753,20.433,57.352,20.223,91.804c0.21,26.538-5.889,51.896-18.296,76.076c-5.994,11.988-14.501,21.778-25.52,29.371
		c-11.024,7.594-23.593,11.502-37.717,11.717v1.605c-17.976-2.568-27.823-11.019-29.532-25.359L1232.54,1216.494z"/>
	<path fill="#FFFFFF" d="M1393.086,857.942c-12.414-0.21-18.619-14.445-18.619-42.692c0-15.408,1.175-27.335,3.531-35.792
		c2.354-8.451,7.063-15.888,14.125-22.309c7.062-6.42,15.834-9.63,26.321-9.63c10.482,0,19.311,1.981,26.482,5.938
		c7.167,3.962,12.68,8.722,16.532,14.284c3.851,5.568,6.845,12.84,8.987,21.828c3.421,13.055,5.135,30.229,5.135,51.52
		c0,21.296-2.141,43.174-6.419,65.644c-3.853,22.47-8.347,42.16-13.482,59.063c-13.271,44.939-20.012,98.546-20.223,160.819
		c0,21.185,0.105,35.846,0.321,43.978c-7.705,0-12.148,0.32-13.321,0.963c-1.18,0.642-2.197,0.963-3.05,0.963
		c-8.136,0-13.481-4.922-16.05-14.768c0-48.359,6.149-103.465,18.458-165.313c12.303-61.842,18.457-112.774,18.457-152.793
		c0-40.014-6.532-60.027-19.581-60.027c-8.346,0-12.519,9.741-12.519,29.211c0,3.426,1.494,15.302,4.494,35.63
		c0,1.926-2.68,4.654-8.024,8.186C1399.291,856.177,1395.438,857.942,1393.086,857.942z M1446.051,1221.631
		c0,16.693-8.884,25.037-26.644,25.037c-6.209,0-11.61-2.518-16.21-7.543c-4.605-5.025-6.9-10.644-6.9-16.853
		c0-6.204,2.672-12.036,8.024-17.493c5.346-5.458,11.073-8.186,17.173-8.186c6.098,0,11.716,2.838,16.852,8.506
		C1443.48,1210.772,1446.051,1216.285,1446.051,1221.631z"/>
</g>
</svg>
