<?xml version="1.0" encoding="utf-8"?>
<!-- Generator: Adobe Illustrator 16.0.0, SVG Export Plug-In . SVG Version: 6.00 Build 0)  -->
<!DOCTYPE svg PUBLIC "-//W3C//DTD SVG 1.1//EN" "http://www.w3.org/Graphics/SVG/1.1/DTD/svg11.dtd">
<svg version="1.1" id="Ebene_1" xmlns="http://www.w3.org/2000/svg" xmlns:xlink="http://www.w3.org/1999/xlink" x="0px" y="0px"
	 width="2000px" height="2000px" viewBox="0 0 2000 2000" enable-background="new 0 0 2000 2000" xml:space="preserve">
<g>
	<g>
		<path fill="#FFFFFF" d="M1238.23,1064.102c-30.455-0.417-48.173-1.827-48.609-1.864c-216.312-9.017-421.671-60.614-555.84-102.313
			c-145.372-45.178-240.836-88.797-241.783-89.233l1.326-2.834c0.947,0.435,96.263,43.984,241.453,89.103
			c133.978,41.634,339.027,93.153,555.044,102.159c1.162,0.096,111.558,8.877,259.03-11.394
			c136.048-18.698,332.377-66.653,495.088-188.923l1.907,2.492c-72.11,54.185-156.74,98.464-251.547,131.612
			c-75.82,26.51-158.284,45.999-245.094,57.925C1360.093,1063.076,1284.479,1064.734,1238.23,1064.102z"/>
	</g>
	
		<ellipse transform="matrix(0.9999 0.0137 -0.0137 0.9999 12.3224 -6.0974)" fill="#FFFFFF" cx="451.246" cy="896.444" rx="31.545" ry="31.253"/>
	
		<ellipse transform="matrix(0.9999 0.0137 -0.0137 0.9999 13.5687 -9.1929)" fill="#FFFFFF" cx="679.061" cy="987.68" rx="32.335" ry="32.035"/>
	
		<ellipse transform="matrix(0.9999 0.0137 -0.0137 0.9999 14.15 -14.0713)" fill="#FFFFFF" cx="1035.471" cy="1027.122" rx="32.333" ry="32.033"/>
	<path fill="#FFFFFF" d="M1519.698,1049.377c-0.218,15.679-13.218,28.21-29.044,27.994c-15.822-0.217-28.471-13.1-28.258-28.779
		c0.215-15.676,13.212-28.209,29.037-27.992C1507.257,1020.815,1519.91,1033.699,1519.698,1049.377z"/>
	<path fill="#FFFFFF" d="M1390.62,1067.927c-0.242,17.691-14.911,31.833-32.771,31.589c-17.855-0.244-32.134-14.783-31.891-32.474
		c0.24-17.69,14.912-31.833,32.766-31.588C1376.585,1035.697,1390.861,1050.236,1390.62,1067.927z"/>
	<path fill="#FFFFFF" d="M796.765,1007.054c-0.162,11.866-10.001,21.353-21.979,21.188c-11.979-0.163-21.554-9.914-21.392-21.78
		c0.163-11.868,10.002-21.353,21.98-21.189C787.353,985.437,796.928,995.187,796.765,1007.054z"/>
	
		<ellipse transform="matrix(0.9999 0.0137 -0.0137 0.9999 13.9839 -12.1754)" fill="#FFFFFF" cx="896.422" cy="1015.451" rx="21.688" ry="21.485"/>
	
		<ellipse transform="matrix(0.9999 0.0137 -0.0137 0.9999 13.9921 -21.8867)" fill="#FFFFFF" cx="1603.188" cy="1009.497" rx="21.688" ry="21.486"/>
	<path fill="#FFFFFF" d="M1735.516,993.597c-0.162,11.866-10.004,21.351-21.981,21.187s-21.553-9.914-21.392-21.78
		c0.164-11.868,10.001-21.352,21.979-21.188C1726.099,971.979,1735.678,981.729,1735.516,993.597z"/>
	<path fill="#FFFFFF" d="M1236.386,1070.895c-0.166,12.083-10.182,21.74-22.378,21.574c-12.197-0.168-21.945-10.096-21.78-22.179
		c0.165-12.081,10.182-21.74,22.379-21.573C1226.803,1048.884,1236.551,1058.813,1236.386,1070.895z"/>
</g>
<g>
	<ellipse fill="#FA57AC" cx="165.638" cy="1091.567" rx="22.571" ry="21.264"/>
	<ellipse fill="#FA57AC" cx="371.51" cy="1105.12" rx="21.579" ry="20.329"/>
	<ellipse fill="#FA57AC" cx="586.313" cy="1098.577" rx="21.579" ry="20.327"/>
	<ellipse fill="#FA57AC" cx="919" cy="1080" rx="21.579" ry="20.328"/>
	<path fill="#FA57AC" d="M1256.763,984.551c0,11.225-9.662,20.328-21.58,20.328c-11.915,0-21.578-9.103-21.578-20.328
		c0-11.227,9.663-20.329,21.578-20.329C1247.101,964.223,1256.763,973.325,1256.763,984.551z"/>
	<ellipse fill="#FA57AC" cx="276.76" cy="1101.381" rx="29.02" ry="27.337"/>
	<ellipse fill="#FA57AC" cx="479.904" cy="1110.961" rx="29.764" ry="28.039"/>
	<ellipse fill="#FA57AC" cx="700.658" cy="1110.961" rx="29.764" ry="28.039"/>
	<ellipse fill="#FA57AC" cx="805.828" cy="1079.184" rx="29.765" ry="28.039"/>
	<ellipse fill="#FA57AC" cx="1135.721" cy="1010.021" rx="29.765" ry="28.038"/>
	<ellipse fill="#FA57AC" cx="1332.676" cy="979.547" rx="29.764" ry="28.039"/>
	<path fill="#FA57AC" d="M1345.24,950.11c-57.919,21.159-119.191,41.096-174.242,57.168
		c-102.16,29.827-182.618,46.071-183.435,46.235c-271.899,57.523-512.535,52.053-666.525,37.338
		c-136.755-13.071-231.196-35.535-261.398-43.383v2.907c31.18,8.063,125.324,30.281,261.007,43.255
		c69.511,6.646,140.136,9.982,210.891,9.982c29.146,0,58.315-0.566,87.435-1.699c124.762-4.86,248.994-20.225,369.227-45.66
		c0.803-0.162,81.383-16.43,183.68-46.297c57.351-16.744,121.455-37.685,181.528-59.847H1345.24z"/>
</g>
</svg>
