<?xml version="1.0" encoding="utf-8"?>
<!-- Generator: Adobe Illustrator 16.0.0, SVG Export Plug-In . SVG Version: 6.00 Build 0)  -->
<!DOCTYPE svg PUBLIC "-//W3C//DTD SVG 1.1//EN" "http://www.w3.org/Graphics/SVG/1.1/DTD/svg11.dtd">
<svg version="1.1" id="Ebene_1" xmlns="http://www.w3.org/2000/svg" xmlns:xlink="http://www.w3.org/1999/xlink" x="0px" y="0px"
	 width="2000px" height="2000px" viewBox="0 0 2000 2000" enable-background="new 0 0 2000 2000" xml:space="preserve">
<circle fill="#7F1D78" cx="1000" cy="1000" r="852"/>
<g>
	<path fill="#FFFFFF" d="M841.02,835.874l2.457-97.623c0-9.864-1.592-24.462-4.804-43.764c-3.214-19.314-4.804-34.847-4.804-46.588
		c0-11.754-2.023-26.051-6.061-42.909c-4.024-16.845-8.494-32.01-13.432-45.498c-12.975-35.337-19.469-65.492-19.469-90.463
		c0-2.459,1.434-4.56,4.304-6.282c2.868-1.736,5.871-2.582,9.018-2.582c3.123,0,6.448,3.849,9.973,11.587
		c3.515,7.727,6.761,17.589,9.751,29.587c2.936,11.997,5.692,23.995,8.239,36.003c2.548,11.997,4.894,23.627,7.039,34.879
		c2.135,11.253,3.692,18.514,4.692,21.817c0.634-2.959,1.434-9.975,2.346-21.083c0.891-11.095,1.934-22.481,3.092-34.157
		c1.322-11.84,2.957-23.661,4.914-35.501c4.448-27.121,11.141-40.696,20.113-40.696c8.952,0,13.432,1.824,13.432,5.416
		c0,18.901-4.025,47.099-12.064,84.559c-8.039,37.458-12.075,65.923-12.075,85.292l-1.479,17.523v7.628l2.714,133.85l1.733,25.14
		v11.331c0,4.448-1.689,8.027-5.08,10.729c-3.347,2.712-7.039,4.08-10.953,4.08c-3.923,0-7.171-1.212-9.751-3.58
		C842.298,842.201,841.02,839.31,841.02,835.874z"/>
	<path fill="#FFFFFF" d="M988.344,657.137l-12.585-0.476c-4.938,0-8.386,1.233-10.364,3.69v155.797
		c17.257-0.977,26.618-1.479,28.108-1.479c19.236,0,28.842,4.438,28.842,13.321v1.735c-2.312,4.602-6.247,8.126-11.852,10.585
		c-5.559,2.457-10.496,3.88-14.766,4.214c-4.27,0.344-9.785,0.477-16.546,0.477h-15.744c-12.498,0-20.235-2.457-23.204-7.393
		c-1.324-2.303-1.957-5.337-1.957-9.118V535.108c0-5.738-1.156-14.3-3.435-25.64c-2.325-11.342-3.46-19.971-3.46-25.896v-1.724
		c5.57-9.206,9.784-15.122,12.588-17.769l37.481-4.436c5.114,0,10.228,1.524,15.433,4.548c5.158,3.058,7.738,7.037,7.738,11.963
		c0,10.018-7.649,15.023-22.905,15.023l-14.564-0.479c-2.457,0-4.282,0.089-5.416,0.255l3.938,83.314
		c0,6.75-0.411,16.59-1.235,29.465c-0.811,12.9-1.246,22.305-1.246,28.221c1.825-0.313,4.282-0.911,7.396-1.735
		c6.904-1.789,12.287-2.702,16.155-2.702s7.294,1.413,10.363,4.192c3.024,2.801,4.535,6.159,4.535,10.107
		c0,3.935-1.246,7.494-3.69,10.607C995.506,655.593,992.304,657.137,988.344,657.137z"/>
	<path fill="#FFFFFF" d="M1053.767,836.119c0-9.006,3.782-13.566,11.343-13.566c3.779,0,8.76,1.291,14.922,3.827
		c6.159,2.546,11.496,3.823,16.033,3.823c4.49,0,9.407-2.869,14.677-8.627c5.248-5.76,9.34-12.899,12.321-21.461
		c6.092-17.413,9.115-33.146,9.115-47.199c0-14.042-2.446-29.121-7.404-45.243c-4.938-16.1-10.919-31.222-17.992-45.365
		c-7.07-14.143-14.231-28.287-21.435-42.396c-17.079-33.679-25.575-64.423-25.396-92.209c-0.179-26.296,8.14-46.923,24.905-61.867
		c8.896-7.904,19.304-11.84,31.312-11.84c6.093,0,11.964,1.678,17.747,5.058c5.758,3.369,9.785,7.761,12.052,13.187l-8.628,10.852
		c-8.361,0-14.943-1.635-19.703-4.936c-6.228,0.656-11.651,3.625-16.277,8.871c-8.361,9.708-12.587,21.661-12.587,35.872
		c0,14.232,1.822,28.053,5.426,41.54c3.604,13.475,8.138,25.573,13.565,36.247c5.448,10.686,11.252,22.271,17.522,34.758
		c6.404,12.475,12.32,24.495,17.747,35.992c12.63,26.63,18.991,55.383,18.991,86.283c0.132,21.705-5.337,42.585-16.545,62.622
		c-5.25,9.54-12.477,17.401-21.683,23.551c-9.185,6.149-19.458,9.239-30.844,9.239c-12.143,0-21.75-1.823-28.732-5.415
		C1057.281,844.069,1053.767,840.223,1053.767,836.119z"/>
	<path fill="#FFFFFF" d="M1266.273,850.651c-5.005,10.685-11.698,20.226-20.081,28.598c-8.383,8.385-15.812,12.575-22.306,12.575
		c-6.472,0-9.738-2.089-9.738-6.26c0-4.213,2.044-8.04,6.181-11.485c7.383-8.539,12.809-24.473,16.278-47.834
		c2.957-19.881,9.518-29.832,19.703-29.832c11.675,0,17.522,8.883,17.522,26.618
		C1273.811,830.771,1271.299,839.987,1266.273,850.651z"/>
</g>
<g>
	<path fill="#FFFFFF" d="M508.197,1058.142l-9.119-0.267c-3.368,0-5.871,0.755-7.46,2.178c-1.602,1.424-2.393,4.27-2.393,8.452
		c0,33.757,2.114,84.28,6.328,151.573c4.214,67.291,6.327,117.815,6.327,151.528v19.971c3.559-0.49,7.083-0.757,10.641-0.757
		c14.321,0,21.493,6.093,21.493,18.234v3.024l-12.91,8.852l-35.157,1.289c-29.854,0-44.776-5.159-44.776-15.434
		c0-8.271,5.215-12.408,15.689-12.408l10.886,0.757c5.058,0,7.582-4.048,7.582-12.143c0-26.64-1.59-66.582-4.804-119.774
		c-3.212-53.236-4.804-93.176-4.804-119.815l1.001-52.883c0-11.119-0.433-20.726-1.278-28.82c-4.547,1.469-8.583,2.268-12.13,2.268
		c-8.084,0-12.143-4.135-12.143-12.407c0-4.225,2.626-7.874,7.839-10.985c5.216-3.115,11.721-5.336,19.491-6.717
		c14.511-2.49,25.252-3.779,32.268-3.779c6.993,0,11.996,1.378,15.055,4.18c3.024,2.803,4.548,6.094,4.548,9.875
		c0,3.779-1.135,7.116-3.414,9.871C514.678,1056.808,511.721,1058.142,508.197,1058.142z"/>
	<path fill="#FFFFFF" d="M813.923,1412.079c0,5.248-1.301,9.518-3.914,12.897c-2.625,3.381-6.473,5.07-11.532,5.07
		c-12.476,0-28.164-66.357-47.044-199.116c-2.701-19.525-4.392-30.823-5.048-33.893c-6.426,46.033-11.297,85.841-14.688,119.286
		c-3.37,33.489-5.06,66.668-5.06,99.535c0,3.734-1.544,7.071-4.691,10.008c-3.113,2.935-6.539,4.401-10.241,4.401
		c-12.664,0-18.968-13.165-18.968-39.448c0-16.189-7.138-75.343-21.37-177.459c-14.256-102.115-23.317-158.021-27.188-167.627
		c4.37-8.229,10.52-12.367,18.47-12.367c7.927,0,15.145,17.969,21.637,53.861c6.494,35.937,12.043,79.479,16.689,130.67
		c4.647,51.189,7.04,77.12,7.193,77.789c0.501-4.717,2.236-19.26,5.193-43.632c2.936-24.373,5.26-43.987,6.949-58.841
		c5.047-44.877,7.583-76.721,7.583-95.624v-9.872c0-3.692,1.39-7.25,4.159-10.765c2.801-3.424,5.947-5.202,9.494-5.202
		c12.321,0,18.47,5.115,18.47,15.21v7.827c0,33.4,7.749,81.746,23.271,144.945c6.749,27.71,11.553,49.858,14.421,66.581
		c1.867-19.081,5.214-46.655,10.108-82.77c10.641-78.542,15.943-139.12,15.943-181.639c0-7.604,1.268-13.12,3.804-16.589
		c2.522-3.424,6.647-5.202,12.386-5.202c5.736,0,10.252,1.378,13.543,4.046c3.304,2.714,4.947,6.181,4.947,10.407
		s-1.779,8.095-5.304,11.607c0,50.259-6.536,111.234-19.614,182.797C820.438,1300.623,813.923,1361.644,813.923,1412.079z"/>
	<path fill="#FFFFFF" d="M960.324,1058.142l-9.095-0.267c-3.37,0-5.871,0.755-7.462,2.178c-1.601,1.424-2.39,4.27-2.39,8.452
		c0,33.757,2.113,84.28,6.327,151.573c4.215,67.291,6.305,117.815,6.305,151.528v19.971c3.535-0.49,7.104-0.757,10.64-0.757
		c14.312,0,21.492,6.093,21.492,18.234v3.024l-12.886,8.852l-35.182,1.289c-29.854,0-44.775-5.159-44.775-15.434
		c0-8.271,5.216-12.408,15.667-12.408l10.886,0.757c5.082,0,7.582-4.048,7.582-12.143c0-26.64-1.588-66.582-4.803-119.774
		c-3.213-53.236-4.825-93.176-4.825-119.815l1.024-52.883c0-11.119-0.436-20.726-1.27-28.82c-4.558,1.469-8.616,2.268-12.141,2.268
		c-8.085,0-12.144-4.135-12.144-12.407c0-4.225,2.604-7.874,7.84-10.985c5.236-3.115,11.729-5.336,19.469-6.717
		c14.499-2.49,25.252-3.779,32.268-3.779c6.993,0,11.997,1.378,15.055,4.18c3.024,2.803,4.526,6.094,4.526,9.875
		c0,3.779-1.135,7.116-3.392,9.871C966.785,1056.808,963.87,1058.142,960.324,1058.142z"/>
	<path fill="#FFFFFF" d="M1060.439,1226.882l0.511,16.457v2.313c1.335,29.977,2.024,75.029,2.024,135.073v13.164h39.451
		c7.426,5.068,11.117,9.873,11.117,14.411c0,4.58-1.268,8.315-3.78,11.251c-2.534,2.981-5.159,4.447-7.85,4.447
		c-2.714,0-5.827-0.577-9.363-1.778c-2.868,0.668-6.181,1.023-9.872,1.023l-16.701-0.757c-3.535,4.224-7.962,6.315-13.276,6.315
		c-5.293,0-9.785-1.645-13.409-4.938c-3.625-3.29-5.449-7.116-5.449-11.519l3.315-22.771c0-39.316-1.735-98.202-5.181-176.703
		c-3.472-78.541-5.206-137.428-5.206-176.744c0-3.202,1.268-5.784,3.804-7.695c2.513-1.957,5.671-2.936,9.473-2.936
		c3.803,0,7.229,1.424,10.385,4.313c3.114,2.847,4.672,6.404,4.672,10.587L1060.439,1226.882z"/>
	<path fill="#FFFFFF" d="M1187.905,1226.882l0.49,16.457v2.313c1.335,29.977,2.046,75.029,2.046,135.073v13.164h39.449
		c7.406,5.068,11.121,9.873,11.121,14.411c0,4.58-1.291,8.315-3.827,11.251c-2.491,2.981-5.136,4.447-7.827,4.447
		c-2.713,0-5.826-0.577-9.339-1.778c-2.892,0.668-6.183,1.023-9.896,1.023l-16.702-0.757c-3.512,4.224-7.959,6.315-13.251,6.315
		c-5.315,0-9.809-1.645-13.435-4.938c-3.601-3.29-5.423-7.116-5.423-11.519l3.289-22.771c0-39.316-1.733-98.202-5.203-176.703
		c-3.423-78.541-5.181-137.428-5.181-176.744c0-3.202,1.267-5.784,3.801-7.695c2.515-1.957,5.672-2.936,9.475-2.936
		s7.248,1.424,10.385,4.313c3.137,2.847,4.67,6.404,4.67,10.587L1187.905,1226.882z"/>
	<path fill="#FFFFFF" d="M1322.801,1431.071c-5.314,0-9.738-1.913-13.165-5.692c-3.469-3.827-5.204-8.185-5.204-13.165
		c0-4.981,1.957-9.475,5.827-13.521c3.893-4.049,8.362-6.095,13.41-6.095c5.07,0,9.45,2.046,13.142,6.095
		c3.735,4.046,5.56,8.717,5.56,14.009c0,5.291-1.911,9.695-5.781,13.165C1332.675,1429.336,1328.093,1431.071,1322.801,1431.071z"/>
	<path fill="#FFFFFF" d="M1454.025,1431.071c-5.314,0-9.717-1.913-13.164-5.692c-3.445-3.827-5.181-8.185-5.181-13.165
		c0-4.981,1.935-9.475,5.804-13.521c3.892-4.049,8.361-6.095,13.409-6.095c5.07,0,9.45,2.046,13.165,6.095
		c3.715,4.046,5.559,8.717,5.559,14.009c0,5.291-1.934,9.695-5.825,13.165C1463.924,1429.336,1459.342,1431.071,1454.025,1431.071z"
		/>
	<path fill="#FFFFFF" d="M1585.253,1431.071c-5.294,0-9.72-1.913-13.164-5.692c-3.448-3.827-5.183-8.185-5.183-13.165
		c0-4.981,1.935-9.475,5.803-13.521c3.914-4.049,8.361-6.095,13.434-6.095c5.068,0,9.429,2.046,13.141,6.095
		c3.715,4.046,5.561,8.717,5.561,14.009c0,5.291-1.935,9.695-5.805,13.165C1595.17,1429.336,1590.545,1431.071,1585.253,1431.071z"
		/>
</g>
</svg>
