<?xml version="1.0" encoding="utf-8"?>
<!-- Generator: Adobe Illustrator 16.0.0, SVG Export Plug-In . SVG Version: 6.00 Build 0)  -->
<!DOCTYPE svg PUBLIC "-//W3C//DTD SVG 1.1//EN" "http://www.w3.org/Graphics/SVG/1.1/DTD/svg11.dtd">
<svg version="1.1" id="Layer_2" xmlns="http://www.w3.org/2000/svg" xmlns:xlink="http://www.w3.org/1999/xlink" x="0px" y="0px"
	 width="2000px" height="2000px" viewBox="0 0 2000 2000" enable-background="new 0 0 2000 2000" xml:space="preserve">
<path fill="#FFFFFF" d="M1720.44,1190.911c92.06-42.713,32.694-90.036,6.69-98.287c-113.917-40.568-291.144-214.081-353.511-281.761
	c-15.453-16.78-41.591-17.864-58.344-2.394c-16.781,15.442-17.869,41.571-2.414,58.36c18.38,19.946,138.71,148.708,263.331,235.702
	c-233.706,12.022-604.021-57.765-608.192-58.565l-2.219-0.35c-263.56-35.497-603.661-350.18-607.075-353.359
	c-16.666-15.56-42.808-14.64-58.378,2.025c-15.544,16.686-14.642,42.809,2.026,58.381
	c14.654,13.672,361.793,334.973,651.281,374.674c24.898,4.691,311.897,58.044,544.369,60.972
	c-119.745,44.786-226.831,84.365-240.98,88.118c-22.306,4.779-36.513,26.733-31.738,49.039
	c4.776,22.304,26.733,36.513,49.036,31.736C1297.908,1350.15,1571.56,1247.197,1720.44,1190.911L1720.44,1190.911z"/>
</svg>
