<?xml version="1.0" encoding="utf-8"?>
<!-- Generator: Adobe Illustrator 16.0.0, SVG Export Plug-In . SVG Version: 6.00 Build 0)  -->
<!DOCTYPE svg PUBLIC "-//W3C//DTD SVG 1.1//EN" "http://www.w3.org/Graphics/SVG/1.1/DTD/svg11.dtd">
<svg version="1.1" id="Layer_2" xmlns="http://www.w3.org/2000/svg" xmlns:xlink="http://www.w3.org/1999/xlink" x="0px" y="0px"
	 width="2000px" height="2000px" viewBox="0 0 2000 2000" enable-background="new 0 0 2000 2000" xml:space="preserve">
<path fill="#FFFFFF" d="M649.366,354.725c14.177,325.096,142.789,543.402,156.123,565.364
	c115.749,229.958,382.233,506.608,516.467,638.112l-254.054-107.834c-19.66-8.349-42.358,0.822-50.703,20.483
	c-8.343,19.656,0.836,42.349,20.48,50.696l378.285,160.573l0,0c0,0,88.104,38.203,61.051-66.318l0.076,0.008l-108.802-367.914
	c-0.966-3.261-2.324-6.296-4.001-9.069c-8.878-14.679-26.821-22.139-44.042-17.047c-20.479,6.056-32.177,27.563-26.113,48.038
	l67.971,229.896c-134.197-132.596-387.919-398.445-495.064-612.184l-0.725-1.469l-0.878-1.395
	c-1.174-1.954-132.662-215.599-146.52-532.972c-0.257-6.031-2.043-11.641-4.962-16.468c-6.371-10.535-18.142-17.361-31.314-16.784
	C663.421,319.279,648.528,335.533,649.366,354.725z"/>
</svg>
