<?xml version="1.0" encoding="utf-8"?>
<!-- Generator: Adobe Illustrator 16.0.0, SVG Export Plug-In . SVG Version: 6.00 Build 0)  -->
<!DOCTYPE svg PUBLIC "-//W3C//DTD SVG 1.1//EN" "http://www.w3.org/Graphics/SVG/1.1/DTD/svg11.dtd">
<svg version="1.1" id="Layer1" xmlns="http://www.w3.org/2000/svg" xmlns:xlink="http://www.w3.org/1999/xlink" x="0px" y="0px"
	 width="2000px" height="2000px" viewBox="0 0 2000 2000" enable-background="new 0 0 2000 2000" xml:space="preserve">
<g>
	<path fill="#3399FF" d="M131.173,588.414l714.283,593.117c25.708,23.9,104.271,84.503,165.004,84.629
		c61.501-0.126,139.354-60.602,161.771-81.855l639.598-531.19l-2.196-0.32c120.683-90.838,168.429-174.435,187.099-230.967v-25.389
		c0-109.639-88.829-198.469-198.467-198.469H210.508c-109.021,0-197.338,87.991-198.342,196.819
		C21.372,437.979,48.895,507.719,131.173,588.414z"/>
	<path fill="#3399FF" d="M1261.388,1283.992c-9.63,9.304-125.724,115.581-250.734,115.708c0,0-0.066,0-0.132,0c0,0,0,0-0.062,0l0,0
		c-0.067,0-0.067,0-0.133,0c-124.944-0.127-241.11-106.404-253.902-118.548L12.039,663.323v923.929
		c0,109.638,88.832,198.47,198.469,198.47h1587.754c109.639,0,198.469-88.832,198.469-198.47V673.438L1261.388,1283.992z"/>
</g>
</svg>
