<?xml version="1.0" encoding="utf-8"?>
<!-- Generator: Adobe Illustrator 16.0.0, SVG Export Plug-In . SVG Version: 6.00 Build 0)  -->
<!DOCTYPE svg PUBLIC "-//W3C//DTD SVG 1.1//EN" "http://www.w3.org/Graphics/SVG/1.1/DTD/svg11.dtd">
<svg version="1.1" id="Layer_1" xmlns="http://www.w3.org/2000/svg" xmlns:xlink="http://www.w3.org/1999/xlink" x="0px" y="0px"
	 width="561.056px" height="498.05px" viewBox="0 0 561.056 498.05" enable-background="new 0 0 561.056 498.05"
	 xml:space="preserve">
<g>
	<path fill="#7E1D79" d="M145.382,218.815c0.063,0.297,0.139,0.579,0.225,0.874c0.083,0.281,0.158,0.574,0.228,0.866
		c0.1-0.271,0.201-0.542,0.291-0.792c0.087-0.256,0.187-0.514,0.29-0.793c1.783-3.477,3.543-6.932,5.278-10.382
		c1.149-2.28,2.329-4.592,3.503-6.89c-1.38,0.47-2.77,0.952-4.147,1.462c-3.401,1.256-6.719,2.59-9.978,3.994L145.382,218.815z"/>
	<path fill="#7E1D79" d="M153.119,239.777c3.921-1.733,7.973-3.37,12.134-4.912c1.735-0.641,3.462-1.212,5.198-1.803
		c-3.106-1.839-6.204-3.676-9.275-5.504c-3.723-2.231-7.469-4.447-11.233-6.678c-0.385,0.75-0.749,1.464-1.104,2.171
		c-0.347,0.709-0.719,1.427-1.1,2.16L153.119,239.777z"/>
</g>
<g>
	<path fill="#7E1D79" d="M366.117,229.935c-0.525-3.838-1.069-7.664-1.608-11.471c-0.553-3.811-1.085-7.644-1.615-11.481
		l-0.129-1.704c-0.108,0.272-0.22,0.527-0.338,0.788c-0.124,0.25-0.233,0.512-0.344,0.774l-11.35,20.657
		c5.126,2.305,10.292,4.866,15.449,7.701c3.586,1.971,7.025,4.021,10.389,6.126l11.189-20.381c0.171-0.222,0.329-0.468,0.477-0.702
		c0.157-0.249,0.319-0.481,0.479-0.705c-3.66,1.939-7.4,3.728-11.216,5.364C373.687,226.535,369.891,228.215,366.117,229.935z"/>
	<path fill="#7E1D79" d="M367.247,208.192c0.735,5.189,1.48,10.397,2.236,15.618c4.81-2.17,9.6-4.329,14.371-6.489
		c3.711-1.687,7.455-3.377,11.188-5.058c-4.551-2.992-9.289-5.874-14.23-8.584c-5.081-2.784-10.193-5.313-15.297-7.591
		C366.094,200.126,366.679,204.174,367.247,208.192z"/>
</g>
<g>
	<path fill="#7E1D79" d="M263.495,233.139c-2.769,4.301-5.439,7.842-7.914,10.74C258.852,240.241,261.502,236.641,263.495,233.139z"
		/>
	<path fill="#7E1D79" d="M246.863,194.873c-23.646-6.288-54.515-4.974-86.293,5.046c-1.13,2.233-2.262,4.479-3.394,6.673
		c-1.762,3.425-3.524,6.904-5.289,10.412c4.339,2.57,8.648,5.116,12.93,7.624c3.713,2.188,7.463,4.396,11.222,6.616
		c20.285-6.295,39.667-8.963,55.773-8.236C233.419,209.283,241.454,199.811,246.863,194.873z"/>
	<path fill="#7E1D79" d="M255.582,243.879c-2.628,2.904-5.653,5.82-9.032,8.75C249.04,250.715,252.125,247.91,255.582,243.879z"/>
</g>
<g>
	<path fill="#7E1D79" d="M266.716,218.994L266.716,218.994C266.639,218.825,266.786,219.17,266.716,218.994
		c15.624-9.926,46.729-7.326,80.065,6.794l16.778-30.555c-23.047-10-45.97-14.843-65.862-14.573
		c-11.949-0.363-22.262,1.383-30.109,5.251c-11.224,4.317-20.018,11.25-25.27,20.817c-7.122,12.965-6.668,28.839-0.117,45.28
		C249.138,246.327,261.031,234.423,266.716,218.994z"/>
	<path fill="#7E1D79" d="M396.799,213.428l-16.586,30.186c30.965,20.225,51.269,45.284,52.881,64.415
		c-21.18,4.887-58.204-3.91-95.621-24.459c-17.456-9.587-32.682-20.477-44.724-31.438c-2.49,10.91-9.115,24.262-23.226,39.8
		c12.074,12.266,27.127,23.732,44.541,33.292c58.051,31.881,120.059,30.526,138.486-3.04
		C469.218,291.837,444.57,245.582,396.799,213.428z"/>
	<path fill="#7E1D79" d="M396.799,213.428l-16.586,30.186c30.965,20.225,51.269,45.284,52.881,64.415
		c-21.18,4.887-58.204-3.91-95.621-24.459c-17.456-9.587-32.682-20.477-44.724-31.438c-2.49,10.91-9.115,24.262-23.226,39.8
		c12.074,12.266,27.127,23.732,44.541,33.292c58.051,31.881,120.059,30.526,138.486-3.04
		C469.218,291.837,444.57,245.582,396.799,213.428z"/>
</g>
<path fill="#7E1D79" d="M287.562,226.662c-1.411-3.829-3.404-7.347-5.848-10.594c-2.784,0.493-6.677,1.427-10.379,3.153
	c-2.659,5.351-5.288,9.963-7.839,13.919c-1.993,3.501-4.643,7.102-7.914,10.74c-3.456,4.031-6.542,6.836-9.032,8.75
	c-15.131,13.107-37.379,25.944-63.591,35.621c-38.121,14.082-74.314,17.667-95.144,11.101c2.842-18.916,26.63-41.557,60.935-57.596
	l-12.054-32.666c-24.161,11.04-44.063,25.806-57.525,41.737c-8.091,8.792-13.543,17.713-15.766,26.18
	c-4.099,11.31-4.631,22.491-0.85,32.727c13.261,35.925,74.377,46.451,136.515,23.513
	C261.205,310.302,300.826,262.591,287.562,226.662z"/>
<g>
	<g>
		<path fill="#7E1D79" d="M415.855,126.851c-66.334-52.398-126.857-12.918-149.617,15.244l-2.941,3.419l-2.967-3.451
			c-22.763-28.162-83.281-67.636-149.616-15.24c-20.666,16.943-52.785,63.064-33.434,120.79
			c6.815-7.921,15.002-15.386,24.333-22.214c-8.073-43.84,25.164-72.313,26.528-73.459c60.823-48.032,108.273,8.335,110.533,11.086
			l19.165,22.242c2.461-1.357,5.064-2.602,7.857-3.686c2.768-1.348,5.816-2.432,9.081-3.303l13.119-15.228
			c2.259-2.746,49.708-59.119,110.531-11.085c1.403,1.185,36.518,31.25,25.753,77.211c8.898,8.368,16.39,17.143,22.324,26.022
			C471.469,193.96,437.416,144.524,415.855,126.851z"/>
	</g>
	<path fill="#7E1D79" d="M263.298,392.93v-0.011c-30.438-16.137-55.642-34.161-76.328-51.973c-12.52,3.7-25.105,6.165-37.333,7.271
		c27.669,26.85,64.834,55.375,113.631,79.378v0.046c47.025-23.13,83.246-50.458,110.58-76.441
		c-11.512-1.816-23.36-4.991-35.163-9.439C318.177,359.31,293.275,377.034,263.298,392.93z"/>
</g>
<g>
	<path fill="#7E1D79" d="M555.621,110.86c-0.528-0.878-1.455-1.51-2.626-1.669l-37.084-4.958c-0.148-0.543-0.346-1.092-0.657-1.606
		c-0.193-0.318-0.419-0.606-0.662-0.878l13.329-36.182c0.408-1.102,0.281-2.217-0.244-3.098c-0.461-0.756-1.225-1.339-2.208-1.582
		c-2.112-0.517-4.44,0.733-5.211,2.803l-13.424,36.456c-0.038,0.092-0.017,0.182-0.042,0.274c-0.051,0.028-0.102,0.04-0.152,0.072
		l-17.835,10.753l10.463-28.399c0.406-1.107,0.281-2.22-0.252-3.103c-0.458-0.761-1.216-1.342-2.198-1.577
		c-2.118-0.528-4.446,0.728-5.207,2.798l-13.436,36.457c-0.027,0.089-0.008,0.168-0.034,0.25l-41.358,24.933
		c2.583,3.527,5.108,7.621,6.824,10.539l40.175-24.221c0.05,0.005,0.088,0.039,0.138,0.044l38.509,5.154
		c2.186,0.284,4.385-1.187,4.911-3.298c0.247-0.985,0.085-1.93-0.371-2.692c-0.528-0.874-1.459-1.506-2.628-1.665l-29.863-3.987
		l17.961-10.827c0.051,0.002,0.082,0.041,0.138,0.046l38.508,5.147c2.187,0.291,4.381-1.187,4.907-3.298
		C556.241,112.563,556.08,111.619,555.621,110.86z"/>
	<path fill="#7E1D79" d="M120.989,347.636c-7.676-0.726-14.168-1.988-19.044-3.171l-51.786,31.22
		c0.288-10.463-2.856-24.527-2.856-24.527c-0.982,18.716-30.575,48.626-38.068,55.914l-1.032,0.998l0.854-0.284
		c9.945-3.22,50.21-15.429,67.217-7.554c0,0-10.559-8.985-19.824-13.688L120.989,347.636z"/>
</g>
</svg>
