<?xml version="1.0" encoding="utf-8"?>
<!-- Generator: Adobe Illustrator 16.0.0, SVG Export Plug-In . SVG Version: 6.00 Build 0)  -->
<!DOCTYPE svg PUBLIC "-//W3C//DTD SVG 1.1//EN" "http://www.w3.org/Graphics/SVG/1.1/DTD/svg11.dtd">
<svg version="1.1" id="layer1" xmlns="http://www.w3.org/2000/svg" xmlns:xlink="http://www.w3.org/1999/xlink" x="0px" y="0px"
	 width="2000px" height="2000px" viewBox="0 0 2000 2000" enable-background="new 0 0 2000 2000" xml:space="preserve">
<path fill="#BC8F65" d="M979.892,1654.987l29.317,38.126l152.53,2.945c0,0,184.806-351.981,187.737-636.52
	c0,0,35.194-202.401-82.142-551.451l-13.18-7.375c0,0,112.604,328.893-42.55,778.812
	C1123.613,1534.72,979.892,1654.987,979.892,1654.987z"/>
<path fill="#BC8F65" d="M988.688,1669.659l-8.796-14.672c0,0-266.94-211.178-331.466-557.321c0,0,5.857,381.273,214.124,589.559
	c208.266,208.285-2.932,8.834-2.932,8.834L988.688,1669.659z"/>
<g opacity="0.5">
	<path fill="#6D5949" d="M860.858,1542.513c-22.483,25.974-53.151,42.073-77.12,51.435l21.461,29.601
		c25.955-10.955,56.733-28.521,80.817-55.575C877.337,1559.691,868.934,1551.191,860.858,1542.513z"/>
	<path fill="#6D5949" d="M728.375,1461.991c3.799,11.843,7.593,23.325,11.334,34.358c21.442-3.047,44.685-9.387,66.698-20.651
		c-7.104-9.875-13.907-19.802-20.349-29.703C766.996,1454.983,746.789,1459.805,728.375,1461.991z"/>
	<path fill="#6D5949" d="M684.051,1351.856c3.208,11.2,6.532,22.67,9.953,34.281c15.759-3.407,32.018-8.705,47.693-16.497
		c-5.678-10.969-10.956-21.654-15.791-31.902C712.283,1344.514,697.952,1348.988,684.051,1351.856z"/>
	<path fill="#6D5949" d="M656.611,1233.736c2.315,8.692,5.606,20.96,9.644,35.812c9.702-0.181,19.609-1.08,29.562-2.881
		c-5.6-14.915-9.58-26.681-12.042-34.333C674.633,1233.569,665.509,1234.007,656.611,1233.736z"/>
</g>
<g opacity="0.5">
	<path fill="#6D5949" d="M1182.287,1644.431c12.525-21.731,23.969-43.591,34.385-65.489
		c-53.725-4.424-100.838-48.465-120.023-68.885l-40.954,58.752C1081.501,1594.102,1126.622,1630.801,1182.287,1644.431z"/>
	<path fill="#6D5949" d="M1145.897,1424.495c27.492,20.946,66.582,46.562,109.787,61.902c8.256-22.194,15.855-44.337,22.992-66.403
		c-39.245-13.874-76.266-40.17-99.462-58.803l-4.257,10.737L1145.897,1424.495z"/>
	<path fill="#6D5949" d="M1201.036,1306.17c27.093,13.861,64.46,30.089,101.12,36.467c4.81-17.205,9.259-34.333,13.373-51.332
		c-30.398-4.526-67.585-20.034-97.211-35.67l-6.713,23.891L1201.036,1306.17z"/>
	<path fill="#6D5949" d="M1332.863,1209.678c3.214-17.526,6.197-34.938,8.718-52.104c-27.968-5.761-60.024-19.275-86.462-33.034
		l-14.556,51.885C1266.075,1189.116,1299.559,1203.223,1332.863,1209.678z"/>
	<path fill="#6D5949" d="M1268.325,1043.916c21.771,8.423,52.065,18.555,83.479,23.956c1.49-18.105,2.609-35.889,3.367-53.363
		c-27.414-5.362-56.307-14.942-79.157-24.419L1268.325,1043.916z"/>
	<path fill="#6D5949" d="M1356.228,940.371c-0.193-12.022-0.502-23.891-1.042-35.496c-23.453-3.247-48.168-10.319-69.36-17.693
		l-1.696,36.576C1305.73,930.811,1331.14,937.523,1356.228,940.371z"/>
	<path fill="#6D5949" d="M1349.399,833.6c-1.39-12.094-2.932-23.911-4.655-35.42c-19.159-1.067-38.164-3.677-54.494-6.616
		l-1.646,35.439C1306.117,830.019,1327.41,832.815,1349.399,833.6z"/>
	<path fill="#6D5949" d="M1331.681,726.956c-2.778-12.667-5.633-24.76-8.539-36.159c-13.386-1.479-26.192-3.531-37.496-5.665
		l1.98,36.088C1300.601,723.484,1315.684,725.651,1331.681,726.956z"/>
</g>
<path fill="#FFE2BB" d="M478.293,1962.953c0,0,90.924-240.522,384.257-275.729c293.326-35.195,712.803,164.258,786.123,261.057
	L478.293,1962.953z"/>
<path fill="#D8B182" d="M1323.09,1775.229c0,0,178.93,93.869,52.799,114.392c-48.992,7.985-245.885,14.53-395.997,11.753
	c-316.8-5.877-293.34,46.922-469.336,14.66c-43.572-8-29.33,55.729-29.33,55.729l1182.107-20.535
	C1663.332,1951.227,1493.211,1789.888,1323.09,1775.229z"/>
<path fill="#66AF51" d="M842.021,1275.103l-8.802-53.903l-43.996-67.097l-59.4-49.506l50.599,15.405l54.997,37.393l-1.1-26.387
	l-8.795-29.703l81.396,40.697l44.002,34.102l42.897,40.698l27.299,41.739c3.6-1.35,5.709-2.135,5.709-2.135l5.49-115.496
	l-59.394-80.316l-69.302-39.592l-130.35,7.149l-85.233,29.819c50.843-24.315,31.015-14.89-0.727,0.258l-36.686,12.832l11-33.549
	l66.544-67.655l56.648-35.74l82.887-32.263l-15.417-9.541l-36.667-5.877l37.4-45.462l66.73-40.338l75.544-31.575l-77.011-8.023
	l-90.937,16.137l-109.994,68.929l-63.798,82.861c0,0-14.395-29.272-39.604-51.332c-25.75-22.548-62.327-37.934-62.327-39.599
	c0-1.999-104.869-42.53-200.93-50.599c-75.069-6.308-135.666-4.41-135.666-4.397l-54.25,13.122l66.724,9.611l72.594,19.063
	l132.001,55.736l65.257,44.003l-26.399-7.343l-27.858-2.925H391.76l-60.121,9.47l87.985,17.656l85.799,37.772l76.999,56.096
	l11.104,18.684l1.595,4.192c-114.829-44.363-234.89-22.876-234.89-22.876c-149.598,57.209-164.99,256.66-164.99,256.66
	c67.457-142.95,143.728-159.859,143.728-159.859c-68.942,50.649-41.797,151.797-41.797,151.797
	c18.337-138.591,68.196-151.797,68.196-151.797l-19.809,60.166c75.269-123.508,226.134-107.113,262.035-101.211l0.309,0.81
	l7.522,0.811c-3.233,1.529-6.205,2.944-9.618,4.59c-249.408,119.148-211.05,344.755-211.05,344.755
	c-0.669-13.477,88.667-176.82,88.667-176.82l17.604,75.893l147.398-243.428l-2.166-1.698l8.763,0.938l93.501,131.995
	c0,0,14.299-60.5,24.194-41.804c17.79,33.612,46.433,73.758,56.713,127.636L842.021,1275.103z"/>
<path fill="#66AF51" d="M1114.817,612.912c0,0-85.767,37.721-145.727,102.458c0,0,17.025-61.76,29.125-66.158
	c0,0-108.778,7.182-222.133,133.39c0,0,48.342-235.694,399.237-267.59v-7.702l-161.698-36.3l-72.6,3.305l1.093-45.103
	c0,0-64.891,33.002-64.891,44.003c0,0-222.198-42.903-232.1-42.903c0,0,212.297-128.696,448.801-15.398l128.69,59.401
	l-1.107-124.299l47.308-139.697l76.998-106.701l93.496-83.595c0,0-76.663,106.56-88.931,271.621l-57.363,26.47l73.693,25.299
	l-29.703,30.803l-27.492,69.295c0,0,190.296-130.896,340.986-9.901c0,0,138.605,118.801,187.005,292.599l-112.191-63.798
	l-78.104-23.101l-85.793-135.3l-14.3-1.099l-46.214,60.5l-16.484-59.402l-40.711,46.202c0,0-125.398-34.101-135.299-25.3
	l12.112,14.299c0,0,160.593,78.098,188.098,130.896c0,0,60.487,138.598,19.802,222.198c0,0-20.908-52.798-29.703-59.401
	c-8.809-6.596,0,0,0,0l-93.509-86.898l8.796-49.499l-38.5,9.901l-43.989-59.401l-56.103-106.695l-14.299,5.497l3.305,13.2
	c0,0-60.5,221.098-75.905,234.298l-35.193-42.896l-42.91,51.698l-30.243,53.351l-15.945,53.345l-13.192,67.842l-23.107-48.773
	l-2.198-85.067l37.393-117.695l56.103-113.298"/>
<g>
	<path d="M195.241,1291.961c0,0,75.525-133.461,143.728-159.859C338.969,1132.102,235.205,1166.922,195.241,1291.961z"/>
	<path d="M338.969,1132.102c-82.502,54.996-41.797,151.797-41.797,151.797C279.568,1187.098,338.969,1132.102,338.969,1132.102z"/>
	<path d="M297.171,1283.898c0,0,25.3-130.901,68.196-151.797C365.368,1132.102,312.57,1143.096,297.171,1283.898z"/>
	<path d="M498.841,925.957c0,0-63.811-32.963-167.201-2.18C331.64,923.777,419.644,906.161,498.841,925.957z"/>
	<path d="M498.841,925.957C358.045,805.696,160.78,796.161,160.78,796.161C347.777,818.162,498.841,925.957,498.841,925.957z"/>
	<path d="M800.969,889.252c0,0,47.899,3.343,66.737,12.602c0.926,0.457,2.559,1.408,2.559,1.408s-15.829-16.955-48.207-20.639
		c0,0,51.216-68.588,173.239-113.562C995.296,769.061,859.721,807.406,800.969,889.252z"/>
	<path d="M1481.239,510.248c2.302-3.665,8.448,55.742,10.764,58.674c2.288,2.925,9.978,3.664,14.581-2.206
		c4.604-5.87,48.4-54.997,48.4-54.997s6.918-4.398,16.138,13.199c9.206,17.598,71.43,109.268,71.43,114.398
		c0,5.13,183.598,68.202,199.722,96.8c0,0-9.979-53.537-25.344-85.066c-7.1-23.191-19.635-52.554-37.638-79.229
		c-37.65-55.73-83.749-112.926-101.404-128.323c-17.668-15.405-99.86-76.291-205.097-71.16
		c-53.98,2.629-110.881,32.011-155.191,63.284c4.282-12.235,16.703-47.533,19.43-52.972c3.292-6.596,16.484-21.995,29.69-31.895
		c13.206-9.901-3.305-14.299-3.305-14.299c-8.795-2.206-58.302-20.901-58.302-20.901l45.16-23.647
		c-0.013,0.187-0.039,0.36-0.051,0.546c0,0,0.038-0.237,0.103-0.585l1.003-0.514c0,0-0.386,0.123-0.951,0.29
		c2.815-14.434,45.545-229.901,94.434-277.484c0,0-77.872,70.852-94.511,277.51c-7.896,2.488-62.776,19.88-62.776,24.984
		c0,5.497,72.6,29.698,72.6,29.698s-16.51,11-24.2,19.802c-7.148,8.166-37.007,76.876-41.25,86.726
		c-23.235,18.479-41.147,36.024-50.252,47.411c-30.72-41.669-15.199-139.633-15.199-139.633
		c24.2-184.799,215.589-346.497,215.589-346.497c-53.891,43.996-200.184,150.697-228.781,303.594
		c-12.576,67.167-10.056,114.783-3.293,147.091c-94.369-54.849-225.516-93.2-225.516-93.2
		c-227.329-38.132-357.851,64.531-357.851,64.531c68.942,0,253.728,43.997,253.728,43.997c0-7.639,34.893-34.745,52.766-48.124
		c-0.128,9.566-0.926,39.521-5.837,48.124c0,0,64.538-4.392,80.675-1.459c16.125,2.931,74.786,16.124,82.115,19.063
		c3.936,1.568,39.824,6.931,74.799,12.923c-122.787,14.196-214.29,57.974-214.29,57.974
		c-164.508,88.429-177.244,213.931-177.244,213.931c34.056-127.713,183.082-197.818,183.082-197.818
		c137.485-61.336,235.058-67.547,270.265-67.451c-25.897,10.603-70.209,34.872-108.502,83.858
		c-48.066,25.061-108.373,63.265-151.835,114.178c0,0,36.416-40.234,136.238-91.933c-2.354,3.658-4.744,7.227-7.008,11.11
		c-58.302,100.099-78.104,191.402-78.104,252.996c0,61.599,30.81,89.104,30.81,89.104c-74.8-148.499,83.606-368.499,109.993-395.997
		c16.896-17.591,48.58-35.593,69.256-46.311c4.115,1.408,8.848-6.487,19.854,8.911c11.778,16.51,6.584,44.002,4.397,54.996
		c-0.296,1.479-0.051,1.363,0.566,0.193c-26.412,72.33-72.073,182.407-72.073,182.407l-27.505-41.797
		c-111.1,85.793-105.596,233.193-105.596,233.193l1.106,4.404c0-9.901,25.306-92.403,25.306-92.403
		c19.365-68.286,63.394-113.985,77.126-126.979c7.034,10.364,32.867,54.379,32.867,54.379
		c30.334-35.535,66.711-182.715,80.829-243.685c0.734-1.954,1.44-3.857,2.161-5.786
		c89.522,649.512-216.784,1002.869-248.353,1045.895c-32.275,44.002-49.867,26.412-49.867,26.412l0.052,0.154
		c-60.757-52.181-262.562-243.185-318.979-520.521c0.99-2.893,3.394-3.935,6.024-4.141c22.361,27.981,81.897,110.084,81.897,110.084
		l8.441,16.588l14.826-45.841c11.772,6.441,34.925,40.079,48.599,72.522c10.615,25.139,14.318,49.57,15.174,56.115
		c0.231,1.813,0.231,1.813,0.231,1.813s30.07-40.338,11-99.745c0,0-20.535-60.128-70.401-91.67c0,0-9.644-6.442-23.84-14.273
		l3.311-0.321c57.935,13.939,90.93,48.4,90.93,48.4c4.398-7.329-5.13-54.264-5.13-54.264c9.535,4.397,54.258,28.598,82.129,43.257
		c27.858,14.672,65.997,60.859,73.327,66.003c7.329,5.131,35.939,45.456,35.939,45.456c11.74-12.473,15.212-104.13,7.883-129.796
		c-6.211-21.731-28.02-50.175-35.593-57.774c-43.437-39.592-65.065-67.623-162.958-65.978
		c-91.573,1.543-169.638,44.466-179.346,49.994c1.6-5.014,3.349-11.135,5.021-18.144c15.231-15.559,84.341-85.304,109.074-95.071
		c10.763-4.249,32.777-16.286,49.86-24.2c27.138-12.576,49.146-21.281,49.139-21.274c0,0-76.863,19.474-111.465,42.549
		c-32.365,21.577-60.545,45.379-92.743,78.104c3.523-23.082,4.256-51.261-3.388-79.441
		c12.151-23.307,81.299-145.291,210.529-171.799c0,0,72.581-9.535,124.658-2.206c0,0-110-37.4-224.397,33.002
		c-94.544,58.179-112.424,103.256-118.687,118.833c-14.954-33.182-44.092-64.455-97.642-85.138c0,0-53.524-27.138-119.528-37.399
		c-65.997-10.26-88.004-16.131-95.334-16.131c-7.329,0-130.528-12.466-178.928,13.933c0,0,167.208-37.393,366.666,38.139
		c188.798,71.495,124.685,221.099,117.291,236.89c-8.346-3.06-21.635-7.779-38.178-13.09
		c-10.184-14.506-85.555-112.598-274.918-134.323c0,0,169.362,26.508,261.887,130.208c-34.314-10.543-78.869-22.426-122.563-28.572
		c-37.965-5.361-78.785-4.68-105.596,2.187c-105.814,27.106-178.556,199.824-170.127,264.362c0,0-0.013-80.715,45.461-136.444
		c0,0,72.594-125.706,164.264-123.521c0,0,28.566-1.492,69.303,3.305c45.224,5.336,105.345,17.604,157.956,36.892
		c0.373,1.081,0.161,2.443-1.486,4.089c-2.854,2.855-13.958,9.566-22.836,15.585c-22.021-4.886-175.283-33.689-256.834,88.635
		l14.299-48.399c0,0-28.597,44.002-23.1,72.6c0,0,54.63-120.936,251.606-103.538c-256.39,119.213-199.297,349.667-199.297,349.667
		c-13.983-213.057,136.65-315.938,211.23-353.563c10.158-4.012,24.938-8.692,25.479-2.005c0.077,0.989,0.257,1.594,0.373,2.442
		c-17.263,29.446-49.3,83.993-62.494,105.981c-22.007,25.473-45.487,60.938-66.344,117.298l-11.824-68.46
		c0,0-17.327-13.554-96.24,189.498c0,0,71.249-150.383,89.021-158.844l11.688,75.057c0,0,38.3-65.104,77.558-128.034l55.138-84.623
		c0.386-0.553,0.823-1.195,1.202-1.736c-0.084,0.103-0.187,0.206-0.276,0.283l16.69-25.949
		c4.648,336.692,155.391,516.882,187.338,551.163c-20.317,3.935-40.594,8.872-60.757,14.954c0,0-112.199,37.394-189.197,109.994
		c0,0-74.799,59.405-118.795,138.604c0,0-28.598,39.593-15.398,41.804l1081.469-11.728c5.863,0.206,134.438,4.27,137.317-1.479
		c0,0,19.057-5.875-2.931-22c-17.85-13.078-78.066-62.752-100.234-81.112c-1.351-1.145-2.765-2.303-4.205-3.485
		c-2.585-2.146-4.089-3.406-4.089-3.406l-0.025,0.102c-9.567-7.612-20.677-15.752-33.716-24.303
		c-36.57-23.943-170.018-99.848-338.93-141.729c58.598-117.168,287.02-627.015,99.308-1117.813
		c14.222,25.697,29.845,57.556,34.693,70.112c8.062,20.896,49.544,71.494,52.99,72.593c3.472,1.101,34.577-4.396,34.577-4.396
		l-6.919,37.399c0,0,11.522,17.597,51.859,45.102c31.118,21.223,57.376,65.264,67.767,84.309c2.082,6.615,7.123,23.325,7.123,31.188
		c0,0,17.281-19.803,21.898-61.6c4.604-41.797-8.063-119.9-14.98-134.2c-6.918-14.299-23.043-67.097-70.286-94.595
		c-43.359-25.235-107.961-69.816-140.571-81.261c31.723,2.893,104.773,11.208,123.289,27.73
		C1444.373,560.12,1478.938,513.919,1481.239,510.248z M1207.877,507.297c-35.734-8.615-97.059-23.075-122.39-27.125
		c-36.66-5.857-80.662-19.058-80.662-19.058l-58.662,2.926v-39.599c-16.125,0-73.333,41.071-73.333,41.071
		c-30.803-14.66-206.8-33.741-206.8-33.741c222.604-127.199,464.926-1.93,551.798,52.373c2.933,9.246,6.057,16.729,8.95,22.426
		C1220.427,506.725,1214.126,506.95,1207.877,507.297z M849.356,1025.952c74.522,4.462,116.095,40.068,129.121,53.339l-0.052,0.013
		c5.864,5.13,32.995,43.989,43.257,66.004c10.262,21.987,0,108.526,0,108.526s-5.863-7.328-13.193-19.802
		c-4.063-6.905-15.122-23.095-31.529-39.592c-13.167-13.258-25.95-25.268-35.748-35.387
		c-22.007-22.735-100.651-56.284-105.055-57.749c-4.398-1.466-20.529-11.007-14.666,1.465c5.857,12.474,11,49.867,11,49.867
		c-30.726-42.717-123.18-57.453-139.517-59.754c-7.908-2.47-15.771-4.334-23.19-5.119
		C704.67,1056.942,777.257,1021.632,849.356,1025.952z M672.633,1091.712c16.858,0.732,155.469,42.536,162.798,192.136
		c0,0-1.473,24.02-8.012,35.078c4.032-60.668-60.191-142.141-60.191-142.141l-20.896,38.589
		c-10.975-21.718-55.935-78.721-79.332-105.352c-0.791-2.417-2.083-7.085-1.89-11.752
		C665.387,1091.687,672.633,1091.712,672.633,1091.712z M648.271,1114.305l1.473-2.302c0.854,5.427,1.646,9.477,1.838,7.69
		c17.868,100.554,84.668,358.178,316.582,537.107c-26.811,0.359-81.897,4.204-108.907,7.688
		C699.089,1521.205,657.948,1219.424,648.271,1114.305z M1552.053,1886.817l-0.168,1.337c0,0,76.266,42.524,76.266,58.661
		c0,16.138-66.004,8.796-79.21,8.796l-0.334,0.128c-186.182-8.898-529.007-25.048-567.249-25.048
		c-52.798,0-145.2,13.192-184.799,13.192c-39.598,0-277.195,13.205-285.997-13.192c-8.795-26.413,237.597-250.797,466.399-215.603
		C976.96,1715.089,1292.795,1729.889,1552.053,1886.817z M1156.262,1678.789c-35.516-7.227-116.513-16.717-153.996-19.803
		c369.662-438.842,297.962-960.211,269.262-1102.769c0.643-1.73,1.299-3.504,1.877-5.098c2.957,4.912,6.172,10.569,9.438,16.453
		C1332.323,705.861,1450.648,1128.668,1156.262,1678.789z M1406.338,588.352c44.94,30.796,95.643,65.998,116.384,129.796
		s21.898,127.597,8.063,161.698l-7.689-12.485c-24.561-54.618-110.199-120.956-114.442-125.014l10.363-51.697l-46.085,9.901
		c0,0-14.968-20.902-19.597-28.604c-5.259-8.809-25.345-41.798-43.771-74.799c-8.563-15.308-12.55-30.237-24.315-42.003
		c-0.63-1.074-5.928-10.794,9.323-10.794C1310.707,544.349,1361.41,557.548,1406.338,588.352z M1258.476,510.981
		c0,0,8.448-19.07,26.116-28.598c17.667-9.535,154.394-99.758,238.889-86.559c84.508,13.2,159.795,63.798,204.352,132.001
		c0,0,51.229,70.685,79.953,123.598c13.76,30.064,21.437,59.787,21.437,62.327c0,2.939-68.756-54.263-177.051-80.663
		c0,0-77.204-119.907-81.049-127.236c-3.845-7.33-12.306-13.2-24.599-6.597c-12.28,6.597-43,51.325-44.543,53.524
		c-1.543,2.205-3.845-18.331-3.845-18.331s-6.133-38.865-9.979-41.064c-3.845-2.205-19.211,13.207-21.512,16.138
		c-2.303,2.932-21.501,31.536-23.814,32.996C1440.516,543.982,1327.604,512.44,1258.476,510.981z"/>
	<path d="M996.556,656.908l7.676-13.328c-131.139,12.865-228.151,139.022-228.151,139.022l49.01-44.028
		c71.211-59.723,136.386-75.976,160.972-80.213c-8.358,18.838-16.974,57.009-16.974,57.009c5.889-19.018,18.902-43.552,27.363-58.45
		L996.556,656.908z"/>
</g>
<path fill="#6D5949" d="M1279.859,634.829c8.886,1.376,18.465,2.649,28.495,3.601c-4.41-14.196-8.59-26.592-12.229-36.763
	c-6.675-0.875-13.052-1.877-19.186-2.925L1279.859,634.829z"/>
<path fill="#B1FF5F" d="M633.021,1017.697c0,0-0.038-1.787-0.521-5.066c-0.321-3.266-1.459-8.05-2.861-13.978
	c-1.42-5.973-3.851-12.987-7.136-20.792c-3.735-7.586-7.593-16.292-13.431-24.849c-5.067-9.027-12.641-17.392-20.002-26.541
	c-8.725-8.049-16.884-17.423-27.389-25.022c-5.098-3.954-10.056-8.204-15.443-12.068c-5.619-3.561-11.31-7.162-17.044-10.807
	c-11.001-7.96-24.027-13.174-36.172-19.739c-12.106-6.718-25.512-10.949-38.017-16.485c-12.479-5.651-25.704-8.961-38.042-13.347
	c-6.224-2.083-12.338-4.141-18.331-6.152c-6.107-1.666-12.081-3.292-17.899-4.881c-11.682-3.124-22.721-6.088-32.925-8.827
	c-10.223-2.668-19.795-4.263-28.16-6.339c-8.423-1.89-15.758-3.53-21.809-4.88c-12.1-2.778-19.011-4.616-19.011-4.616
	s7.091,0.282,19.48,1.221c6.205,0.496,13.746,1.106,22.387,1.807c8.628,0.843,18.503,1.081,28.997,3.08
	c10.538,1.883,21.949,3.921,34.024,6.069c6.049,1.106,12.26,2.244,18.6,3.401c6.231,1.723,12.602,3.484,19.07,5.272
	c12.813,4.057,26.637,6.454,39.618,12.293c13.058,5.536,26.914,9.701,39.701,16.555c12.653,7.054,26.033,12.692,37.619,21.25
	c5.909,4.024,11.778,8.01,17.571,11.951c5.529,4.328,10.647,9.085,15.855,13.502c10.846,8.352,18.735,19.352,27.113,28.552
	c7.084,10.422,14.195,19.873,18.792,29.884c5.53,9.419,8.313,19.224,11,27.563c2.27,8.557,3.729,16.06,4.34,22.341
	C634.237,1010.612,633.021,1017.697,633.021,1017.697z"/>
<path fill="#B1FF5F" d="M540.625,1057.303c0,0-6.102-0.463-16.697-0.593c-10.563-0.476-25.698,0.181-43.604,1.428
	c-8.956,0.836-18.626,1.633-28.739,3.254c-10.184,1.093-20.657,3.703-31.555,5.761c-10.808,2.443-21.776,5.837-32.829,9.219
	c-10.756,4.244-22.143,7.51-32.384,13.284l-15.855,7.56c-4.925,3.112-9.837,6.224-14.704,9.298
	c-10.075,5.722-18.729,13.051-27.324,19.97c-9.027,6.43-15.81,14.748-23.133,21.795c-7.51,6.931-13.225,14.685-18.633,21.809
	c-5.156,7.252-11.142,13.206-14.71,19.584c-3.807,6.275-7.117,11.752-9.85,16.253c-5.549,9.039-8.976,14.17-8.976,14.17
	s1.974-5.709,5.895-15.662c2.006-4.989,4.431-11.032,7.228-17.976c2.552-7.124,7.509-14.042,12.1-22.117
	c4.674-8.023,9.714-16.819,17.031-24.676c7.001-8.036,13.482-17.553,22.78-24.805c8.821-7.689,17.488-16.356,28.237-22.528
	c5.176-3.395,10.383-6.79,15.61-10.21l16.788-8.371c11.097-5.953,23.216-9.271,34.73-13.54c11.734-3.536,23.571-6.146,35.002-8.217
	c22.978-3.818,44.684-4.745,63.129-3.909C517.145,1049.715,540.625,1057.303,540.625,1057.303z"/>
<path fill="#B1FF5F" d="M677.024,951.707c0,0,1.542-5.092,5.497-13.495c4.16-8.249,9.901-20.369,19.037-33.497
	c4.288-6.783,9.669-13.579,15.321-20.832c5.979-6.943,12.1-14.543,19.327-21.519c14.061-14.356,30.655-28.161,48.503-40.131
	c8.679-6.365,18.465-10.981,27.537-16.402c9.129-5.323,19.05-8.776,28.122-13.044c9.162-4.122,18.677-6.469,27.344-9.433
	c8.615-3.195,17.302-4.423,25.094-6.133c7.85-1.479,14.903-3.369,21.441-3.607c6.443-0.553,12.062-1.035,16.691-1.427
	c9.232-0.727,14.479-0.881,14.479-0.881s-5.065,1.71-13.9,4.256c-4.397,1.234-9.747,2.732-15.886,4.462
	c-6.179,1.44-12.744,4.629-20.143,6.944c-7.291,2.732-15.379,4.989-23.422,8.782c-8.068,3.69-16.845,6.88-25.44,11.212
	c-8.506,4.514-17.521,8.687-26.22,13.766c-8.531,5.362-17.757,9.908-25.917,16.124c-8.525,5.665-17.031,11.362-24.771,17.823
	c-8.063,6.069-15.617,12.511-22.844,18.876c-14.337,12.852-27.066,25.672-37.354,37.315c-10.416,11.547-18.658,21.693-24.065,29.081
	C679.969,947.296,677.024,951.707,677.024,951.707z"/>
<path fill="#B1FF5F" d="M1147.813,540.312c0,0-5.478,1.414-14.788,4.423c-9.425,2.36-22.361,7.831-38.1,13.046
	c-7.689,3.111-16.049,6.48-24.869,10.049c-8.885,3.355-18.092,7.22-27.414,11.766c-9.413,4.314-19.109,8.763-28.984,13.29
	c-9.901,4.41-19.352,10.229-29.138,15.314c-9.772,5.098-19.545,10.203-29.176,15.231c-9.13,5.901-18.376,11.27-27.197,16.722
	c-8.93,5.292-17.564,10.403-25.755,15.263c-8.269,4.764-15.271,10.467-22.265,14.986c-13.669,9.51-25.602,16.864-33.748,22.323
	c-8.262,5.311-13.161,8.185-13.161,8.185s3.871-4.038,10.969-10.815c7.2-6.635,17.205-16.549,29.851-27.762
	c6.411-5.484,12.833-12.177,20.799-17.668c7.921-5.58,16.273-11.457,24.915-17.545c8.756-5.927,17.655-12.313,26.99-18.356
	c9.759-5.324,19.686-10.73,29.601-16.138c10.12-5.034,19.879-10.775,30.141-15.128c10.313-4.16,20.471-8.255,30.308-12.216
	c9.709-4.25,19.546-7.182,28.92-9.805c9.31-2.759,18.105-5.336,26.334-7.336c16.64-3.415,30.488-5.857,40.364-6.757
	C1142.193,540.183,1147.813,540.312,1147.813,540.312z"/>
<path fill="#B1FF5F" d="M1194.015,480.911c0,0-7.047-2.99-19.468-7.722c-12.345-4.95-30.347-11.027-51.872-18.124
	c-10.737-3.671-22.528-7.125-35.015-10.647c-12.435-3.722-25.859-6.494-39.438-10.338c-13.811-2.938-27.955-6.545-42.537-9.181
	c-14.542-2.758-29.278-5.748-44.22-7.465l-22.272-3.312c-7.445-0.693-14.864-1.395-22.226-2.076
	c-14.717-1.652-29.241-2.417-43.321-2.932c-14.093-0.913-27.711-0.816-40.659-0.74c-6.481,0.008-12.789,0.026-18.89,0.033
	c-6.076,0.43-11.953,0.848-17.591,1.247c-11.315,0.759-21.699,1.446-30.899,2.051c-9.162,1.189-17.147,2.217-23.731,3.06
	c-13.264,1.498-20.857,2.347-20.857,2.347s7.343-2.07,20.188-5.703c6.481-1.71,14.344-3.78,23.377-6.172
	c9.097-2.044,19.507-3.684,30.894-5.433c5.689-0.854,11.624-1.762,17.77-2.688c6.185-0.507,12.583-1.035,19.153-1.562
	c13.167-1.132,27.087-2.495,41.515-1.936c14.421,0.077,29.375-0.18,44.446,1.486c7.548,0.61,15.173,1.221,22.812,1.832l22.85,3.093
	c15.276,1.974,30.308,5.227,45.134,8.249c14.89,2.777,29.099,7.406,43.064,10.865c27.581,8.333,52.784,17.668,73.911,26.682
	c21.269,8.693,38.075,18.022,49.854,24.278C1187.714,476.564,1194.015,480.911,1194.015,480.911z"/>
<path fill="#B1FF5F" d="M1207.208,555.71c0,0-3.55,4.726-9.259,13.174c-6.197,8.036-13.438,20.805-23.133,35.168
	c-4.436,7.465-9.258,15.553-14.35,24.104c-5.285,8.403-10.467,17.488-15.521,27.093c-5.194,9.483-10.582,19.288-16.047,29.247
	c-5.491,9.934-10.056,20.574-15.174,30.912c-5.144,10.338-10.287,20.664-15.354,30.842c-4.242,10.551-8.897,20.734-13.141,30.701
	c-4.424,9.92-8.706,19.513-12.756,28.591c-4.141,9.078-6.918,18.086-10.235,26.142c-6.135,16.285-12.011,29.684-15.791,39.2
	c-3.935,9.458-6.43,14.819-6.43,14.819s0.978-5.754,3.138-15.765c2.341-9.953,5.169-24.366,9.49-41.45
	c2.289-8.5,4.012-17.976,7.483-27.447c3.407-9.502,7.008-19.513,10.725-29.877c3.908-10.307,7.677-21.082,11.984-31.826
	c4.988-10.466,10.056-21.088,15.096-31.715c5.427-10.461,10.262-21.192,16.048-31.24c6.031-9.901,11.971-19.648,17.719-29.081
	c5.504-9.566,11.728-18.253,17.836-26.341c5.953-8.191,11.648-15.854,17.114-22.772c11.482-13.463,21.281-24.374,28.727-31.549
	C1202.592,559.323,1207.208,555.71,1207.208,555.71z"/>
<path fill="#B1FF5F" d="M1328.209,485.315c0,0,21.371-17.327,58.75-35.046c18.685-8.725,41.38-17.36,66.737-23.358
	c12.717-2.733,25.962-5.517,39.708-6.539c13.694-1.273,27.762-1.556,41.804-0.578c14.041,0.964,27.979,3.51,41.43,6.962
	c13.489,3.408,26.207,8.667,38.075,14.453c11.816,5.929,22.554,12.892,32.107,20.189c4.643,3.838,9.336,7.335,13.477,11.142
	c4.013,3.973,7.869,7.799,11.572,11.477c6.944,7.722,13.219,14.922,17.951,21.865c4.655,7.008,9.182,12.705,12.023,18.022
	c6.005,10.402,9.168,16.408,9.168,16.408s-4.501-5.201-11.959-14.401c-3.497-4.771-8.795-9.728-14.26-15.804
	c-5.556-5.999-12.615-12.017-19.893-18.786c-7.715-6.385-16.189-12.988-25.666-19.205c-9.49-6.166-20.009-11.759-31.131-16.883
	c-5.581-2.508-11.509-4.495-17.346-6.795c-6.096-1.607-12.088-3.787-18.337-5.228c-12.473-2.996-25.409-5.144-38.486-5.876
	c-52.477-4.064-105.248,9.271-143.207,22.258c-19.005,6.681-34.821,12.814-45.572,17.815
	C1334.329,482.261,1328.209,485.315,1328.209,485.315z"/>
</svg>
