<?xml version="1.0" encoding="utf-8"?>
<!-- Generator: Adobe Illustrator 16.0.0, SVG Export Plug-In . SVG Version: 6.00 Build 0)  -->
<!DOCTYPE svg PUBLIC "-//W3C//DTD SVG 1.1//EN" "http://www.w3.org/Graphics/SVG/1.1/DTD/svg11.dtd">
<svg version="1.1" id="Ebene_1" xmlns="http://www.w3.org/2000/svg" xmlns:xlink="http://www.w3.org/1999/xlink" x="0px" y="0px"
	 width="2000px" height="2000px" viewBox="0 0 2000 2000" enable-background="new 0 0 2000 2000" xml:space="preserve">
<g id="Layer_2">
	<g>
		<path fill="#7F1D78" d="M69.83,1492.118l0.57-479.671c-3.014-210.765-18.292-370.471-45.89-478.981
			c15.444-20.309,34.72-30.672,57.808-30.993c37.356-0.535,71.473,6.415,102.392,20.852c30.926,14.41,56.156,33.777,75.671,57.965
			c40.53,50.6,61.249,108.74,62.17,174.341c0.941,65.617-14.189,125.397-45.356,179.43
			c-31.195,54.013-77.533,96.331-139.005,126.968l17.741,418.375c0.52,37.147-15.932,55.986-49.349,56.459
			c-12.268,0.162-21.445-4.389-27.461-13.727C73.085,1513.846,70.012,1503.504,69.83,1492.118z M133.577,997.111
			c75.741-64.939,113.002-141.357,111.748-229.25l-0.019-0.685c-0.713-50.272-8.077-85.381-22.131-105.292
			c-7.029-9.534-12.665-17.016-16.916-22.396c-4.253-5.414-12.836-12.625-25.716-21.638c-15.394-10.706-38.976-25.909-70.691-45.565
			c0.684,47.213,4.635,118.014,11.859,212.409C128.959,879.081,132.892,949.899,133.577,997.111z"/>
		<path fill="#7F1D78" d="M687.1,1248.432l17.419,82.438c0.135,10.925,5.306,37.546,15.491,79.816
			c10.189,42.303,15.397,69.985,15.564,83.091l0.033,1.334c0.261,19.683-7.905,32.491-24.536,38.397
			c-21.135,0.29-37.633-2.541-49.513-8.511c-11.875-5.939-17.943-17.653-18.192-35.171c-0.52-38.027-8.684-93.247-24.476-165.644
			l-149.156-17.577c-8.925,29.89-15.572,62.559-20.003,98.055c-4.418,35.504-8.725,61.373-12.915,77.611
			c-8.396,33.379-24.62,50.211-48.671,50.555c-11.801,0.17-22.783-3.084-32.965-9.679c-10.18-6.657-15.322-15.236-15.451-25.73
			l3.508-11.858c64.515-234.069,111.67-461.751,141.416-683.082c0.902-6.149,2.116-24.054,3.672-53.868
			c3.984-65.657,12.74-107.56,26.225-125.687l50.872-0.739c13.747-0.188,25.833,2.498,36.23,8.02
			c10.388,5.513,15.67,13.994,15.837,25.337c0.979,68.229,12.615,169.351,34.92,303.312
			C674.713,1092.874,686.278,1189.38,687.1,1248.432z M608.656,1276.466c-3.152-13.076-4.953-35.868-5.418-68.472
			c-0.48-32.588-3.129-73.039-7.997-121.296c-4.884-48.235-11.705-104.364-20.47-168.354
			c-8.775-63.939-14.827-110.34-18.182-139.133c-42.509,225.871-69.727,385.039-81.695,477.531
			C492.283,1266.541,536.832,1273.114,608.656,1276.466z"/>
		<path fill="#7F1D78" d="M882.904,1068.521l0.574,145.656c1.692,118.505,12.641,211.729,32.736,279.703l-16.448,36.281
			l-42.028,0.623l-20.18-19.428c0.394-40.249,0.244-85.398-0.457-135.479c-0.716-50.096-6.556-157.066-17.469-320.962
			c-10.934-163.854-16.953-286.263-18.116-367.172c-0.575-42.432,15.796-63.87,49.229-64.361
			c52.574-0.74,96.989,10.877,133.204,34.852c36.199,23.992,54.637,58.719,55.292,104.208l1.366,94.483
			c0.361,25.792-4.73,49.384-15.237,70.726c-10.502,21.372-22.734,43.853-36.654,67.464c-13.917,23.572-21.573,36.693-22.994,39.361
			c5.686,21.805,15.886,64.514,30.558,128.182c31.471,139.083,65.558,238.984,102.315,299.712
			c10.563,17.383,15.928,30.941,16.074,40.78c0.148,9.839-2.823,18.174-8.843,25.063c-6.091,6.829-14.254,10.375-24.568,10.507
			c-21.133,0.29-41.693-20.957-61.711-63.774c-20.032-42.765-36.296-90.352-48.82-142.679
			c-38.201-159.955-61.296-248.026-69.386-264.084L882.904,1068.521z M883.17,672.846l-4.883,19.079
			c0.526,36.755,2.257,89.784,5.228,159.062c2.917,69.269,4.619,119.657,5.066,151.156c23.453-11.243,42.077-40.052,55.928-86.417
			c13.836-46.347,20.601-81.765,20.238-106.251c-0.364-24.508-1.366-42.53-2.998-54.094c-1.641-11.574-5.024-24.319-10.132-38.263
			C941.365,688.42,918.569,673.645,883.17,672.846z"/>
		<path fill="#7F1D78" d="M1270.758,1491.475l-4.412-102.95c-0.002-0.458,0.527-15.775,1.583-45.993
			c-4.092-11.301-13.524-112.251-28.268-302.737c-14.764-190.5-22.916-306.948-24.499-349.376c-1.988,0.016-3.932,0.054-5.913,0.061
			c-81.559-0.144-122.57-12.888-122.919-38.276c-0.107-8.319,5.174-15.276,15.936-20.889c10.72-5.617,21.262-8.502,31.583-8.644
			l205.094,9.558l24.305-1.027c31.422-0.43,47.335,10.063,47.636,31.496c0.146,10.948-4.849,19.878-15.092,26.768
			c-10.246,6.935-21.749,10.515-34.532,10.694l-69.397-8.185l-2.752,13.796c1.217,84.857,11.369,211.796,30.464,380.776
			c19.122,169.019,29.292,296.167,30.51,381.481c0.136,10.467-5.122,19.843-15.795,28.079
			c-10.721,8.257-22.463,12.484-35.245,12.663L1270.758,1491.475z"/>
		<path fill="#7F1D78" d="M1705.702,1435.42c0.84,59.931-15.192,90.103-48.103,90.566c-18.208,0.276-32.355-9.378-42.458-28.947
			c11.021-19.81,15.626-95.773,13.729-227.867c-0.332-24.069-3.547-58.129-9.545-102.225c-6.055-44.066-9.659-75.532-10.921-94.296
			l-0.511-34.785c-2.007-3.901-18.224-39.11-48.688-105.582c-68.967-149.066-103.627-238.029-104.049-266.921l-0.113-7.201
			l33.581-22.813c30.972-0.015,68.828,68.818,113.516,206.409c19.532,60.071,29.315,90.339,29.306,90.772
			c3.778-10.078,11.169-43.679,22.171-100.693c27.902-145.59,58.335-218.65,91.267-219.143c9.328-0.114,17.834,2.375,25.547,7.542
			c7.668,5.117,11.595,11.881,11.711,20.19c0.632,44.619-12.807,109.633-40.34,195.112c-27.55,85.5-41.484,150.527-41.811,195.163
			L1705.702,1435.42z"/>
		<path fill="#7F1D78" d="M1952.285,1147.185l2.361,63.599c0.895,61.237-8.024,91.98-26.721,92.22
			c-10.322,0.143-19.93-10.632-28.818-32.385c-8.932-21.733-13.621-49.268-14.091-82.499l2.756-222.467l-13.635-440.726
			c-0.208-14.008,6.254-26.24,19.379-36.722c13.113-10.429,26.319-15.772,39.567-15.962c13.279-0.195,23.525,2.855,30.736,9.08
			c7.218,6.251,10.899,13.975,11.021,23.155c1.022,71.713-2.764,178.94-11.273,321.653
			C1955.031,968.839,1951.256,1075.861,1952.285,1147.185z M1977.706,1485.989c0.447,31.497-24.158,47.598-73.774,48.288
			c-11.318,0.173-22.559-4.347-33.745-13.597c-11.165-9.277-16.889-21.662-17.094-37.169c-0.231-15.511,5.72-29.621,17.819-42.255
			c12.1-12.632,27.244-19.077,45.412-19.343c18.183-0.248,32.895,5.904,44.159,18.421
			C1971.701,1452.846,1977.508,1468.104,1977.706,1485.989z"/>
	</g>
</g>
</svg>
