<?xml version="1.0" encoding="utf-8"?>
<!-- Generator: Adobe Illustrator 16.0.0, SVG Export Plug-In . SVG Version: 6.00 Build 0)  -->
<!DOCTYPE svg PUBLIC "-//W3C//DTD SVG 1.1//EN" "http://www.w3.org/Graphics/SVG/1.1/DTD/svg11.dtd">
<svg version="1.1" id="Layer1" xmlns="http://www.w3.org/2000/svg" xmlns:xlink="http://www.w3.org/1999/xlink" x="0px" y="0px"
	 width="2000px" height="2000px" viewBox="0 0 2000 2000" enable-background="new 0 0 2000 2000" xml:space="preserve">
<path fill="#3399FF" d="M1662.087,16.837H343.067c-178.725,0-323.62,151.959-323.62,339.265v1297.64
	c0,187.433,144.961,339.258,323.62,339.258h1319.02c178.791,0,323.652-151.825,323.652-339.258V356.103
	C1985.739,168.796,1840.878,16.837,1662.087,16.837z M1100.954,1614.395c-421.045-156.858-658.078-664.649-658.078-664.649
	C274.924,637.797,519.628,347.652,580.84,355.323C646.887,363.58,770.723,528.7,770.723,528.7
	c148.604,181.627-49.535,272.44-49.535,272.44c-82.558,57.79-16.511,181.627-16.511,181.627s68.816,121.062,167.886,220.131
	c62.949,62.948,170.474,125.771,170.474,125.771s121.321,70.428,182.075-9.934c0,0,98.037-194.529,274.117-39.476
	c0,0,160.474,129.771,166.278,196.075C1670.604,1534.546,1391.323,1743.651,1100.954,1614.395z"/>
</svg>
