<?xml version="1.0" encoding="utf-8"?>
<!-- Generator: Adobe Illustrator 16.0.0, SVG Export Plug-In . SVG Version: 6.00 Build 0)  -->
<!DOCTYPE svg PUBLIC "-//W3C//DTD SVG 1.1//EN" "http://www.w3.org/Graphics/SVG/1.1/DTD/svg11.dtd">
<svg version="1.1" xmlns="http://www.w3.org/2000/svg" xmlns:xlink="http://www.w3.org/1999/xlink" x="0px" y="0px"
	 width="2394.583px" height="2394.583px" viewBox="0 0 2394.583 2394.583" enable-background="new 0 0 2394.583 2394.583"
	 xml:space="preserve">
<g id="Layer_2">
</g>
<g id="layer1">
	<path fill="#FFFDFE" d="M1502.757,719.304l199.017-177.414l75.81-62.026l53.594-33.875l53.23-10.923l55.136,3.446l-10.339,34.46
		l-6.892,17.229l6.892,5.742l21.826,14.934l11.482,31.013l-10.338,25.271l-59.725,11.484l-22.978,47.097l16.086,2.297l20.676,6.891
		l10.338,21.824l132.089,6.89l74.667,22.973l47.092,24.122l37.906,33.311l91.316,9.767l37.905,62.026l-24.121,60.304l-93.041,72.364
		l-596.146,170.575l-134.393,82.703l-103.377,68.919l39.628,8.615l41.351,25.845v39.628v31.013l-39.629,37.905l-60.304,24.122
		l-229.153,15.508l-232.602,158.512l41.351,6.893c0,0,34.46,5.168,37.906,24.12c3.445,18.954,20.676,55.137-60.304,82.704
		c-80.98,27.566,0,0,0,0l-72.365,5.168l-110.27,5.169l-237.77,163.682l-86.148,43.074c0,0-65.473,31.015-27.568-25.844
		c37.906-56.858,425.574-472.094,475.539-516.891c49.966-44.797,139.562-130.946,139.562-130.946l-129.223,31.014
		c0,0-401.452,86.149-422.127,98.209c-20.675,12.062-77.533,27.568-77.533,27.568s-70.642,20.676-77.533,18.952
		c-6.892-1.723-44.798-8.615-51.689-20.676s-144.729,67.196-211.925,29.292c0,0-36.183-37.906,158.513-132.67l-1.608-6.293
		L39.109,1072.566v-31.015l56.857-15.506l37.905-1.724L347.52,1132.87l48.244,15.506l63.75-20.675
		c0,0,596.147-246.387,654.728-267.063c58.58-20.675,375.606-127.499,375.606-127.499L1502.757,719.304"/>
	<path fill="#231F20" d="M440.103,1259.245c0.827,0.248,1.713,0.378,2.531,0.64C442.633,1259.885,441.731,1259.623,440.103,1259.245
		z"/>
	<path fill="#231F20" d="M2206.4,721.689c-69.834-53.056-169.289-73.563-284.425-72.322c-3.634-13.798-14.188-31.329-44.013-26.095
		c5.418-12.073,11.606-25.929,18.062-40.545c27.522-5.397,60.284-12.072,60.284-12.072c40.162-38.276-8.768-68.989-22.48-76.491
		c7.431-18.466,12.733-32.974,13.784-39.104c5.539-32.263-47.88-29.239-116.436-9.072
		c-56.845,16.714-260.461,208.293-328.42,273.315c-203.146,56.469-408.142,137.461-566.87,206.745
		c-141.525,53.729-498.281,188.602-532.148,195.857c-42.337,9.072-202.624-78.631-226.816-90.729
		c-24.192-12.098-54.435-30.243-117.945-3.025c-63.508,27.218-24.193,60.486-24.193,60.486l157.521,225.883
		c-61.879,33.658-137.296,84.23-137.296,84.23c-120.389,118.298,140.958,51.434,161.516,43.72
		c3.436-1.285,12.804-5.101,25.655-10.418c10.076,9.025,44.168,32.891,104.102,10.418c40.234-15.083,103.651-37.898,155.323-55.771
		c106.676-19.776,283.024-54.532,485.541-97.637l40.227-38.75c-193.814,48.015-365.542,89.091-475.432,115.877
		c-52.335,10.507-150.278,32.407-193.564,57.134c-37.033,21.157-82.042,13.845-95.934,0.307
		c72.674-30.37,207.123-87.774,244.786-107.171c49.922-25.717,0-46.299,0-46.299s8.812,33.444-23.486,43.721
		c-32.313,10.291-264.291,108.012-278.976,113.164c-14.683,5.139-196.738,56.575-158.571,0
		c38.182-56.575,182.07-110.586,264.288-146.594c71.618-31.363,118.656-23.711,129.62-21.207
		c-76.386-22.55-191.283,28.921-191.283,28.921c-14.483,4.678-34.543,14.413-56.252,26.214
		c-18.266-29.946-140.086-229.902-145.686-243.887c-6.05-15.123,57.458-36.29,57.458-36.29
		c24.196-3.025,223.797,117.942,269.16,133.065c45.363,15.118,314.519-120.971,314.519-120.971l37.66-17.53
		c1021.475-430.61,1274.246-349.548,1339.338-347.906c66.779,1.701,155.215,78.985,155.215,78.985
		c150.893,11.484,80.318,94.603,80.318,94.603c-43.684,53.229-311.249,140.071-631.166,228.952l-51.413,33.969l-60.014,41.747
		c383.124-94.083,727.378-196.197,787.154-269.026C2472.848,734.46,2206.4,721.689,2206.4,721.689z M1950.532,558.216
		c-4.138,6.118-28.367,11.648-50.551,15.534c10.819-24.598,21.925-50.339,30.71-71.814
		C1960.666,511.444,1958.3,546.721,1950.532,558.216z M1535.983,710.253c45.852-43.354,182.743-172.617,215.056-200.756
		c85.681-74.603,151.211-75.111,169.355-61.997c13.643,9.863-57.494,154.143-83.746,206.169
		C1741.873,662.352,1639.517,682.847,1535.983,710.253z M1874.901,630.053c12.356,0.792,25.988,5.375,33.063,19.622
		c-14.08,0.355-28.254,0.85-42.762,1.82C1867.757,645.884,1871.095,638.499,1874.901,630.053z"/>
	<path fill="#231F20" d="M1720.914,999.53c-1.286-0.474-2.167-0.627-2.167-0.627l-0.224-0.034l-0.201,0.021
		c0,0-4.839,0.698-13.229,1.975c-11.6,1.299-23.25,3.211-33.866,5.386c-23.984,3.935-56.209,9.441-96.507,16.915
		c-45.602,8.402-100.695,19.921-163.688,34.402c-62.962,14.638-133.75,32.571-209.096,60.462c-9.341,3.83-18.77,7.703-28.293,11.61
		c-9.47,4.158-18.806,9.334-28.366,14.049c-18.992,10.423-35.9,24.206-52.709,37.494c-33.617,27.175-66.143,57.394-99.541,88.414
		c-66.863,61.983-133.749,130.938-202.779,202.291c-68.528,71.85-139.453,145.92-210.202,222.434
		c-35.654,38.026-71.247,76.673-106.125,116.294c-17.552,19.703-35.024,39.574-51.945,60.048
		c-8.466,10.207-16.759,20.612-24.767,31.34c-7.848,11.14-16.066,20.875-21.665,35.769c-0.522,2.141-1.339,4.456-0.445,8.582
		c0.391,1.803,2.295,4.664,5.119,6.177c0.791,0.304,1.393,0.637,2.716,0.909c5.047,1.37,9.059,1.239,12.578,0.97
		c7.743,0.047,14.06-2.494,21.174-3.688c13.043-4.408,25.956-9.152,37.838-15.5c12.438-5.512,23.792-12.592,35.334-19.396
		c11.731-6.556,22.779-13.986,33.692-21.604c43.121-30.374,86.071-60.641,128.684-90.658c29.937-21.005,59.436-41.688,88.979-62.41
		c31.435,1.797,223.306,10.055,249.229-54.718c24.465-61.158-29.782-75.336-65.696-74.108
		c73.738-52.096,145.21-102.61,213.17-150.617c35.843-1.787,114.309-6.3,197.287-15.194
		c112.9-12.098,145.162-56.457,145.162-116.943c0-40.507-41.521-55.639-69.002-61.253c39.433-27.947,76.656-54.341,110.775-78.536
		c46.58-32.649,87.514-61.354,122.623-85.973c46.723-23.005,134.522-69.215,128.956-89.266
		C1770.031,1001.275,1747.283,998.113,1720.914,999.53z M984.392,1664.244c1.996,69.782-198.75,64.658-222.741,62.578
		c47.658-33.419,94.837-66.496,140.981-98.868c3.177-2.242,6.272-4.429,9.439-6.674
		C941.429,1616.862,983.093,1618.622,984.392,1664.244z M1464.242,1329.57c-4.028,44.36-23.189,76.611-67.041,91.734
		c-29.543,10.184-193.504,21.628-236.804,24.513c65.271-46.12,127.426-90.032,185.085-130.784
		c14.873-10.554,29.391-20.845,43.676-30.967C1420.531,1279.248,1467.371,1295.099,1464.242,1329.57z M1645.648,1103.179
		c4.361-3.059,8.991-6.307,13.162-9.225c9.049-6.07,17.649-12.013,25.811-17.545
		C1671.854,1087.433,1657.75,1096.445,1645.648,1103.179z M1711.721,1044.787c-2.222,3.91-4.853,7.642-7.652,11.282
		c-15.702,8.315-31.708,18.603-50.505,29.887c-78.429,49.465-188.955,122.279-320.132,211.746
		c-65.692,44.568-136.773,92.979-211.202,145.282c-74.484,52.187-153.428,106.683-234.058,164.509
		c-80.538,57.969-163.779,117.861-248.353,178.738c-41.927,30.824-84.169,61.916-126.591,93.1
		c-10.512,7.788-21.086,15.44-32.238,22.09c-11,6.96-21.881,14.215-33.49,19.78c-11.307,6.495-23.099,11.187-34.981,15.661
		c-5.873,1.111-12.122,3.736-17.708,3.702c-2.635,0.33-4.752,0.296-6.262,0.209c3.473-9.958,11.469-21.369,18.522-31.636
		c7.551-10.665,15.453-21.17,23.583-31.515c16.227-20.723,33.063-41.02,50.074-61.092c34.388-39.83,69.558-78.781,104.785-117.109
		c71.086-76.074,142.734-149.386,213.992-218.355c70.88-69.345,141.084-134.603,207.56-196.304
		c33.372-30.7,66.56-59.796,99.081-86.945c16.517-13.393,32.271-26.558,49.414-36.182c8.918-4.504,17.424-9.409,26.427-13.516
		c9.163-3.899,18.229-7.753,27.194-11.556c73.219-28.199,143.709-46.647,205.671-63.648c62.186-16.563,116.954-29.075,161.96-39.814
		c40.496-9.404,72.843-16.68,96.614-21.946C1698.333,1011.353,1727.482,1016.966,1711.721,1044.787z"/>
	<g>
		<path fill="#231F20" d="M1410.288,1402.248c-18.394-3.119-28.421-28.317-23.293-58.631c5.115-30.3,22.883-50.795,41.276-47.702
			c18.395,3.119,28.399,28.317,23.274,58.619C1446.431,1384.847,1428.683,1405.354,1410.288,1402.248z M1427.313,1301.553
			c-11.444-1.939-27.51,15.413-32.248,43.437c-4.738,28.02,4.738,49.698,16.183,51.622c11.439,1.938,27.491-15.416,32.229-43.448
			C1448.211,1325.155,1438.751,1303.491,1427.313,1301.553z"/>
	</g>
	<g>
		<path fill="#231F20" d="M944.414,1706.621c-11.408-1.928-17.637-17.589-14.457-36.407c3.18-18.819,14.208-31.56,25.636-29.631
			c11.435,1.929,17.647,17.577,14.459,36.412C966.874,1695.81,955.852,1708.561,944.414,1706.621z M955,1644.08
			c-7.113-1.205-17.091,9.57-20.036,26.968c-2.941,17.415,2.945,30.887,10.055,32.077c7.101,1.204,17.082-9.57,20.023-26.981
			C967.984,1658.742,962.115,1645.271,955,1644.08z"/>
	</g>
	<g>
		<path fill="#231F20" d="M1944.328,557.564c-7.619,1.524-15.238-6.79-17.721-19.337c-2.491-12.522,1.379-23.119,8.991-24.632
			c7.605-1.511,15.228,6.805,17.696,19.326C1955.786,545.469,1951.927,556.066,1944.328,557.564z M1936.057,515.923
			c-4.725,0.945-8.407,10.054-6.118,21.643c2.314,11.587,9.2,18.604,13.917,17.673c4.736-0.944,8.424-10.054,6.109-21.654
			C1947.659,522.007,1940.781,514.99,1936.057,515.923z"/>
	</g>
	<path fill="#231F20" d="M2140.74,744.182l43.861,32.9c12.097-7.219,23.616-15.049,33.678-24.135l-66.532-50.407
		C2151.747,702.54,2161.449,723.476,2140.74,744.182z"/>
	<g>
		<path fill="#231F20" d="M2016.558,796.669c-62.282,20.142-126.915,38.938-126.915,38.938s69.094,2.893,148.213-10.113
			L2016.558,796.669z"/>
		<path fill="#231F20" d="M2055.233,822.445c38.014-7.312,77.318-18.487,111.66-35.616l-39.991-31.991
			c-3.434,2.114-7.132,4.181-11.445,6.179c-17.685,8.163-49.175,19.302-83.096,30.49L2055.233,822.445z"/>
	</g>
	<g>
		<path fill="#231F20" d="M1800.109,930.315c-12.619,3.945-26.072-3.097-30.007-15.725l-12.784-40.875
			c-3.931-12.616,3.109-26.072,15.735-30.005c12.606-3.946,26.063,3.096,29.998,15.723l12.783,40.874
			C1819.766,912.926,1812.716,926.381,1800.109,930.315z M1775.642,852.014c-8.02,2.506-12.508,11.083-10.004,19.104l12.781,40.873
			c2.496,8.032,11.07,12.522,19.103,10.017c8.01-2.502,12.502-11.08,9.998-19.101l-12.774-40.874
			C1792.242,853.999,1783.664,849.511,1775.642,852.014z"/>
	</g>
	<g>
		<g>
			<path fill="#231F20" d="M1680.71,900.959c-0.683-2.611,0.926-5.305,3.577-6.001c2.662-0.71,5.377,0.849,6.064,3.472l3.021,11.576
				c0.687,2.623-0.904,5.317-3.563,6.016c-2.661,0.694-5.364-0.863-6.047-3.476L1680.71,900.959z"/>
		</g>
		<g>
			<path fill="#231F20" d="M1632.571,913.634c-0.7-2.611,0.898-5.304,3.558-6c2.658-0.71,5.373,0.85,6.066,3.461l3.053,11.588
				c0.696,2.612-0.908,5.305-3.554,6.002c-2.659,0.694-5.378-0.851-6.074-3.473L1632.571,913.634z"/>
		</g>
		<g>
			<path fill="#231F20" d="M1584.442,926.405c-0.696-2.612,0.902-5.316,3.561-6.025c2.659-0.72,5.364,0.825,6.058,3.438
				l3.072,11.577c0.696,2.621-0.898,5.316-3.543,6.023c-2.659,0.72-5.378-0.826-6.078-3.438L1584.442,926.405z"/>
		</g>
		<g>
			<path fill="#231F20" d="M1536.361,939.328c-0.696-2.623,0.9-5.316,3.547-6.039c2.658-0.706,5.378,0.842,6.07,3.451l3.087,11.577
				c0.696,2.61-0.886,5.305-3.545,6.024c-2.661,0.711-5.378-0.838-6.077-3.447L1536.361,939.328z"/>
		</g>
		<g>
			<path fill="#231F20" d="M1488.279,952.24c-0.696-2.61,0.889-5.305,3.547-6.024c2.646-0.709,5.378,0.828,6.074,3.438l3.096,11.575
				c0.703,2.613-0.884,5.306-3.533,6.025c-2.658,0.711-5.373-0.827-6.088-3.448L1488.279,952.24z"/>
		</g>
		<g>
			<path fill="#231F20" d="M1440.204,965.165c-0.709-2.613,0.883-5.318,3.527-6.025c2.659-0.722,5.392,0.827,6.088,3.438
				l3.106,11.565c0.706,2.612-0.876,5.304-3.53,6.024c-2.649,0.71-5.378-0.826-6.074-3.44L1440.204,965.165z"/>
		</g>
		<g>
			<path fill="#231F20" d="M1392.123,978.077c-0.71-2.611,0.876-5.306,3.533-6.015c2.652-0.721,5.371,0.827,6.081,3.437
				l3.116,11.556c0.71,2.61-0.871,5.314-3.52,6.024c-2.655,0.709-5.385-0.826-6.082-3.437L1392.123,978.077z"/>
		</g>
		<g>
			<path fill="#231F20" d="M1344.042,990.998c-0.711-2.61,0.874-5.303,3.52-6.022c2.659-0.711,5.385,0.826,6.095,3.437l3.143,11.565
				c0.71,2.6-0.875,5.306-3.533,6.015c-2.645,0.707-5.371-0.827-6.081-3.438L1344.042,990.998z"/>
		</g>
		<g>
			<path fill="#231F20" d="M1295.994,1004.04c-0.718-2.609,0.854-5.324,3.499-6.07c2.659-0.743,5.378,0.779,6.085,3.391
				l3.152,11.554c0.724,2.612-0.851,5.328-3.496,6.059c-2.646,0.746-5.377-0.768-6.085-3.379L1295.994,1004.04z"/>
		</g>
		<g>
			<path fill="#231F20" d="M1248.043,1017.451c-0.716-2.611,0.842-5.329,3.487-6.072c2.657-0.732,5.387,0.778,6.094,3.39
				l3.181,11.543c0.716,2.608-0.852,5.327-3.486,6.061c-2.646,0.743-5.374-0.768-6.096-3.382L1248.043,1017.451z"/>
		</g>
		<g>
			<path fill="#231F20" d="M1200.086,1030.857c-0.723-2.611,0.836-5.33,3.48-6.071c2.658-0.733,5.391,0.781,6.107,3.39l3.207,11.543
				c0.717,2.598-0.841,5.313-3.486,6.061c-2.648,0.733-5.378-0.781-6.098-3.393L1200.086,1030.857z"/>
		</g>
		<g>
			<path fill="#231F20" d="M1152.133,1044.255c-0.733-2.602,0.827-5.313,3.472-6.047c2.66-0.749,5.386,0.767,6.119,3.365
				l3.224,11.542c0.736,2.598-0.828,5.316-3.473,6.057c-2.646,0.734-5.385-0.777-6.118-3.375L1152.133,1044.255z"/>
		</g>
		<g>
			<path fill="#231F20" d="M1104.183,1057.664c-0.737-2.597,0.814-5.315,3.462-6.05c2.658-0.744,5.398,0.768,6.125,3.365
				l3.254,11.529c0.73,2.614-0.817,5.316-3.463,6.063c-2.645,0.734-5.388-0.767-6.131-3.378L1104.183,1057.664z"/>
		</g>
		<g>
			<path fill="#231F20" d="M1056.232,1071.071c-0.744-2.598,0.801-5.304,3.445-6.051c2.662-0.743,5.397,0.768,6.148,3.369
				l3.271,11.533c0.729,2.597-0.814,5.3-3.464,6.043c-2.645,0.747-5.387-0.768-6.131-3.365L1056.232,1071.071z"/>
		</g>
		<g>
			<path fill="#231F20" d="M1008.282,1084.478c-0.744-2.598,0.79-5.303,3.435-6.047c2.659-0.743,5.401,0.771,6.158,3.368
				l3.278,11.516c0.757,2.599-0.787,5.318-3.433,6.052c-2.648,0.741-5.398-0.768-6.145-3.372L1008.282,1084.478z"/>
		</g>
		<g>
			<path fill="#231F20" d="M960.332,1097.922c-0.757-2.607,0.78-5.351,3.425-6.084c2.655-0.729,5.411,0.771,6.151,3.368
				l3.321,11.506c0.757,2.603-0.777,5.317-3.422,6.047c-2.658,0.733-5.404-0.753-6.145-3.332L960.332,1097.922z"/>
		</g>
		<g>
			<path fill="#231F20" d="M912.697,1112.547c-0.781-2.588,0.73-5.351,3.365-6.153c2.639-0.815,5.387,0.638,6.159,3.223
				l3.416,11.485c0.764,2.599-0.748,5.354-3.372,6.168c-2.604,0.801-5.374-0.651-6.138-3.237L912.697,1112.547z"/>
		</g>
		<g>
			<path fill="#231F20" d="M865.067,1127.176c-0.804-2.578,0.696-5.33,3.318-6.145c2.635-0.805,5.408,0.639,6.202,3.224
				l3.509,11.449c0.781,2.584-0.696,5.337-3.317,6.141c-2.628,0.817-5.398-0.636-6.193-3.214L865.067,1127.176z"/>
		</g>
		<g>
			<path fill="#231F20" d="M817.423,1141.808c-0.815-2.57,0.663-5.323,3.298-6.128c2.635-0.817,5.421,0.625,6.235,3.2l3.604,11.425
				c0.804,2.588-0.663,5.327-3.284,6.128c-2.625,0.805-5.408-0.625-6.222-3.211L817.423,1141.808z"/>
		</g>
		<g>
			<path fill="#231F20" d="M769.789,1156.433c-0.838-2.564,0.616-5.304,3.251-6.118c2.634-0.8,5.445,0.626,6.286,3.204l3.695,11.388
				c0.827,2.574-0.613,5.317-3.233,6.117c-2.625,0.801-5.436-0.625-6.277-3.203L769.789,1156.433z"/>
		</g>
		<g>
			<path fill="#231F20" d="M722.157,1171.071c-0.86-2.564,0.579-5.304,3.214-6.107c2.625-0.814,5.455,0.615,6.324,3.18l3.792,11.364
				c0.848,2.561-0.582,5.293-3.207,6.107c-2.618,0.801-5.442-0.626-6.303-3.19L722.157,1171.071z"/>
		</g>
	</g>
</g>
</svg>
