<?xml version="1.0" encoding="utf-8"?>
<!-- Generator: Adobe Illustrator 16.0.0, SVG Export Plug-In . SVG Version: 6.00 Build 0)  -->
<!DOCTYPE svg PUBLIC "-//W3C//DTD SVG 1.1//EN" "http://www.w3.org/Graphics/SVG/1.1/DTD/svg11.dtd">
<svg version="1.1" id="Layer_1" xmlns="http://www.w3.org/2000/svg" xmlns:xlink="http://www.w3.org/1999/xlink" x="0px" y="0px"
	 width="214.489px" height="218.989px" viewBox="0 0 214.489 218.989" enable-background="new 0 0 214.489 218.989"
	 xml:space="preserve">
<g>
	<path fill="#7F1D78" d="M202.334,68.539c0-2.975-0.174-4.22-0.311-4.738c-1.374-24.79-21.906-44.469-47.043-44.469
		c-21.322,0-39.328,14.172-45.141,33.608c-5.806-19.436-23.809-33.608-45.134-33.608c-25.133,0-45.668,19.679-47.042,44.469
		c-0.136,0.519-0.308,1.763-0.308,4.738c0,4.875-2.09,35.048,40.619,79.381c14.081,15.938,22.979,22.051,34.756,41.674l0.053-0.006
		c2.741,6.729,9.268,11.512,16.933,11.705v0.008c0.043,0,0.084-0.004,0.123-0.004c0.045,0,0.084,0.004,0.125,0.004v-0.008
		c7.67-0.193,14.193-4.976,16.939-11.705l0.051,0.006c11.777-19.623,20.676-25.734,34.758-41.674
		C204.422,103.587,202.334,73.414,202.334,68.539z"/>
</g>
<g>
	<path fill="#FFFFFF" d="M81.516,81.075l-1.096-0.043c-0.43,0-0.73,0.107-0.902,0.322v13.578c1.504-0.086,2.32-0.129,2.449-0.129
		c1.676,0,2.514,0.387,2.514,1.16v0.15c-0.201,0.401-0.545,0.709-1.031,0.924c-0.487,0.215-0.917,0.336-1.289,0.365
		c-0.373,0.028-0.853,0.043-1.439,0.043h-1.375c-1.089,0-1.762-0.215-2.02-0.645c-0.115-0.2-0.172-0.465-0.172-0.795V70.44
		c0-0.501-0.101-1.246-0.301-2.234c-0.201-0.988-0.301-1.74-0.301-2.256V65.8c0.486-0.802,0.852-1.317,1.096-1.547l3.266-0.387
		c0.443,0,0.892,0.133,1.343,0.397c0.451,0.265,0.677,0.612,0.677,1.042c0,0.874-0.666,1.311-1.998,1.311l-1.268-0.043
		c-0.215,0-0.373,0.007-0.473,0.021l0.344,7.262c0,0.587-0.036,1.443-0.107,2.567c-0.072,1.125-0.107,1.944-0.107,2.46
		c0.157-0.028,0.372-0.079,0.645-0.15c0.602-0.157,1.07-0.236,1.407-0.236c0.336,0,0.637,0.122,0.902,0.365
		c0.265,0.244,0.397,0.537,0.397,0.881c0,0.344-0.107,0.652-0.322,0.924C82.139,80.939,81.859,81.075,81.516,81.075z"/>
	<path fill="#FFFFFF" d="M86.414,79.378l0.258-8.207c0-1.36,0.537-2.442,1.611-3.244v0.279c0.114-0.071,0.222-0.107,0.322-0.107
		c0.688,0,1.547,1.186,2.578,3.556c1.031,2.371,1.962,4.974,2.793,7.81c0.83,2.836,1.657,5.697,2.481,8.583
		c0.823,2.886,1.335,4.58,1.536,5.081c0.587-6.145,0.881-13.585,0.881-22.322l-0.064-1.182c0-0.874,0.365-1.311,1.096-1.311
		c0.415,0,0.727,0.172,0.935,0.516c0.207,0.344,0.312,0.745,0.312,1.203v3.33c-0.029,3.452-0.183,8.061-0.462,13.825
		c-0.279,5.765-0.655,9.02-1.128,9.765c-0.803,0.243-1.357,0.365-1.665,0.365c-0.309,0-0.545-0.104-0.709-0.312
		c-0.165-0.208-0.298-0.526-0.397-0.956c-0.101-0.43-0.187-0.716-0.258-0.859l0.021-0.193c0-1.088-1.053-4.547-3.158-10.377
		c-2.105-5.829-3.631-9.84-4.576-12.031v22.15c0.028,0.058,0.086,0.158,0.172,0.301c0.186,0.315,0.279,0.609,0.279,0.881
		s-0.133,0.544-0.397,0.816c-0.266,0.272-0.577,0.408-0.935,0.408c-0.96,0-1.439-0.895-1.439-2.686L86.414,79.378z"/>
	<path fill="#FFFFFF" d="M108.329,96.479l-0.086-3.373c0-0.014,0.021-0.516,0.063-1.504c-0.115-0.372-0.349-3.681-0.698-9.926
		c-0.352-6.245-0.541-10.062-0.569-11.451c-0.058,0-0.115,0-0.172,0c-2.378-0.043-3.566-0.479-3.566-1.311
		c0-0.272,0.157-0.498,0.473-0.677c0.314-0.179,0.623-0.269,0.924-0.269l5.972,0.408l0.709-0.021c0.916,0,1.375,0.351,1.375,1.053
		c0,0.358-0.149,0.648-0.45,0.87c-0.302,0.222-0.638,0.333-1.011,0.333l-2.021-0.301l-0.086,0.451c0,2.779,0.243,6.939,0.729,12.482
		c0.486,5.543,0.729,9.711,0.729,12.504c0,0.344-0.157,0.648-0.474,0.913c-0.314,0.265-0.658,0.397-1.03,0.397L108.329,96.479z"/>
	<path fill="#FFFFFF" d="M117.48,72.524l0.129,10.57c-0.172,0.401-0.258,0.902-0.258,1.504v0.881l-0.172,7.004
		c0,2.02,0.493,3.029,1.481,3.029l1.824-0.063c1.575,0,2.363,0.43,2.363,1.289c0,0.315-0.139,0.576-0.408,0.784
		s-0.58,0.333-0.924,0.376c-1.074-0.344-2.387-0.516-3.934-0.516c-0.474,0.272-0.928,0.408-1.363,0.408
		c-0.438,0-0.776-0.15-1.02-0.451c-0.244-0.301-0.365-0.63-0.365-0.988c0-2.177,0.094-5.453,0.278-9.829
		c0.187-4.375,0.278-7.652,0.278-9.829V76.37c-0.174-1.833-0.26-3.208-0.26-4.125c0-2.778,0.51-4.168,1.525-4.168
		c0.301,0,0.563,0.107,0.783,0.322c0.223,0.215,0.333,0.473,0.333,0.773L117.48,72.524z"/>
	<path fill="#FFFFFF" d="M134.561,88.251l0.473,2.707c0,0.358,0.141,1.232,0.42,2.621c0.278,1.39,0.418,2.299,0.418,2.729v0.043
		c0,0.645-0.244,1.06-0.729,1.246c-0.616,0-1.098-0.101-1.438-0.301c-0.346-0.2-0.519-0.587-0.519-1.16
		c0-1.246-0.215-3.058-0.646-5.436l-4.34-0.645c-0.271,0.974-0.479,2.041-0.623,3.201c-0.145,1.16-0.279,2.005-0.408,2.535
		c-0.258,1.089-0.736,1.633-1.438,1.633c-0.344,0-0.663-0.111-0.956-0.333c-0.294-0.222-0.438-0.505-0.438-0.849l0.104-0.387
		c1.979-7.634,3.444-15.067,4.404-22.301c0.026-0.2,0.069-0.788,0.129-1.762c0.146-2.148,0.415-3.516,0.813-4.104h1.482
		c0.4,0,0.752,0.093,1.053,0.279c0.301,0.187,0.451,0.466,0.451,0.838c0,2.234,0.297,5.55,0.893,9.947
		C134.263,83.152,134.561,86.317,134.561,88.251z M132.262,89.132c-0.086-0.43-0.129-1.178-0.129-2.245
		c0-1.067-0.063-2.392-0.184-3.975c-0.121-1.583-0.3-3.423-0.525-5.521c-0.229-2.098-0.387-3.62-0.473-4.565
		c-1.332,7.376-2.191,12.576-2.578,15.598C128.874,88.752,130.17,88.989,132.262,89.132z"/>
	<path fill="#FFFFFF" d="M138.818,95.341l1.826,0.322c0.56,0,1.045-0.243,1.461-0.73c0.415-0.487,0.724-1.096,0.925-1.826
		c0.387-1.403,0.579-2.646,0.579-3.728c0-1.081-0.181-2.152-0.536-3.212c-0.359-1.06-0.8-2.044-1.322-2.954
		c-0.521-0.909-1.041-1.837-1.558-2.782c-1.231-2.234-1.849-4.426-1.849-6.574c0-1.317,0.223-2.485,0.666-3.502
		c0.83-1.891,1.935-2.836,3.31-2.836c0.517,0,1.007,0.165,1.472,0.494c0.465,0.33,0.699,0.688,0.699,1.074
		c0,0.673-0.359,1.01-1.074,1.01c-0.313,0-0.623-0.086-0.924-0.258c-0.933,0.043-1.563,1.082-1.892,3.115
		c-0.071,0.444-0.106,0.963-0.106,1.558c0,0.595,0.129,1.329,0.387,2.202c0.26,0.874,0.582,1.651,0.979,2.331
		c0.396,0.681,0.813,1.433,1.271,2.256c0.451,0.824,0.877,1.622,1.277,2.396c0.916,1.791,1.365,3.839,1.354,6.145
		c0.015,1.776-0.395,3.474-1.225,5.092c-0.4,0.802-0.973,1.458-1.707,1.966c-0.738,0.508-1.58,0.77-2.525,0.784v0.107
		c-1.202-0.172-1.861-0.737-1.977-1.697L138.818,95.341z"/>
</g>
<g>
	<path fill="#FFFFFF" d="M81.971,131.008l0.064-8.356c0-1.461-0.107-3.151-0.322-5.069c-0.215-1.92-0.322-3.176-0.322-3.771
		s0.118-1.03,0.354-1.312c0.236-0.279,0.533-0.42,0.892-0.42c1.088,0,1.633,1.188,1.633,3.565c0,0.017-0.064,3.028-0.193,9.045
		c0.1-0.241,0.379-0.96,0.838-2.147c0.458-1.188,0.931-2.385,1.418-3.588c0.501-1.188,1.031-2.429,1.59-3.718
		c1.26-2.894,2.177-4.34,2.75-4.34c0.329,0,0.619,0.11,0.87,0.333c0.25,0.223,0.376,0.486,0.376,0.795s-0.799,2.139-2.396,5.489
		c-1.598,3.353-2.496,5.479-2.696,6.381v0.772c0.43,1.088,1.601,4.646,3.513,10.679c1.912,6.03,2.868,9.229,2.868,9.593
		c0,0.365-0.144,0.67-0.43,0.913c-0.287,0.243-0.609,0.364-0.967,0.364l-1.031-0.172c-0.73-4.168-1.49-7.803-2.277-10.902
		c-0.788-3.102-1.819-6.057-3.094-8.861c-0.874,1.563-1.332,2.508-1.375,2.836c-0.086,0.889-0.129,1.59-0.129,2.104l0.279,8.163
		v3.609c0,1.563-0.502,2.342-1.504,2.342c-0.859,0-1.289-0.74-1.289-2.226c0-1.481,0.097-3.541,0.29-6.177
		C81.874,134.301,81.971,132.327,81.971,131.008z"/>
	<path fill="#FFFFFF" d="M100.146,129.075l-1.096-0.043c-0.43,0-0.73,0.107-0.902,0.322v13.578c1.504-0.086,2.32-0.129,2.449-0.129
		c1.676,0,2.514,0.387,2.514,1.16v0.15c-0.201,0.398-0.545,0.709-1.031,0.924c-0.487,0.215-0.917,0.336-1.289,0.362
		c-0.373,0.028-0.853,0.043-1.439,0.043h-1.375c-1.089,0-1.762-0.215-2.02-0.646c-0.115-0.198-0.172-0.465-0.172-0.795V118.44
		c0-0.501-0.101-1.246-0.301-2.234c-0.201-0.988-0.301-1.74-0.301-2.256v-0.15c0.486-0.801,0.852-1.314,1.096-1.547l3.266-0.387
		c0.443,0,0.892,0.133,1.343,0.397c0.451,0.265,0.677,0.612,0.677,1.042c0,0.874-0.666,1.311-1.998,1.311l-1.268-0.043
		c-0.215,0-0.373,0.008-0.473,0.021l0.344,7.262c0,0.587-0.036,1.443-0.107,2.566c-0.072,1.125-0.107,1.945-0.107,2.461
		c0.157-0.028,0.372-0.079,0.645-0.15c0.602-0.156,1.07-0.236,1.407-0.236c0.336,0,0.637,0.123,0.902,0.365
		c0.265,0.243,0.397,0.537,0.397,0.881s-0.107,0.651-0.322,0.924C100.77,128.94,100.49,129.075,100.146,129.075z"/>
	<path fill="#FFFFFF" d="M107.773,128.538l0.043,1.396v0.193c0.114,2.549,0.172,6.373,0.172,11.473v1.117h3.353
		c0.629,0.43,0.945,0.838,0.945,1.225s-0.105,0.706-0.322,0.956c-0.215,0.251-0.438,0.376-0.666,0.376
		c-0.228,0-0.492-0.05-0.795-0.15c-0.244,0.061-0.521,0.086-0.838,0.086l-1.418-0.063c-0.302,0.357-0.678,0.537-1.126,0.537
		c-0.451,0-0.831-0.141-1.139-0.419c-0.309-0.279-0.462-0.604-0.462-0.979l0.279-1.934c0-3.337-0.147-8.34-0.44-15.008
		c-0.294-6.666-0.44-11.67-0.44-15.006c0-0.272,0.107-0.49,0.322-0.655c0.215-0.165,0.483-0.247,0.806-0.247
		c0.323,0,0.615,0.122,0.881,0.365c0.265,0.244,0.397,0.543,0.397,0.902L107.773,128.538z"/>
	<path fill="#FFFFFF" d="M117.012,128.538l0.043,1.396v0.193c0.113,2.549,0.172,6.373,0.172,11.473v1.117h3.352
		c0.631,0.43,0.945,0.838,0.945,1.225s-0.107,0.706-0.322,0.956c-0.215,0.251-0.438,0.376-0.666,0.376
		c-0.228,0-0.494-0.05-0.795-0.15c-0.244,0.061-0.523,0.086-0.838,0.086l-1.418-0.063c-0.301,0.357-0.677,0.537-1.128,0.537
		c-0.45,0-0.831-0.141-1.14-0.419c-0.309-0.279-0.461-0.604-0.461-0.979l0.279-1.934c0-3.337-0.147-8.34-0.441-15.008
		c-0.293-6.666-0.439-11.67-0.439-15.006c0-0.272,0.107-0.49,0.322-0.655s0.482-0.247,0.807-0.247c0.322,0,0.614,0.122,0.881,0.365
		c0.267,0.244,0.396,0.543,0.396,0.902L117.012,128.538z"/>
	<path fill="#FFFFFF" d="M128.441,129.075l-1.097-0.043c-0.43,0-0.729,0.107-0.901,0.322v13.578c1.505-0.086,2.32-0.129,2.449-0.129
		c1.676,0,2.515,0.387,2.515,1.16v0.15c-0.201,0.398-0.546,0.709-1.031,0.924s-0.918,0.336-1.289,0.362
		c-0.373,0.028-0.854,0.043-1.438,0.043h-1.375c-1.089,0-1.764-0.215-2.021-0.646c-0.113-0.198-0.172-0.465-0.172-0.795V118.44
		c0-0.501-0.102-1.246-0.302-2.234s-0.301-1.74-0.301-2.256v-0.15c0.485-0.801,0.853-1.314,1.097-1.547l3.266-0.387
		c0.443,0,0.894,0.133,1.345,0.397c0.448,0.265,0.677,0.612,0.677,1.042c0,0.874-0.666,1.311-1.998,1.311l-1.27-0.043
		c-0.215,0-0.371,0.008-0.473,0.021l0.344,7.262c0,0.587-0.034,1.443-0.105,2.566c-0.07,1.125-0.105,1.945-0.105,2.461
		c0.158-0.028,0.373-0.079,0.646-0.15c0.603-0.156,1.069-0.236,1.407-0.236c0.336,0,0.637,0.123,0.902,0.365
		c0.264,0.243,0.396,0.537,0.396,0.881s-0.106,0.651-0.321,0.924C129.065,128.94,128.786,129.075,128.441,129.075z"/>
	<path fill="#FFFFFF" d="M133.641,143.899l0.172-25.803v-5.414c0-0.344,0.07-0.588,0.215-0.73c0.143-0.143,0.52-0.215,1.129-0.215
		c0.607,0,1.225,0.146,1.848,0.439c0.623,0.295,1.148,0.685,1.578,1.172c0.416,0.516,0.773,1.089,1.074,1.719
		c0.572,1.219,0.859,2.542,0.859,3.975c0,1.436-0.357,3.072-1.074,4.92c-0.086,0.201-0.258,0.623-0.516,1.271
		s-0.408,1.022-0.451,1.142c0.014,2.176,0.564,5.006,1.654,8.483c0.371,1.177,0.902,2.782,1.59,4.822s1.117,3.335,1.289,3.879v0.104
		c0,0.988-0.115,1.564-0.344,1.729c-0.229,0.164-0.476,0.247-0.73,0.247c-0.545,0-1.074-0.395-1.59-1.182v-0.15
		c-0.145-2.664-1.061-6.696-2.75-12.096c-0.773-2.465-1.311-4.291-1.611-5.479v17.338c0,0.444-0.078,0.788-0.236,1.031
		s-0.441,0.364-0.856,0.364c-0.416,0-0.729-0.117-0.937-0.354c-0.209-0.235-0.313-0.524-0.313-0.868V143.899L133.641,143.899z
		 M136.068,113.756l-0.235,8.979c0,0.902,0.016,1.575,0.043,2.021c0.5-0.473,0.994-1.037,1.481-1.696l0.688-3.804
		c0.043-0.199,0.063-0.43,0.063-0.688c0-0.7-0.145-1.554-0.43-2.558C137.278,114.638,136.741,113.885,136.068,113.756z"/>
</g>
</svg>
