<?xml version="1.0" encoding="utf-8"?>
<!-- Generator: Adobe Illustrator 16.0.0, SVG Export Plug-In . SVG Version: 6.00 Build 0)  -->
<!DOCTYPE svg PUBLIC "-//W3C//DTD SVG 1.1//EN" "http://www.w3.org/Graphics/SVG/1.1/DTD/svg11.dtd">
<svg version="1.1" id="Layer_1" xmlns="http://www.w3.org/2000/svg" xmlns:xlink="http://www.w3.org/1999/xlink" x="0px" y="0px"
	 width="240.631px" height="223.759px" viewBox="0 0 240.631 223.759" enable-background="new 0 0 240.631 223.759"
	 xml:space="preserve">
<g>
	<path fill="#7F1D78" d="M213.393,70.25c0-2.975-0.174-4.22-0.308-4.738c-1.374-24.79-21.909-44.469-47.043-44.469
		c-21.325,0-39.328,14.172-45.138,33.608c-5.809-19.436-23.812-33.608-45.137-33.608c-25.133,0-45.668,19.679-47.042,44.469
		c-0.136,0.519-0.308,1.763-0.308,4.738c0,4.875-2.09,35.048,40.619,79.381c14.081,15.939,22.979,22.051,34.756,41.674l0.053-0.005
		c2.741,6.731,9.268,11.511,16.935,11.704v0.008c0.042,0,0.083-0.004,0.124-0.004c0.043,0,0.083,0.004,0.125,0.004v-0.008
		c7.668-0.193,14.193-4.973,16.936-11.704l0.052,0.005c11.778-19.623,20.675-25.734,34.757-41.674
		C215.481,105.298,213.393,75.125,213.393,70.25z"/>
</g>
<g>
</g>
<g>
	<path fill="#FFFFFF" d="M83.096,95.384c0-0.788,0.329-1.182,0.988-1.182c0.329,0,0.763,0.111,1.3,0.333
		c0.537,0.222,1.002,0.333,1.396,0.333c0.394,0,0.819-0.25,1.278-0.752c0.458-0.501,0.816-1.124,1.074-1.869
		c0.529-1.518,0.795-2.89,0.795-4.114s-0.215-2.539-0.645-3.942c-0.43-1.403-0.953-2.721-1.568-3.953
		c-0.616-1.231-1.239-2.463-1.869-3.695c-1.49-2.936-2.228-5.614-2.213-8.035c-0.015-2.292,0.709-4.089,2.17-5.393
		c0.773-0.688,1.683-1.031,2.729-1.031c0.529,0,1.045,0.147,1.547,0.44c0.501,0.294,0.852,0.677,1.053,1.149l-0.752,0.945
		c-0.73,0-1.304-0.143-1.719-0.43c-0.545,0.058-1.018,0.315-1.418,0.773c-0.73,0.845-1.096,1.887-1.096,3.126
		c0,1.239,0.157,2.446,0.473,3.62c0.314,1.175,0.709,2.228,1.182,3.158c0.473,0.931,0.98,1.941,1.525,3.029
		c0.559,1.089,1.074,2.134,1.547,3.137c1.103,2.32,1.654,4.827,1.654,7.52c0.014,1.891-0.466,3.71-1.439,5.457
		c-0.459,0.831-1.089,1.515-1.891,2.052c-0.803,0.537-1.697,0.806-2.686,0.806c-1.061,0-1.895-0.158-2.503-0.473
		C83.399,96.078,83.096,95.742,83.096,95.384z"/>
	<path fill="#FFFFFF" d="M94.525,85.265l-0.021-2.578v-1.053c0-4.325,0.215-7.333,0.645-9.023c0.516-2.091,1.231-3.538,2.148-4.34
		c1.246-1.117,2.821-1.676,4.727-1.676c0.458,0,0.798,0.107,1.021,0.322c0.222,0.215,0.333,0.473,0.333,0.773
		s-0.09,0.569-0.269,0.806c-0.18,0.236-0.405,0.362-0.677,0.376h-2.063c-0.602,0-1.125,0.387-1.568,1.16
		c-0.43,0.773-0.745,1.719-0.945,2.836c-0.373,2.12-0.552,3.875-0.537,5.264v0.215l-0.193,8.486c0,1.791,0.097,3.029,0.29,3.717
		s0.394,1.243,0.602,1.665c0.207,0.423,0.454,0.77,0.741,1.042c0.658,0.63,1.504,0.945,2.535,0.945c0.344,0,0.658-0.129,0.945-0.387
		c0.344,0,0.651,0.079,0.924,0.236c0.271,0.158,0.408,0.401,0.408,0.73c0,1.16-0.81,1.74-2.428,1.74
		c-0.659,0-1.351-0.097-2.073-0.29c-0.724-0.193-1.265-0.404-1.622-0.634C95.499,94.338,94.525,90.894,94.525,85.265z"/>
	<path fill="#FFFFFF" d="M108.469,69.409l-0.172,10.979c0.529,0.144,1.332,0.215,2.406,0.215h1.59
		c0.071-0.129,0.107-0.602,0.107-1.418s-0.097-2.61-0.29-5.382s-0.29-4.859-0.29-6.263c0-0.329,0.129-0.605,0.387-0.827
		c0.258-0.222,0.501-0.333,0.73-0.333c0.229,0,0.415,0.021,0.559,0.064c0.143,0.043,0.301,0.101,0.473,0.172
		c0.172,0.072,0.308,0.122,0.408,0.15c0,3.81,0.14,9.378,0.419,16.704s0.419,11.111,0.419,11.354c0,0.244-0.154,0.483-0.462,0.72
		c-0.309,0.236-0.652,0.354-1.031,0.354c-0.38,0-0.685-0.279-0.913-0.838c-0.229-0.559-0.384-1.386-0.462-2.481
		c-0.079-1.096-0.133-2.044-0.161-2.847c-0.015-0.344-0.015-0.737,0-1.182c0-0.602,0.007-1.289,0.021-2.063
		c0.028-1.36,0.043-2.148,0.043-2.363v-0.172l0.064-1.268l-0.258-0.408v-0.043c-0.244,0.058-0.509,0.086-0.795,0.086l-2.836-0.408
		v5.049l0.258,7.24c0,0.416-0.107,0.784-0.322,1.106s-0.523,0.483-0.924,0.483c-0.588,0-0.992-0.533-1.214-1.601
		c-0.223-1.067-0.333-2.524-0.333-4.372l0.129-6.703c0-1.389-0.021-2.155-0.064-2.299v-0.215c0.114-1.532,0.172-2.392,0.172-2.578
		l-0.301-9.926c0-0.344,0.121-0.648,0.365-0.913c0.243-0.265,0.537-0.397,0.881-0.397C108.003,66.788,108.469,67.662,108.469,69.409
		z"/>
	<path fill="#FFFFFF" d="M120.715,71.235l0.129,10.57c-0.172,0.401-0.258,0.902-0.258,1.504v0.881l-0.172,7.004
		c0,2.02,0.494,3.029,1.482,3.029l1.826-0.064c1.575,0,2.363,0.43,2.363,1.289c0,0.315-0.137,0.576-0.408,0.784
		c-0.272,0.208-0.58,0.333-0.924,0.376c-1.074-0.344-2.385-0.516-3.932-0.516c-0.473,0.272-0.928,0.408-1.364,0.408
		c-0.438,0-0.777-0.15-1.021-0.451c-0.244-0.301-0.365-0.63-0.365-0.988c0-2.177,0.093-5.453,0.279-9.829
		c0.186-4.375,0.279-7.652,0.279-9.829v-0.322c-0.172-1.833-0.258-3.208-0.258-4.125c0-2.778,0.508-4.168,1.525-4.168
		c0.301,0,0.562,0.107,0.784,0.322c0.222,0.215,0.333,0.473,0.333,0.773L120.715,71.235z"/>
	<path fill="#FFFFFF" d="M127.762,82.45l0.043-1.676c0-0.143-0.021-0.215-0.064-0.215v-0.795c0-4.612,0.265-7.892,0.795-9.84
		c0.443-1.647,0.873-2.664,1.289-3.051c0.415-0.387,0.823-0.58,1.225-0.58c3.408,0,5.758,1.719,7.047,5.156
		c0.744,1.977,1.117,4.412,1.117,7.305v0.322l0.086,4.984c0,8.437-1.955,12.654-5.865,12.654c-1.619,0-2.857-0.895-3.717-2.686
		c-0.816-1.719-1.318-3.409-1.504-5.07C127.912,86.454,127.762,84.284,127.762,82.45z M130.361,76.435l-0.215,4.061
		c0,4.254,0.344,7.964,1.031,11.129c0.73,1.848,1.425,2.937,2.084,3.266c0.529,0,1.01-0.215,1.439-0.645s0.77-1.006,1.021-1.729
		c0.25-0.723,0.462-1.486,0.634-2.288c0.157-0.788,0.279-1.633,0.365-2.535c0.143-1.561,0.215-2.893,0.215-3.996
		c0-1.103-0.097-2.793-0.29-5.07s-0.29-3.975-0.29-5.092v-0.773c-0.029-1.074-0.38-2.03-1.053-2.868
		c-0.674-0.838-1.533-1.257-2.578-1.257c-1.003,0-1.669,0.566-1.998,1.697c-0.272,0.945-0.408,2.113-0.408,3.502L130.361,76.435z"/>
	<path fill="#FFFFFF" d="M142.199,94.052l1.826,0.322c0.559,0,1.045-0.243,1.461-0.73c0.415-0.487,0.723-1.096,0.924-1.826
		c0.387-1.403,0.58-2.646,0.58-3.728c0-1.081-0.18-2.152-0.537-3.212c-0.358-1.06-0.799-2.044-1.321-2.954
		c-0.523-0.909-1.042-1.837-1.558-2.782c-1.232-2.234-1.848-4.426-1.848-6.574c0-1.317,0.222-2.485,0.666-3.502
		c0.83-1.891,1.934-2.836,3.309-2.836c0.516,0,1.006,0.165,1.472,0.494c0.465,0.33,0.698,0.688,0.698,1.074
		c0,0.673-0.358,1.01-1.074,1.01c-0.315,0-0.623-0.086-0.924-0.258c-0.932,0.043-1.562,1.082-1.891,3.115
		c-0.072,0.444-0.107,0.963-0.107,1.558c0,0.595,0.129,1.329,0.387,2.202c0.258,0.874,0.583,1.651,0.978,2.331
		c0.394,0.681,0.816,1.433,1.268,2.256c0.451,0.824,0.877,1.622,1.278,2.396c0.916,1.791,1.367,3.839,1.354,6.145
		c0.014,1.776-0.395,3.474-1.225,5.092c-0.401,0.802-0.971,1.458-1.708,1.966c-0.738,0.508-1.579,0.77-2.524,0.784v0.107
		c-1.203-0.172-1.862-0.737-1.977-1.697L142.199,94.052z"/>
	<path fill="#FFFFFF" d="M151.76,94.052l1.826,0.322c0.559,0,1.045-0.243,1.461-0.73c0.415-0.487,0.723-1.096,0.924-1.826
		c0.387-1.403,0.58-2.646,0.58-3.728c0-1.081-0.18-2.152-0.537-3.212c-0.358-1.06-0.799-2.044-1.321-2.954
		c-0.523-0.909-1.042-1.837-1.558-2.782c-1.232-2.234-1.848-4.426-1.848-6.574c0-1.317,0.222-2.485,0.666-3.502
		c0.83-1.891,1.934-2.836,3.309-2.836c0.516,0,1.006,0.165,1.472,0.494c0.465,0.33,0.698,0.688,0.698,1.074
		c0,0.673-0.358,1.01-1.074,1.01c-0.315,0-0.623-0.086-0.924-0.258c-0.932,0.043-1.562,1.082-1.891,3.115
		c-0.072,0.444-0.107,0.963-0.107,1.558c0,0.595,0.129,1.329,0.387,2.202c0.258,0.874,0.583,1.651,0.978,2.331
		c0.394,0.681,0.816,1.433,1.268,2.256c0.451,0.824,0.877,1.622,1.278,2.396c0.916,1.791,1.367,3.839,1.354,6.145
		c0.014,1.776-0.395,3.474-1.225,5.092c-0.401,0.802-0.971,1.458-1.708,1.966c-0.738,0.508-1.579,0.77-2.524,0.784v0.107
		c-1.203-0.172-1.862-0.737-1.977-1.697L151.76,94.052z"/>
</g>
<g>
	<path fill="#FFFFFF" d="M80.268,137.878c-0.902,0-1.354-0.379-1.354-1.139v-5.736c-0.416-0.286-1.164-0.53-2.245-0.73
		c-1.082-0.2-2.045-0.329-2.89-0.387c-0.301,0.516-0.548,1.261-0.741,2.234c-0.193,0.974-0.395,1.955-0.602,2.943
		c-0.208,0.988-0.483,1.769-0.827,2.342c-1.146,0-1.791-0.293-1.934-0.881c0.4-0.573,1.053-3.502,1.955-8.787
		s1.644-9.421,2.224-12.407s1.206-5.496,1.88-7.53c0.673-2.034,1.317-3.051,1.934-3.051c0.615,0,1.088,0.129,1.418,0.387
		c0,1.046,0.286,3.875,0.859,8.486c0.572,4.612,0.859,7.595,0.859,8.948s0.153,3.603,0.462,6.746
		c0.308,3.144,0.462,5.504,0.462,7.079C81.729,137.384,81.241,137.878,80.268,137.878z M78.42,123.516
		c-0.258-2.6-0.491-5.077-0.698-7.434c-0.208-2.356-0.312-3.781-0.312-4.275s0.007-0.777,0.021-0.849
		c-0.459,0.473-1.121,3.101-1.987,7.885c-0.867,4.784-1.329,7.813-1.386,9.088c1.217,0.33,2.237,0.494,3.062,0.494
		c0.823,0,1.407-0.043,1.751-0.129C78.828,127.709,78.678,126.115,78.42,123.516z"/>
	<path fill="#FFFFFF" d="M88.561,137.19l-0.086-3.373c0-0.014,0.021-0.516,0.064-1.504c-0.115-0.372-0.348-3.681-0.698-9.926
		c-0.352-6.245-0.541-10.062-0.569-11.451c-0.058,0-0.115,0-0.172,0c-2.378-0.043-3.566-0.479-3.566-1.311
		c0-0.272,0.157-0.498,0.473-0.677c0.314-0.179,0.623-0.269,0.924-0.269l5.973,0.408l0.709-0.021c0.916,0,1.375,0.351,1.375,1.053
		c0,0.358-0.15,0.648-0.451,0.87c-0.301,0.222-0.638,0.333-1.01,0.333l-2.02-0.301l-0.086,0.451c0,2.779,0.243,6.939,0.73,12.482
		c0.486,5.543,0.73,9.711,0.73,12.504c0,0.344-0.158,0.648-0.473,0.913c-0.315,0.265-0.659,0.397-1.031,0.397L88.561,137.19z"/>
	<path fill="#FFFFFF" d="M99.861,137.642l-2.6-0.129c-0.187,0-0.444,0.079-0.773,0.236c-0.33,0.157-0.62,0.236-0.87,0.236
		c-0.251,0-0.498-0.097-0.741-0.29c-0.244-0.193-0.365-0.533-0.365-1.021c0-2.621,0.988-7.19,2.965-13.707
		c1.977-6.517,3.158-10.534,3.545-12.053l-3.588,0.258c-0.315,0-0.584-0.125-0.806-0.376c-0.223-0.25-0.333-0.533-0.333-0.849
		c0-0.831,1.611-1.246,4.834-1.246c1.446,0,2.17,0.408,2.17,1.225c0,1.031-0.319,2.432-0.956,4.2
		c-0.638,1.769-1.014,3.012-1.128,3.728c-0.373,2.335-1.139,5.736-2.299,10.205s-1.798,6.997-1.912,7.584h0.752l1.848-0.129v-0.021
		c1.188,0,1.783,0.358,1.783,1.074c0,0.358-0.158,0.627-0.473,0.806C100.599,137.552,100.248,137.642,99.861,137.642z"/>
	<path fill="#FFFFFF" d="M106.07,115.685l-0.236-3.717c0-2.077,0.615-3.115,1.848-3.115c0.787,0,1.861,0.183,3.223,0.548
		c1.36,0.365,2.041,0.834,2.041,1.407c0,0.602-0.43,1.06-1.289,1.375c-1.361-0.458-2.471-0.737-3.33-0.838
		c0.043,0.63,0.064,1.261,0.064,1.891l-0.193,6.316c0,0.029,0.043,0.258,0.129,0.688l1.568-0.064c1.418,0,2.127,0.401,2.127,1.203
		c0,0.315-0.129,0.591-0.387,0.827s-0.584,0.354-0.978,0.354c-0.395,0-0.82-0.028-1.278-0.086h-1.117
		c0.086,1.117,0.129,2.228,0.129,3.33l-0.193,7.971c0,1.647,0.028,2.471,0.086,2.471l3.244-0.107c1.117,0,1.676,0.358,1.676,1.074
		c0,0.444-0.193,0.766-0.58,0.967c-0.387,0.2-0.824,0.301-1.311,0.301h-3.717c-0.387,0-0.738-0.133-1.053-0.397
		c-0.315-0.265-0.48-0.583-0.494-0.956v-1.16l-0.279-7.434L106.07,115.685z"/>
	<path fill="#FFFFFF" d="M118.08,113.235l0.129,10.57c-0.172,0.401-0.258,0.902-0.258,1.504v0.881l-0.172,7.004
		c0,2.02,0.494,3.029,1.482,3.029l1.826-0.064c1.575,0,2.363,0.43,2.363,1.289c0,0.315-0.137,0.576-0.408,0.784
		c-0.272,0.208-0.58,0.333-0.924,0.376c-1.074-0.344-2.385-0.516-3.932-0.516c-0.473,0.272-0.928,0.408-1.364,0.408
		c-0.438,0-0.777-0.15-1.021-0.451c-0.244-0.301-0.365-0.63-0.365-0.988c0-2.177,0.093-5.453,0.279-9.829
		c0.186-4.375,0.279-7.652,0.279-9.829v-0.322c-0.172-1.833-0.258-3.208-0.258-4.125c0-2.778,0.508-4.168,1.525-4.168
		c0.301,0,0.562,0.107,0.784,0.322c0.222,0.215,0.333,0.473,0.333,0.773L118.08,113.235z"/>
	<path fill="#FFFFFF" d="M125.578,136.052l1.826,0.322c0.559,0,1.045-0.243,1.461-0.73c0.415-0.487,0.723-1.096,0.924-1.826
		c0.387-1.403,0.58-2.646,0.58-3.728c0-1.081-0.18-2.152-0.537-3.212c-0.358-1.06-0.799-2.044-1.321-2.954
		c-0.523-0.909-1.042-1.837-1.558-2.782c-1.232-2.234-1.848-4.426-1.848-6.574c0-1.317,0.222-2.485,0.666-3.502
		c0.83-1.891,1.934-2.836,3.309-2.836c0.516,0,1.006,0.165,1.472,0.494c0.465,0.33,0.698,0.688,0.698,1.074
		c0,0.673-0.358,1.01-1.074,1.01c-0.315,0-0.623-0.086-0.924-0.258c-0.932,0.043-1.562,1.082-1.891,3.115
		c-0.072,0.444-0.107,0.963-0.107,1.558c0,0.595,0.129,1.329,0.387,2.202c0.258,0.874,0.583,1.651,0.978,2.331
		c0.394,0.681,0.816,1.433,1.268,2.256c0.451,0.824,0.877,1.622,1.278,2.396c0.916,1.791,1.367,3.839,1.354,6.145
		c0.014,1.776-0.395,3.474-1.225,5.092c-0.401,0.802-0.971,1.458-1.708,1.966c-0.738,0.508-1.579,0.77-2.524,0.784v0.107
		c-1.203-0.172-1.862-0.737-1.977-1.697L125.578,136.052z"/>
	<path fill="#FFFFFF" d="M135.611,112.698l-0.236-2.277v-0.236c0-0.616,0.097-1.103,0.29-1.461c0.193-0.358,0.688-0.537,1.482-0.537
		s1.571,0.208,2.331,0.623c0.759,0.416,1.36,0.988,1.805,1.719c0.873,1.433,1.311,3.065,1.311,4.898
		c0,1.833-0.137,3.284-0.408,4.351c-0.272,1.067-0.73,2.059-1.375,2.976c1.146,1.103,1.805,2.915,1.977,5.436
		c0.028,0.573,0.046,1.261,0.054,2.063c0.007,0.802-0.062,1.59-0.204,2.363c-0.144,0.773-0.38,1.511-0.709,2.213
		c-0.344,0.702-0.76,1.311-1.246,1.826c-1.074,1.117-2.514,1.676-4.318,1.676c-0.616,0-1.01-0.272-1.182-0.816
		c-0.115-0.415-0.18-0.917-0.193-1.504l0.43-9.367L135.611,112.698z M137.48,133.903l0.043,0.215v1.977
		c0.988-0.229,1.729-0.813,2.224-1.751c0.494-0.938,0.741-1.812,0.741-2.621c0-0.809-0.011-1.45-0.032-1.923s-0.09-1.053-0.204-1.74
		c-0.115-0.688-0.258-1.289-0.43-1.805c-0.43-1.26-1.096-1.983-1.998-2.17c-0.129,1.891-0.193,4.111-0.193,6.66L137.48,133.903z
		 M137.76,114.954v6.553c1.547-0.043,2.32-1.897,2.32-5.564c0-3.667-0.602-5.571-1.805-5.715
		C137.932,110.973,137.76,112.548,137.76,114.954z"/>
	<path fill="#FFFFFF" d="M145.988,115.685l-0.236-3.717c0-2.077,0.615-3.115,1.848-3.115c0.787,0,1.861,0.183,3.223,0.548
		c1.36,0.365,2.041,0.834,2.041,1.407c0,0.602-0.43,1.06-1.289,1.375c-1.361-0.458-2.471-0.737-3.33-0.838
		c0.043,0.63,0.064,1.261,0.064,1.891l-0.193,6.316c0,0.029,0.043,0.258,0.129,0.688l1.568-0.064c1.418,0,2.127,0.401,2.127,1.203
		c0,0.315-0.129,0.591-0.387,0.827s-0.584,0.354-0.978,0.354c-0.395,0-0.82-0.028-1.278-0.086h-1.117
		c0.086,1.117,0.129,2.228,0.129,3.33l-0.193,7.971c0,1.647,0.028,2.471,0.086,2.471l3.244-0.107c1.117,0,1.676,0.358,1.676,1.074
		c0,0.444-0.193,0.766-0.58,0.967c-0.387,0.2-0.824,0.301-1.311,0.301h-3.717c-0.387,0-0.738-0.133-1.053-0.397
		c-0.315-0.265-0.48-0.583-0.494-0.956v-1.16l-0.279-7.434L145.988,115.685z"/>
	<path fill="#FFFFFF" d="M157.482,123.161l-0.043,4.77c0,3.882,0.279,6.939,0.838,9.174l-0.494,1.182h-1.225l-0.58-0.645
		c0.028-1.317,0.043-2.796,0.043-4.437c0-1.64-0.126-5.146-0.376-10.517c-0.251-5.371-0.376-9.381-0.376-12.031
		c0-1.389,0.486-2.084,1.461-2.084c1.532,0,2.821,0.401,3.867,1.203c1.045,0.802,1.568,1.948,1.568,3.438v3.094
		c0,0.845-0.158,1.615-0.473,2.31c-0.315,0.695-0.681,1.425-1.096,2.191c-0.416,0.767-0.645,1.192-0.688,1.278
		c0.157,0.716,0.437,2.12,0.838,4.211c0.859,4.569,1.812,7.856,2.857,9.861c0.301,0.573,0.451,1.021,0.451,1.343
		s-0.09,0.594-0.269,0.816c-0.18,0.222-0.419,0.333-0.72,0.333c-0.616,0-1.207-0.706-1.772-2.116
		c-0.566-1.411-1.021-2.976-1.364-4.694c-1.046-5.256-1.684-8.149-1.912-8.68H157.482z M157.654,110.206l-0.15,0.623
		c0,1.203,0.028,2.94,0.086,5.21c0.057,2.271,0.086,3.921,0.086,4.952c0.688-0.358,1.242-1.292,1.665-2.804
		c0.422-1.511,0.634-2.667,0.634-3.47c0-0.802-0.021-1.393-0.064-1.772c-0.043-0.379-0.137-0.798-0.279-1.257
		C159.344,110.743,158.686,110.249,157.654,110.206z"/>
	<path fill="#FFFFFF" d="M176.475,129.069l0.215,4.662c0,1.447-0.505,2.561-1.515,3.341c-1.01,0.781-2.188,1.171-3.534,1.171
		c-2.034,0-3.51-0.759-4.426-2.277c-0.659-1.074-1.074-2.087-1.246-3.04c-0.172-0.952-0.294-1.687-0.365-2.202
		c-0.072-0.516-0.122-1.21-0.15-2.084c-0.058-1.217-0.086-2.198-0.086-2.943v-1.891c0-4.139,0.121-6.757,0.365-7.853
		c0.243-1.096,0.522-2.116,0.838-3.062c0.314-0.945,0.701-1.676,1.16-2.191c1.103-1.26,2.377-1.891,3.824-1.891
		c1.446,0,2.17,0.373,2.17,1.117c0,0.344-0.144,0.627-0.43,0.849c-0.287,0.222-0.609,0.333-0.967,0.333l-0.924-0.107
		c-1.018,0-1.783,1.003-2.299,3.008c-0.745,2.865-1.117,6.324-1.117,10.377c0,2.765,0.089,4.666,0.269,5.704
		c0.179,1.039,0.376,1.909,0.591,2.61c0.2,0.716,0.443,1.289,0.73,1.719c0.673,1.017,1.539,1.525,2.6,1.525
		c1.418,0,2.127-2.334,2.127-7.004v-2.02c-0.215-0.114-0.559-0.172-1.031-0.172l-0.859,0.021c-1.018,0-1.525-0.336-1.525-1.01
		c0-0.415,0.146-0.73,0.44-0.945c0.293-0.215,0.647-0.322,1.063-0.322v0.021h0.602c2.635,0,3.953,0.451,3.953,1.354L176.475,129.069
		z"/>
</g>
</svg>
