<?xml version="1.0" encoding="utf-8"?>
<!-- Generator: Adobe Illustrator 16.0.0, SVG Export Plug-In . SVG Version: 6.00 Build 0)  -->
<!DOCTYPE svg PUBLIC "-//W3C//DTD SVG 1.1//EN" "http://www.w3.org/Graphics/SVG/1.1/DTD/svg11.dtd">
<svg version="1.1" id="Layer_1" xmlns="http://www.w3.org/2000/svg" xmlns:xlink="http://www.w3.org/1999/xlink" x="0px" y="0px"
	 width="2000px" height="2000px" viewBox="0 0 2000 2000" enable-background="new 0 0 2000 2000" xml:space="preserve">
<g id="Layer_2">
	<g>
		<path fill="#7F1D78" d="M1859.609,625.828c0-26.941-1.568-38.209-2.784-42.906c-12.447-224.479-198.398-402.677-425.986-402.677
			c-193.103,0-356.125,128.333-408.728,304.327c-52.604-175.993-215.626-304.327-408.729-304.327
			c-227.589,0-413.538,178.198-425.985,402.677c-1.219,4.697-2.785,15.965-2.785,42.906c0,44.138-18.916,317.374,367.815,718.818
			c127.514,144.326,208.08,199.673,314.729,377.359l0.479-0.036c24.82,60.943,83.911,104.237,153.352,105.981v0.067
			c0.379-0.005,0.748-0.027,1.125-0.03c0.379,0.003,0.746,0.025,1.125,0.03v-0.067c69.439-1.744,128.528-45.038,153.35-105.981
			l0.48,0.036c106.646-177.688,187.213-233.033,314.725-377.359C1878.523,943.202,1859.609,669.966,1859.609,625.828z"/>
	</g>
	<g enable-background="new    ">
		<path fill="#FFFFFF" d="M546.549,983.236l-1.86-210.787c0-23.566,0.266-47.049,0.797-70.44l15.151-8.506
			c10.807,0.71,23.125,29.597,36.947,86.654c11.164,46.608,20.202,88.474,27.113,125.596c6.911,37.126,10.72,57.282,11.43,60.472
			c2.479-11.695,7.085-32.604,13.822-62.731c6.732-30.124,11.783-53.515,15.151-70.174c9.922-48.73,16.036-92.058,18.341-129.981
			v-3.189c0.706-4.606,2.924-8.327,6.645-11.164c3.722-2.833,7.617-4.253,11.696-4.253c4.074,0,7.397,1.462,9.968,4.386
			c2.567,2.924,3.854,6.072,3.854,9.437c0,43.418,1.636,108.45,4.917,195.104c3.277,86.654,4.917,151.69,4.917,195.104
			c0,8.685-2.305,16.215-6.911,22.594c-4.61,6.38-9.038,9.569-13.291,9.569c-8.863,0-13.291-7.177-13.291-21.53l-2.126-229.129
			v-27.644c-2.484,14-8.066,38.501-16.746,73.496c-8.685,35-14.267,61.801-16.746,80.407v3.456
			c-0.357,1.42-0.889,4.784-1.595,10.101c-0.71,5.316-1.462,9.702-2.259,13.158c-0.797,3.455-1.994,7.31-3.588,11.563
			c-3.369,8.506-8.951,12.759-16.746,12.759c-12.938,0-19.404-16.921-19.404-50.77c0-33.492-8.153-80.362-24.455-140.614
			c-8.153-30.123-13.382-50.504-15.683-61.136c-0.71,29.064-1.063,50.948-1.063,65.655l4.519,223.812c0,7.8-2.75,14.62-8.24,20.468
			c-9.395,0-15.729-3.012-19.005-9.038c-3.281-6.021-4.917-14.175-4.917-24.454L546.549,983.236z"/>
		<path fill="#FFFFFF" d="M881.205,995.995l5.848,33.492c0,4.432,1.728,15.242,5.183,32.429c3.456,17.19,5.184,28.441,5.184,33.758
			v0.532c0,7.974-3.016,13.111-9.038,15.417c-7.622,0-13.557-1.242-17.81-3.722s-6.379-7.264-6.379-14.354
			c0-15.417-2.658-37.833-7.974-67.25l-53.694-7.975c-3.368,12.053-5.939,25.252-7.708,39.605
			c-1.773,14.354-3.456,24.812-5.05,31.366c-3.19,13.469-9.129,20.201-17.809,20.201c-4.253,0-8.199-1.375-11.829-4.12
			c-3.634-2.745-5.449-6.246-5.449-10.499l1.329-4.785c24.455-94.449,42.617-186.42,54.491-275.911
			c0.353-2.479,0.884-9.743,1.595-21.796c1.769-26.581,5.138-43.502,10.101-50.77h18.341c4.959,0,9.304,1.154,13.025,3.455
			c3.721,2.305,5.582,5.761,5.582,10.366c0,27.645,3.676,68.671,11.031,123.07C877.525,932.911,881.205,972.072,881.205,995.995z
			 M852.763,1006.894c-1.063-5.316-1.595-14.574-1.595-27.777c0-13.199-0.756-29.592-2.26-49.175
			c-1.507-19.579-3.68-42.352-6.512-68.313c-2.836-25.958-4.785-44.789-5.848-56.484c-16.48,91.265-27.113,155.59-31.897,192.979
			C810.853,1002.2,826.888,1005.124,852.763,1006.894z"/>
		<path fill="#FFFFFF" d="M925.595,886.216l3.19-101.54c0-16.833,6.645-30.211,19.936-40.137v3.455
			c1.417-0.885,2.746-1.329,3.987-1.329c8.506,0,19.138,14.665,31.897,43.992c12.759,29.33,24.276,61.534,34.556,96.622
			c10.275,35.087,20.509,70.485,30.701,106.19c10.188,35.71,16.521,56.663,19.006,62.864
			c7.264-76.021,10.897-168.079,10.897-276.177l-0.798-14.619c0-10.808,4.52-16.215,13.557-16.215c5.138,0,8.992,2.127,11.563,6.38
			c2.567,4.253,3.855,9.216,3.855,14.885v41.201c-0.357,42.708-2.26,99.725-5.716,171.049
			c-3.456,71.328-8.106,111.599-13.955,120.811c-9.927,3.011-16.792,4.519-20.601,4.519c-3.813,0-6.736-1.287-8.771-3.854
			c-2.039-2.566-3.68-6.512-4.917-11.828c-1.242-5.316-2.306-8.859-3.19-10.633l0.266-2.392c0-13.465-13.023-56.261-39.073-128.387
			c-26.05-72.122-44.922-121.741-56.618-148.854v274.05c0.353,0.711,1.063,1.952,2.126,3.722c2.301,3.9,3.456,7.534,3.456,10.898
			c0,3.368-1.641,6.736-4.917,10.101c-3.281,3.368-7.135,5.051-11.563,5.051c-11.874,0-17.809-11.073-17.809-33.227L925.595,886.216
			z"/>
		<path fill="#FFFFFF" d="M1204.43,925.556l2.658,115.627v16.215l-0.266,15.151h7.177l15.683-0.532
			c14.886,0,22.328,4.52,22.328,13.557c0,4.61-1.818,8.552-5.449,11.828c-3.634,3.281-7.842,4.918-12.625,4.918h-23.924
			c-16.48,0-27.025-0.354-31.631-1.063c-2.837,0.357-5.051,0.532-6.646,0.532c-12.938,0-19.404-4.075-19.404-12.228
			c0-3.364,1.063-6.554,3.19-9.569c2.126-3.011,4.252-4.606,6.379-4.784h15.417l1.063-7.178l-3.722-115.627l2.924-121.21
			c0-20.732-0.889-40.224-2.658-58.478h-10.366l-12.493,0.531c-5.316,0-9.481-1.018-12.493-3.057
			c-3.016-2.035-4.52-5.89-4.52-11.563c0-8.328,8.947-12.493,26.848-12.493h64.857c14.707,0,22.063,3.813,22.063,11.43
			c0,3.368-1.595,6.471-4.785,9.304c-3.189,2.836-6.823,4.253-10.898,4.253h-27.909c1.416,14.885,2.126,31.723,2.126,50.504
			L1204.43,925.556z"/>
		<path fill="#FFFFFF" d="M1311.551,801.422l1.596,130.779c-2.127,4.963-3.189,11.164-3.189,18.606v10.898l-2.127,86.653
			c0,24.986,6.113,37.479,18.341,37.479l22.594-0.797c19.491,0,29.239,5.315,29.239,15.948c0,3.9-1.686,7.131-5.051,9.702
			c-3.368,2.566-7.177,4.12-11.43,4.651c-13.291-4.253-29.505-6.379-48.643-6.379c-5.848,3.364-11.477,5.05-16.879,5.05
			c-5.408,0-9.615-1.86-12.627-5.582c-3.015-3.721-4.519-7.795-4.519-12.227c0-26.935,1.151-67.471,3.456-121.608
			c2.301-54.134,3.455-94.67,3.455-121.608v-3.987c-2.127-22.681-3.189-39.692-3.189-51.035c0-34.377,6.288-51.567,18.873-51.567
			c3.721,0,6.952,1.329,9.701,3.987c2.746,2.658,4.12,5.848,4.12,9.569L1311.551,801.422z"/>
		<path fill="#FFFFFF" d="M1522.871,995.995l5.847,33.492c0,4.432,1.729,15.242,5.184,32.429c3.456,17.19,5.184,28.441,5.184,33.758
			v0.532c0,7.974-3.016,13.111-9.038,15.417c-7.621,0-13.557-1.242-17.809-3.722c-4.254-2.479-6.38-7.264-6.38-14.354
			c0-15.417-2.658-37.833-7.974-67.25l-53.694-7.975c-3.368,12.053-5.938,25.252-7.708,39.605
			c-1.773,14.354-3.456,24.812-5.051,31.366c-3.189,13.469-9.129,20.201-17.809,20.201c-4.254,0-8.199-1.375-11.829-4.12
			c-3.634-2.745-5.449-6.246-5.449-10.499l1.329-4.785c24.455-94.449,42.617-186.42,54.491-275.911
			c0.353-2.479,0.884-9.743,1.595-21.796c1.77-26.581,5.138-43.502,10.101-50.77h18.341c4.959,0,9.304,1.154,13.025,3.455
			c3.721,2.305,5.582,5.761,5.582,10.366c0,27.645,3.676,68.671,11.031,123.07C1519.19,932.911,1522.871,972.072,1522.871,995.995z
			 M1494.429,1006.894c-1.063-5.316-1.595-14.574-1.595-27.777c0-13.199-0.756-29.592-2.26-49.175
			c-1.508-19.579-3.68-42.352-6.512-68.313c-2.837-25.958-4.785-44.789-5.848-56.484c-16.48,91.265-27.113,155.59-31.898,192.979
			C1452.518,1002.2,1468.554,1005.124,1494.429,1006.894z"/>
	</g>
</g>
</svg>
