<?xml version="1.0" encoding="utf-8"?>
<!-- Generator: Adobe Illustrator 16.0.0, SVG Export Plug-In . SVG Version: 6.00 Build 0)  -->
<!DOCTYPE svg PUBLIC "-//W3C//DTD SVG 1.1//EN" "http://www.w3.org/Graphics/SVG/1.1/DTD/svg11.dtd">
<svg version="1.1" id="Layer_1" xmlns="http://www.w3.org/2000/svg" xmlns:xlink="http://www.w3.org/1999/xlink" x="0px" y="0px"
	 width="214.489px" height="218.989px" viewBox="0 0 214.489 218.989" enable-background="new 0 0 214.489 218.989"
	 xml:space="preserve">
<g>
	<path fill="#7F1D78" d="M199.744,71.443c0-2.975-0.174-4.22-0.308-4.738c-1.374-24.79-21.909-44.469-47.043-44.469
		c-21.325,0-39.328,14.172-45.138,33.608c-5.809-19.436-23.812-33.608-45.137-33.608c-25.133,0-45.668,19.679-47.042,44.469
		c-0.136,0.519-0.308,1.763-0.308,4.738c0,4.875-2.09,35.048,40.619,79.381c14.081,15.939,22.979,22.051,34.756,41.674l0.053-0.005
		c2.741,6.731,9.268,11.511,16.935,11.704v0.008c0.042,0,0.083-0.004,0.124-0.004c0.043,0,0.083,0.004,0.125,0.004v-0.008
		c7.668-0.193,14.193-4.973,16.936-11.704l0.052,0.005c11.778-19.623,20.675-25.734,34.757-41.674
		C201.833,106.492,199.744,76.318,199.744,71.443z"/>
</g>
<g>
</g>
<g>
	<path fill="#FFFFFF" d="M95.07,76.04l0.301-8.078v-0.279c0-1.461,0.322-2.191,0.967-2.191c0.587,0,1.375,1.361,2.363,4.082
		c1.805,4.941,3.967,13.099,6.488,24.471l0.043,0.215l0.172-15.34v-13.02c0.172-0.73,0.651-1.096,1.439-1.096
		c0.787,0,1.182,0.573,1.182,1.719v0.258c-0.172,0.358-0.258,0.788-0.258,1.289l-0.279,16.264v13.449
		c0,0.444-0.122,0.881-0.365,1.311c-0.244,0.43-0.545,0.645-0.902,0.645c-0.616,0-1.819-3.019-3.609-9.056
		c-1.791-6.037-3.56-12.529-5.307-19.476v14.438c0,1.404,0.104,3.495,0.312,6.273c0.207,2.779,0.312,4.87,0.312,6.273
		c0,0.272-0.165,0.498-0.494,0.677c-0.33,0.179-0.749,0.269-1.257,0.269c-0.509,0-0.763-0.229-0.763-0.688l0.215-3.158
		c0-1.518-0.094-3.981-0.279-7.391c-0.187-3.409-0.279-5.493-0.279-6.252V76.04z"/>
	<path fill="#FFFFFF" d="M118.918,99.759c-0.745,0-1.117-0.487-1.117-1.461c0-5.586-0.129-10.756-0.387-15.512
		c-0.788-0.143-1.525-0.215-2.213-0.215s-1.304,0.115-1.848,0.344c0,1.633,0.121,4.104,0.365,7.412
		c0.243,3.309,0.365,5.808,0.365,7.498c0,0.287-0.086,0.552-0.258,0.795c-0.172,0.244-0.401,0.365-0.688,0.365
		c-0.803,0.015-1.39-2.499-1.762-7.541c-0.502-6.832-0.752-15.096-0.752-24.793c0-0.53,0.25-0.795,0.752-0.795
		c0.271,0,0.565,0.075,0.881,0.226c0.314,0.15,0.537,0.312,0.666,0.483c-0.101,1.046-0.15,2.148-0.15,3.309l0.301,9.045
		l-0.043,1.654c0,0.416,0.028,0.795,0.086,1.139l4.275-0.322l-0.172-14.438v-1.16c1.117,0,1.783,0.501,1.998,1.504
		c0.1,0.487,0.15,1.726,0.15,3.717c0,1.991,0.14,6.213,0.419,12.665c0.279,6.453,0.419,11.283,0.419,14.491
		c0,0.387-0.122,0.749-0.365,1.085C119.598,99.59,119.29,99.759,118.918,99.759z"/>
</g>
<g>
	<path fill="#FFFFFF" d="M61.592,122.979l-1.096-0.043c-0.43,0-0.73,0.107-0.902,0.322v13.578c1.504-0.086,2.32-0.129,2.449-0.129
		c1.676,0,2.514,0.387,2.514,1.16v0.15c-0.201,0.401-0.545,0.709-1.031,0.924c-0.487,0.215-0.917,0.337-1.289,0.365
		c-0.373,0.028-0.853,0.043-1.439,0.043h-1.375c-1.089,0-1.762-0.215-2.02-0.645c-0.115-0.2-0.172-0.466-0.172-0.795v-25.566
		c0-0.501-0.101-1.246-0.301-2.234c-0.201-0.988-0.301-1.74-0.301-2.256v-0.15c0.486-0.802,0.852-1.317,1.096-1.547l3.266-0.387
		c0.443,0,0.892,0.133,1.343,0.397c0.451,0.265,0.677,0.612,0.677,1.042c0,0.874-0.666,1.311-1.998,1.311l-1.268-0.043
		c-0.215,0-0.373,0.007-0.473,0.021l0.344,7.262c0,0.587-0.036,1.443-0.107,2.567c-0.072,1.125-0.107,1.944-0.107,2.46
		c0.157-0.028,0.372-0.079,0.645-0.15c0.602-0.157,1.07-0.236,1.407-0.236c0.336,0,0.637,0.122,0.902,0.365
		c0.265,0.243,0.397,0.537,0.397,0.881s-0.107,0.651-0.322,0.924S61.936,122.979,61.592,122.979z"/>
	<path fill="#FFFFFF" d="M68.682,124.354l-0.043,4.77c0,3.882,0.279,6.939,0.838,9.174l-0.494,1.182h-1.225l-0.58-0.645
		c0.028-1.317,0.043-2.796,0.043-4.437c0-1.64-0.126-5.146-0.376-10.517c-0.251-5.371-0.376-9.382-0.376-12.031
		c0-1.389,0.486-2.084,1.461-2.084c1.532,0,2.821,0.401,3.867,1.203c1.045,0.802,1.568,1.948,1.568,3.438v3.094
		c0,0.845-0.158,1.615-0.473,2.31c-0.315,0.695-0.681,1.426-1.096,2.191c-0.416,0.767-0.645,1.192-0.688,1.278
		c0.157,0.716,0.437,2.12,0.838,4.211c0.859,4.569,1.812,7.856,2.857,9.861c0.301,0.573,0.451,1.021,0.451,1.343
		s-0.09,0.594-0.269,0.816c-0.18,0.222-0.419,0.333-0.72,0.333c-0.616,0-1.207-0.706-1.772-2.116
		c-0.566-1.41-1.021-2.976-1.364-4.694c-1.046-5.257-1.684-8.149-1.912-8.68H68.682z M68.854,111.399l-0.15,0.623
		c0,1.203,0.028,2.94,0.086,5.21c0.057,2.271,0.086,3.921,0.086,4.952c0.688-0.358,1.242-1.292,1.665-2.804
		c0.422-1.511,0.634-2.668,0.634-3.47s-0.021-1.393-0.064-1.772c-0.043-0.379-0.137-0.798-0.279-1.257
		C70.543,111.937,69.885,111.442,68.854,111.399z"/>
	<path fill="#FFFFFF" d="M80.025,114.429l0.129,10.57c-0.172,0.401-0.258,0.902-0.258,1.504v0.881l-0.172,7.004
		c0,2.02,0.494,3.029,1.482,3.029l1.826-0.064c1.575,0,2.363,0.43,2.363,1.289c0,0.315-0.137,0.576-0.408,0.784
		c-0.272,0.207-0.58,0.333-0.924,0.376c-1.074-0.344-2.385-0.516-3.932-0.516c-0.473,0.272-0.928,0.408-1.364,0.408
		c-0.438,0-0.777-0.15-1.021-0.451c-0.244-0.301-0.365-0.63-0.365-0.988c0-2.177,0.093-5.453,0.279-9.829
		c0.186-4.375,0.279-7.652,0.279-9.829v-0.322c-0.172-1.833-0.258-3.208-0.258-4.125c0-2.778,0.508-4.168,1.525-4.168
		c0.301,0,0.562,0.107,0.784,0.322c0.222,0.215,0.333,0.473,0.333,0.773L80.025,114.429z"/>
	<path fill="#FFFFFF" d="M97.105,130.155l0.473,2.707c0,0.358,0.14,1.231,0.419,2.621s0.419,2.299,0.419,2.729v0.043
		c0,0.645-0.244,1.06-0.73,1.246c-0.616,0-1.096-0.101-1.439-0.301s-0.516-0.587-0.516-1.16c0-1.246-0.215-3.058-0.645-5.436
		l-4.34-0.645c-0.272,0.974-0.48,2.041-0.623,3.201c-0.144,1.16-0.279,2.005-0.408,2.535c-0.258,1.089-0.738,1.633-1.439,1.633
		c-0.344,0-0.663-0.111-0.956-0.333c-0.294-0.222-0.44-0.505-0.44-0.849l0.107-0.387c1.977-7.634,3.444-15.067,4.404-22.301
		c0.028-0.2,0.071-0.788,0.129-1.762c0.143-2.148,0.415-3.516,0.816-4.104h1.482c0.4,0,0.752,0.093,1.053,0.279
		c0.301,0.187,0.451,0.466,0.451,0.838c0,2.234,0.297,5.55,0.892,9.947C96.808,125.057,97.105,128.222,97.105,130.155z
		 M94.807,131.036c-0.086-0.43-0.129-1.178-0.129-2.245c0-1.066-0.062-2.392-0.183-3.975c-0.122-1.582-0.298-3.423-0.526-5.521
		c-0.229-2.098-0.387-3.62-0.473-4.565c-1.332,7.376-2.191,12.575-2.578,15.598C91.419,130.656,92.715,130.893,94.807,131.036z"/>
	<path fill="#FFFFFF" d="M100.693,121.282l0.258-8.207c0-1.36,0.537-2.442,1.611-3.244v0.279c0.114-0.071,0.222-0.107,0.322-0.107
		c0.688,0,1.547,1.186,2.578,3.556c1.031,2.371,1.962,4.974,2.793,7.81c0.83,2.836,1.657,5.697,2.481,8.583
		c0.823,2.887,1.335,4.58,1.536,5.081c0.587-6.145,0.881-13.585,0.881-22.322l-0.064-1.182c0-0.874,0.365-1.311,1.096-1.311
		c0.415,0,0.727,0.172,0.935,0.516c0.207,0.344,0.312,0.745,0.312,1.203v3.33c-0.029,3.452-0.183,8.061-0.462,13.825
		c-0.279,5.766-0.655,9.02-1.128,9.765c-0.803,0.243-1.357,0.365-1.665,0.365c-0.309,0-0.545-0.104-0.709-0.312
		c-0.165-0.207-0.298-0.526-0.397-0.956c-0.101-0.43-0.187-0.716-0.258-0.859l0.021-0.193c0-1.089-1.053-4.548-3.158-10.377
		s-3.631-9.84-4.576-12.031v22.15c0.028,0.058,0.086,0.157,0.172,0.301c0.186,0.315,0.279,0.608,0.279,0.881
		s-0.133,0.544-0.397,0.816c-0.266,0.272-0.577,0.408-0.935,0.408c-0.96,0-1.439-0.896-1.439-2.686L100.693,121.282z"/>
	<path fill="#FFFFFF" d="M129.182,130.263l0.215,4.662c0,1.446-0.505,2.561-1.515,3.341c-1.01,0.781-2.188,1.171-3.534,1.171
		c-2.034,0-3.51-0.759-4.426-2.277c-0.659-1.074-1.074-2.087-1.246-3.04c-0.172-0.952-0.294-1.687-0.365-2.202
		c-0.072-0.516-0.122-1.21-0.15-2.084c-0.058-1.218-0.086-2.198-0.086-2.943v-1.891c0-4.14,0.121-6.757,0.365-7.853
		c0.243-1.096,0.522-2.116,0.838-3.062c0.314-0.945,0.701-1.676,1.16-2.191c1.103-1.26,2.377-1.891,3.824-1.891
		c1.446,0,2.17,0.373,2.17,1.117c0,0.344-0.144,0.627-0.43,0.849c-0.287,0.222-0.609,0.333-0.967,0.333l-0.924-0.107
		c-1.018,0-1.783,1.003-2.299,3.008c-0.745,2.864-1.117,6.323-1.117,10.377c0,2.765,0.089,4.666,0.269,5.704
		c0.179,1.039,0.376,1.908,0.591,2.61c0.2,0.716,0.443,1.289,0.73,1.719c0.673,1.017,1.539,1.525,2.6,1.525
		c1.418,0,2.127-2.335,2.127-7.004v-2.02c-0.215-0.114-0.559-0.172-1.031-0.172l-0.859,0.021c-1.018,0-1.525-0.337-1.525-1.01
		c0-0.415,0.146-0.73,0.44-0.945c0.293-0.215,0.647-0.322,1.063-0.322v0.021h0.602c2.635,0,3.953,0.451,3.953,1.354L129.182,130.263
		z"/>
	<path fill="#FFFFFF" d="M132.641,116.878l-0.236-3.717c0-2.077,0.615-3.115,1.848-3.115c0.787,0,1.861,0.183,3.223,0.548
		c1.36,0.365,2.041,0.834,2.041,1.407c0,0.602-0.43,1.06-1.289,1.375c-1.361-0.458-2.471-0.737-3.33-0.838
		c0.043,0.63,0.064,1.261,0.064,1.891l-0.193,6.316c0,0.028,0.043,0.258,0.129,0.688l1.568-0.064c1.418,0,2.127,0.401,2.127,1.203
		c0,0.315-0.129,0.591-0.387,0.827s-0.584,0.354-0.978,0.354c-0.395,0-0.82-0.028-1.278-0.086h-1.117
		c0.086,1.117,0.129,2.228,0.129,3.33l-0.193,7.971c0,1.647,0.028,2.471,0.086,2.471l3.244-0.107c1.117,0,1.676,0.358,1.676,1.074
		c0,0.444-0.193,0.767-0.58,0.967s-0.824,0.301-1.311,0.301h-3.717c-0.387,0-0.738-0.133-1.053-0.397
		c-0.315-0.265-0.48-0.584-0.494-0.956v-1.16l-0.279-7.434L132.641,116.878z"/>
	<path fill="#FFFFFF" d="M141.943,121.282l0.258-8.207c0-1.36,0.537-2.442,1.611-3.244v0.279c0.114-0.071,0.222-0.107,0.322-0.107
		c0.688,0,1.547,1.186,2.578,3.556c1.031,2.371,1.962,4.974,2.793,7.81c0.83,2.836,1.657,5.697,2.481,8.583
		c0.823,2.887,1.335,4.58,1.536,5.081c0.587-6.145,0.881-13.585,0.881-22.322l-0.064-1.182c0-0.874,0.365-1.311,1.096-1.311
		c0.415,0,0.727,0.172,0.935,0.516c0.207,0.344,0.312,0.745,0.312,1.203v3.33c-0.029,3.452-0.183,8.061-0.462,13.825
		c-0.279,5.766-0.655,9.02-1.128,9.765c-0.803,0.243-1.357,0.365-1.665,0.365c-0.309,0-0.545-0.104-0.709-0.312
		c-0.165-0.207-0.298-0.526-0.397-0.956c-0.101-0.43-0.187-0.716-0.258-0.859l0.021-0.193c0-1.089-1.053-4.548-3.158-10.377
		s-3.631-9.84-4.576-12.031v22.15c0.028,0.058,0.086,0.157,0.172,0.301c0.186,0.315,0.279,0.608,0.279,0.881
		s-0.133,0.544-0.397,0.816c-0.266,0.272-0.577,0.408-0.935,0.408c-0.96,0-1.439-0.896-1.439-2.686L141.943,121.282z"/>
</g>
</svg>
