<?xml version="1.0" encoding="utf-8"?>
<!-- Generator: Adobe Illustrator 16.0.0, SVG Export Plug-In . SVG Version: 6.00 Build 0)  -->
<!DOCTYPE svg PUBLIC "-//W3C//DTD SVG 1.1//EN" "http://www.w3.org/Graphics/SVG/1.1/DTD/svg11.dtd">
<svg version="1.1" id="Layer_1" xmlns="http://www.w3.org/2000/svg" xmlns:xlink="http://www.w3.org/1999/xlink" x="0px" y="0px"
	 width="2000px" height="2000px" viewBox="0 0 2000 2000" enable-background="new 0 0 2000 2000" xml:space="preserve">
<g id="Layer_3">
	<g>
		<path fill="#FF46AF" d="M1855.869,624.171c0-26.901-1.563-38.154-2.778-42.843c-12.428-224.147-198.104-402.083-425.355-402.083
			c-192.818,0-355.602,128.144-408.125,303.878c-52.525-175.734-215.31-303.878-408.124-303.878
			c-227.253,0-412.928,177.936-425.356,402.083c-1.217,4.688-2.781,15.939-2.781,42.843c0,44.073-18.888,316.905,367.273,717.758
			c127.323,144.114,207.772,199.378,314.262,376.807l0.479-0.037c24.781,60.854,83.783,104.082,153.124,105.823v0.069
			c0.377-0.005,0.744-0.029,1.122-0.032c0.378,0.004,0.747,0.027,1.124,0.032v-0.069c69.339-1.741,128.34-44.972,153.122-105.823
			l0.479,0.037c106.489-177.429,186.938-232.69,314.264-376.807C1874.76,941.076,1855.869,668.245,1855.869,624.171z"/>
	</g>
	<g enable-background="new    ">
		<path fill="#FFFFFF" d="M528.56,961.406l-3.716-220.828v-3.185c0-19.463,3.006-31.851,9.024-37.159
			c3.007-2.654,6.81-3.98,11.413-3.98c25.833,0,46.004,8.318,60.515,24.949c14.507,16.634,21.765,38.046,21.765,64.23
			c0,16.456-4.338,33.534-13.006,51.227c-8.671,17.695-19.023,30.879-31.054,39.547c22.117,14.863,37.909,33.754,47.377,56.667
			c9.464,22.917,14.2,46.938,14.2,72.061c0,13.271-3.318,26.898-9.953,40.875c-6.636,13.979-13.271,25.127-19.907,33.442
			c-6.635,8.319-15.353,15.307-26.144,20.968c-10.795,5.661-22.652,8.493-35.566,8.493h-2.124c-16.987,0-25.48-4.512-25.48-13.536
			L528.56,961.406z M562.002,727.042c-5.134,0-7.697,6.503-7.697,19.508c0,13.006,0.353,33.443,1.062,61.312
			c0.705,27.869,1.062,48.087,1.062,60.648c9.377-2.123,17.426-9.907,24.153-23.356c5.482-11.322,9.995-22.25,13.536-32.779
			c3.538-10.525,5.839-17.028,6.901-19.509V773.49c0-10.617-3.94-21.01-11.811-31.187
			C581.332,732.131,572.262,727.042,562.002,727.042z M601.549,1055.364c10.26-13.802,15.395-29.727,15.395-47.775
			s-1.505-33.928-4.512-47.643c-3.011-13.71-6.329-24.062-9.953-31.054c-3.629-6.988-7.83-12.96-12.607-17.916
			c-5.839-6.014-10.617-9.642-14.333-10.882h-19.375c1.767,50.077,2.654,110.148,2.654,180.219
			C577.04,1077.485,591.285,1069.166,601.549,1055.364z"/>
		<path fill="#FFFFFF" d="M671.62,938.05l0.531-20.703c0-1.767-0.266-2.654-0.796-2.654v-9.82c0-56.974,3.272-97.495,9.82-121.562
			c5.482-20.346,10.791-32.912,15.925-37.689c5.13-4.777,10.173-7.166,15.129-7.166c42.11,0,71.132,21.233,87.057,63.7
			c9.198,24.419,13.802,54.502,13.802,90.242v3.981l1.062,61.577c0,104.222-24.153,156.331-72.459,156.331
			c-19.998,0-35.301-11.057-45.917-33.178c-10.086-21.233-16.282-42.109-18.579-62.639
			C673.478,987.509,671.62,960.701,671.62,938.05z M703.735,863.732l-2.654,50.164c0,52.553,4.247,98.383,12.74,137.486
			c9.024,22.826,17.604,36.275,25.746,40.344c6.544,0,12.475-2.654,17.783-7.963c5.308-5.308,9.509-12.429,12.607-21.366
			c3.094-8.933,5.707-18.354,7.83-28.267c1.945-9.729,3.45-20.172,4.512-31.319c1.767-19.284,2.654-35.74,2.654-49.368
			c0-13.623-1.195-34.504-3.583-62.639c-2.389-28.134-3.583-49.103-3.583-62.904v-9.555c-0.356-13.271-4.69-25.082-13.005-35.434
			c-8.319-10.351-18.936-15.526-31.85-15.526c-12.388,0-20.616,6.992-24.684,20.968c-3.363,11.679-5.043,26.103-5.043,43.264
			L703.735,863.732z"/>
		<path fill="#FFFFFF" d="M874.93,922.124l-0.531,58.923c0,47.954,3.45,85.73,10.351,113.334l-6.104,14.598h-15.129l-7.167-7.962
			c0.353-16.278,0.531-34.546,0.531-54.81c0-20.259-1.551-63.567-4.645-129.922c-3.098-66.354-4.645-115.896-4.645-148.634
			c0-17.161,6.014-25.746,18.049-25.746c18.932,0,34.856,4.956,47.775,14.863c12.915,9.912,19.375,24.066,19.375,42.467v38.221
			c0,10.442-1.949,19.952-5.839,28.532c-3.895,8.585-8.406,17.609-13.537,27.072c-5.134,9.469-7.962,14.731-8.493,15.793
			c1.945,8.85,5.396,26.189,10.351,52.021c10.617,56.447,22.382,97.057,35.301,121.827c3.716,7.079,5.574,12.607,5.574,16.589
			s-1.107,7.341-3.318,10.086c-2.214,2.741-5.175,4.114-8.891,4.114c-7.61,0-14.909-8.718-21.897-26.145
			c-6.992-17.426-12.607-36.76-16.854-57.993c-12.918-64.937-20.793-100.681-23.622-107.229H874.93z M877.053,762.077l-1.858,7.697
			c0,14.863,0.353,36.32,1.062,64.364c0.705,28.047,1.062,48.438,1.062,61.179c8.493-4.421,15.349-15.967,20.57-34.638
			c5.217-18.666,7.83-32.953,7.83-42.864c0-9.908-0.266-17.207-0.796-21.897c-0.531-4.687-1.684-9.862-3.451-15.527
			C897.93,768.713,889.793,762.608,877.053,762.077z"/>
		<path fill="#FFFFFF" d="M1094.166,993.787l5.839,33.442c0,4.426,1.726,15.221,5.176,32.382c3.45,17.165,5.176,28.399,5.176,33.708
			v0.53c0,7.963-3.011,13.093-9.024,15.395c-7.609,0-13.536-1.24-17.783-3.716c-4.246-2.476-6.369-7.254-6.369-14.333
			c0-15.394-2.654-37.776-7.963-67.15l-53.615-7.963c-3.363,12.035-5.93,25.215-7.697,39.548
			c-1.77,14.332-3.449,24.774-5.043,31.319c-3.185,13.449-9.115,20.172-17.782,20.172c-4.247,0-8.187-1.373-11.811-4.114
			c-3.629-2.741-5.441-6.237-5.441-10.484l1.327-4.777c24.418-94.311,42.554-186.146,54.411-275.504
			c0.353-2.476,0.883-9.729,1.593-21.765c1.767-26.541,5.13-43.438,10.086-50.694h18.313c4.951,0,9.29,1.152,13.006,3.45
			c3.716,2.302,5.574,5.752,5.574,10.352c0,27.604,3.67,68.569,11.014,122.889C1090.491,930.796,1094.166,969.899,1094.166,993.787z
			 M1065.766,1004.669c-1.061-5.308-1.592-14.552-1.592-27.735c0-13.18-0.755-29.549-2.256-49.103
			c-1.506-19.55-3.675-42.289-6.504-68.213c-2.832-25.92-4.777-44.723-5.838-56.401c-16.457,91.13-27.073,155.361-31.851,192.693
			C1023.917,999.983,1039.93,1002.902,1065.766,1004.669z"/>
		<path fill="#FFFFFF" d="M1133.979,972.819l-0.266-31.851v-13.005c0-53.437,2.654-90.595,7.963-111.476
			c6.369-25.833,15.215-43.703,26.541-53.615c15.395-13.802,34.857-20.702,58.393-20.702c5.66,0,9.861,1.327,12.607,3.981
			c2.74,2.654,4.113,5.839,4.113,9.555s-1.107,7.033-3.317,9.953c-2.215,2.92-5.001,4.471-8.36,4.645h-25.48
			c-7.432,0-13.893,4.778-19.375,14.333c-5.309,9.555-9.203,21.233-11.68,35.035c-4.603,26.189-6.813,47.866-6.635,65.027v2.654
			l-2.389,104.84c0,22.121,1.194,37.425,3.583,45.918s4.864,15.353,7.432,20.569c2.563,5.222,5.615,9.514,9.157,12.873
			c8.137,7.788,18.579,11.679,31.319,11.679c4.247,0,8.137-1.593,11.679-4.777c4.246,0,8.049,0.975,11.412,2.919
			c3.359,1.949,5.043,4.956,5.043,9.024c0,14.333-9.998,21.499-29.992,21.499c-8.141,0-16.68-1.194-25.613-3.583
			c-8.937-2.389-15.617-4.998-20.039-7.83C1146.009,1084.917,1133.979,1042.358,1133.979,972.819z"/>
		<path fill="#FFFFFF" d="M1393.027,993.787l5.838,33.442c0,4.426,1.726,15.221,5.176,32.382
			c3.451,17.165,5.176,28.399,5.176,33.708v0.53c0,7.963-3.01,13.093-9.023,15.395c-7.61,0-13.537-1.24-17.783-3.716
			c-4.247-2.476-6.37-7.254-6.37-14.333c0-15.394-2.654-37.776-7.963-67.15l-53.614-7.963c-3.363,12.035-5.931,25.215-7.697,39.548
			c-1.771,14.332-3.45,24.774-5.043,31.319c-3.186,13.449-9.115,20.172-17.783,20.172c-4.246,0-8.186-1.373-11.811-4.114
			c-3.629-2.741-5.441-6.237-5.441-10.484l1.327-4.777c24.419-94.311,42.554-186.146,54.411-275.504
			c0.352-2.476,0.883-9.729,1.592-21.765c1.768-26.541,5.131-43.438,10.086-50.694h18.314c4.951,0,9.289,1.152,13.006,3.45
			c3.715,2.302,5.573,5.752,5.573,10.352c0,27.604,3.67,68.569,11.015,122.889C1389.352,930.796,1393.027,969.899,1393.027,993.787z
			 M1364.627,1004.669c-1.062-5.308-1.593-14.552-1.593-27.735c0-13.18-0.755-29.549-2.256-49.103
			c-1.505-19.55-3.675-42.289-6.503-68.213c-2.832-25.92-4.777-44.723-5.839-56.401c-16.456,91.13-27.073,155.361-31.851,192.693
			C1322.777,999.983,1338.79,1002.902,1364.627,1004.669z"/>
		<path fill="#FFFFFF" d="M1506.625,1075.271c0,24.244-5.93,36.362-17.783,36.362c-6.548,0-11.591-3.981-15.129-11.943
			c4.068-7.963,6.105-38.66,6.105-92.101c0-9.729-0.975-23.531-2.92-41.405c-1.949-17.87-3.098-30.61-3.45-38.22v-14.067
			c-0.71-1.593-6.37-15.925-16.987-42.998c-24.065-60.689-36.097-96.878-36.097-108.556v-2.92l12.21-9.024
			c11.146,0.179,24.418,28.226,39.813,84.138c6.723,24.419,10.086,36.719,10.086,36.894c1.414-4.068,4.246-17.604,8.493-40.609
			c10.79-58.744,22.116-88.119,33.974-88.119c3.359,0,6.412,1.063,9.156,3.186c2.742,2.123,4.115,4.869,4.115,8.228
			c0,18.049-5.176,44.284-15.527,78.697c-10.352,34.417-15.705,60.647-16.059,78.696V1075.271z"/>
	</g>
</g>
</svg>
