<?xml version="1.0" encoding="utf-8"?>
<!-- Generator: Adobe Illustrator 16.0.0, SVG Export Plug-In . SVG Version: 6.00 Build 0)  -->
<!DOCTYPE svg PUBLIC "-//W3C//DTD SVG 1.1//EN" "http://www.w3.org/Graphics/SVG/1.1/DTD/svg11.dtd">
<svg version="1.1" id="layer1" xmlns="http://www.w3.org/2000/svg" xmlns:xlink="http://www.w3.org/1999/xlink" x="0px" y="0px"
	 width="2000px" height="2000px" viewBox="0 0 2000 2000" enable-background="new 0 0 2000 2000" xml:space="preserve">
<polygon fill="#FCFAF1" points="1132.418,582.882 820.529,418.72 380.855,406.38 114.295,523.23 78.214,646.975 165.567,843.152 
	369.303,1057.795 701.641,1171.997 902.567,1268.863 1261.061,1247.96 1416.383,1100.125 1390.324,914.485 "/>
<polygon fill="#D0DEE7" points="133.22,815.313 850.317,452.788 1161.079,601.906 437.978,1085.914 "/>
<polygon fill="#D0DEE7" points="708.768,1065.568 1209.307,679.983 1290.186,749.551 777.99,1181.388 "/>
<path fill="#52B5FF" d="M1956.705,136.639l-70.379-50.689l-85.247,14.016c-142.826,353.241-528.074,1305.797-613.676,1514.858
	c-30.292,73.982-72.309,119.247-128.437,138.298c-82.342,27.978-203.045,0.731-339.888-76.687
	c-175.296-99.2-71.515-363.231-67.017-374.427l-84.396-34.271l-84.282-34.509c-59.432,145.146-105.31,457.313,146.496,599.768
	c40.621,22.988,80.395,42.446,119.24,58.35c138.767,56.785,264.999,68.198,369.953,32.553
	c106.836-36.299,186.562-117.046,236.924-240.045c84.955-207.48,464.18-1145.122,610.023-1505.853L1956.705,136.639z"/>
<path fill="#317DA3" d="M459.995,1268.067l-55.193,201.567l17.404,171.177l177.899,193.126l190.938,94.588l106.003,21.526
	l199.253-5.888l47.267-21.174l67.084-57.775c-246.58,161.499-540.709-68.284-678.607-212.239
	c-103.844-108.405-53.513-305.56-22.318-396.35L459.995,1268.067z"/>
<path fill="#317DA3" d="M1931.592,104.483c0,0-634.78,1685.536-720.941,1760.732l121.167-108.95l647.861-1555.544L1931.592,104.483z
	"/>
<g>
	<path d="M748.646,1384.228c11.124-27.164-1.886-58.188-29.037-69.304l-262.242-107.379c-27.15-11.115-58.177,1.877-69.3,29.045
		c-11.123,27.164,1.882,58.186,29.032,69.301l262.243,107.377C706.491,1424.383,737.524,1411.395,748.646,1384.228z"/>
	<path d="M1397.961,1645.684l579.744-1415.889c25.414-62.066-6.014-133.694-70.185-159.968
		c-64.155-26.27-136.778,2.754-162.19,64.82l-309.985,757.067c-72.399-174.957-250.438-365.004-501.315-467.727
		c-397.73-162.853-815.916-54.896-896.972,143.066c-81.713,199.565,165.557,483.345,562.927,646.049
		c257.543,105.454,505.684,130.35,670.786,80.55l-106.413,259.889l-2.41,6.372c-28.109,81.923-68.231,130.713-122.662,149.15
		c-98.528,33.379-237.141-30.538-281.827-57.743l-7.602-4.704l-8.188-3.64c-85.374-37.825-99.339-80.613-103.932-94.671
		c-15.521-47.55,0.267-105.198,17.14-145.057l-56.456-23.115c-19.721,43.655-37.41,103.207-25.538,162.618
		c11.697,58.398,50.016,107.301,117.199,149.52c145.775,91.661,276.65,125.402,368.41,95.073
		c61.367-20.261,105.819-69.342,132.162-145.879c22.036-64.061,78.261-204.652,148.292-375.082
		c54.555-28.354,94.591-68.086,115.436-119c20.435-49.905,22.062-110.572,6.941-175.899
		c161.904-387.299,336.018-794.875,348.577-824.279c15.369-35.978,58.337-52.762,95.227-36.425
		c37.206,15.855,54.899,57.889,39.519,93.854c-5.365,12.58-538.259,1259.884-615.66,1484.968
		c-40.576,117.946-116.969,198.412-220.901,232.75c-97.802,32.299-213.376,21.779-339.84-29.985
		c-50.108-20.518-101.911-47.501-155.018-80.883c-102.491-64.396-164.295-147.085-183.646-245.771
		c-18.009-91.697,5.817-178.156,33.41-241.033l-40.461-16.567c-30.601,73.054-61.444,188.241-23.476,307.167
		c23.613,73.978,83.776,176.154,236.049,246.089c16.373,9.623,50.926,28.718,97.47,47.775c97.47,39.91,247.348,79.557,391.904,31.26
		C1212.755,1910.914,1331.6,1835.819,1397.961,1645.684z M856.503,1209.71c-17.906-66.508-68.092-232.958-127.853-257.427
		c-57.864-23.693-200.677,64.57-262.692,105.972C215.245,916.212,60.207,724.177,111.979,597.73
		c58.327-142.448,424.432-249.058,791.369-98.814c362.21,148.309,535.809,471.973,476.103,617.789
		C1330.948,1235.164,1112.721,1267.402,856.503,1209.71z"/>
</g>
</svg>
