<?xml version="1.0" encoding="utf-8"?>
<!-- Generator: Adobe Illustrator 16.0.0, SVG Export Plug-In . SVG Version: 6.00 Build 0)  -->
<!DOCTYPE svg PUBLIC "-//W3C//DTD SVG 1.1//EN" "http://www.w3.org/Graphics/SVG/1.1/DTD/svg11.dtd">
<svg version="1.1" id="Layer1" xmlns="http://www.w3.org/2000/svg" xmlns:xlink="http://www.w3.org/1999/xlink" x="0px" y="0px"
	 width="2000px" height="2000px" viewBox="0 0 2000 2000" enable-background="new 0 0 2000 2000" xml:space="preserve">
<g>
	<g>
		<path fill="#BF50B6" d="M1104,1994c550-58,948-550,890-1098C1936,346,1444-52,896,6C346,64-52,556,6,1104
			C64,1654,556,2052,1104,1994"/>
	</g>
	<g enable-background="new    ">
		<path fill="#FFFFFF" d="M340.68,1264.62c0-13.828,5.782-20.748,17.353-20.748c5.782,0,13.392,1.951,22.823,5.848
			c9.431,3.901,17.6,5.847,24.52,5.847c6.914,0,14.394-4.396,22.445-13.203c8.046-8.8,14.335-19.739,18.862-32.819
			c9.301-26.653,13.958-50.737,13.958-72.24c0-21.502-3.772-44.572-11.317-69.222c-7.544-24.645-16.728-47.779-27.538-69.411
			c-10.816-21.626-21.756-43.252-32.819-64.885c-26.159-51.551-39.108-98.581-38.855-141.085
			c-0.253-40.234,12.449-71.798,38.101-94.686c13.581-12.071,29.548-18.107,47.909-18.107c9.301,0,18.355,2.582,27.161,7.733
			c8.8,5.157,14.96,11.883,18.484,20.183l-13.203,16.598c-12.826,0-22.887-2.511-30.179-7.545
			c-9.56,1.009-17.859,5.535-24.897,13.581c-12.826,14.842-19.239,33.138-19.239,54.888c0,21.755,2.765,42.945,8.299,63.563
			c5.529,20.624,12.449,39.108,20.748,55.453c8.299,16.351,17.223,34.081,26.783,53.19c9.808,19.114,18.862,37.476,27.161,55.075
			c19.362,40.741,29.047,84.754,29.047,132.032c0.248,33.196-8.175,65.138-25.275,95.817c-8.051,14.588-19.115,26.595-33.196,36.025
			c-14.087,9.431-29.802,14.146-47.154,14.146c-18.614,0-33.261-2.771-43.948-8.299C346.02,1276.815,340.68,1270.909,340.68,1264.62
			z"/>
		<path fill="#FFFFFF" d="M544.799,853.059l0.754-120.715c-3.772-4.273-5.659-9.555-5.659-15.844c0-6.283,2.199-11.818,6.602-16.598
			c4.397-4.774,9.62-7.168,15.655-7.168c18.608,0,27.916,18.36,27.916,55.076l7.167,268.59c3.018,6.79,5.593,20.501,7.733,41.119
			c2.134,20.624,3.207,36.656,3.207,48.097c0,11.447,1.821,25.528,5.47,42.25c3.643,16.729,8.676,33.639,15.089,50.738
			c6.413,17.105,15.089,31.688,26.029,43.759s21.314,18.107,31.122,18.107c9.808,0,17.1-2.322,21.88-6.979
			c4.774-4.651,8.045-11.253,9.808-19.805c2.764-13.581,4.149-27.786,4.149-42.628v-150.894c0-16.345-1.639-40.611-4.904-72.806
			c-3.271-32.188-4.904-56.455-4.904-72.806v-5.281l-1.509-44.892l-5.659-132.408c0-6.283,3.142-11.376,9.431-15.278
			c6.283-3.896,12.826-5.847,19.616-5.847l18.862,18.106v12.826l-5.659,47.154c0,43.005,2.323,107.765,6.979,194.275
			c4.65,86.516,6.979,145.046,6.979,175.602c0,30.557-0.442,50.927-1.32,61.112c-0.884,10.186-2.83,21.066-5.847,32.631
			c-3.018,11.57-7.167,21.125-12.449,28.67c-12.325,17.6-31.187,26.406-56.585,26.406c-31.44,0.247-56.715-13.457-75.824-41.119
			c-20.123-29.171-34.204-64.129-42.25-104.87c-9.561-48.033-15.343-90.159-17.353-126.374
			C546.308,960.7,544.799,906.626,544.799,853.059z"/>
		<path fill="#FFFFFF" d="M823.611,1070.723l-5.282-313.858v-4.527c0-27.661,4.273-45.268,12.826-52.813
			c4.273-3.772,9.678-5.658,16.221-5.658c36.715,0,65.385,11.824,86.009,35.46c20.618,23.642,30.933,54.074,30.933,91.29
			c0,23.389-6.166,47.661-18.485,72.807c-12.325,25.15-27.037,43.889-44.136,56.208c31.434,21.125,53.88,47.973,67.336,80.539
			c13.451,32.571,20.182,66.711,20.182,102.419c0,18.861-4.715,38.229-14.146,58.094c-9.431,19.869-18.862,35.713-28.292,47.531
			c-9.431,11.824-21.821,21.756-37.158,29.802c-15.343,8.045-32.194,12.071-50.549,12.071h-3.018
			c-24.143,0-36.214-6.413-36.214-19.239L823.611,1070.723z M871.142,737.625c-7.297,0-10.94,9.242-10.94,27.727
			s0.501,47.531,1.509,87.142c1.002,39.609,1.509,68.344,1.509,86.197c13.327-3.018,24.768-14.081,34.328-33.196
			c7.792-16.092,14.205-31.623,19.239-46.588c5.028-14.96,8.299-24.202,9.808-27.728v-27.538c0-15.089-5.6-29.86-16.787-44.324
			C898.615,744.857,885.725,737.625,871.142,737.625z M927.35,1204.263c14.583-19.616,21.88-42.25,21.88-67.901
			c0-25.652-2.14-48.222-6.413-67.714c-4.279-19.486-8.995-34.198-14.146-44.137c-5.157-9.932-11.128-18.419-17.918-25.463
			c-8.299-8.547-15.089-13.704-20.371-15.467h-27.538c2.511,71.174,3.772,156.552,3.772,256.142
			C892.515,1235.703,912.761,1223.879,927.35,1204.263z"/>
		<path fill="#FFFFFF" d="M1040.557,1098.638l-2.641-299.146c0-33.443,0.377-66.771,1.131-99.967l21.502-12.071
			c15.338,1.008,32.82,42.003,52.436,122.979c15.844,66.146,28.67,125.56,38.479,178.242c9.808,52.689,15.213,81.294,16.221,85.82
			c3.52-16.598,10.056-46.27,19.616-89.026c9.555-42.751,16.722-75.948,21.503-99.59c14.08-69.157,22.758-130.646,26.028-184.467
			v-4.527c1.002-6.536,4.149-11.817,9.431-15.844c5.281-4.02,10.811-6.035,16.599-6.035c5.782,0,10.497,2.074,14.146,6.224
			c3.643,4.15,5.471,8.618,5.471,13.393c0,61.618,2.322,153.911,6.979,276.889c4.65,122.979,6.979,215.276,6.979,276.89
			c0,12.324-3.271,23.011-9.808,32.064c-6.542,9.054-12.826,13.58-18.862,13.58c-12.578,0-18.861-10.185-18.861-30.556
			l-3.018-325.175v-39.232c-3.525,19.87-11.447,54.64-23.766,104.305c-12.325,49.672-20.247,87.707-23.766,114.113v4.904
			c-0.508,2.016-1.262,6.79-2.264,14.335c-1.008,7.545-2.074,13.769-3.207,18.673c-1.131,4.904-2.828,10.374-5.092,16.41
			c-4.78,12.071-12.702,18.106-23.766,18.106c-18.361,0-27.538-24.013-27.538-72.052c0-47.531-11.571-114.048-34.706-199.556
			c-11.57-42.752-18.991-71.675-22.256-86.764c-1.008,41.248-1.51,72.305-1.51,93.177l6.413,317.63
			c0,11.069-3.901,20.748-11.694,29.047c-13.332,0-22.321-4.273-26.972-12.825c-4.657-8.547-6.979-20.117-6.979-34.706
			L1040.557,1098.638z"/>
		<path fill="#FFFFFF" d="M1435.179,729.703l-13.58-0.377c-5.033,0-8.742,1.072-11.129,3.206c-2.393,2.14-3.584,6.354-3.584,12.638
			c0,50.302,3.143,125.619,9.432,225.963c6.283,100.344,9.43,175.667,9.43,225.963v29.801c5.281-0.754,10.563-1.131,15.844-1.131
			c21.373,0,32.066,9.053,32.066,27.16v4.527l-19.24,13.203l-52.436,1.886c-44.514,0-66.77-7.668-66.77-23.011
			c0-12.319,7.793-18.484,23.389-18.484l16.221,1.131c7.545,0,11.316-6.035,11.316-18.106c0-39.733-2.393-99.271-7.166-178.62
			c-4.781-79.343-7.168-138.881-7.168-178.62l1.508-78.842c0-16.599-0.631-30.934-1.885-43.005
			c-6.791,2.264-12.826,3.396-18.107,3.396c-12.072,0-18.107-6.16-18.107-18.484c0-6.283,3.896-11.753,11.693-16.41
			c7.793-4.65,17.477-7.98,29.047-9.996c21.627-3.772,37.66-5.659,48.098-5.659c10.434,0,17.92,2.075,22.445,6.225
			c4.527,4.149,6.791,9.054,6.791,14.712c0,5.659-1.697,10.563-5.094,14.712C1444.798,727.629,1440.46,729.703,1435.179,729.703z"/>
		<path fill="#FFFFFF" d="M1607.233,825.144l-1.509,99.59l6.79,177.677l6.413,138.821c0,25.151-7.421,37.724-22.257,37.724
			c-8.553,0-14.842-4.025-18.861-12.071c-4.026-8.046-6.036-16.976-6.036-26.784l6.036-123.354c0-26.654-1.763-66.771-5.281-120.338
			c-3.525-53.567-5.281-93.678-5.281-120.337l1.132-67.525c0-36.969-2.394-60.982-7.168-72.052l-41.873,4.149
			c-6.542,0-12.39-1.944-17.541-5.847c-5.157-3.896-7.733-8.924-7.733-15.089c0-6.16,6.159-11.376,18.484-15.655
			c12.572-4.527,27.662-7.793,45.269-9.809c30.933-3.519,56.962-5.281,78.087-5.281c6.283,0,12.007,2.075,17.164,6.225
			c5.151,4.149,7.733,9.372,7.733,15.655c0,6.289-2.264,11.258-6.79,14.9c-4.527,3.648-10.062,5.47-16.599,5.47l-27.538-1.509
			c-3.524,0-6.165,0.13-7.922,0.377C1605.471,759.758,1607.233,791.446,1607.233,825.144z"/>
	</g>
</g>
</svg>
