<?xml version="1.0" encoding="utf-8"?>
<!-- Generator: Adobe Illustrator 16.0.0, SVG Export Plug-In . SVG Version: 6.00 Build 0)  -->
<!DOCTYPE svg PUBLIC "-//W3C//DTD SVG 1.1//EN" "http://www.w3.org/Graphics/SVG/1.1/DTD/svg11.dtd">
<svg version="1.1" id="Layer1" xmlns="http://www.w3.org/2000/svg" xmlns:xlink="http://www.w3.org/1999/xlink" x="0px" y="0px"
	 width="2000px" height="2000px" viewBox="0 0 2000 2000" enable-background="new 0 0 2000 2000" xml:space="preserve">
<g>
	<g>
		<path fill="#3399FF" d="M1104,1994c550-58,948-550,890-1098C1936,346,1444-52,896,6C346,64-52,556,6,1104
			C64,1654,556,2052,1104,1994"/>
	</g>
	<g enable-background="new    ">
		<path fill="#FFFFFF" d="M340.68,1264.62c0-13.828,5.782-20.748,17.354-20.748c5.781,0,13.392,1.951,22.822,5.848
			c9.432,3.901,17.601,5.848,24.521,5.848c6.914,0,14.394-4.396,22.445-13.203c8.046-8.8,14.335-19.739,18.861-32.819
			c9.302-26.652,13.958-50.736,13.958-72.24c0-21.502-3.771-44.571-11.316-69.222c-7.544-24.646-16.729-47.779-27.538-69.411
			c-10.816-21.626-21.756-43.252-32.819-64.885c-26.159-51.551-39.107-98.581-38.854-141.085
			c-0.253-40.234,12.448-71.798,38.101-94.687c13.581-12.07,29.548-18.106,47.909-18.106c9.301,0,18.354,2.582,27.161,7.732
			c8.8,5.157,14.96,11.884,18.484,20.184l-13.203,16.598c-12.826,0-22.888-2.511-30.18-7.545
			c-9.56,1.009-17.858,5.535-24.896,13.581c-12.826,14.842-19.239,33.138-19.239,54.888c0,21.755,2.765,42.945,8.299,63.563
			c5.529,20.624,12.449,39.107,20.748,55.453c8.299,16.351,17.224,34.081,26.783,53.189c9.808,19.114,18.862,37.477,27.161,55.075
			c19.361,40.741,29.047,84.754,29.047,132.032c0.248,33.196-8.175,65.138-25.275,95.816c-8.051,14.589-19.115,26.596-33.195,36.025
			c-14.088,9.432-29.803,14.146-47.154,14.146c-18.614,0-33.261-2.771-43.948-8.299C346.02,1276.814,340.68,1270.909,340.68,1264.62
			z"/>
		<path fill="#FFFFFF" d="M544.799,853.059l0.754-120.715c-3.771-4.272-5.658-9.555-5.658-15.844c0-6.283,2.198-11.818,6.602-16.598
			c4.396-4.774,9.62-7.168,15.655-7.168c18.607,0,27.916,18.359,27.916,55.075l7.167,268.591c3.018,6.789,5.593,20.5,7.732,41.118
			c2.135,20.624,3.207,36.656,3.207,48.098c0,11.446,1.821,25.527,5.471,42.25c3.643,16.729,8.676,33.639,15.088,50.737
			c6.414,17.105,15.09,31.688,26.029,43.76c10.94,12.07,21.314,18.106,31.122,18.106s17.101-2.321,21.88-6.979
			c4.774-4.651,8.045-11.253,9.809-19.806c2.764-13.58,4.148-27.785,4.148-42.628v-150.894c0-16.345-1.639-40.611-4.904-72.807
			c-3.271-32.188-4.903-56.454-4.903-72.806v-5.281l-1.509-44.892l-5.659-132.408c0-6.283,3.142-11.376,9.431-15.277
			c6.283-3.896,12.826-5.848,19.616-5.848l18.862,18.106v12.826l-5.659,47.153c0,43.005,2.323,107.766,6.979,194.275
			c4.649,86.516,6.979,145.046,6.979,175.602c0,30.558-0.442,50.928-1.32,61.112c-0.884,10.187-2.83,21.066-5.847,32.631
			c-3.019,11.57-7.167,21.125-12.449,28.67c-12.325,17.601-31.187,26.406-56.585,26.406c-31.439,0.247-56.715-13.457-75.824-41.119
			c-20.123-29.171-34.203-64.129-42.25-104.87c-9.561-48.033-15.343-90.158-17.353-126.374
			C546.308,960.7,544.799,906.626,544.799,853.059z"/>
		<path fill="#FFFFFF" d="M823.611,1070.723l-5.282-313.857v-4.527c0-27.661,4.272-45.268,12.826-52.813
			c4.272-3.772,9.678-5.658,16.221-5.658c36.715,0,65.385,11.824,86.009,35.46c20.618,23.642,30.934,54.074,30.934,91.29
			c0,23.389-6.166,47.661-18.485,72.807c-12.325,25.15-27.037,43.889-44.136,56.208c31.434,21.125,53.88,47.974,67.336,80.539
			c13.451,32.571,20.182,66.711,20.182,102.419c0,18.861-4.715,38.229-14.146,58.094c-9.432,19.869-18.862,35.713-28.292,47.531
			c-9.432,11.824-21.821,21.756-37.158,29.802c-15.343,8.046-32.194,12.071-50.549,12.071h-3.019
			c-24.143,0-36.214-6.413-36.214-19.239L823.611,1070.723z M871.143,737.625c-7.298,0-10.94,9.242-10.94,27.727
			c0,18.485,0.501,47.531,1.509,87.143c1.002,39.609,1.509,68.344,1.509,86.197c13.327-3.019,24.769-14.081,34.328-33.196
			c7.792-16.092,14.205-31.623,19.239-46.588c5.027-14.96,8.299-24.202,9.808-27.729v-27.538c0-15.089-5.6-29.859-16.787-44.323
			C898.615,744.857,885.725,737.625,871.143,737.625z M927.35,1204.263c14.583-19.616,21.881-42.25,21.881-67.9
			c0-25.652-2.141-48.223-6.414-67.714c-4.278-19.486-8.994-34.198-14.146-44.138c-5.157-9.932-11.128-18.419-17.918-25.463
			c-8.299-8.547-15.089-13.704-20.371-15.467h-27.538c2.512,71.174,3.772,156.552,3.772,256.142
			C892.515,1235.703,912.761,1223.879,927.35,1204.263z"/>
		<path fill="#FFFFFF" d="M1040.557,1098.638l-2.641-299.146c0-33.443,0.377-66.771,1.131-99.967l21.502-12.071
			c15.338,1.008,32.82,42.003,52.437,122.979c15.844,66.146,28.67,125.561,38.479,178.242c9.808,52.689,15.213,81.294,16.221,85.82
			c3.521-16.599,10.057-46.271,19.616-89.026c9.555-42.751,16.723-75.947,21.503-99.59c14.08-69.157,22.759-130.646,26.028-184.467
			v-4.527c1.002-6.536,4.148-11.816,9.431-15.844c5.281-4.02,10.812-6.035,16.6-6.035c5.781,0,10.497,2.074,14.146,6.225
			c3.643,4.149,5.471,8.617,5.471,13.393c0,61.618,2.322,153.911,6.979,276.889c4.649,122.979,6.979,215.276,6.979,276.891
			c0,12.324-3.271,23.011-9.808,32.063c-6.542,9.054-12.826,13.58-18.862,13.58c-12.578,0-18.86-10.185-18.86-30.556l-3.019-325.175
			v-39.232c-3.524,19.87-11.446,54.64-23.766,104.305c-12.325,49.673-20.247,87.707-23.767,114.113v4.904
			c-0.508,2.016-1.262,6.79-2.264,14.335c-1.008,7.545-2.074,13.769-3.207,18.673c-1.131,4.904-2.828,10.374-5.092,16.41
			c-4.78,12.071-12.702,18.105-23.766,18.105c-18.361,0-27.538-24.013-27.538-72.052c0-47.531-11.571-114.048-34.706-199.556
			c-11.57-42.752-18.991-71.676-22.256-86.765c-1.009,41.248-1.511,72.306-1.511,93.178l6.413,317.63
			c0,11.068-3.9,20.748-11.693,29.047c-13.332,0-22.321-4.273-26.973-12.825c-4.657-8.547-6.979-20.117-6.979-34.706
			L1040.557,1098.638z"/>
		<path fill="#FFFFFF" d="M1435.179,729.703l-13.579-0.377c-5.033,0-8.742,1.072-11.13,3.206c-2.393,2.14-3.584,6.354-3.584,12.638
			c0,50.302,3.144,125.619,9.433,225.963c6.283,100.344,9.43,175.667,9.43,225.963v29.801c5.281-0.754,10.563-1.131,15.844-1.131
			c21.373,0,32.066,9.054,32.066,27.16v4.527l-19.24,13.203l-52.436,1.886c-44.515,0-66.771-7.668-66.771-23.011
			c0-12.319,7.793-18.484,23.39-18.484l16.221,1.131c7.545,0,11.316-6.035,11.316-18.105c0-39.733-2.394-99.271-7.166-178.62
			c-4.781-79.343-7.168-138.881-7.168-178.62l1.508-78.842c0-16.6-0.631-30.935-1.885-43.005
			c-6.791,2.264-12.826,3.396-18.107,3.396c-12.072,0-18.107-6.16-18.107-18.483c0-6.283,3.896-11.753,11.693-16.41
			c7.793-4.65,17.477-7.98,29.047-9.996c21.627-3.772,37.66-5.659,48.098-5.659c10.434,0,17.92,2.075,22.445,6.225
			c4.527,4.149,6.791,9.055,6.791,14.713s-1.697,10.563-5.094,14.712C1444.798,727.629,1440.46,729.703,1435.179,729.703z"/>
		<path fill="#FFFFFF" d="M1607.232,825.144l-1.508,99.591l6.789,177.677l6.413,138.821c0,25.15-7.421,37.724-22.257,37.724
			c-8.553,0-14.842-4.025-18.861-12.071c-4.025-8.046-6.035-16.976-6.035-26.784l6.035-123.354c0-26.654-1.763-66.771-5.28-120.338
			c-3.525-53.567-5.281-93.679-5.281-120.337l1.132-67.525c0-36.969-2.395-60.982-7.168-72.052l-41.873,4.148
			c-6.542,0-12.39-1.943-17.541-5.847c-5.156-3.896-7.732-8.924-7.732-15.089c0-6.16,6.158-11.376,18.483-15.655
			c12.572-4.526,27.662-7.793,45.269-9.809c30.934-3.52,56.963-5.281,78.088-5.281c6.283,0,12.007,2.075,17.164,6.225
			c5.15,4.149,7.732,9.372,7.732,15.655c0,6.289-2.264,11.258-6.79,14.9c-4.526,3.647-10.062,5.47-16.599,5.47l-27.538-1.509
			c-3.524,0-6.165,0.13-7.922,0.377C1605.471,759.758,1607.232,791.446,1607.232,825.144z"/>
	</g>
</g>
</svg>
