<?xml version="1.0" encoding="utf-8"?>
<!-- Generator: Adobe Illustrator 16.0.0, SVG Export Plug-In . SVG Version: 6.00 Build 0)  -->
<!DOCTYPE svg PUBLIC "-//W3C//DTD SVG 1.1//EN" "http://www.w3.org/Graphics/SVG/1.1/DTD/svg11.dtd">
<svg version="1.1" id="Ebene_1" xmlns="http://www.w3.org/2000/svg" xmlns:xlink="http://www.w3.org/1999/xlink" x="0px" y="0px"
	 width="2000px" height="2000px" viewBox="0 0 2000 2000" enable-background="new 0 0 2000 2000" xml:space="preserve">
<g>
	<path fill="#FF46AF" d="M1945.872,677.896c-36.751-262.221-275.937-448.144-538.109-411.291
		c-30.542,4.274-65.505,11.322-93.686,20.853c0,0-177.891,68.441-290.431,177.02C916.917,350.192,749.633,269.375,749.633,269.375
		c-27.636-11.004-62.193-19.819-92.476-25.684c-260.016-50.335-508.34,122.89-558.67,382.909
		C79.784,723.229,86.249,821.945,120.72,907.61c14.859,36.854,31.522,67.302,60.255,101.018
		c67.348,89.405,270.498,318.13,815.065,769.255c567.125-422.352,775.848-636.867,847.68-722.722
		c30.425-32.192,48.8-61.722,65.433-97.758C1948.025,873.616,1959.595,775.396,1945.872,677.896z"/>
</g>
<g enable-background="new    ">
	<path fill="#FFFFFF" d="M455.49,793.667l-0.396,66.424l5.618,118.445l5.129,92.537c0.154,16.773-4.718,25.203-14.612,25.294
		c-5.702,0.053-9.921-2.595-12.651-7.935c-2.735-5.341-4.13-11.284-4.189-17.825l3.269-82.299
		c-0.164-17.774-1.586-44.517-4.26-80.216c-2.681-35.702-4.099-62.44-4.262-80.219l0.341-45.037
		c-0.227-24.653-1.97-40.652-5.221-48.006l-27.898,3.024c-4.363,0.04-8.275-1.221-11.735-3.792
		c-3.463-2.567-5.212-5.903-5.249-10.014c-0.038-4.108,4.038-7.625,12.23-10.556c8.355-3.096,18.4-5.365,30.127-6.818
		c20.606-2.536,37.955-3.871,52.042-4.001c4.191-0.038,8.021,1.311,11.485,4.046c3.46,2.735,5.215,6.203,5.254,10.394
		c0.038,4.193-1.441,7.521-4.438,9.978c-2.995,2.461-6.676,3.71-11.035,3.75l-18.373-0.838c-2.352,0.021-4.11,0.125-5.281,0.301
		C453.913,750.074,455.283,771.195,455.49,793.667z"/>
	<path fill="#FFFFFF" d="M546.455,781.761l-0.83,128.569c6.218,1.62,15.62,2.372,28.199,2.256l18.615-0.171
		c0.824-1.518,1.193-7.056,1.105-16.615s-1.413-30.555-3.977-62.986c-2.563-32.432-3.919-56.862-4.07-73.301
		c-0.035-3.855,1.443-7.097,4.439-9.728c2.994-2.625,5.832-3.953,8.518-3.978c2.681-0.025,4.865,0.207,6.547,0.694
		c1.679,0.487,3.532,1.144,5.553,1.962c2.021,0.822,3.618,1.394,4.797,1.717c0.41,44.614,2.645,109.794,6.704,195.549
		c4.061,85.754,6.104,130.058,6.13,132.907c0.026,2.854-1.753,5.678-5.332,8.478c-3.583,2.801-7.596,4.221-12.037,4.262
		c-4.445,0.041-8.04-3.195-10.781-9.712c-2.745-6.517-4.639-16.185-5.677-29.007c-1.042-12.82-1.772-23.924-2.193-33.314
		c-0.206-4.024-0.248-8.635-0.127-13.837c-0.064-7.043-0.056-15.094,0.029-24.153c0.188-15.934,0.271-25.16,0.249-27.676
		l-0.019-2.012l0.618-14.852l-3.063-4.751l-0.005-0.504c-2.847,0.699-5.945,1.062-9.297,1.093l-33.252-4.475l0.544,59.118
		l3.799,84.75c0.045,4.867-1.173,9.194-3.655,12.991c-2.48,3.797-6.071,5.717-10.764,5.76c-6.879,0.063-11.674-6.139-14.387-18.611
		c-2.718-12.468-4.171-29.522-4.37-51.157l0.786-78.503c-0.149-16.266-0.482-25.237-1.001-26.911l-0.023-2.516
		c1.175-17.957,1.754-28.025,1.734-30.206l-4.591-116.192c-0.037-4.024,1.353-7.599,4.178-10.73
		c2.822-3.128,6.247-4.712,10.272-4.749C540.721,751.119,546.268,761.302,546.455,781.761z"/>
	<path fill="#FFFFFF" d="M664.146,830.743l-3.168-43.495c-0.224-24.315,6.873-36.544,21.299-36.677
		c9.222-0.084,21.819,1.938,37.794,6.068c15.972,4.13,23.989,9.553,24.051,16.258c0.064,7.044-4.916,12.459-14.945,16.239
		c-15.984-5.219-29.011-8.369-39.083-9.453c0.571,7.379,0.89,14.753,0.958,22.131l-1.583,73.982c0.003,0.338,0.53,3.015,1.583,8.035
		l18.357-0.924c16.603-0.152,24.948,4.469,25.034,13.86c0.034,3.69-1.445,6.932-4.439,9.726c-2.993,2.796-6.798,4.214-11.407,4.256
		c-4.615,0.043-9.606-0.245-14.978-0.868l-13.081,0.12c1.126,13.073,1.749,26.066,1.867,38.979L691,1042.335
		c0.178,19.288,0.601,28.926,1.272,28.92l37.975-1.607c13.082-0.12,19.661,4.013,19.738,12.397
		c0.048,5.201-2.182,8.991-6.688,11.383c-4.507,2.389-9.614,3.611-15.314,3.664l-43.521,0.4c-4.528,0.042-8.653-1.474-12.369-4.541
		c-3.72-3.066-5.685-6.779-5.89-11.141l-0.125-13.585l-4.071-87.013L664.146,830.743z"/>
	<path fill="#FFFFFF" d="M859.945,837.747l-4.196,36.017l0.113,12.326c0.367,39.918,1.491,66.323,3.37,79.22
		c1.88,12.9,3.786,24.456,5.729,34.666c1.938,10.216,4.407,18.916,7.41,26.098c2.999,7.186,6.544,13.946,10.628,20.28
		c8.167,12.674,19.377,18.943,33.634,18.813c5.869-0.054,13.136-3.18,21.802-9.384c8.662-6.201,15.261-9.324,19.789-9.365
		c4.528-0.042,9.415,2.516,14.664,7.664c0.158,17.275-9.54,29.693-29.094,37.251c-9.697,3.611-20.246,5.47-31.649,5.574
		c-11.406,0.105-21.152-2.113-29.244-6.649c-8.094-4.536-14.858-10.43-20.291-17.676c-5.436-7.246-10.216-16.551-14.346-27.921
		c-4.13-11.365-7.422-22.657-9.872-33.873c-2.116-11.385-3.916-24.45-5.393-39.197c-2.24-24.8-3.583-51.96-4.021-81.479
		l-0.063-61.638c-0.181-19.622,0.845-35.482,3.084-47.579c-1.057-5.525-1.609-10.887-1.657-16.086
		c-0.194-21.133,7.531-38.017,23.183-50.657c15.647-12.637,35.047-19.065,58.19-19.278c8.216-0.075,16.287,2.156,24.215,6.695
		c7.924,4.543,11.922,10.583,11.991,18.129c0.034,3.691-1.366,6.555-4.197,8.594c-2.836,2.039-7.645,3.089-14.438,3.151
		s-11.466-1.989-14.021-6.16l0.003,0.252l-7.044,0.064l-0.012-1.258c-19.96,0.184-33.487,6.515-40.583,18.99
		c-6.604,11.469-9.776,31.122-9.52,58.96L859.945,837.747z"/>
	<path fill="#FFFFFF" d="M992.631,930.37l0.323-19.627c-0.016-1.675-0.275-2.515-0.778-2.51l-0.085-9.307
		c-0.497-54.001,2.251-92.437,8.247-115.304c5.02-19.332,9.94-31.289,14.766-35.862c4.82-4.573,9.579-6.88,14.277-6.923
		c39.912-0.367,67.604,19.505,83.068,59.616c8.932,23.063,13.558,51.537,13.869,85.412l0.035,3.773l1.543,58.355
		c0.908,98.782-21.529,148.383-67.314,148.804c-18.954,0.174-33.556-10.171-43.812-31.046c-9.744-20.037-15.8-39.771-18.155-59.207
		C994.824,977.231,992.828,951.84,992.631,930.37z M1022.422,859.65l-2.077,47.569c0.458,49.811,4.883,93.212,13.273,130.201
		c8.753,21.556,17.002,34.229,24.754,38.014c6.203-0.058,11.8-2.625,16.785-7.702c4.986-5.077,8.905-11.863,11.764-20.361
		c2.854-8.493,5.248-17.446,7.175-26.86c1.758-9.238,3.095-19.148,4.003-29.724c1.507-18.295,2.204-33.898,2.085-46.814
		c-0.118-12.913-1.433-32.694-3.942-59.339c-2.509-26.646-3.823-46.509-3.944-59.59l-0.083-9.057
		c-0.454-12.575-4.664-23.733-12.636-33.471c-7.976-9.739-18.083-14.552-30.323-14.439c-11.741,0.108-19.479,6.807-23.214,20.088
		c-3.085,11.101-4.552,24.785-4.401,41.052L1022.422,859.65z"/>
	<path fill="#FFFFFF" d="M1283.785,855.484l0.584,8.802c1.402,152.449-20.034,228.877-64.311,229.284
		c-17.104,0.322-29.834-6.519-38.179-20.53c-8.686-14.343-14.019-28.635-15.993-42.874c-3.056-21.942-4.923-47.128-5.601-75.552
		c-0.682-28.423-1.268-69.466-1.761-123.136l-2.943-73.688c3.117-7.238,6.731-10.881,10.844-10.919
		c4.107-0.037,7.784,3.073,11.03,9.333c3.242,6.261,4.897,12.911,4.963,19.956l1.289,140.122c0.112,12.244,1.495,30.43,4.15,54.557
		c2.652,24.128,4.037,42.317,4.149,54.558c0.231,25.156,11.248,37.634,33.052,37.434c24.485-0.226,35.879-92.663,34.18-277.313
		l-0.266-28.93l-0.33-8.552c-0.037-4.024,0.855-7.053,2.684-9.081c1.825-2.03,5.044-3.065,9.659-3.107
		c4.609-0.043,8.096,0.68,10.46,2.167c2.19,1.324,3.805,3.322,4.835,5.993c1.379,4.183,2.185,9.71,2.417,16.584l-3.046,51.854
		L1283.785,855.484z"/>
	<path fill="#FFFFFF" d="M1325.357,862.146l0.304-49.063c-0.193-20.962-1.685-36.881-4.465-47.761
		c2.235-12.096,6.79-18.176,13.67-18.239l22.641-0.209c19.787-0.182,33.784,7.91,41.986,24.27
		c7.179,14.526,10.855,31.268,11.029,50.217c0.221,23.985-0.233,38.707-1.354,44.166c-1.125,5.463-2.336,10.632-3.632,15.506
		c-1.299,4.878-2.898,8.833-4.797,11.869c-1.901,3.037-4.344,6.373-7.33,10.005c-2.985,3.636-6.396,6.727-10.229,9.277
		c-8.502,5.613-18.772,10.406-30.813,14.371l0.507,55.094l4.924,97.572c0.038,4.194-1.689,7.771-5.186,10.739
		c-3.494,2.966-7.505,4.472-12.033,4.514l-10.876-6.189c-4.369-18.911-6.696-44.132-6.986-75.664l1.168-91.84
		c-2.054-4.51-3.099-8.69-3.134-12.551l-0.017-1.761C1324.024,899.732,1325.567,884.957,1325.357,862.146z M1350.484,804.052
		l1.931,100.364l0.007,0.755c20.434-2.869,30.399-31.979,29.891-87.324c-0.15-16.265-2.265-27.315-6.344-33.151
		c-4.421-6.162-11.154-9.206-20.211-9.123c-0.005-0.503-1.854-0.737-5.542-0.703L1350.484,804.052z"/>
	<path fill="#FFFFFF" d="M1472.923,794.621l2.648,123.758c-1.97,4.715-2.923,10.594-2.857,17.638l0.095,10.314l-1.259,82.029
		c0.218,23.647,6.114,35.417,17.686,35.311l21.376-0.951c18.448-0.17,27.719,4.776,27.812,14.84
		c0.033,3.691-1.534,6.763-4.696,9.226c-3.165,2.459-6.755,3.962-10.775,4.502c-12.616-3.91-27.98-5.78-46.093-5.613
		c-5.505,3.234-10.817,4.879-15.931,4.926c-5.117,0.047-9.116-1.677-11.998-5.173c-2.887-3.494-4.345-7.338-4.384-11.532
		c-0.234-25.491,0.501-63.864,2.212-115.122c1.706-51.253,2.446-89.628,2.212-115.122l-0.035-3.774
		c-2.21-21.446-3.364-37.537-3.463-48.272c-0.3-32.534,5.502-48.858,17.412-48.969c3.521-0.032,6.592,1.197,9.218,3.689
		c2.62,2.492,3.95,5.499,3.982,9.021L1472.923,794.621z"/>
	<path fill="#FFFFFF" d="M1564.505,822.46l-3.168-43.495c-0.224-24.315,6.873-36.544,21.299-36.677
		c9.222-0.084,21.819,1.938,37.794,6.068c15.972,4.13,23.989,9.553,24.051,16.258c0.064,7.044-4.916,12.459-14.945,16.239
		c-15.984-5.219-29.011-8.37-39.083-9.453c0.571,7.379,0.89,14.753,0.958,22.131l-1.583,73.982c0.003,0.338,0.53,3.015,1.583,8.035
		l18.357-0.924c16.603-0.152,24.948,4.469,25.034,13.86c0.034,3.69-1.445,6.932-4.439,9.726c-2.993,2.796-6.798,4.214-11.407,4.256
		c-4.615,0.043-9.606-0.245-14.978-0.868l-13.081,0.12c1.126,13.073,1.749,26.066,1.867,38.979l-1.405,93.353
		c0.178,19.289,0.601,28.927,1.272,28.921l37.975-1.607c13.082-0.12,19.661,4.013,19.738,12.397
		c0.048,5.201-2.182,8.991-6.688,11.383c-4.507,2.389-9.614,3.611-15.314,3.664l-43.521,0.4c-4.528,0.042-8.653-1.474-12.369-4.541
		c-3.72-3.066-5.685-6.779-5.89-11.141l-0.125-13.586l-4.071-87.012L1564.505,822.46z"/>
</g>
</svg>
