<?xml version="1.0" encoding="utf-8"?>
<!-- Generator: Adobe Illustrator 16.0.0, SVG Export Plug-In . SVG Version: 6.00 Build 0)  -->
<!DOCTYPE svg PUBLIC "-//W3C//DTD SVG 1.1//EN" "http://www.w3.org/Graphics/SVG/1.1/DTD/svg11.dtd">
<svg version="1.1" id="_x31_" xmlns="http://www.w3.org/2000/svg" xmlns:xlink="http://www.w3.org/1999/xlink" x="0px" y="0px"
	 width="2000px" height="2000px" viewBox="0 0 2000 2000" enable-background="new 0 0 2000 2000" xml:space="preserve">
<g>
	<circle fill="#7F1D78" cx="1000" cy="1000" r="800"/>
</g>
<g enable-background="new    ">
	<path fill="#FFFFFF" d="M640.515,670.855l-1.143,75.406l5.141,134.531l4.856,105.111c0,19.044-5.619,28.563-16.852,28.563
		c-6.476,0-11.238-3.049-14.282-9.141c-3.048-6.092-4.57-12.854-4.57-20.279l4.57-93.4c0-20.182-1.334-50.557-3.999-91.116
		c-2.669-40.56-3.999-70.93-3.999-91.115l0.857-51.128c0-27.991-1.812-46.174-5.427-54.556l-31.705,3.143
		c-4.954,0-9.381-1.473-13.282-4.428c-3.905-2.949-5.855-6.757-5.855-11.425c0-4.664,4.664-8.613,13.996-11.854
		c9.52-3.428,20.944-5.9,34.275-7.427c23.421-2.664,43.13-3.998,59.125-3.998c4.758,0,9.091,1.57,12.997,4.713
		c3.9,3.142,5.855,7.096,5.855,11.854c0,4.762-1.713,8.523-5.141,11.282c-3.428,2.763-7.618,4.142-12.568,4.142l-20.851-1.143
		c-2.669,0-4.668,0.098-5.999,0.285C639.18,621.349,640.515,645.341,640.515,670.855z"/>
	<path fill="#FFFFFF" d="M737.356,814.527l-0.571,63.409c0,51.605,3.713,92.259,11.14,121.964l-6.57,15.71h-16.281l-7.712-8.569
		c0.379-17.517,0.571-37.176,0.571-58.982c0-21.802-1.669-68.408-4.999-139.815c-3.334-71.407-4.999-124.722-4.999-159.952
		c0-18.468,6.471-27.706,19.423-27.706c20.374,0,37.511,5.333,51.413,15.995c13.898,10.667,20.851,25.898,20.851,45.701v41.13
		c0,11.238-2.098,21.472-6.284,30.705c-4.191,9.238-9.046,18.95-14.567,29.135c-5.525,10.188-8.569,15.853-9.14,16.995
		c2.093,9.523,5.806,28.184,11.14,55.983c11.425,60.745,24.086,104.446,37.989,131.104c3.999,7.618,5.998,13.567,5.998,17.852
		s-1.191,7.899-3.57,10.854c-2.383,2.95-5.57,4.428-9.568,4.428c-8.19,0-16.044-9.381-23.564-28.135
		c-7.525-18.753-13.567-39.56-18.138-62.41c-13.902-69.881-22.377-108.347-25.421-115.394H737.356z M739.641,642.293l-1.999,8.283
		c0,15.995,0.379,39.087,1.143,69.265c0.758,30.184,1.142,52.128,1.142,65.838c9.14-4.758,16.518-17.183,22.137-37.274
		c5.614-20.088,8.426-35.463,8.426-46.129c0-10.662-0.286-18.518-0.857-23.564c-0.571-5.044-1.812-10.613-3.713-16.71
		C762.108,649.434,753.352,642.864,739.641,642.293z"/>
	<path fill="#FFFFFF" d="M973.872,891.647l6.284,35.989c0,4.762,1.856,16.379,5.57,34.847c3.713,18.472,5.57,30.562,5.57,36.274
		v0.571c0,8.569-3.24,14.09-9.711,16.566c-8.189,0-14.567-1.334-19.137-3.999c-4.57-2.664-6.855-7.806-6.855-15.424
		c0-16.566-2.856-40.652-8.569-72.264l-57.697-8.569c-3.62,12.952-6.382,27.135-8.283,42.559
		c-1.906,15.425-3.713,26.662-5.427,33.705c-3.427,14.473-9.81,21.707-19.137,21.707c-4.57,0-8.81-1.477-12.71-4.427
		c-3.905-2.95-5.855-6.713-5.855-11.282l1.428-5.142c26.278-101.492,45.794-200.319,58.554-296.483
		c0.379-2.664,0.951-10.47,1.714-23.421c1.901-28.563,5.521-46.745,10.854-54.556h19.708c5.329,0,9.997,1.241,13.996,3.714
		c3.999,2.477,5.998,6.189,5.998,11.139c0,29.706,3.95,73.791,11.854,132.247C969.917,823.859,973.872,865.94,973.872,891.647z
		 M943.309,903.357c-1.143-5.712-1.714-15.66-1.714-29.848c0-14.184-0.812-31.799-2.428-52.842
		c-1.62-21.038-3.954-45.509-6.998-73.406c-3.048-27.894-5.141-48.129-6.284-60.696c-17.709,98.069-29.134,167.191-34.275,207.366
		C898.273,898.314,915.505,901.457,943.309,903.357z"/>
	<path fill="#FFFFFF" d="M1090.422,939.918c8.568-43.031,19.088-105.205,31.562-186.516c12.47-81.306,19.851-128.533,22.136-141.672
		h13.14c3.427,0,6.521,1.241,9.282,3.713c2.759,2.478,4.143,5.525,4.143,9.141c0,21.899-4.668,49.463-13.996,82.689
		c-9.332,33.231-14.809,54.653-16.424,64.267c-1.62,9.617-3.285,25.185-4.998,46.7c-1.715,21.521-3.713,42.657-5.998,63.41
		c-2.285,20.757-5.334,41.894-9.141,63.409c-3.812,21.521-9.189,38.944-16.139,52.271c-6.953,13.326-15.188,19.994-24.707,19.994
		l-10.854-8.854c0-47.415-4.525-95.78-13.566-145.1c-9.047-49.316-17.901-90.732-26.564-124.249
		c-8.667-33.513-14.521-54.742-17.566-63.695c-6.854-21.137-10.282-34.275-10.282-39.417s1.473-9.042,4.427-11.711
		c2.951-2.664,6.235-3.998,9.855-3.998c10.854,0,21.229,18.664,31.133,55.983c9.898,37.515,17.325,72.599,22.279,105.254
		c4.949,32.66,8.662,57.652,11.139,74.978c2.473,17.33,4.807,34.704,6.998,52.127
		C1088.467,926.065,1089.85,936.491,1090.422,939.918z"/>
	<path fill="#FFFFFF" d="M1207.828,715.128l-3.141-49.413c0-27.608,8.185-41.417,24.563-41.417c10.47,0,24.751,2.429,42.845,7.284
		c18.088,4.855,27.135,11.095,27.135,18.708c0,7.998-5.713,14.095-17.139,18.28c-18.092-6.092-32.847-9.805-44.271-11.139
		c0.57,8.381,0.856,16.758,0.856,25.135l-2.571,83.975c0,0.385,0.572,3.428,1.715,9.141l20.851-0.856
		c18.852,0,28.277,5.333,28.277,15.995c0,4.19-1.714,7.854-5.142,10.996c-3.428,3.143-7.762,4.713-12.996,4.713
		c-5.239,0-10.902-0.379-16.995-1.143h-14.853c1.143,14.854,1.714,29.612,1.714,44.272l-2.571,105.969
		c0,21.899,0.38,32.848,1.143,32.848l43.131-1.429c14.853,0,22.279,4.763,22.279,14.282c0,5.904-2.571,10.184-7.713,12.853
		c-5.141,2.665-10.951,3.999-17.423,3.999h-49.414c-5.142,0-9.81-1.763-13.995-5.284c-4.191-3.521-6.383-7.757-6.57-12.71v-15.425
		l-3.713-98.827L1207.828,715.128z"/>
	<path fill="#FFFFFF" d="M1368.08,682.566l1.715,140.529c-2.285,5.334-3.428,11.997-3.428,19.994v11.711l-2.285,93.115
		c0,26.849,6.569,40.273,19.708,40.273l24.278-0.856c20.945,0,31.42,5.712,31.42,17.138c0,4.19-1.813,7.663-5.428,10.426
		c-3.619,2.758-7.711,4.427-12.281,4.998c-14.281-4.57-31.705-6.855-52.271-6.855c-6.284,3.615-12.331,5.428-18.138,5.428
		c-5.811,0-10.332-2-13.567-5.999c-3.239-3.998-4.855-8.377-4.855-13.139c0-28.942,1.236-72.501,3.713-130.675
		c2.473-58.171,3.714-101.729,3.714-130.676v-4.284c-2.285-24.372-3.428-42.652-3.428-54.841c0-36.94,6.757-55.412,20.279-55.412
		c3.999,0,7.471,1.428,10.426,4.284c2.949,2.856,4.428,6.284,4.428,10.283L1368.08,682.566z"/>
</g>
<g enable-background="new    ">
	<path fill="#FFFFFF" d="M802.845,1488.672l-1.165-45.715c0-0.19,0.291-6.988,0.874-20.382c-1.556-5.046-4.709-49.887-9.463-134.522
		c-4.759-84.632-7.329-136.365-7.716-155.196c-0.778,0-1.556,0-2.33,0c-32.225-0.582-48.335-6.501-48.335-17.761
		c0-3.686,2.134-6.743,6.406-9.172c4.267-2.426,8.444-3.64,12.521-3.64l80.946,5.532l9.608-0.292c12.42,0,18.635,4.76,18.635,14.268
		c0,4.854-2.038,8.785-6.115,11.793c-4.076,3.012-8.64,4.513-13.685,4.513l-27.37-4.076l-1.165,6.115
		c0,37.661,3.299,94.049,9.9,169.172c6.597,75.123,9.9,131.61,9.9,169.463c0,4.659-2.138,8.785-6.406,12.375
		c-4.272,3.594-8.931,5.387-13.976,5.387L802.845,1488.672z"/>
	<path fill="#FFFFFF" d="M955.434,1299.991l2.912,126.66v17.762l-0.291,16.597h7.861l17.18-0.582c16.306,0,24.459,4.95,24.459,14.85
		c0,5.05-1.993,9.368-5.97,12.957c-3.981,3.595-8.589,5.387-13.831,5.387h-26.206c-18.053,0-29.604-0.387-34.65-1.164
		c-3.107,0.391-5.532,0.582-7.279,0.582c-14.172,0-21.256-4.463-21.256-13.394c0-3.686,1.165-7.18,3.494-10.482
		c2.33-3.299,4.659-5.046,6.988-5.241h16.888l1.165-7.862l-4.077-126.66l3.203-132.775c0-22.712-0.974-44.063-2.912-64.059h-11.356
		l-13.685,0.583c-5.824,0-10.387-1.115-13.685-3.349c-3.303-2.229-4.95-6.451-4.95-12.666c0-9.122,9.8-13.686,29.409-13.686h71.046
		c16.11,0,24.168,4.177,24.168,12.521c0,3.689-1.748,7.089-5.242,10.191c-3.494,3.107-7.475,4.658-11.938,4.658h-30.573
		c1.551,16.306,2.329,34.75,2.329,55.323L955.434,1299.991z"/>
	<path fill="#FFFFFF" d="M1042.509,1240.591l0.874-56.778c0-24.263-1.557-42.702-4.659-55.323
		c2.716-13.977,8.053-20.965,16.015-20.965h26.205c22.903,0,39.018,9.514,48.336,28.535c8.152,16.889,12.229,36.302,12.229,58.235
		c0,27.762-0.682,44.795-2.038,51.101c-1.36,6.311-2.815,12.279-4.368,17.907c-1.555,5.633-3.447,10.191-5.678,13.686
		c-2.233,3.494-5.096,7.329-8.59,11.501c-3.493,4.177-7.475,7.716-11.938,10.628c-9.9,6.406-21.838,11.843-35.814,16.306v63.768
		l4.658,112.976c0,4.854-2.037,8.976-6.113,12.374c-4.077,3.395-8.736,5.096-13.977,5.096l-12.521-7.279
		c-4.854-21.934-7.279-51.146-7.279-87.644l2.33-106.278c-2.33-5.241-3.494-10.091-3.494-14.559v-2.038
		C1040.566,1284.076,1042.509,1266.992,1042.509,1240.591z M1072.209,1173.621l1.164,116.179v0.873
		c23.682-3.103,35.523-36.688,35.523-100.746c0-18.826-2.329-31.638-6.988-38.435c-5.05-7.18-12.812-10.773-23.294-10.773
		c0-0.582-2.138-0.874-6.405-0.874V1173.621z"/>
	<path fill="#FFFFFF" d="M1180.248,1473.239l24.75,4.367c7.57,0,14.168-3.298,19.8-9.899c5.628-6.597,9.8-14.85,12.521-24.75
		c5.241-19.021,7.861-35.859,7.861-50.519c0-14.654-2.43-29.163-7.279-43.53c-4.854-14.363-10.823-27.707-17.906-40.036
		c-7.089-12.325-14.123-24.896-21.111-37.707c-16.696-30.282-25.041-59.982-25.041-89.1c0-17.857,3.008-33.676,9.027-47.461
		c11.256-25.624,26.205-38.436,44.84-38.436c6.988,0,13.636,2.234,19.945,6.697c6.307,4.468,9.464,9.317,9.464,14.559
		c0,9.126-4.854,13.686-14.559,13.686c-4.272,0-8.444-1.165-12.521-3.494c-12.621,0.582-21.16,14.658-25.623,42.22
		c-0.975,6.02-1.456,13.058-1.456,21.11c0,8.058,1.747,18.007,5.241,29.845c3.494,11.843,7.906,22.375,13.248,31.593
		c5.337,9.222,11.064,19.413,17.18,30.573c6.114,11.165,11.888,21.983,17.324,32.466c12.421,24.268,18.535,52.024,18.344,83.276
		c0.191,24.071-5.341,47.074-16.596,69.008c-5.438,10.873-13.153,19.754-23.148,26.643c-10,6.888-21.402,10.432-34.213,10.628v1.456
		c-16.307-2.33-25.237-9.996-26.789-23.003L1180.248,1473.239z"/>
</g>
</svg>
