<?xml version="1.0" encoding="utf-8"?>
<!-- Generator: Adobe Illustrator 16.0.0, SVG Export Plug-In . SVG Version: 6.00 Build 0)  -->
<!DOCTYPE svg PUBLIC "-//W3C//DTD SVG 1.1//EN" "http://www.w3.org/Graphics/SVG/1.1/DTD/svg11.dtd">
<svg version="1.1" id="Ebene_1" xmlns="http://www.w3.org/2000/svg" xmlns:xlink="http://www.w3.org/1999/xlink" x="0px" y="0px"
	 width="2000px" height="2000px" viewBox="0 0 2000 2000" enable-background="new 0 0 2000 2000" xml:space="preserve">
<g>
	<circle fill="#FF46AF" cx="1000" cy="1000" r="800"/>
</g>
<g enable-background="new    ">
	<path fill="#FFFFFF" d="M611.974,939.541c0,5.344-1.336,9.738-4.006,13.184c-2.674,3.444-6.592,5.17-11.762,5.17
		c-12.755,0-28.781-67.811-48.08-203.435c-2.758-19.988-4.483-31.536-5.17-34.638c-6.551,47.045-11.547,87.673-14.993,121.879
		c-3.449,34.21-5.169,68.113-5.169,101.717c0,3.793-1.596,7.198-4.782,10.211c-3.19,3.013-6.681,4.523-10.469,4.523
		c-12.924,0-19.387-13.441-19.387-40.325c0-16.543-7.282-76.986-21.844-181.332c-14.563-104.343-23.825-161.43-27.787-171.252
		c4.479-8.441,10.768-12.666,18.869-12.666c8.099,0,15.466,18.353,22.102,55.059c6.632,36.706,12.319,81.212,17.061,133.513
		c4.738,52.305,7.193,78.8,7.367,79.485c0.518-4.822,2.282-19.686,5.299-44.59c3.014-24.9,5.385-44.934,7.109-60.1
		c5.17-45.839,7.755-78.408,7.755-97.71v-10.081c0-3.789,1.421-7.452,4.265-10.986c2.844-3.53,6.074-5.299,9.693-5.299
		c12.577,0,18.87,5.17,18.87,15.51v8.013c0,34.121,7.924,83.493,23.781,148.116c6.89,28.265,11.802,50.924,14.733,67.984
		c1.896-19.473,5.341-47.647,10.341-84.527c10.856-80.303,16.284-142.171,16.284-185.599c0-7.754,1.293-13.396,3.877-16.932
		c2.586-3.529,6.807-5.299,12.666-5.299c5.856,0,10.47,1.381,13.83,4.136c3.36,2.759,5.041,6.292,5.041,10.599
		c0,4.31-1.81,8.271-5.428,11.891c0,51.355-6.681,113.608-20.033,186.762C618.651,825.675,611.974,888.016,611.974,939.541z"/>
	<path fill="#FFFFFF" d="M687.467,683.374l-2.843-44.719c0-24.985,7.407-37.481,22.229-37.481c9.477,0,22.4,2.197,38.774,6.592
		c16.37,4.395,24.557,10.04,24.557,16.932c0,7.237-5.17,12.755-15.51,16.544c-16.374-5.515-29.727-8.874-40.065-10.081
		c0.517,7.585,0.774,15.166,0.774,22.747l-2.326,75.997c0,0.348,0.518,3.102,1.552,8.271l18.869-0.774
		c17.062,0,25.592,4.825,25.592,14.476c0,3.793-1.551,7.108-4.653,9.952s-7.024,4.265-11.762,4.265
		c-4.742,0-9.867-0.343-15.38-1.032h-13.442c1.034,13.44,1.551,26.798,1.551,40.065l-2.326,95.9c0,19.818,0.344,29.727,1.034,29.727
		l39.033-1.292c13.441,0,20.163,4.311,20.163,12.925c0,5.344-2.327,9.218-6.979,11.632c-4.652,2.411-9.912,3.619-15.768,3.619
		H705.82c-4.653,0-8.878-1.596-12.666-4.781c-3.793-3.188-5.776-7.021-5.946-11.503v-13.959l-3.36-89.438L687.467,683.374z"/>
	<path fill="#FFFFFF" d="M802.25,884.482l1.551-166.729c0-11.374-1.033-28.733-3.102-52.086c-2.068-23.35-3.103-38.213-3.103-44.591
		c0-6.373,1.979-11.329,5.945-14.863c3.962-3.529,8.183-5.299,12.666-5.299c36.359,0,65.916,21.285,88.663,63.848
		c13.094,24.299,19.646,49.979,19.646,77.031l-1.034,26.625v29.209c0,35.503-1.595,59.195-4.782,71.086
		c-3.191,11.891-6.507,21.803-9.952,29.728c-3.449,7.929-7.585,14.992-12.408,21.195c-11.204,14.133-25.333,25.507-42.393,34.121
		h-38.257C806.729,953.758,802.25,930.667,802.25,884.482z M839.214,914.209v12.666c30.672,0,49.114-31.02,55.317-93.058
		c1.377-14.303,2.067-28.087,2.067-41.358c0-106.5-20.51-162.16-61.521-166.987c-2.585,13.959-3.877,33.132-3.877,57.516
		c0,24.388,1.333,62.516,4.006,114.384C837.877,849.242,839.214,888.189,839.214,914.209z"/>
	<path fill="#FFFFFF" d="M960.46,884.482l1.551-166.729c0-11.374-1.034-28.733-3.102-52.086c-2.068-23.35-3.103-38.213-3.103-44.591
		c0-6.373,1.979-11.329,5.945-14.863c3.962-3.529,8.184-5.299,12.666-5.299c36.358,0,65.915,21.285,88.663,63.848
		c13.094,24.299,19.646,49.979,19.646,77.031l-1.033,26.625v29.209c0,35.503-1.597,59.195-4.781,71.086
		c-3.191,11.891-6.508,21.803-9.953,29.728c-3.449,7.929-7.584,14.992-12.407,21.195c-11.204,14.133-25.333,25.507-42.394,34.121
		h-38.256C964.939,953.758,960.46,930.667,960.46,884.482z M997.425,914.209v12.666c30.672,0,49.114-31.02,55.317-93.058
		c1.377-14.303,2.067-28.087,2.067-41.358c0-106.5-20.51-162.16-61.521-166.987c-2.585,13.959-3.877,33.132-3.877,57.516
		c0,24.388,1.333,62.516,4.006,114.384C996.088,849.242,997.425,888.189,997.425,914.209z"/>
	<path fill="#FFFFFF" d="M1173.729,774.622l2.586,112.445v15.768l-0.26,14.734h6.979l15.251-0.519
		c14.476,0,21.714,4.396,21.714,13.185c0,4.482-1.771,8.315-5.299,11.503c-3.535,3.189-7.627,4.781-12.279,4.781h-23.264
		c-16.027,0-26.282-0.344-30.763-1.033c-2.758,0.348-4.91,0.517-6.462,0.517c-12.581,0-18.87-3.962-18.87-11.891
		c0-3.271,1.034-6.373,3.103-9.307c2.067-2.928,4.137-4.479,6.205-4.651h14.991l1.033-6.979l-3.618-112.443l2.844-117.873
		c0-20.162-0.863-39.117-2.584-56.868h-10.082l-12.148,0.517c-5.17,0-9.221-0.988-12.149-2.973
		c-2.933-1.979-4.395-5.729-4.395-11.244c0-8.099,8.7-12.149,26.108-12.149h63.071c14.302,0,21.454,3.709,21.454,11.115
		c0,3.275-1.551,6.293-4.652,9.047c-3.103,2.76-6.636,4.137-10.599,4.137h-27.142c1.377,14.477,2.067,30.85,2.067,49.113
		L1173.729,774.622z"/>
	<path fill="#FFFFFF" d="M1245.861,736.365l3.102-98.744c0-16.37,6.463-29.379,19.387-39.032v3.36
		c1.379-0.86,2.67-1.293,3.879-1.293c8.271,0,18.611,14.262,31.02,42.78c12.407,28.522,23.607,59.842,33.604,93.962
		c9.992,34.121,19.943,68.546,29.855,103.269c9.907,34.728,16.066,55.104,18.482,61.134c7.063-73.929,10.598-163.452,10.598-268.574
		l-0.775-14.217c0-10.51,4.396-15.769,13.185-15.769c4.995,0,8.743,2.067,11.243,6.204c2.496,4.136,3.748,8.963,3.748,14.476v40.066
		c-0.348,41.531-2.196,96.979-5.558,166.341c-3.36,69.364-7.884,108.525-13.571,117.483c-9.651,2.93-16.328,4.396-20.032,4.396
		c-3.707,0-6.552-1.252-8.529-3.748c-1.983-2.496-3.579-6.333-4.783-11.503c-1.207-5.17-2.239-8.615-3.102-10.34l0.259-2.326
		c0-13.095-12.666-54.712-37.999-124.853c-25.332-70.137-43.685-118.391-55.059-144.757v266.507c0.344,0.69,1.034,1.897,2.067,3.618
		c2.237,3.793,3.36,7.327,3.36,10.6c0,3.274-1.596,6.551-4.782,9.821c-3.191,3.276-6.938,4.912-11.244,4.912
		c-11.548,0-17.318-10.769-17.318-32.313L1245.861,736.365z"/>
	<path fill="#FFFFFF" d="M1589.152,844.416l2.584,56.093c0,17.407-6.073,30.806-18.224,40.195
		c-12.149,9.395-26.325,14.088-42.521,14.088c-24.473,0-42.225-9.132-53.25-27.4c-7.93-12.925-12.926-25.113-14.992-36.575
		c-2.068-11.459-3.534-20.292-4.395-26.496c-0.864-6.203-1.468-14.562-1.811-25.073c-0.689-14.646-1.034-26.451-1.034-35.414
		v-22.747c0-49.801,1.462-81.296,4.396-94.479c2.928-13.184,6.287-25.462,10.08-36.835c3.789-11.374,8.441-20.163,13.959-26.366
		c13.269-15.162,28.604-22.748,46.013-22.748c17.403,0,26.106,4.482,26.106,13.441c0,4.137-1.725,7.54-5.17,10.211
		c-3.449,2.674-7.326,4.007-11.632,4.007l-11.114-1.293c-12.238,0-21.455,12.063-27.66,36.188
		c-8.961,34.469-13.44,76.086-13.44,124.854c0,33.261,1.074,56.137,3.231,68.63c2.151,12.496,4.522,22.965,7.107,31.405
		c2.411,8.619,5.34,15.511,8.789,20.681c8.098,12.237,18.521,18.354,31.277,18.354c17.061,0,25.591-28.087,25.591-84.27v-24.298
		c-2.585-1.377-6.722-2.068-12.407-2.068l-10.34,0.259c-12.238,0-18.354-4.047-18.354-12.148c0-4.996,1.766-8.788,5.299-11.373
		c3.529-2.585,7.795-3.878,12.795-3.878v0.259h7.238c31.705,0,47.563,5.428,47.563,16.285L1589.152,844.416z"/>
</g>
<g enable-background="new    ">
	<path fill="#FFFFFF" d="M724.221,1273.797l0.791-51.385c0-21.958-1.408-38.646-4.216-50.067
		c2.458-12.647,7.288-18.973,14.493-18.973h23.716c20.728,0,35.312,8.608,43.743,25.824c7.378,15.282,11.066,32.853,11.066,52.702
		c0,25.123-0.616,40.539-1.844,46.245c-1.23,5.712-2.549,11.112-3.953,16.206c-1.407,5.098-3.121,9.224-5.139,12.386
		c-2.021,3.161-4.611,6.633-7.773,10.409c-3.161,3.778-6.765,6.981-10.804,9.617c-8.959,5.797-19.763,10.718-32.412,14.756v57.709
		l4.216,102.242c0,4.395-1.845,8.124-5.533,11.199c-3.689,3.072-7.905,4.612-12.648,4.612l-11.331-6.588
		c-4.393-19.851-6.587-46.288-6.587-79.317l2.108-96.182c-2.108-4.743-3.162-9.133-3.162-13.176v-1.845
		C722.463,1313.15,724.221,1297.689,724.221,1273.797z M751.099,1213.189l1.055,105.141v0.79
		c21.431-2.808,32.147-33.202,32.147-91.175c0-17.037-2.107-28.633-6.324-34.783c-4.569-6.497-11.594-9.75-21.08-9.75
		c0-0.527-1.937-0.79-5.797-0.79L751.099,1213.189L751.099,1213.189z"/>
	<path fill="#FFFFFF" d="M966.4,1397.383l5.797,33.203c0,4.393,1.713,15.11,5.139,32.148c3.426,17.041,5.138,28.194,5.138,33.466
		v0.525c0,7.905-2.988,12.999-8.959,15.284c-7.556,0-13.438-1.23-17.654-3.688s-6.324-7.201-6.324-14.229
		c0-15.283-2.635-37.505-7.906-66.668l-53.229-7.904c-3.339,11.947-5.889,25.032-7.643,39.263
		c-1.758,14.229-3.425,24.598-5.006,31.095c-3.162,13.354-9.05,20.026-17.655,20.026c-4.216,0-8.128-1.362-11.727-4.084
		c-3.604-2.723-5.402-6.192-5.402-10.409l1.318-4.743c24.243-93.633,42.248-184.808,54.02-273.524
		c0.351-2.458,0.877-9.659,1.581-21.606c1.755-26.353,5.093-43.126,10.015-50.331h18.182c4.916,0,9.223,1.145,12.912,3.426
		c3.689,2.285,5.534,5.711,5.534,10.275c0,27.405,3.644,68.077,10.936,122.007C962.752,1334.845,966.4,1373.667,966.4,1397.383z
		 M938.205,1408.188c-1.054-5.271-1.581-14.447-1.581-27.536c0-13.085-0.75-29.337-2.24-48.75
		c-1.494-19.409-3.647-41.984-6.456-67.723c-2.813-25.732-4.744-44.401-5.797-55.996c-16.338,90.476-26.878,154.244-31.622,191.31
		C896.656,1403.534,912.553,1406.434,938.205,1408.188z"/>
	<path fill="#FFFFFF" d="M1037.824,1326.235l-0.527,58.499c0,47.608,3.426,85.113,10.277,112.52l-6.062,14.493h-15.02l-7.115-7.905
		c0.35-16.161,0.527-34.298,0.527-54.415c0-20.112-1.541-63.11-4.612-128.987c-3.075-65.879-4.611-115.064-4.611-147.566
		c0-17.038,5.971-25.562,17.919-25.562c18.796,0,34.606,4.921,47.433,14.757c12.821,9.841,19.235,23.894,19.235,42.161v37.945
		c0,10.368-1.936,19.809-5.797,28.328c-3.866,8.521-8.346,17.481-13.438,26.878c-5.099,9.399-7.905,14.625-8.433,15.679
		c1.932,8.786,5.356,26.001,10.276,51.648c10.54,56.041,22.222,96.357,35.048,120.951c3.688,7.027,5.533,12.518,5.533,16.47
		c0,3.953-1.101,7.288-3.294,10.014c-2.198,2.723-5.14,4.084-8.827,4.084c-7.558,0-14.803-8.654-21.74-25.956
		c-6.94-17.301-12.517-36.496-16.731-57.577c-12.826-64.469-20.646-99.957-23.453-106.458H1037.824L1037.824,1326.235z
		 M1039.933,1167.338l-1.845,7.643c0,14.757,0.35,36.061,1.055,63.9c0.699,27.846,1.054,48.091,1.054,60.74
		c8.434-4.391,15.239-15.854,20.423-34.389c5.18-18.532,7.772-32.718,7.772-42.558c0-9.837-0.264-17.083-0.79-21.74
		c-0.526-4.651-1.672-9.791-3.426-15.415C1060.659,1173.926,1052.581,1167.865,1039.933,1167.338z"/>
	<path fill="#FFFFFF" d="M1174.863,1498.308l-1.056-41.37c0-0.174,0.265-6.324,0.791-18.445
		c-1.407-4.566-4.262-45.147-8.563-121.742c-4.307-76.591-6.633-123.41-6.982-140.451c-0.705,0-1.408,0-2.107,0
		c-29.163-0.526-43.743-5.884-43.743-16.074c0-3.334,1.932-6.103,5.797-8.301c3.863-2.193,7.643-3.294,11.332-3.294l73.256,5.007
		l8.695-0.264c11.239,0,16.864,4.307,16.864,12.912c0,4.394-1.845,7.95-5.533,10.672c-3.688,2.726-7.819,4.085-12.386,4.085
		l-24.771-3.688l-1.055,5.532c0,34.084,2.985,85.114,8.961,153.102c5.97,67.984,8.959,119.105,8.959,153.362
		c0,4.217-1.937,7.95-5.798,11.199c-3.866,3.253-8.083,4.875-12.647,4.875L1174.863,1498.308z"/>
	<path fill="#FFFFFF" d="M1331.138,1478.281c0,24.069-5.888,36.101-17.655,36.101c-6.502,0-11.508-3.952-15.02-11.856
		c4.039-7.905,6.061-38.383,6.061-91.438c0-9.659-0.968-23.362-2.897-41.107c-1.937-17.741-3.076-30.391-3.426-37.945v-13.966
		c-0.705-1.582-6.324-15.812-16.865-42.688c-23.893-60.254-35.838-96.182-35.838-107.776v-2.897l12.122-8.96
		c11.066,0.178,24.243,28.022,39.525,83.533c6.674,24.242,10.015,36.455,10.015,36.628c1.403-4.039,4.217-17.479,8.433-40.316
		c10.714-58.323,21.958-87.485,33.729-87.485c3.335,0,6.364,1.055,9.091,3.161c2.722,2.108,4.085,4.834,4.085,8.169
		c0,17.919-5.14,43.965-15.416,78.131c-10.277,34.171-15.593,60.214-15.942,78.133L1331.138,1478.281L1331.138,1478.281z"/>
</g>
</svg>
