<?xml version="1.0" encoding="utf-8"?>
<!-- Generator: Adobe Illustrator 16.0.0, SVG Export Plug-In . SVG Version: 6.00 Build 0)  -->
<!DOCTYPE svg PUBLIC "-//W3C//DTD SVG 1.1//EN" "http://www.w3.org/Graphics/SVG/1.1/DTD/svg11.dtd">
<svg version="1.1" id="Ebene_1" xmlns="http://www.w3.org/2000/svg" xmlns:xlink="http://www.w3.org/1999/xlink" x="0px" y="0px"
	 width="2000px" height="2000px" viewBox="0 0 2000 2000" enable-background="new 0 0 2000 2000" xml:space="preserve">
<circle fill="#7F1D78" cx="1000" cy="1000" r="800"/>
<g id="beach_wedding_3_">
	<g>
		<path display="none" fill="#7F1D78" d="M1909,1025c0,504.796-409.208,914.005-914,914.005c-504.791,0-914-409.209-914-914.005
			c0-504.792,409.209-914,914-914C1499.792,111,1909,520.208,1909,1025z"/>
	</g>
	<g enable-background="new    ">
		<path fill="#FFFFFF" d="M820.585,753.588c0,5.163-1.292,9.408-3.871,12.737c-2.583,3.329-6.369,4.995-11.364,4.995
			c-12.324,0-27.808-65.517-46.454-196.555c-2.666-19.313-4.332-30.47-4.995-33.467c-6.33,45.455-11.157,84.709-14.485,117.758
			c-3.333,33.054-4.995,65.81-4.995,98.277c0,3.664-1.542,6.954-4.621,9.865c-3.083,2.911-6.455,4.371-10.115,4.371
			c-12.488,0-18.731-12.987-18.731-38.962c0-15.983-7.036-74.383-21.104-175.2c-14.072-100.813-23.02-155.97-26.848-165.46
			c4.328-8.156,10.404-12.238,18.232-12.238c7.824,0,14.942,17.732,21.354,53.197c6.408,35.465,11.902,78.465,16.483,128.996
			c4.578,50.536,6.95,76.136,7.118,76.799c0.5-4.659,2.205-19.021,5.12-43.082c2.911-24.059,5.202-43.414,6.868-58.067
			c4.995-44.288,7.492-75.757,7.492-94.406v-9.74c0-3.66,1.374-7.199,4.121-10.614c2.747-3.41,5.869-5.12,9.366-5.12
			c12.152,0,18.232,4.995,18.232,14.985v7.742c0,32.968,7.656,80.67,22.977,143.107c6.657,27.309,11.403,49.201,14.236,65.685
			c1.83-18.813,5.159-46.036,9.99-81.668c10.49-77.587,15.734-137.363,15.734-179.322c0-7.492,1.249-12.943,3.747-16.358
			c2.498-3.41,6.575-5.12,12.238-5.12c5.658,0,10.115,1.335,13.362,3.996c3.247,2.665,4.87,6.08,4.87,10.24
			c0,4.163-1.749,7.992-5.245,11.488c0,49.618-6.455,109.766-19.355,180.445C827.036,643.572,820.585,703.806,820.585,753.588z"/>
		<path fill="#FFFFFF" d="M919.749,456.384l-1.998,127.623c6.158,1.666,15.484,2.497,27.972,2.497h18.481
			c0.831-1.498,1.249-6.993,1.249-16.483s-1.124-30.345-3.372-62.563c-2.248-32.218-3.372-56.483-3.372-72.803
			c0-3.828,1.499-7.032,4.496-9.615c2.997-2.58,5.826-3.871,8.492-3.871c2.661,0,4.827,0.25,6.494,0.749
			c1.662,0.499,3.496,1.167,5.494,1.998c1.998,0.835,3.579,1.417,4.746,1.748c0,44.292,1.623,109.017,4.87,194.182
			c3.247,85.165,4.87,129.165,4.87,131.994c0,2.833-1.791,5.619-5.37,8.366c-3.583,2.747-7.579,4.121-11.988,4.121
			c-4.414,0-7.953-3.247-10.614-9.74c-2.666-6.493-4.457-16.109-5.37-28.847c-0.917-12.737-1.542-23.765-1.873-33.092
			c-0.168-3.996-0.168-8.573,0-13.736c0-6.993,0.082-14.985,0.25-23.977c0.332-15.815,0.5-24.975,0.5-27.473v-1.997l0.75-14.735
			l-2.997-4.746v-0.499c-2.833,0.667-5.912,0.999-9.241,0.999l-32.967-4.745v58.691l2.997,84.166c0,4.831-1.249,9.116-3.747,12.862
			s-6.08,5.619-10.739,5.619c-6.829,0-11.531-6.2-14.111-18.606c-2.583-12.401-3.871-29.346-3.871-50.824l1.499-77.923
			c0-16.147-0.25-25.057-0.75-26.723v-2.498c1.331-17.814,1.998-27.804,1.998-29.97l-3.497-115.386
			c0-3.996,1.413-7.531,4.246-10.614c2.829-3.079,6.244-4.62,10.24-4.62C914.336,425.914,919.749,436.072,919.749,456.384z"/>
		<path fill="#FFFFFF" d="M1036.645,506.084l-2.747-43.207c0-24.14,7.157-36.214,21.479-36.214c9.155,0,21.643,2.123,37.463,6.369
			c15.815,4.245,23.726,9.701,23.726,16.358c0,6.993-4.994,12.323-14.984,15.984c-15.82-5.327-28.722-8.574-38.711-9.74
			c0.499,7.328,0.748,14.653,0.748,21.978l-2.247,73.427c0,0.336,0.499,2.997,1.499,7.992l18.231-0.749
			c16.483,0,24.726,4.663,24.726,13.986c0,3.664-1.499,6.868-4.496,9.615s-6.786,4.121-11.363,4.121
			c-4.582,0-9.533-0.332-14.86-0.999h-12.987c0.999,12.987,1.498,25.892,1.498,38.711l-2.247,92.658
			c0,19.148,0.331,28.722,0.999,28.722l37.713-1.249c12.986,0,19.48,4.164,19.48,12.487c0,5.163-2.248,8.905-6.744,11.239
			c-4.495,2.329-9.576,3.496-15.234,3.496h-43.207c-4.496,0-8.577-1.541-12.238-4.62c-3.664-3.079-5.58-6.782-5.744-11.114V741.85
			l-3.246-86.414L1036.645,506.084z"/>
		<path fill="#FFFFFF" d="M1145.299,557.283l2.996-95.405c0-15.816,6.244-28.386,18.732-37.712v3.246
			c1.33-0.831,2.579-1.248,3.746-1.248c7.992,0,17.982,13.779,29.97,41.334c11.988,27.558,22.81,57.817,32.468,90.784
			c9.654,32.967,19.27,66.227,28.846,99.775c9.573,33.553,15.524,53.24,17.857,59.066c6.826-71.429,10.24-157.925,10.24-259.491
			l-0.749-13.736c0-10.154,4.245-15.235,12.737-15.235c4.827,0,8.448,1.998,10.864,5.994c2.411,3.996,3.621,8.659,3.621,13.986
			v38.711c-0.335,40.128-2.123,93.7-5.37,160.715c-3.246,67.02-7.617,104.857-13.111,113.513
			c-9.326,2.829-15.777,4.245-19.355,4.245c-3.582,0-6.33-1.209-8.242-3.621c-1.916-2.411-3.457-6.119-4.62-11.114
			c-1.167-4.994-2.166-8.323-2.997-9.989l0.25-2.248c0-12.651-12.238-52.861-36.714-120.63
			c-24.476-67.765-42.208-114.386-53.197-139.861v257.494c0.332,0.667,0.999,1.834,1.998,3.496c2.162,3.665,3.247,7.079,3.247,10.24
			c0,3.165-1.541,6.33-4.621,9.49c-3.082,3.165-6.703,4.746-10.863,4.746c-11.157,0-16.734-10.404-16.734-31.22L1145.299,557.283z"
			/>
	</g>
	<g enable-background="new    ">
		<path fill="#FFFFFF" d="M1045.665,1018.34c25.138,0,43.83-2.092,56.078-6.284c9.344,1.934,14.02,6.284,14.02,13.053
			c0,9.026-8.622,13.536-25.864,13.536l-1.449-0.242h-12.328c0,52.694-6.768,87.985-20.305,105.872
			c9.828,10.152,20.305,15.229,31.424,15.229l20.063-1.45l9.186,7.493c0,6.609-2.297,10.998-6.889,13.174
			c-4.594,2.175-10.678,3.263-18.25,3.263c-14.828,0-30.781-6.201-47.86-18.612c-18.532,12.569-35.653,18.854-51.365,18.854
			s-28.968-4.23-39.762-12.69c-10.798-8.46-19.017-18.892-24.655-31.303c-5.643-12.406-8.46-23.809-8.46-34.202
			c0-10.395,0.442-19.579,1.329-27.556c0.884-7.978,1.73-14.783,2.538-20.426c0.805-5.639,2.618-12.527,5.439-20.667
			c2.817-8.135,4.872-13.978,6.164-17.524c1.288-3.705,4.188-10.311,8.702-19.82c5.801-11.924,12.407-25.218,19.821-39.884
			l-3.384-67.922v-41.092c0-12.086,2.9-21.067,8.702-26.951c5.801-5.881,14.02-8.823,24.655-8.823
			c10.635,0,21.35,4.435,32.149,13.295c10.793,8.864,16.194,19.258,16.194,31.182c0,19.82-3.347,37.67-10.031,53.54
			c-6.688,15.874-16.72,31.544-30.094,47.014c-0.646,1.292-2.175,3.626-4.593,7.01c-5.317,7.414-7.977,12.974-7.977,16.679
			c0,14.344,6.081,40.125,18.25,77.35c12.165,37.224,22.6,60.429,31.302,69.614c10.312-23.526,15.47-52.694,15.47-87.502v-2.175
			c-2.417,0-3.95-0.484-4.592-1.451c-0.646-0.967-1.088-1.608-1.33-1.934c-0.242-0.32-0.646-1.167-1.209-2.538
			c-0.566-1.367-0.929-2.213-1.087-2.538V1018.34z M968.315,995.86c-17.404,27.397-26.105,59.625-26.105,96.687
			c0,16.762,3.705,32.069,11.119,45.927c8.218,15.47,21.108,23.205,38.675,23.205c5.317,0,11.844-1.367,19.578-4.109
			c7.736-2.738,13.295-5.802,16.68-9.186C997.805,1104.392,977.822,1053.552,968.315,995.86z M982.335,874.519l0.725,66.473v5.56
			c8.377-10.474,16.516-22.964,24.414-37.467c7.894-14.503,11.845-25.418,11.845-32.752c0-7.331-2.66-15.87-7.978-25.622
			c-5.317-9.748-10.598-14.624-15.832-14.624c-5.239,0-9.631,4.029-13.174,12.086V874.519z"/>
	</g>
	<g enable-background="new    ">
		<path fill="#FFFFFF" d="M807.918,1270.842c0-8.485,4.877-12.73,14.64-12.73c9.758,0,14.64,4.074,14.64,12.221
			c0,11.035-0.426,18.164-1.273,21.387v2.801c-4.754,14.429-7.129,30.385-7.129,47.864v38.19c0,21.729-2.673,54.444-8.02,98.147
			c-5.347,43.708-8.02,75.234-8.02,94.584c0,35.306-6.707,52.957-20.113,52.957c-10.017,0-15.021-7.427-15.021-22.277
			s-0.509-29.828-1.527-44.937c-1.019-15.105-2.673-31.738-4.965-49.902c-2.292-18.16-4.288-33.138-5.983-44.937
			c-1.699-11.795-4.245-28.683-7.638-50.665c-3.397-21.979-5.688-36.873-6.874-44.683c-1.189,11.545-1.782,23.169-1.782,34.88
			c0,11.712-1.317,33.822-3.946,66.323c-2.633,32.506-7.216,65.56-13.749,99.167c-6.536,33.607-13.963,50.411-22.277,50.411
			c-13.41-0.172-23.511-36.575-30.297-109.224c-3.055-31.229-5.772-62.632-8.147-94.202c-6.111-80.792-11.457-126.365-16.04-136.72
			c2.884-6.11,7.893-9.166,15.021-9.166c11.202,0,16.804,12.603,16.804,37.809c0,25.205,3.648,63.649,10.948,115.333
			c7.296,51.685,11.369,89.408,12.221,113.17c14.767-100.65,22.15-177.285,22.15-229.903l14.003-6.11
			c4.241,0,7.893,1.105,10.948,3.31c3.055,2.208,4.583,5.347,4.583,9.42v4.328c9.842,33.44,17.651,81.897,23.423,145.377
			c2.713,29.024,5.259,51.517,7.638,67.469c6.449-48.203,9.675-105.659,9.675-172.364c0-8.823,1.313-21.896,3.946-39.208
			c2.63-17.313,3.946-30.381,3.946-39.209C808.511,1276.697,807.918,1273.729,807.918,1270.842z"/>
		<path fill="#FFFFFF" d="M899.841,1294.773l-2.037,130.101c6.277,1.699,15.785,2.546,28.515,2.546h18.84
			c0.847-1.527,1.273-7.129,1.273-16.803c0-9.675-1.146-30.935-3.437-63.777c-2.292-32.844-3.437-57.58-3.437-74.216
			c0-3.903,1.527-7.169,4.583-9.803c3.055-2.629,5.939-3.946,8.657-3.946c2.713,0,4.921,0.255,6.62,0.764
			c1.694,0.51,3.564,1.189,5.601,2.037c2.037,0.852,3.648,1.444,4.837,1.782c0,45.151,1.655,111.133,4.965,197.951
			c3.31,86.818,4.964,131.672,4.964,134.556c0,2.889-1.826,5.729-5.474,8.529c-3.652,2.801-7.726,4.201-12.221,4.201
			c-4.5,0-8.107-3.31-10.821-9.93c-2.717-6.619-4.543-16.422-5.474-29.406c-0.935-12.984-1.571-24.227-1.91-33.734
			c-0.171-4.073-0.171-8.74,0-14.003c0-7.129,0.083-15.275,0.254-24.441c0.338-16.123,0.509-25.46,0.509-28.006v-2.037l0.764-15.021
			l-3.056-4.837v-0.51c-2.888,0.681-6.027,1.019-9.42,1.019l-33.607-4.837v59.831l3.055,85.8c0,4.925-1.273,9.293-3.819,13.111
			c-2.546,3.819-6.198,5.729-10.948,5.729c-6.961,0-11.755-6.32-14.385-18.967c-2.634-12.643-3.946-29.916-3.946-51.812
			l1.527-79.436c0-16.461-0.254-25.543-0.764-27.242v-2.546c1.356-18.16,2.037-28.344,2.037-30.552l-3.564-117.625
			c0-4.073,1.44-7.678,4.328-10.82c2.884-3.139,6.365-4.71,10.438-4.71C894.324,1263.713,899.841,1274.067,899.841,1294.773z"/>
		<path fill="#FFFFFF" d="M1019.006,1345.439l-2.8-44.046c0-24.608,7.296-36.917,21.896-36.917c9.332,0,22.063,2.164,38.189,6.492
			c16.123,4.328,24.188,9.89,24.188,16.676c0,7.129-5.092,12.563-15.276,16.295c-16.127-5.43-29.278-8.74-39.463-9.93
			c0.509,7.471,0.765,14.938,0.765,22.405l-2.292,74.853c0,0.342,0.509,3.055,1.527,8.146l18.586-0.764
			c16.804,0,25.206,4.754,25.206,14.258c0,3.735-1.528,7.001-4.584,9.802c-3.055,2.801-6.918,4.201-11.584,4.201
			c-4.67,0-9.719-0.338-15.148-1.019h-13.239c1.019,13.239,1.528,26.395,1.528,39.463l-2.292,94.457
			c0,19.521,0.338,29.278,1.019,29.278l38.444-1.272c13.239,0,19.858,4.244,19.858,12.729c0,5.264-2.291,9.078-6.874,11.457
			c-4.583,2.375-9.763,3.564-15.53,3.564h-44.046c-4.583,0-8.744-1.571-12.476-4.71c-3.735-3.139-5.688-6.914-5.855-11.33v-13.748
			l-3.311-88.092L1019.006,1345.439z"/>
		<path fill="#FFFFFF" d="M1155.738,1434.04l-0.509,56.521c0,45.999,3.31,82.236,9.929,108.715l-5.855,14.003h-14.512l-6.875-7.639
			c0.339-15.613,0.51-33.138,0.51-52.574c0-19.434-1.488-60.977-4.455-124.627c-2.973-63.649-4.456-111.173-4.456-142.575
			c0-16.462,5.769-24.696,17.313-24.696c18.16,0,33.436,4.754,45.828,14.257c12.387,9.508,18.585,23.086,18.585,40.736v36.662
			c0,10.018-1.87,19.139-5.601,27.37c-3.736,8.234-8.064,16.891-12.984,25.969c-4.926,9.082-7.639,14.13-8.148,15.148
			c1.866,8.489,5.176,25.122,9.93,49.902c10.184,54.146,21.471,93.1,33.862,116.86c3.563,6.791,5.347,12.094,5.347,15.913
			s-1.063,7.041-3.183,9.675c-2.124,2.629-4.965,3.946-8.529,3.946c-7.3,0-14.302-8.362-21.005-25.078
			c-6.707-16.716-12.094-35.262-16.166-55.63c-12.393-62.29-19.947-96.577-22.66-102.858H1155.738z M1157.775,1280.517l-1.782,7.383
			c0,14.258,0.339,34.841,1.019,61.74c0.676,26.904,1.019,46.465,1.019,58.686c8.147-4.24,14.723-15.315,19.731-33.226
			c5.004-17.905,7.511-31.609,7.511-41.117c0-9.504-0.255-16.506-0.765-21.005c-0.509-4.495-1.615-9.46-3.309-14.894
			C1177.801,1286.881,1169.996,1281.025,1157.775,1280.517z"/>
		<path fill="#FFFFFF" d="M1264.211,1345.439l-2.801-44.046c0-24.608,7.295-36.917,21.896-36.917c9.333,0,22.063,2.164,38.19,6.492
			c16.123,4.328,24.187,9.89,24.187,16.676c0,7.129-5.093,12.563-15.276,16.295c-16.127-5.43-29.279-8.74-39.463-9.93
			c0.51,7.471,0.764,14.938,0.764,22.405l-2.291,74.853c0,0.342,0.51,3.055,1.527,8.146l18.586-0.764
			c16.804,0,25.205,4.754,25.205,14.258c0,3.735-1.527,7.001-4.582,9.802c-3.056,2.801-6.918,4.201-11.585,4.201
			c-4.67,0-9.718-0.338-15.148-1.019h-13.239c1.019,13.239,1.527,26.395,1.527,39.463l-2.291,94.457
			c0,19.521,0.338,29.278,1.018,29.278l38.445-1.272c13.239,0,19.859,4.244,19.859,12.729c0,5.264-2.292,9.078-6.875,11.457
			c-4.582,2.375-9.762,3.564-15.53,3.564h-44.046c-4.583,0-8.744-1.571-12.476-4.71c-3.735-3.139-5.688-6.914-5.855-11.33v-13.748
			l-3.31-88.092L1264.211,1345.439z"/>
	</g>
</g>
</svg>
