<?xml version="1.0" encoding="utf-8"?>
<!-- Generator: Adobe Illustrator 16.0.0, SVG Export Plug-In . SVG Version: 6.00 Build 0)  -->
<!DOCTYPE svg PUBLIC "-//W3C//DTD SVG 1.1//EN" "http://www.w3.org/Graphics/SVG/1.1/DTD/svg11.dtd">
<svg version="1.1" xmlns="http://www.w3.org/2000/svg" xmlns:xlink="http://www.w3.org/1999/xlink" x="0px" y="0px" width="2000px"
	 height="2000px" viewBox="0 0 2000 2000" enable-background="new 0 0 2000 2000" xml:space="preserve">
<g id="Ebene_1">
	<circle fill="#FFFFFF" cx="1000" cy="1000" r="852"/>
</g>
<g id="Layer_2">
	<g>
		<path fill="#FF48B0" d="M431.67,1149.628c-5.72-0.016-10.499-1.959-14.23-5.826c-3.732-3.891-5.594-8.34-5.566-13.395
			c0.019-5.053,2.142-9.633,6.372-13.738c4.239-4.109,9.093-6.158,14.566-6.102c5.481,0.053,10.232,2.1,14.272,6.232
			c4.019,4.133,5.993,8.9,5.972,14.295c-0.044,5.398-2.128,9.85-6.396,13.355C442.446,1147.923,437.463,1149.628,431.67,1149.628z"
			/>
		<path fill="#FF48B0" d="M553.815,1150.126c-5.745-0.008-10.51-1.93-14.243-5.824c-3.71-3.895-5.572-8.342-5.554-13.395
			c0.028-5.055,2.127-9.629,6.381-13.74c4.218-4.105,9.069-6.154,14.543-6.098c5.526,0.023,10.243,2.098,14.273,6.23
			c4.021,4.16,6.006,8.9,5.996,14.295c-0.044,5.396-2.158,9.877-6.396,13.354C564.581,1148.448,559.59,1150.181,553.815,1150.126z"
			/>
		<path fill="#FF48B0" d="M675.954,1150.677c-5.725-0.039-10.528-1.977-14.224-5.852c-3.728-3.867-5.604-8.336-5.577-13.391
			c0.029-5.055,2.141-9.633,6.382-13.742c4.232-4.082,9.083-6.156,14.567-6.102c5.471,0.057,10.219,2.104,14.266,6.258
			c4.025,4.109,5.988,8.879,5.972,14.297c-0.044,5.396-2.133,9.824-6.389,13.33C686.705,1148.976,681.722,1150.685,675.954,1150.677
			z"/>
		<path fill="#FF48B0" d="M761.298,1127.907l3.528-187.948c0.347-82.629-4.226-145.304-13.728-188.047
			c5.876-7.843,13.118-11.785,21.731-11.744c13.938,0.084,26.563,3.071,37.994,8.916c11.374,5.879,20.684,13.645,27.73,23.258
			c14.73,20.141,22.058,43.049,21.94,68.755c-0.072,25.697-6.169,49.054-18.11,69.987c-12.01,20.945-29.555,37.186-52.666,48.747
			l3.676,164.092c-0.063,14.576-6.319,21.814-18.76,21.758c-4.6-0.008-7.947-1.875-10.13-5.564
			C762.349,1136.446,761.28,1132.376,761.298,1127.907z M788.449,934.38c28.648-24.894,43.077-54.547,43.188-89.015l0.004-0.269
			c0.103-19.708-2.402-33.515-7.517-41.45c-2.546-3.75-4.575-6.748-6.124-8.88c-1.569-2.143-4.695-5.007-9.422-8.659
			c-5.649-4.312-14.333-10.434-25.999-18.352c-0.088,18.502,0.9,46.257,2.947,83.315C787.57,888.107,788.54,915.914,788.449,934.38z
			"/>
		<path fill="#FF48B0" d="M992.772,1036.849l5.887,32.424c0.009,4.271,1.759,14.734,5.253,31.412
			c3.505,16.602,5.235,27.529,5.194,32.658l0.013,0.508c-0.041,7.754-3.175,12.672-9.385,14.875c-7.874-0.043-14-1.252-18.383-3.65
			c-4.382-2.4-6.546-7.063-6.53-13.936c0.055-14.918-2.557-36.623-7.949-65.098l-55.37-7.93c-3.544,11.617-6.29,24.383-8.167,38.27
			c-1.906,13.867-3.663,23.969-5.322,30.314c-3.362,12.994-9.507,19.51-18.477,19.455c-4.393,0.006-8.452-1.328-12.192-4.029
			c-3.726-2.68-5.612-6.055-5.595-10.16l1.432-4.633c25.603-91.251,44.771-180.158,57.389-266.71
			c0.381-2.369,0.979-9.389,1.77-21.077c1.918-25.691,5.451-42.027,10.634-49.061l18.953,0.096c5.1,0.007,9.589,1.15,13.438,3.409
			c3.848,2.246,5.723,5.609,5.71,10.043c-0.141,26.741,3.49,66.449,10.889,119.11
			C989.236,975.771,992.883,1013.693,992.772,1036.849z M963.343,1047.259c-1.056-5.141-1.584-14.108-1.532-26.864
			c0.047-12.777-0.61-28.621-2.11-47.598c-1.467-18.935-3.648-40.979-6.418-66.105c-2.789-25.098-4.752-43.369-5.813-54.648
			c-17.37,88.195-28.654,150.365-33.75,186.518C920.114,1042.542,936.628,1045.462,963.343,1047.259z"/>
		<path fill="#FF48B0" d="M1066.919,967.734l-0.797,57.09c-0.192,46.454,3.162,83.062,10.212,109.829l-6.401,14.131l-15.644-0.055
			l-7.39-7.748c0.468-15.785,0.667-33.469,0.781-53.104c0.091-19.635-1.366-61.586-4.256-125.902
			c-2.93-64.262-4.312-112.294-4.201-144.011c0.06-16.627,6.347-24.901,18.787-24.846c19.56,0.08,36.006,4.94,49.353,14.615
			c13.27,9.668,19.933,23.387,19.853,41.197l-0.163,37.051c-0.033,10.105-2.112,19.313-6.166,27.59
			c-4.073,8.307-8.78,17.033-14.121,26.182c-5.316,9.143-8.302,14.23-8.811,15.262c1.97,8.582,5.463,25.404,10.477,50.447
			c10.731,54.726,22.709,94.118,35.984,118.19c3.822,6.889,5.692,12.256,5.707,16.115c-0.043,3.816-1.197,7.068-3.467,9.756
			c-2.325,2.648-5.408,3.963-9.247,3.949c-7.849-0.045-15.356-8.5-22.487-25.445c-7.179-16.936-12.882-35.646-17.204-56.266
			c-13.101-62.949-21.086-97.616-23.973-104.005L1066.919,967.734z M1069.756,812.678l-1.937,7.437
			c-0.063,14.433,0.208,35.22,0.822,62.404c0.614,27.187,0.904,46.927,0.855,59.268c8.784-4.237,15.947-15.414,21.4-33.468
			c5.501-18.061,8.233-31.918,8.283-41.491c0.051-9.575-0.208-16.646-0.728-21.196c-0.522-4.574-1.699-9.572-3.489-15.051
			C1091.339,819.217,1082.94,813.264,1069.756,812.678z"/>
		<path fill="#FF48B0" d="M1208.363,1136.267l-0.952-40.387c0.016-0.195,0.28-6.164,0.896-18.02
			c-1.447-4.441-4.265-44.08-8.414-118.818c-4.175-74.76-6.382-120.47-6.663-137.104c-0.779-0.014-1.53-0.011-2.239-0.037
			c-30.377-0.602-45.519-5.934-45.501-15.844c0.014-3.256,2.062-5.964,6.079-8.08c4.037-2.133,7.989-3.17,11.851-3.174l76.232,5.218
			l9.046-0.201c11.715,0.079,17.616,4.288,17.565,12.695c-0.038,4.28-1.961,7.734-5.841,10.374
			c-3.877,2.664-8.178,3.941-12.938,3.937l-25.794-3.699l-1.116,5.384c-0.118,33.256,2.771,83.054,8.721,149.408
			c5.957,66.399,8.812,116.274,8.699,149.702c-0.015,4.131-2.075,7.775-6.115,10.906c-4.019,3.123-8.44,4.711-13.197,4.707
			L1208.363,1136.267z"/>
		<path fill="#FF48B0" d="M1370.618,1117.409c-0.1,23.494-6.25,35.207-18.521,35.146c-6.778-0.031-11.991-3.896-15.589-11.621
			c4.228-7.674,6.485-37.432,6.711-89.229c0-9.42-0.947-22.786-2.873-40.114c-1.951-17.324-3.094-29.662-3.407-37.062l0.077-13.608
			c-0.742-1.551-6.518-15.468-17.424-41.76c-24.637-58.906-36.915-93.998-36.838-105.303l0.011-2.841l12.655-8.671
			c11.545,0.229,25.15,27.428,40.806,81.693c6.87,23.663,10.303,35.618,10.282,35.791c1.482-3.914,4.46-17.035,8.965-39.301
			c11.421-56.852,23.275-85.275,35.521-85.209c3.448,0.006,6.635,1.049,9.431,3.107c2.848,2.073,4.218,4.757,4.229,8.009
			c-0.084,17.495-5.571,42.908-16.397,76.161c-10.891,33.31-16.5,58.697-16.928,76.177L1370.618,1117.409z"/>
		<path fill="#FF48B0" d="M1471.568,1139.179c-0.073,12.346-9.339,18.484-27.804,18.416c-4.224,0-8.353-1.906-12.49-5.586
			c-4.068-3.713-6.103-8.615-6.074-14.691c0.028-6.074,2.34-11.559,6.938-16.432c4.578-4.869,10.288-7.303,17.043-7.268
			c6.756,0.037,12.229,2.568,16.268,7.549C1469.534,1126.142,1471.56,1132.161,1471.568,1139.179z M1464.452,1006.203l0.415,24.963
			c-0.067,23.999-3.6,35.978-10.548,35.948c-3.838-0.014-7.381-4.352-10.51-12.906c-3.188-8.596-4.727-19.409-4.672-32.433
			l2.543-87.146l-1.998-172.796c0.049-5.508,2.505-10.276,7.475-14.239c4.963-4.012,9.916-6.029,14.873-6.009
			c4.907,0.017,8.714,1.299,11.389,3.79c2.597,2.465,3.961,5.526,3.961,9.158c-0.135,28.088-2.289,70.086-6.442,125.964
			C1466.733,936.361,1464.565,978.266,1464.452,1006.203z"/>
		<path fill="#FF48B0" d="M1550.046,1139.526c-0.048,12.342-9.336,18.51-27.805,18.393c-4.227,0.002-8.326-1.861-12.444-5.59
			c-4.093-3.709-6.147-8.586-6.098-14.689c0.003-6.07,2.315-11.555,6.938-16.43c4.579-4.846,10.267-7.279,17.022-7.244
			c6.754,0.037,12.225,2.545,16.311,7.52C1548.063,1126.507,1550.089,1132.526,1550.046,1139.526z M1542.956,1006.55l0.432,24.934
			c-0.11,24.031-3.64,36.008-10.617,35.961c-3.815-0.018-7.302-4.313-10.482-12.885c-3.188-8.598-4.707-19.439-4.652-32.461
			l2.522-87.122l-1.951-172.802c-0.019-5.483,2.507-10.277,7.448-14.26c4.941-3.983,9.896-6,14.83-5.977
			c4.955,0.021,8.734,1.27,11.387,3.776c2.65,2.494,3.939,5.556,3.963,9.172c-0.133,28.111-2.26,70.104-6.445,125.941
			C1545.186,936.692,1543.091,978.607,1542.956,1006.55z"/>
	</g>
</g>
</svg>
