<?xml version="1.0" encoding="utf-8"?>
<!-- Generator: Adobe Illustrator 16.0.0, SVG Export Plug-In . SVG Version: 6.00 Build 0)  -->
<!DOCTYPE svg PUBLIC "-//W3C//DTD SVG 1.1//EN" "http://www.w3.org/Graphics/SVG/1.1/DTD/svg11.dtd">
<svg version="1.1" xmlns="http://www.w3.org/2000/svg" xmlns:xlink="http://www.w3.org/1999/xlink" x="0px" y="0px" width="2000px"
	 height="2000px" viewBox="0 0 2000 2000" enable-background="new 0 0 2000 2000" xml:space="preserve">
<g id="Ebene_1">
	<path fill="#7F1D78" d="M1994,896C1936,346,1444-52,896,6C346,64-52,556,6,1104c58,550,550,948,1098,890
		C1654,1936,2052,1444,1994,896z"/>
	<g>
		<path fill="#FFFFFF" d="M727.109,1607.816l-61.181-270.724c-6.86-27.169-21.447-66.25-43.712-117.242
			c-22.256-50.991-37.524-92.642-45.698-125.026c-8.165-32.386-23.696-70.338-46.516-113.992
			c-22.83-43.616-45.737-82.268-68.693-115.978c-60.401-88.321-99.287-166.871-116.687-235.73
			c-1.713-6.772,0.817-13.564,7.512-20.318c6.734-6.773,14.412-11.21,23.005-13.39c8.602-2.18,20.465,6.15,35.567,24.951
			c15.113,18.84,30.955,43.752,47.411,74.736c16.543,31.022,32.473,62.144,47.829,93.42c15.375,31.295,29.943,61.715,43.674,91.24
			c13.711,29.524,23.073,48.5,28.094,56.869c-0.273-8.641-2.988-28.532-8.243-59.711c-5.226-31.18-10.325-63.272-15.307-96.242
			c-4.583-33.514-8.34-67.263-11.143-101.244c-6.656-77.792,2.375-119.831,27.043-126.059c24.669-6.248,38.263-4.379,40.793,5.565
			c13.157,52.083,21.682,132.559,25.613,241.414c3.883,108.854,12.612,189.993,26.128,243.476l8.087,49.24l5.342,21.097
			l100.708,366.946l22.295,68.08l7.892,31.257c3.075,12.223,0.944,23.237-6.451,33.048c-7.396,9.808-16.543,16.114-27.403,18.839
			c-10.86,2.725-20.669,1.752-29.359-3.036C735.099,1624.477,729.542,1617.314,727.109,1607.816z"/>
		<path fill="#FFFFFF" d="M966.779,1023.28l-34.992,7.396c-13.595,3.425-22.217,9.226-25.963,17.399l108.513,429.304
			c46.886-14.714,72.361-22.615,76.41-23.667c53.015-13.39,82.579-7.862,88.749,16.621l1.226,4.749
			c-3.114,14.285-11.522,26.741-25.242,37.446c-13.683,10.666-26.256,17.944-37.816,21.876
			c-11.561,3.853-26.586,8.135-45.172,12.845l-43.499,10.977c-34.409,8.759-57.404,7.319-69.005-4.243
			c-5.215-5.371-9.146-13.312-11.794-23.705L743.896,721.884c-4.009-15.843-13.118-38.594-27.364-68.235
			c-14.256-29.662-23.442-52.627-27.568-68.937l-1.216-4.748c9.031-29.253,16.426-48.463,22.304-57.649l100.144-38.341
			c14.053-3.542,29.281-2.938,45.62,1.83c16.388,4.769,26.304,13.955,29.738,27.539c6.978,27.617-10.587,46.769-52.714,57.395
			l-40.404,8.778c-6.812,1.713-11.716,3.211-14.782,4.457l68.897,226.855c4.7,18.587,10.422,45.931,17.117,82.035
			c6.733,36.141,12.134,62.338,16.261,78.628c4.749-2.161,11.142-5.431,19.2-9.907c17.75-9.769,31.957-16.036,42.583-18.684
			c10.666-2.725,21.146-1.265,31.451,4.321c10.325,5.566,16.855,13.799,19.609,24.679c2.783,10.859,1.829,21.447-2.813,31.763
			C985.318,1014.016,977.65,1020.555,966.779,1023.28z"/>
		<path fill="#FFFFFF" d="M1230.04,1481.427c-6.307-24.912,0.973-39.977,21.798-45.271c10.432-2.606,24.989-2.568,43.752,0.157
			c18.761,2.763,34.37,2.53,46.826-0.623s23.938-14.481,34.41-33.982c10.471-19.501,16.815-42.077,19.034-67.69
			c4.632-52.237,2.044-97.701-7.747-136.432c-9.809-38.729-27.092-78.551-51.887-119.5c-24.834-40.948-51.906-78.434-81.197-112.455
			c-29.311-34.02-58.855-68.001-88.633-101.905c-70.57-80.926-115.295-159.71-134.174-236.353
			c-18.742-72.362-10.276-134.954,25.534-187.852c18.957-27.91,44.959-46.05,78.006-54.398c16.777-4.225,34.216-3.717,52.433,1.537
			c18.178,5.313,32.347,14.596,42.467,27.949l-16.212,35.888c-23.083,5.839-42.351,5.878-57.745,0.176
			c-16.738,6.149-29.622,18.08-38.652,35.771c-16.349,32.562-19.541,68.431-9.653,107.57c9.887,39.198,24.522,76.079,43.867,110.703
			c19.347,34.604,40.211,64.731,62.592,90.423c22.382,25.651,46.554,53.521,72.44,83.571c26.391,29.953,51.05,58.894,74.016,86.804
			c53.405,64.537,90.851,139.39,112.376,224.558c15.569,59.633,14.947,120.979-1.868,184.037
			c-7.883,29.934-22.343,56.559-43.421,79.953c-21.058,23.432-47.216,39.041-78.473,46.942
			c-33.515,8.486-61.151,10.159-82.911,5.062C1245.26,1500.968,1232.9,1492.716,1230.04,1481.427z"/>
		<path fill="#FFFFFF" d="M1595.389,1013.977l18.023,65.55c16.037,63.408,15.434,97.274-1.752,101.634
			c-9.557,2.412-21.116-6.734-34.76-27.365c-13.643-20.631-24.835-48.149-33.534-82.599l-52.763-231.642l-122.146-454.761
			c-3.717-14.481-0.74-28.609,8.777-42.311c9.557-13.741,20.377-22.149,32.678-25.263c12.203-3.094,22.42-2.18,30.673,2.726
			c8.193,4.903,13.546,12.105,15.92,21.641c18.782,74.27,41.941,186.431,69.54,336.546
			C1553.623,828.227,1576.745,940.155,1595.389,1013.977z M1703.212,1360.37c8.214,32.619-10.511,54.689-56.246,66.25
			c-10.433,2.608-21.954,0.352-34.605-6.811c-12.631-7.162-21.02-18.763-25.067-34.839c-4.087-16.115-2.063-31.996,5.995-47.761
			c8.076-15.765,20.474-25.768,37.212-30.012c16.777-4.242,31.88-1.09,45.386,9.498
			C1689.394,1327.245,1698.502,1341.803,1703.212,1360.37z"/>
	</g>
</g>
<g id="Layer_2">
</g>
</svg>
